<svg width="122" height="122" viewBox="0 0 122 122" fill="none" xmlns="http://www.w3.org/2000/svg">
<rect x="0.5" y="0.5" width="121" height="121" rx="5.5" fill="#006197" stroke="#E8F2F6"/>
<path d="M30.054 101.064L31.17 99.696C31.728 100.2 32.52 100.506 33.33 100.506C34.788 100.506 35.832 99.444 35.832 97.644V89.4H37.722V97.932C37.722 100.524 35.904 102.216 33.42 102.216C32.052 102.216 30.9 101.838 30.054 101.064ZM40.3957 91.542C39.7657 91.542 39.2977 91.074 39.2977 90.444C39.2977 89.85 39.7657 89.364 40.3957 89.364C40.9897 89.364 41.4577 89.85 41.4577 90.444C41.4577 91.074 40.9897 91.542 40.3957 91.542ZM41.2957 92.82V102H39.4777V92.82H41.2957ZM43.0636 98.688V92.82H44.8816V98.346C44.8816 99.624 45.7456 100.578 47.0416 100.578C48.3556 100.578 49.2916 99.642 49.2916 98.274V92.82H51.1096V102H49.2916V100.974C48.6616 101.748 47.6896 102.18 46.5916 102.18C44.4856 102.18 43.0636 100.65 43.0636 98.688ZM55.6478 101.064L56.7638 99.696C57.3218 100.2 58.1138 100.506 58.9238 100.506C60.3818 100.506 61.4258 99.444 61.4258 97.644V89.4H63.3158V97.932C63.3158 100.524 61.4978 102.216 59.0138 102.216C57.6458 102.216 56.4938 101.838 55.6478 101.064ZM65.9895 91.542C65.3595 91.542 64.8915 91.074 64.8915 90.444C64.8915 89.85 65.3595 89.364 65.9895 89.364C66.5835 89.364 67.0515 89.85 67.0515 90.444C67.0515 91.074 66.5835 91.542 65.9895 91.542ZM66.8895 92.82V102H65.0715V92.82H66.8895ZM73.6614 102H71.9154C70.4934 102 69.7374 101.172 69.7374 100.02V94.422H67.9914V92.82H69.7374V90.12H71.5554V92.82H73.6614V94.422H71.5554V99.624C71.5554 100.128 71.8974 100.398 72.4554 100.398H73.6614V102ZM76.3603 95.43C76.3603 96.132 77.1523 96.51 78.1423 96.78C79.5463 97.086 81.4183 97.608 81.4003 99.534C81.4003 100.344 81.0763 101.01 80.4463 101.496C79.8163 101.982 79.0243 102.234 78.0343 102.234C76.2883 102.234 74.9743 101.406 74.4523 100.128L75.8023 99.354C76.0903 100.218 76.9363 100.758 78.0343 100.758C79.0603 100.758 79.8163 100.38 79.8163 99.534C79.8163 98.832 79.0243 98.436 78.0343 98.202C76.6123 97.824 74.7763 97.356 74.7763 95.448C74.7763 94.674 75.0823 94.026 75.6763 93.522C76.2883 93.018 77.0443 92.766 77.9623 92.766C79.4203 92.766 80.6263 93.468 81.2023 94.638L79.8883 95.376C79.5643 94.602 78.9163 94.224 77.9623 94.224C77.0803 94.224 76.3603 94.656 76.3603 95.43ZM82.9484 98.688V92.82H84.7664V98.346C84.7664 99.624 85.6304 100.578 86.9264 100.578C88.2404 100.578 89.1764 99.642 89.1764 98.274V92.82H90.9944V102H89.1764V100.974C88.5464 101.748 87.5744 102.18 86.4764 102.18C84.3704 102.18 82.9484 100.65 82.9484 98.688Z" fill="white"/>
<a href="https://www.liveabout.com/history-style-guide-tae-kwon-do-2308282">
<rect fill="black" fill-opacity="0" x="8.5957" y="0.763" width="53.2807" height="21.474"/>
</a>
<path d="M48.1967 28.0812L48.1967 28.0812C45.5727 27.2648 44.1065 24.475 44.9227 21.8499C45.7389 19.2248 48.5273 17.7591 51.151 18.5753L51.1511 18.5754C53.7747 19.3912 55.2407 22.1807 54.4251 24.806C54.2815 25.2675 54.0767 25.6922 53.8228 26.0752C52.014 25.9776 50.2166 26.767 49.0764 28.2692C48.7826 28.2338 48.4885 28.172 48.1967 28.0812Z" stroke="white" stroke-width="1.8" stroke-linejoin="round"/>
<path d="M76.0774 21.8491L76.0774 21.8489C75.2618 19.2251 72.473 17.7594 69.8489 18.5751C67.2251 19.3907 65.7594 22.1794 66.575 24.8036L76.0774 21.8491ZM76.0774 21.8491C76.8935 24.4729 75.4277 27.2613 72.8036 28.0776L76.0774 21.8491ZM72.8035 28.0776C70.1795 28.8932 67.3913 27.4277 66.5751 24.8037L72.8035 28.0776Z" stroke="white" stroke-width="1.8" stroke-linejoin="round"/>
<path d="M95.8741 74.2159L95.8741 74.216C96.4492 75.4947 95.8882 76.9938 94.6459 77.5683L94.6455 77.5684C93.4096 78.1406 91.9424 77.5914 91.3709 76.321L86.0359 64.4541C86.0359 64.454 86.0359 64.454 86.0359 64.454C85.8876 64.1239 85.8104 63.7648 85.8104 63.4016V55.3548C85.8104 55.0969 85.6998 54.8514 85.5067 54.6806C85.3135 54.5098 85.0563 54.43 84.8004 54.4615L81.6117 54.8542C81.3803 54.8827 81.1689 55 81.0222 55.1812L74.3292 63.4494C74.2371 63.5632 74.1741 63.6977 74.1458 63.8414L71.7916 75.767L72.6746 75.9413L71.7916 75.767C71.5189 77.1489 70.2021 78.0149 68.8795 77.7459L68.8792 77.7459C67.5469 77.4753 66.6626 76.1506 66.9354 74.7702L66.9354 74.77L69.4551 62.0051L69.4552 62.0045C69.5356 61.596 69.7137 61.2154 69.9728 60.896L69.9734 60.8953L77.4982 51.5996C77.7061 51.3426 77.7565 50.9923 77.6294 50.6872L74.5171 43.2173C74.3905 42.9134 74.108 42.7029 73.7806 42.6684C73.4532 42.6339 73.133 42.781 72.9459 43.0519L70.3819 46.7632C69.9794 47.3457 69.2872 47.6208 68.6215 47.4932L68.6214 47.4931L64.0936 46.6253C64.9964 45.7535 65.6037 44.5833 65.7737 43.2902L67.5837 43.6372C67.934 43.7044 68.2909 43.5583 68.4936 43.2649L71.5295 38.8703L71.7985 38.7121L71.7992 38.7116L73.4357 37.747C73.8291 37.5151 73.9864 37.0253 73.8017 36.6076C73.617 36.19 73.1487 35.9769 72.7125 36.1119C69.2434 37.1858 67.1958 37.8328 65.9593 38.2235C65.6083 38.3344 65.3226 38.4246 65.0884 38.4982C64.7321 38.6099 64.5062 38.6793 64.3537 38.7233C63.2863 37.5483 61.7348 36.8374 60.0467 36.9002L53.0162 32.8475L53.0161 32.8475C52.1712 32.3605 51.8659 31.2603 52.3535 30.39C52.837 29.5269 53.9069 29.235 54.7442 29.7171L63.6864 34.8716C63.9041 34.9971 64.1645 35.0258 64.4044 34.9508L71.4402 32.7513C71.6353 32.6904 71.8037 32.5648 71.9178 32.3955L71.9234 32.3877C71.9311 32.3771 71.9463 32.3569 71.969 32.3291C72.0144 32.2732 72.0891 32.1879 72.1934 32.0887C72.4029 31.8895 72.7238 31.6416 73.1616 31.457L73.1617 31.457L73.1665 31.4549L75.4193 30.4891L75.4194 30.4891C79.4556 28.7586 84.1051 30.8802 85.5 35.117L90.7644 52.1596V62.6572C90.7644 62.7844 90.7913 62.9102 90.8435 63.0262L95.8741 74.2159Z" stroke="white" stroke-width="1.8" stroke-linejoin="round"/>
<path d="M47.8943 45.5458L47.8947 45.5458L60.4349 44.4786C60.435 44.4786 60.435 44.4786 60.4351 44.4786C61.4235 44.3942 62.152 43.5281 62.0679 42.5482L62.0679 42.5479C61.9842 41.5683 61.1178 40.8372 60.1302 40.9211C60.1302 40.9211 60.1301 40.9211 60.1301 40.9211L49.3836 41.8361C49.021 41.867 48.6755 41.6765 48.5081 41.3533L45.3691 35.2942C45.159 34.8885 45.2861 34.3898 45.6647 34.1342C46.0434 33.8786 46.5535 33.9473 46.8511 34.2939L49.3766 37.2352L49.9028 35.9929L49.903 35.9926C49.9525 35.8757 49.9947 35.7575 50.0298 35.6382C48.9004 34.6078 48.2594 33.1767 48.2038 31.6967C48.1279 31.6623 48.0389 31.6238 47.9294 31.5776C47.82 31.5314 47.6899 31.4774 47.5337 31.4126C47.1543 31.2552 46.6211 31.0339 45.8589 30.7062C41.7556 28.9782 37.0401 31.1046 35.6311 35.3184C34.0687 40.1331 32.7269 44.404 31.7758 47.4713C31.3001 49.0053 30.9221 50.2382 30.6632 51.0873C30.5337 51.5118 30.434 51.8405 30.3667 52.0628L30.3027 52.2743V62.7279C30.3027 62.857 30.2749 62.9847 30.2212 63.1021L25.1275 74.2421C24.5516 75.502 25.1077 76.9911 26.3739 77.5669L26.3741 77.567C27.6439 78.145 29.1371 77.5832 29.7124 76.3246L29.7124 76.3244L35.1145 64.5099C35.264 64.1829 35.3415 63.8277 35.3415 63.469V55.4578C35.3415 55.2002 35.4518 54.955 35.6446 54.7842C35.8373 54.6134 36.094 54.5333 36.3497 54.5643L39.5784 54.9552C39.808 54.983 40.0181 55.0981 40.165 55.2767L46.9421 63.5083C47.0362 63.6225 47.1006 63.7581 47.1297 63.9031L49.514 75.7759L49.514 75.776C49.7869 77.1357 51.1139 78.0176 52.479 77.7453L47.8943 45.5458ZM47.8943 45.5458C47.1708 45.6077 46.4821 45.2276 46.1497 44.5864L42.4091 37.3657C42.2002 36.9625 41.7236 36.778 41.2977 36.9357C40.8717 37.0933 40.63 37.5435 40.7339 37.9856L42.6431 46.1088C42.6431 46.1089 42.6432 46.1091 42.6432 46.1093C42.9041 47.2216 43.5848 48.155 44.4959 48.753L43.6266 50.8042C43.4957 51.1129 43.5473 51.4687 43.7604 51.7275L51.38 60.9817C51.6425 61.3009 51.8217 61.6782 51.9025 62.0817L51.9026 62.0823M47.8943 45.5458L51.9026 62.0823M51.9026 62.0823L54.4545 74.7906M51.9026 62.0823L54.4545 74.7906M54.4545 74.7906C54.7269 76.1478 53.8451 77.4719 52.4793 77.7452L54.4545 74.7906Z" stroke="white" stroke-width="1.8" stroke-linejoin="round"/>
</svg>
