<svg width="122" height="122" viewBox="0 0 122 122" fill="none" xmlns="http://www.w3.org/2000/svg">
<rect x="0.5" y="0.5" width="121" height="121" rx="5.5" fill="#3D86AF" stroke="#E8F2F6"/>
<path d="M33.954 92.4H35.844V97.962L41.208 92.4H43.584L37.5 98.628L43.71 105H41.172L35.844 99.474V105H33.954V92.4ZM51.888 97.548V96H53.454V105H51.888V103.452C51.114 104.64 49.98 105.234 48.486 105.234C47.226 105.234 46.146 104.784 45.264 103.866C44.382 102.948 43.932 101.814 43.932 100.5C43.932 99.186 44.382 98.07 45.264 97.152C46.146 96.234 47.226 95.766 48.486 95.766C49.98 95.766 51.114 96.36 51.888 97.548ZM48.684 103.722C49.602 103.722 50.358 103.416 50.97 102.804C51.582 102.174 51.888 101.418 51.888 100.5C51.888 99.582 51.582 98.826 50.97 98.214C50.358 97.584 49.602 97.278 48.684 97.278C47.784 97.278 47.028 97.584 46.416 98.214C45.804 98.826 45.498 99.582 45.498 100.5C45.498 101.418 45.804 102.174 46.416 102.804C47.028 103.416 47.784 103.722 48.684 103.722ZM60.217 97.44H59.461C58.255 97.44 57.409 98.34 57.409 99.78V105H55.591V95.82H57.391V96.954C57.841 96.216 58.579 95.748 59.587 95.748H60.217V97.44ZM68.517 97.548V96H70.083V105H68.517V103.452C67.743 104.64 66.609 105.234 65.115 105.234C63.855 105.234 62.775 104.784 61.893 103.866C61.011 102.948 60.561 101.814 60.561 100.5C60.561 99.186 61.011 98.07 61.893 97.152C62.775 96.234 63.855 95.766 65.115 95.766C66.609 95.766 67.743 96.36 68.517 97.548ZM65.313 103.722C66.231 103.722 66.987 103.416 67.599 102.804C68.211 102.174 68.517 101.418 68.517 100.5C68.517 99.582 68.211 98.826 67.599 98.214C66.987 97.584 66.231 97.278 65.313 97.278C64.413 97.278 63.657 97.584 63.045 98.214C62.433 98.826 62.127 99.582 62.127 100.5C62.127 101.418 62.433 102.174 63.045 102.804C63.657 103.416 64.413 103.722 65.313 103.722ZM76.802 105H75.056C73.634 105 72.878 104.172 72.878 103.02V97.422H71.132V95.82H72.878V93.12H74.696V95.82H76.802V97.422H74.696V102.624C74.696 103.128 75.038 103.398 75.596 103.398H76.802V105ZM77.4326 100.41C77.4326 97.818 79.4666 95.64 82.1486 95.64C84.8126 95.64 86.7386 97.674 86.7386 100.41V101.004H79.2686C79.5026 102.498 80.7806 103.614 82.3106 103.614C83.4086 103.614 84.2906 103.164 84.9566 102.264L86.2706 103.236C85.3526 104.46 83.9846 105.198 82.3106 105.198C79.5746 105.198 77.4326 103.146 77.4326 100.41ZM82.1126 97.224C80.7446 97.224 79.6466 98.142 79.3046 99.564H84.9026C84.5966 98.142 83.4806 97.224 82.1126 97.224Z" fill="white"/>
<mask id="path-3-inside-1_1562_11233" fill="white">
<path d="M90.0805 33.6928C87.5212 31.1336 83.3572 31.1336 80.7979 33.6928L80.1103 34.3803C79.1814 35.3092 78.5914 36.4498 78.3369 37.6483L78.1308 37.4422C76.5052 35.8166 74.14 35.2561 71.958 35.9794L66.7841 37.6939C66.3547 37.8362 65.8891 37.726 65.569 37.406L62.014 33.851C61.5393 33.3763 60.7696 33.3763 60.2949 33.851L60.1692 33.9767L58.5629 32.3704C58.6305 31.3882 58.2907 30.383 57.5415 29.6339L56.2528 28.3453C54.8783 26.9709 52.6422 26.9709 51.2676 28.3453L49.276 30.3369C47.9016 31.7113 47.9016 33.9477 49.276 35.3221L50.5648 36.6109C51.252 37.2979 52.1548 37.6416 53.0574 37.6416C53.1389 37.6416 53.2202 37.6379 53.3014 37.6323L54.9077 39.2386L54.8053 39.341C54.3306 39.8157 54.3306 40.5854 54.8053 41.0602L55.7153 41.9702L41.2192 34.0206C41.075 33.9414 40.9201 33.8946 40.7636 33.878L35.6559 30.6902C34.1875 29.7737 32.3074 29.9884 31.0835 31.2123C30.2818 32.014 29.8956 33.12 30.0243 34.2464C30.1531 35.3728 30.7784 36.3632 31.7402 36.9636L35.5508 39.342C35.6265 39.6033 35.7877 39.8345 36.0133 39.9947L40.7335 43.3478C41.2807 43.7365 42.0395 43.608 42.4283 43.0608C42.817 42.5136 42.6887 41.7547 42.1413 41.366L38.594 38.8461L40.8496 36.5905L60.1919 47.1975L55.0247 50.4424L48.739 46.1247C48.1856 45.7446 47.429 45.8851 47.0487 46.4384C46.6686 46.9917 46.8091 47.7486 47.3625 48.1287L52.7817 51.8512L52.7623 51.8633C52.4486 52.0603 52.2418 52.3897 52.2008 52.758C52.1597 53.1262 52.2889 53.493 52.5515 53.7543L58.9405 60.1109V78.2454V81.6475C58.9405 83.3231 60.3036 84.6863 61.9793 84.6863H72.3034C72.9748 84.6863 73.5189 84.1421 73.5189 83.4708V83.1075C73.5189 79.8905 71.0061 77.2508 67.8404 77.0445L71.4938 60.5882L72.5003 61.5948C73.1875 62.2818 74.0903 62.6255 74.9929 62.6255C75.8955 62.6255 76.7983 62.2818 77.4855 61.5948L78.5287 60.5515C78.5981 60.4821 78.6635 60.4099 78.7263 60.3357L84.9712 54.1411C86.3288 52.7944 87.0788 50.9997 87.0826 49.0874C87.0853 47.7844 86.7407 46.5352 86.0937 45.4433C87.3035 45.1924 88.4561 44.6 89.3931 43.663L90.0807 42.9754C92.6397 40.4161 92.6397 36.2518 90.0805 33.6928ZM36.7668 37.2352L33.0273 34.9013C32.698 34.6956 32.4836 34.3563 32.4397 33.9705C32.3957 33.5847 32.5279 33.2058 32.8025 32.9313C33.048 32.6857 33.3705 32.5588 33.6967 32.5588C33.9275 32.5588 34.1602 32.6224 34.3686 32.7525L38.6053 35.3967L36.7668 37.2352ZM78.8916 41.9758C79.1979 42.5844 79.6029 43.1555 80.1103 43.6629C80.3355 43.8881 80.5737 44.0924 80.8217 44.278L77.5716 44.8974L78.8916 41.9758ZM53.831 34.8917C53.4045 35.3183 52.7104 35.3183 52.2839 34.8917L50.9951 33.6029C50.5686 33.1764 50.5686 32.4823 50.9951 32.0558L52.9867 30.0642C53.1999 29.8508 53.48 29.7443 53.7602 29.7443C54.0404 29.7443 54.3204 29.8508 54.5338 30.0642L55.8226 31.353C56.2491 31.7795 56.2491 32.4736 55.8226 32.9001L53.831 34.8917ZM55.6337 36.5266L57.4575 34.703L58.4376 35.6832L56.6139 37.5068L55.6337 36.5266ZM70.9871 82.2551H61.9792C61.6442 82.2551 61.3714 81.9824 61.3714 81.6474V79.4608H66.3284H67.4411C69.1585 79.4608 70.6024 80.654 70.9871 82.2551ZM65.3531 77.0298H61.3713V62.5294L64.6962 65.8374C64.9253 66.0653 65.2341 66.1912 65.5535 66.1912C65.5993 66.1912 65.6454 66.1887 65.6915 66.1835C66.0585 66.1416 66.3867 65.9349 66.5831 65.622L68.5987 62.4104L65.3531 77.0298ZM67.7808 59.1403L64.8461 56.2056C64.3714 55.7309 63.6017 55.7309 63.1271 56.2056C62.6524 56.6803 62.6524 57.45 63.1271 57.9248L66.4551 61.2528L65.3325 63.0415L55.3496 53.1092L62.4184 48.6702L69.7649 55.9795L67.7808 59.1403ZM70.925 53.7042L63.9505 46.765L68.8773 45.6565C69.5322 45.5092 69.9437 44.8588 69.7965 44.2039C69.649 43.5489 68.9986 43.1376 68.3439 43.2847L61.9146 44.7312L57.3836 40.2002L61.1544 36.4293L63.8499 39.125C64.8238 40.099 66.2411 40.435 67.5487 40.0015L72.7226 38.2868C74.0264 37.8546 75.4402 38.1896 76.4115 39.161L77.1583 39.9076L70.925 53.7042ZM76.9153 58.7076L76.519 59.1006C76.473 59.1462 76.4327 59.1954 76.3954 59.2463L75.766 59.8757C75.3398 60.3022 74.6457 60.3022 74.2192 59.8756L72.511 58.1673C72.3086 57.9651 72.2034 57.7026 72.1931 57.4369L72.3153 56.8865C72.3654 56.7907 72.4306 56.7008 72.511 56.6204L73.5542 55.5771C73.7676 55.3638 74.0476 55.2572 74.3277 55.2572C74.4492 55.2572 74.5703 55.2785 74.6862 55.3186C74.8042 55.4253 74.9376 55.5051 75.0791 55.5572C75.0863 55.5639 75.094 55.57 75.1012 55.5771L76.8094 57.2854C77.016 57.492 77.1298 57.7667 77.1298 58.0589C77.1297 58.2958 77.0538 58.5207 76.9153 58.7076ZM83.2591 52.4151L79.1793 56.462C79.013 56.1354 78.7952 55.8329 78.5286 55.5662L77.2998 54.3375L79.2365 52.4009C79.7112 51.9262 79.7112 51.1565 79.2365 50.6817C78.7618 50.207 77.9921 50.207 77.5173 50.6817L75.2491 52.9499C74.8352 52.8386 74.4052 52.8028 73.9812 52.8443L76.3482 47.6054L83.6791 46.2081C84.3113 47.0289 84.6536 48.0289 84.6514 49.0822C84.6489 50.3436 84.1545 51.527 83.2591 52.4151ZM88.3615 41.2563L87.6739 41.9438C86.0627 43.5552 83.4406 43.5552 81.8293 41.9438C80.218 40.3326 80.218 37.7105 81.8293 36.0992L82.5169 35.4117C83.3226 34.606 84.3809 34.203 85.4393 34.203C86.4976 34.203 87.556 34.6059 88.3616 35.4117C89.9729 37.0231 89.9729 39.6449 88.3615 41.2563Z"/>
</mask>
<path d="M90.0805 33.6928C87.5212 31.1336 83.3572 31.1336 80.7979 33.6928L80.1103 34.3803C79.1814 35.3092 78.5914 36.4498 78.3369 37.6483L78.1308 37.4422C76.5052 35.8166 74.14 35.2561 71.958 35.9794L66.7841 37.6939C66.3547 37.8362 65.8891 37.726 65.569 37.406L62.014 33.851C61.5393 33.3763 60.7696 33.3763 60.2949 33.851L60.1692 33.9767L58.5629 32.3704C58.6305 31.3882 58.2907 30.383 57.5415 29.6339L56.2528 28.3453C54.8783 26.9709 52.6422 26.9709 51.2676 28.3453L49.276 30.3369C47.9016 31.7113 47.9016 33.9477 49.276 35.3221L50.5648 36.6109C51.252 37.2979 52.1548 37.6416 53.0574 37.6416C53.1389 37.6416 53.2202 37.6379 53.3014 37.6323L54.9077 39.2386L54.8053 39.341C54.3306 39.8157 54.3306 40.5854 54.8053 41.0602L55.7153 41.9702L41.2192 34.0206C41.075 33.9414 40.9201 33.8946 40.7636 33.878L35.6559 30.6902C34.1875 29.7737 32.3074 29.9884 31.0835 31.2123C30.2818 32.014 29.8956 33.12 30.0243 34.2464C30.1531 35.3728 30.7784 36.3632 31.7402 36.9636L35.5508 39.342C35.6265 39.6033 35.7877 39.8345 36.0133 39.9947L40.7335 43.3478C41.2807 43.7365 42.0395 43.608 42.4283 43.0608C42.817 42.5136 42.6887 41.7547 42.1413 41.366L38.594 38.8461L40.8496 36.5905L60.1919 47.1975L55.0247 50.4424L48.739 46.1247C48.1856 45.7446 47.429 45.8851 47.0487 46.4384C46.6686 46.9917 46.8091 47.7486 47.3625 48.1287L52.7817 51.8512L52.7623 51.8633C52.4486 52.0603 52.2418 52.3897 52.2008 52.758C52.1597 53.1262 52.2889 53.493 52.5515 53.7543L58.9405 60.1109V78.2454V81.6475C58.9405 83.3231 60.3036 84.6863 61.9793 84.6863H72.3034C72.9748 84.6863 73.5189 84.1421 73.5189 83.4708V83.1075C73.5189 79.8905 71.0061 77.2508 67.8404 77.0445L71.4938 60.5882L72.5003 61.5948C73.1875 62.2818 74.0903 62.6255 74.9929 62.6255C75.8955 62.6255 76.7983 62.2818 77.4855 61.5948L78.5287 60.5515C78.5981 60.4821 78.6635 60.4099 78.7263 60.3357L84.9712 54.1411C86.3288 52.7944 87.0788 50.9997 87.0826 49.0874C87.0853 47.7844 86.7407 46.5352 86.0937 45.4433C87.3035 45.1924 88.4561 44.6 89.3931 43.663L90.0807 42.9754C92.6397 40.4161 92.6397 36.2518 90.0805 33.6928ZM36.7668 37.2352L33.0273 34.9013C32.698 34.6956 32.4836 34.3563 32.4397 33.9705C32.3957 33.5847 32.5279 33.2058 32.8025 32.9313C33.048 32.6857 33.3705 32.5588 33.6967 32.5588C33.9275 32.5588 34.1602 32.6224 34.3686 32.7525L38.6053 35.3967L36.7668 37.2352ZM78.8916 41.9758C79.1979 42.5844 79.6029 43.1555 80.1103 43.6629C80.3355 43.8881 80.5737 44.0924 80.8217 44.278L77.5716 44.8974L78.8916 41.9758ZM53.831 34.8917C53.4045 35.3183 52.7104 35.3183 52.2839 34.8917L50.9951 33.6029C50.5686 33.1764 50.5686 32.4823 50.9951 32.0558L52.9867 30.0642C53.1999 29.8508 53.48 29.7443 53.7602 29.7443C54.0404 29.7443 54.3204 29.8508 54.5338 30.0642L55.8226 31.353C56.2491 31.7795 56.2491 32.4736 55.8226 32.9001L53.831 34.8917ZM55.6337 36.5266L57.4575 34.703L58.4376 35.6832L56.6139 37.5068L55.6337 36.5266ZM70.9871 82.2551H61.9792C61.6442 82.2551 61.3714 81.9824 61.3714 81.6474V79.4608H66.3284H67.4411C69.1585 79.4608 70.6024 80.654 70.9871 82.2551ZM65.3531 77.0298H61.3713V62.5294L64.6962 65.8374C64.9253 66.0653 65.2341 66.1912 65.5535 66.1912C65.5993 66.1912 65.6454 66.1887 65.6915 66.1835C66.0585 66.1416 66.3867 65.9349 66.5831 65.622L68.5987 62.4104L65.3531 77.0298ZM67.7808 59.1403L64.8461 56.2056C64.3714 55.7309 63.6017 55.7309 63.1271 56.2056C62.6524 56.6803 62.6524 57.45 63.1271 57.9248L66.4551 61.2528L65.3325 63.0415L55.3496 53.1092L62.4184 48.6702L69.7649 55.9795L67.7808 59.1403ZM70.925 53.7042L63.9505 46.765L68.8773 45.6565C69.5322 45.5092 69.9437 44.8588 69.7965 44.2039C69.649 43.5489 68.9986 43.1376 68.3439 43.2847L61.9146 44.7312L57.3836 40.2002L61.1544 36.4293L63.8499 39.125C64.8238 40.099 66.2411 40.435 67.5487 40.0015L72.7226 38.2868C74.0264 37.8546 75.4402 38.1896 76.4115 39.161L77.1583 39.9076L70.925 53.7042ZM76.9153 58.7076L76.519 59.1006C76.473 59.1462 76.4327 59.1954 76.3954 59.2463L75.766 59.8757C75.3398 60.3022 74.6457 60.3022 74.2192 59.8756L72.511 58.1673C72.3086 57.9651 72.2034 57.7026 72.1931 57.4369L72.3153 56.8865C72.3654 56.7907 72.4306 56.7008 72.511 56.6204L73.5542 55.5771C73.7676 55.3638 74.0476 55.2572 74.3277 55.2572C74.4492 55.2572 74.5703 55.2785 74.6862 55.3186C74.8042 55.4253 74.9376 55.5051 75.0791 55.5572C75.0863 55.5639 75.094 55.57 75.1012 55.5771L76.8094 57.2854C77.016 57.492 77.1298 57.7667 77.1298 58.0589C77.1297 58.2958 77.0538 58.5207 76.9153 58.7076ZM83.2591 52.4151L79.1793 56.462C79.013 56.1354 78.7952 55.8329 78.5286 55.5662L77.2998 54.3375L79.2365 52.4009C79.7112 51.9262 79.7112 51.1565 79.2365 50.6817C78.7618 50.207 77.9921 50.207 77.5173 50.6817L75.2491 52.9499C74.8352 52.8386 74.4052 52.8028 73.9812 52.8443L76.3482 47.6054L83.6791 46.2081C84.3113 47.0289 84.6536 48.0289 84.6514 49.0822C84.6489 50.3436 84.1545 51.527 83.2591 52.4151ZM88.3615 41.2563L87.6739 41.9438C86.0627 43.5552 83.4406 43.5552 81.8293 41.9438C80.218 40.3326 80.218 37.7105 81.8293 36.0992L82.5169 35.4117C83.3226 34.606 84.3809 34.203 85.4393 34.203C86.4976 34.203 87.556 34.6059 88.3616 35.4117C89.9729 37.0231 89.9729 39.6449 88.3615 41.2563Z" fill="white" stroke="#3D86AF" stroke-width="0.4" mask="url(#path-3-inside-1_1562_11233)"/>
<path d="M45.698 43.8718C45.4719 43.6457 45.1583 43.5156 44.8386 43.5156C44.5189 43.5156 44.2053 43.6457 43.9792 43.8718C43.7531 44.0978 43.623 44.4115 43.623 44.7312C43.623 45.0521 43.7531 45.3657 43.9792 45.5906C44.2053 45.8179 44.5189 45.9467 44.8386 45.9467C45.1583 45.9467 45.4719 45.8179 45.698 45.5906C45.9241 45.3657 46.0541 45.0521 46.0541 44.7312C46.0541 44.4114 45.9241 44.0978 45.698 43.8718Z" fill="white"/>
<path d="M61.4724 52.8317C61.2463 52.6056 60.9327 52.4756 60.613 52.4756C60.2921 52.4756 59.9797 52.6056 59.7536 52.8317C59.5275 53.0578 59.3975 53.3714 59.3975 53.6911C59.3975 54.0108 59.5275 54.3244 59.7536 54.5505C59.9797 54.7766 60.2921 54.9067 60.613 54.9067C60.9327 54.9067 61.2463 54.7766 61.4724 54.5505C61.6985 54.3244 61.8285 54.0108 61.8285 53.6911C61.8285 53.3714 61.6985 53.0578 61.4724 52.8317Z" fill="white"/>
</svg>
