<svg width="122" height="122" viewBox="0 0 122 122" fill="none" xmlns="http://www.w3.org/2000/svg">
<rect x="0.5" y="0.5" width="121" height="121" rx="5.5" fill="#1F74A3" stroke="#E8F2F6"/>
<path d="M32.666 93.4L35.924 103.228L38.444 93.4H40.406L36.896 106H35.024L31.802 96.244L28.562 106H26.69L23.18 93.4H25.196L27.716 103.228L30.974 93.4H32.666ZM46.0861 98.44H45.3301C44.1241 98.44 43.2781 99.34 43.2781 100.78V106H41.4601V96.82H43.2601V97.954C43.7101 97.216 44.4481 96.748 45.4561 96.748H46.0861V98.44ZM46.5498 101.41C46.5498 98.818 48.5838 96.64 51.2658 96.64C53.9298 96.64 55.8558 98.674 55.8558 101.41V102.004H48.3858C48.6198 103.498 49.8978 104.614 51.4278 104.614C52.5258 104.614 53.4078 104.164 54.0738 103.264L55.3878 104.236C54.4698 105.46 53.1018 106.198 51.4278 106.198C48.6918 106.198 46.5498 104.146 46.5498 101.41ZM51.2298 98.224C49.8618 98.224 48.7638 99.142 48.4218 100.564H54.0198C53.7138 99.142 52.5978 98.224 51.2298 98.224ZM58.9364 99.43C58.9364 100.132 59.7284 100.51 60.7184 100.78C62.1224 101.086 63.9944 101.608 63.9764 103.534C63.9764 104.344 63.6524 105.01 63.0224 105.496C62.3924 105.982 61.6004 106.234 60.6104 106.234C58.8644 106.234 57.5504 105.406 57.0284 104.128L58.3784 103.354C58.6664 104.218 59.5124 104.758 60.6104 104.758C61.6364 104.758 62.3924 104.38 62.3924 103.534C62.3924 102.832 61.6004 102.436 60.6104 102.202C59.1884 101.824 57.3524 101.356 57.3524 99.448C57.3524 98.674 57.6584 98.026 58.2524 97.522C58.8644 97.018 59.6204 96.766 60.5384 96.766C61.9964 96.766 63.2024 97.468 63.7784 98.638L62.4644 99.376C62.1404 98.602 61.4924 98.224 60.5384 98.224C59.6564 98.224 58.9364 98.656 58.9364 99.43ZM70.177 106H68.431C67.009 106 66.253 105.172 66.253 104.02V98.422H64.507V96.82H66.253V94.12H68.071V96.82H70.177V98.422H68.071V103.624C68.071 104.128 68.413 104.398 68.971 104.398H70.177V106ZM73.0906 106H71.2726V93.4H73.0906V106ZM75.7766 95.542C75.1466 95.542 74.6786 95.074 74.6786 94.444C74.6786 93.85 75.1466 93.364 75.7766 93.364C76.3706 93.364 76.8386 93.85 76.8386 94.444C76.8386 95.074 76.3706 95.542 75.7766 95.542ZM76.6766 96.82V106H74.8586V96.82H76.6766ZM86.4905 100.132V106H84.6725V100.492C84.6725 99.142 83.8085 98.26 82.5125 98.26C81.1985 98.26 80.2625 99.178 80.2625 100.546V106H78.4445V96.82H80.2625V97.828C80.9105 97.054 81.8645 96.622 82.9625 96.622C85.0685 96.622 86.4905 98.17 86.4905 100.132ZM97.7031 96.82V106.288C97.7031 108.358 96.4071 109.618 94.3011 109.618H91.9971V108.07H93.9051C95.2191 108.07 95.8671 107.422 95.8671 106.144V104.794C95.0211 105.604 93.9231 106.09 92.6811 106.09C90.0171 106.09 87.9111 104.002 87.9111 101.338C87.9111 98.71 90.0171 96.622 92.6811 96.622C93.9591 96.622 95.0391 97.108 95.8851 97.954V96.82H97.7031ZM89.7111 101.338C89.7111 103.12 91.0971 104.488 92.8071 104.488C94.5351 104.488 95.9031 103.084 95.9031 101.338C95.9031 99.61 94.5171 98.224 92.8071 98.224C91.0971 98.224 89.7111 99.61 89.7111 101.338Z" fill="white"/>
<mask id="path-3-inside-1_1562_11255" fill="white">
<path d="M85.7741 72.6198C85.7267 69.6553 84.8371 66.7728 83.2016 64.2845C81.7299 62.0451 79.718 60.22 77.3547 58.9671V58.5337C77.3547 58.1987 77.2113 57.8796 76.9606 57.6571C75.5001 56.3613 73.738 56.0414 72.201 55.8433C71.5314 55.7571 70.859 56.0142 70.708 56.7458C69.9621 56.5419 69.2062 56.3352 68.5888 56.1661C68.2019 56.0595 67.9151 55.7347 67.8584 55.3377L67.555 53.2265C68.4787 53.4509 69.4885 53.2863 70.3123 52.6951C72.3989 51.1975 75.8996 47.8781 75.8996 42.4728V36.1459C75.8996 30.9161 72.6715 28.0002 72.5341 27.8785C72.3198 27.689 72.0436 27.5844 71.7576 27.5844H69.4995C68.4829 26.2616 65.5188 23 61.0004 23C56.482 23 53.5178 26.2616 52.5014 27.5844H50.2434C49.9573 27.5844 49.6811 27.689 49.4669 27.8785C49.3294 28.0002 46.1012 30.916 46.1012 36.1459V42.4728C46.1012 47.878 49.6019 51.1974 51.6885 52.6951C52.2783 53.1184 52.9633 53.3233 53.644 53.3233C53.9145 53.3233 54.184 53.2898 54.4468 53.2258L54.1431 55.3381C54.0862 55.7354 53.7998 56.0604 53.413 56.1658L51.3017 56.7432C51.1505 56.0117 50.4773 55.7571 49.8086 55.8432C48.2717 56.0412 46.5096 56.3611 45.0491 57.657C44.7985 57.8795 44.655 58.1986 44.655 58.5336V58.9617C42.2896 60.2137 40.2757 62.039 38.8023 64.2796C37.1652 66.7693 36.2747 69.6533 36.2274 72.6167C36.2249 72.7494 36.2236 72.8821 36.2236 73.016V81.828C36.2236 82.4752 36.7483 83 37.3955 83H84.6047C85.252 83 85.7766 82.4752 85.7766 81.828V73.016C85.7767 72.8855 85.7755 72.7565 85.7741 72.6198ZM64.6994 50.6158C63.481 51.1082 62.234 51.2151 60.9366 51.2151C59.6658 51.2151 58.4436 51.0857 57.2561 50.5973C57.5646 49.6289 57.2165 48.6091 56.4598 47.9584C55.0599 46.7237 54.2569 44.905 54.2569 42.969V38.8433L55.1208 38.1665H66.88L67.7439 38.8434V42.9691C67.7439 44.8754 66.9385 46.7571 65.4858 48.0065C64.7527 48.6385 64.4484 49.6723 64.7448 50.5973C64.7297 50.6035 64.7145 50.6097 64.6994 50.6158ZM61.0004 25.3438C63.2875 25.3438 65.1088 26.5061 66.3063 27.5844H55.683C56.8756 26.506 58.6956 25.3438 61.0004 25.3438ZM53.0553 50.791C50.9521 49.2816 48.4451 46.6132 48.4451 42.4728V36.1459C48.4451 32.805 50.058 30.6732 50.7323 29.9281H71.2676C71.939 30.6727 73.5557 32.8125 73.5557 36.1459V42.4728C73.5557 46.6133 71.0487 49.2816 68.9457 50.791C68.5093 51.1041 67.8999 51.0222 67.5583 50.6046L67.0797 50.0197C66.9585 49.8716 66.9661 49.8263 67.1179 49.6913C68.5312 48.4344 69.4934 46.7465 69.8873 44.8873C70.0195 44.2637 70.0877 43.6209 70.0877 42.9688V38.2725C70.0877 37.5822 69.4925 37.2356 69.0128 36.8599C68.5112 36.467 67.9611 35.8224 67.2843 35.8224H54.7162C54.1049 35.8224 53.5759 36.3991 53.1257 36.752C52.6219 37.1468 51.9129 37.556 51.9129 38.2729V42.969C51.9129 45.5777 53.005 48.0369 54.9091 49.7159C54.9637 49.7638 55.0724 49.8348 55.0006 49.9227L54.4427 50.6045C54.1008 51.0223 53.4913 51.104 53.0553 50.791ZM54.031 58.4268C55.3191 58.0752 56.2738 56.9933 56.4633 55.6712L56.854 52.9528C58.2011 53.4307 59.5823 53.5589 61.0002 53.5589C62.4189 53.5589 63.8 53.4297 65.1477 52.9524L65.5383 55.6705C65.7275 56.9913 66.6816 58.0729 67.9691 58.4264C67.9694 58.4264 67.9696 58.4265 67.9698 58.4265C68.6477 58.6121 69.4923 58.8431 70.3076 59.0659C69.4432 62.5234 67.3431 65.7613 63.7488 66.7551C60.5655 67.6354 56.9045 66.9491 54.5789 64.5211C53.1404 63.0192 52.2463 61.0514 51.7271 59.0567L54.031 58.4268ZM75.0109 80.6562H46.9989V76.6138C46.9989 75.9665 46.4743 75.4419 45.827 75.4419C45.1798 75.4419 44.6552 75.9665 44.6552 76.6138V80.6561H38.5675V73.016C38.5675 72.8968 38.5686 72.7787 38.5708 72.6574C38.6111 70.1364 39.3684 67.6848 40.7608 65.5674C41.7828 64.0132 43.1098 62.6928 44.6552 61.6793V66.3041C44.6552 66.9513 45.1798 67.4759 45.827 67.4759C46.4743 67.4759 46.9989 66.9513 46.9989 66.3041V59.1049C47.5975 58.7015 48.305 58.473 49.1609 58.3135C50.001 62.9169 52.6455 67.4436 57.3262 68.912C61.6846 70.2791 66.7432 69.1222 69.7053 65.5648C71.4111 63.5163 72.4134 60.9243 72.862 58.316C73.712 58.4754 74.4152 58.7035 75.0108 59.1049V80.6562H75.0109ZM83.433 80.6561H77.3549V61.685C78.898 62.6988 80.2226 64.019 81.2431 65.5718C82.634 67.688 83.3904 70.1382 83.4306 72.6499C83.4318 72.7716 83.433 72.8933 83.433 73.0161V80.6561Z"/>
</mask>
<path d="M85.7741 72.6198C85.7267 69.6553 84.8371 66.7728 83.2016 64.2845C81.7299 62.0451 79.718 60.22 77.3547 58.9671V58.5337C77.3547 58.1987 77.2113 57.8796 76.9606 57.6571C75.5001 56.3613 73.738 56.0414 72.201 55.8433C71.5314 55.7571 70.859 56.0142 70.708 56.7458C69.9621 56.5419 69.2062 56.3352 68.5888 56.1661C68.2019 56.0595 67.9151 55.7347 67.8584 55.3377L67.555 53.2265C68.4787 53.4509 69.4885 53.2863 70.3123 52.6951C72.3989 51.1975 75.8996 47.8781 75.8996 42.4728V36.1459C75.8996 30.9161 72.6715 28.0002 72.5341 27.8785C72.3198 27.689 72.0436 27.5844 71.7576 27.5844H69.4995C68.4829 26.2616 65.5188 23 61.0004 23C56.482 23 53.5178 26.2616 52.5014 27.5844H50.2434C49.9573 27.5844 49.6811 27.689 49.4669 27.8785C49.3294 28.0002 46.1012 30.916 46.1012 36.1459V42.4728C46.1012 47.878 49.6019 51.1974 51.6885 52.6951C52.2783 53.1184 52.9633 53.3233 53.644 53.3233C53.9145 53.3233 54.184 53.2898 54.4468 53.2258L54.1431 55.3381C54.0862 55.7354 53.7998 56.0604 53.413 56.1658L51.3017 56.7432C51.1505 56.0117 50.4773 55.7571 49.8086 55.8432C48.2717 56.0412 46.5096 56.3611 45.0491 57.657C44.7985 57.8795 44.655 58.1986 44.655 58.5336V58.9617C42.2896 60.2137 40.2757 62.039 38.8023 64.2796C37.1652 66.7693 36.2747 69.6533 36.2274 72.6167C36.2249 72.7494 36.2236 72.8821 36.2236 73.016V81.828C36.2236 82.4752 36.7483 83 37.3955 83H84.6047C85.252 83 85.7766 82.4752 85.7766 81.828V73.016C85.7767 72.8855 85.7755 72.7565 85.7741 72.6198ZM64.6994 50.6158C63.481 51.1082 62.234 51.2151 60.9366 51.2151C59.6658 51.2151 58.4436 51.0857 57.2561 50.5973C57.5646 49.6289 57.2165 48.6091 56.4598 47.9584C55.0599 46.7237 54.2569 44.905 54.2569 42.969V38.8433L55.1208 38.1665H66.88L67.7439 38.8434V42.9691C67.7439 44.8754 66.9385 46.7571 65.4858 48.0065C64.7527 48.6385 64.4484 49.6723 64.7448 50.5973C64.7297 50.6035 64.7145 50.6097 64.6994 50.6158ZM61.0004 25.3438C63.2875 25.3438 65.1088 26.5061 66.3063 27.5844H55.683C56.8756 26.506 58.6956 25.3438 61.0004 25.3438ZM53.0553 50.791C50.9521 49.2816 48.4451 46.6132 48.4451 42.4728V36.1459C48.4451 32.805 50.058 30.6732 50.7323 29.9281H71.2676C71.939 30.6727 73.5557 32.8125 73.5557 36.1459V42.4728C73.5557 46.6133 71.0487 49.2816 68.9457 50.791C68.5093 51.1041 67.8999 51.0222 67.5583 50.6046L67.0797 50.0197C66.9585 49.8716 66.9661 49.8263 67.1179 49.6913C68.5312 48.4344 69.4934 46.7465 69.8873 44.8873C70.0195 44.2637 70.0877 43.6209 70.0877 42.9688V38.2725C70.0877 37.5822 69.4925 37.2356 69.0128 36.8599C68.5112 36.467 67.9611 35.8224 67.2843 35.8224H54.7162C54.1049 35.8224 53.5759 36.3991 53.1257 36.752C52.6219 37.1468 51.9129 37.556 51.9129 38.2729V42.969C51.9129 45.5777 53.005 48.0369 54.9091 49.7159C54.9637 49.7638 55.0724 49.8348 55.0006 49.9227L54.4427 50.6045C54.1008 51.0223 53.4913 51.104 53.0553 50.791ZM54.031 58.4268C55.3191 58.0752 56.2738 56.9933 56.4633 55.6712L56.854 52.9528C58.2011 53.4307 59.5823 53.5589 61.0002 53.5589C62.4189 53.5589 63.8 53.4297 65.1477 52.9524L65.5383 55.6705C65.7275 56.9913 66.6816 58.0729 67.9691 58.4264C67.9694 58.4264 67.9696 58.4265 67.9698 58.4265C68.6477 58.6121 69.4923 58.8431 70.3076 59.0659C69.4432 62.5234 67.3431 65.7613 63.7488 66.7551C60.5655 67.6354 56.9045 66.9491 54.5789 64.5211C53.1404 63.0192 52.2463 61.0514 51.7271 59.0567L54.031 58.4268ZM75.0109 80.6562H46.9989V76.6138C46.9989 75.9665 46.4743 75.4419 45.827 75.4419C45.1798 75.4419 44.6552 75.9665 44.6552 76.6138V80.6561H38.5675V73.016C38.5675 72.8968 38.5686 72.7787 38.5708 72.6574C38.6111 70.1364 39.3684 67.6848 40.7608 65.5674C41.7828 64.0132 43.1098 62.6928 44.6552 61.6793V66.3041C44.6552 66.9513 45.1798 67.4759 45.827 67.4759C46.4743 67.4759 46.9989 66.9513 46.9989 66.3041V59.1049C47.5975 58.7015 48.305 58.473 49.1609 58.3135C50.001 62.9169 52.6455 67.4436 57.3262 68.912C61.6846 70.2791 66.7432 69.1222 69.7053 65.5648C71.4111 63.5163 72.4134 60.9243 72.862 58.316C73.712 58.4754 74.4152 58.7035 75.0108 59.1049V80.6562H75.0109ZM83.433 80.6561H77.3549V61.685C78.898 62.6988 80.2226 64.019 81.2431 65.5718C82.634 67.688 83.3904 70.1382 83.4306 72.6499C83.4318 72.7716 83.433 72.8933 83.433 73.0161V80.6561Z" fill="white" stroke="#006197" stroke-width="0.4" mask="url(#path-3-inside-1_1562_11255)"/>
<path d="M58.9004 33.9346H63.676C64.3232 33.9346 64.8479 33.4099 64.8479 32.7627C64.8479 32.1155 64.3232 31.5908 63.676 31.5908H58.9004C58.2532 31.5908 57.7285 32.1155 57.7285 32.7627C57.7285 33.4099 58.2532 33.9346 58.9004 33.9346Z" fill="white"/>
<path d="M62.1532 43.4332H61.5745L61.9894 42.1947C62.1949 41.581 61.864 40.9169 61.2503 40.7113C60.6366 40.5059 59.9725 40.8367 59.7669 41.4504L58.835 44.233C58.7154 44.5906 58.7749 44.9837 58.9951 45.2897C59.2153 45.5957 59.5693 45.7771 59.9463 45.7771H62.1533C62.8006 45.7771 63.3252 45.2525 63.3252 44.6052C63.3252 43.958 62.8004 43.4332 62.1532 43.4332Z" fill="white"/>
<path d="M46.4769 70.4846C45.616 69.911 44.4552 70.7063 44.6844 71.7161C44.9286 72.7914 46.4487 72.9443 46.8976 71.9334C47.1246 71.4226 46.9467 70.7926 46.4769 70.4846Z" fill="white"/>
</svg>
