<svg width="122" height="122" viewBox="0 0 122 122" fill="none" xmlns="http://www.w3.org/2000/svg">
<rect x="0.5" y="0.5" width="121" height="121" rx="5.5" fill="#4FA0CF" stroke="#E8F2F6"/>
<path d="M45.642 105H43.752V99.582L38.91 92.4H41.16L44.724 97.854L48.288 92.4H50.484L45.642 99.636V105ZM58.738 100.41C58.738 103.056 56.542 105.216 53.806 105.216C51.07 105.216 48.874 103.056 48.874 100.41C48.874 97.764 51.07 95.622 53.806 95.622C56.542 95.622 58.738 97.764 58.738 100.41ZM56.92 100.41C56.92 98.628 55.534 97.242 53.806 97.242C52.078 97.242 50.692 98.628 50.692 100.41C50.692 102.21 52.078 103.596 53.806 103.596C55.534 103.596 56.92 102.21 56.92 100.41ZM69.6172 95.82V105.288C69.6172 107.358 68.3212 108.618 66.2152 108.618H63.9112V107.07H65.8192C67.1332 107.07 67.7812 106.422 67.7812 105.144V103.794C66.9352 104.604 65.8372 105.09 64.5952 105.09C61.9312 105.09 59.8252 103.002 59.8252 100.338C59.8252 97.71 61.9312 95.622 64.5952 95.622C65.8732 95.622 66.9532 96.108 67.7992 96.954V95.82H69.6172ZM61.6252 100.338C61.6252 102.12 63.0112 103.488 64.7212 103.488C66.4492 103.488 67.8172 102.084 67.8172 100.338C67.8172 98.61 66.4312 97.224 64.7212 97.224C63.0112 97.224 61.6252 98.61 61.6252 100.338ZM79.14 97.548V96H80.706V105H79.14V103.452C78.366 104.64 77.232 105.234 75.738 105.234C74.478 105.234 73.398 104.784 72.516 103.866C71.634 102.948 71.184 101.814 71.184 100.5C71.184 99.186 71.634 98.07 72.516 97.152C73.398 96.234 74.478 95.766 75.738 95.766C77.232 95.766 78.366 96.36 79.14 97.548ZM75.936 103.722C76.854 103.722 77.61 103.416 78.222 102.804C78.834 102.174 79.14 101.418 79.14 100.5C79.14 99.582 78.834 98.826 78.222 98.214C77.61 97.584 76.854 97.278 75.936 97.278C75.036 97.278 74.28 97.584 73.668 98.214C73.056 98.826 72.75 99.582 72.75 100.5C72.75 101.418 73.056 102.174 73.668 102.804C74.28 103.416 75.036 103.722 75.936 103.722Z" fill="white"/>
<mask id="path-3-inside-1_1562_11245" fill="white">
<path d="M85.4955 69.571C85.6172 69.4539 85.7332 69.3288 85.842 69.1943L85.8864 69.1394C87.2194 67.4917 87.0423 65.0763 85.4834 63.6406L78.6752 57.3707L78.3226 55.7619C78.1816 55.1191 77.5462 54.7123 76.9036 54.8533C76.2608 54.9943 75.8541 55.6295 75.995 56.2723L76.4282 58.2479C76.4805 58.4867 76.605 58.7035 76.7849 58.8691L83.8693 65.3935C84.5064 65.9802 84.5789 66.9674 84.0337 67.6412L83.9893 67.6961C83.3916 68.4345 82.3057 68.5581 81.5683 67.9712L75.2464 62.94C74.2995 62.1865 73.6134 61.1763 73.2619 60.0186L70.5783 51.1773L70.9344 44.5934C71.8499 44.9982 72.6639 45.629 73.2795 46.4412C73.5138 46.7504 73.8697 46.913 74.2298 46.913C74.4805 46.913 74.7335 46.8341 74.9486 46.671C75.4731 46.2736 75.576 45.5263 75.1786 45.0018C73.6109 42.9334 71.1262 41.6984 68.5319 41.6984H65.3786V40.6835C67.4567 39.373 68.841 37.0586 68.841 34.4256V31.2365C68.841 29.0476 67.8842 27.0788 66.3679 25.7236C66.5268 25.2207 66.6094 24.6931 66.6094 24.1631C66.6094 21.3161 64.2932 19 61.4463 19C58.5994 19 56.2832 21.3161 56.2832 24.1631C56.2832 24.6935 56.366 25.2207 56.5248 25.7235C55.0084 27.0786 54.0516 29.0475 54.0516 31.2365V34.4256C54.0516 37.0586 55.436 39.373 57.5139 40.6835V41.6984H54.376C52.4819 41.6984 50.6259 42.3523 49.1501 43.5396C47.6744 44.7269 46.6382 46.3997 46.2325 48.25L44.2327 57.3709L37.4246 63.6408C35.8656 65.0766 35.6886 67.4919 37.0213 69.1393L37.0662 69.1949C37.1721 69.3258 37.2849 69.4482 37.403 69.5627C36.5 70.6874 36 72.086 36 73.5731C35.9999 77.1168 38.8831 80 42.427 80H80.465C84.0089 80 86.892 77.1168 86.892 73.573C86.892 72.0894 86.3942 70.6943 85.4955 69.571ZM70.9818 60.7104C71.4742 62.3328 72.4358 63.7484 73.7625 64.8043L77.2696 67.5954L75.4562 67.9025C73.3169 67.1203 71.3995 65.8255 69.8776 64.1334L70.2017 58.1403L70.9818 60.7104ZM51.4203 68.5773C52.6505 67.7934 53.7746 66.8459 54.7587 65.7575H68.1334C69.1174 66.8459 70.2416 67.7933 71.4717 68.5773L61.4459 70.275L51.4203 68.5773ZM45.6355 67.5977L49.1455 64.8043C50.4721 63.7485 51.4337 62.3329 51.9261 60.7104L52.7022 58.1537L53.0175 64.13C51.4951 65.8236 49.5767 67.1198 47.436 67.9026L45.6355 67.5977ZM61.4463 26.2246C63.7993 26.2246 65.7777 27.8549 66.3139 30.0449H56.5788C57.1149 27.8549 59.0933 26.2246 61.4463 26.2246ZM58.666 24.1631C58.666 22.63 59.9132 21.3828 61.4463 21.3828C62.9794 21.3828 64.2266 22.63 64.2266 24.1631C64.2266 24.2368 64.2227 24.3099 64.2171 24.3824C63.3608 24.0349 62.4259 23.8418 61.4463 23.8418C60.4667 23.8418 59.5318 24.035 58.6753 24.3824C58.6698 24.3099 58.666 24.2368 58.666 24.1631ZM56.4345 32.4277H66.4582V34.4255C66.4582 37.189 64.2099 39.4373 61.4464 39.4373C58.6829 39.4373 56.4346 37.189 56.4346 34.4255V32.4277H56.4345ZM61.4463 41.8202C61.9778 41.8202 62.4958 41.7627 62.9957 41.6555V43.0525C62.9957 43.9068 62.3006 44.6019 61.4463 44.6019C60.5919 44.6019 59.8969 43.9068 59.8969 43.0525V41.6555C60.3968 41.7625 60.9148 41.8202 61.4463 41.8202ZM57.6514 44.0811C58.1049 45.752 59.6339 46.9847 61.4463 46.9847C63.2587 46.9847 64.7877 45.752 65.2412 44.0811H68.5318C68.5465 44.0811 68.561 44.0823 68.5757 44.0824L67.5324 63.3746H55.3637L54.346 44.0818C54.356 44.0818 54.366 44.0811 54.3761 44.0811H57.6514ZM39.0387 65.3935L46.123 58.8691C46.3028 58.7035 46.4273 58.4867 46.4797 58.2479L48.5599 48.7601C48.9742 46.8704 50.2885 45.3428 51.9865 44.5901L52.3333 51.1646L49.6459 60.0185C49.2944 61.1763 48.6083 62.1865 47.6616 62.9399L41.3395 67.9712C40.602 68.5581 39.516 68.4345 38.9189 67.6965L38.874 67.6408C38.3292 66.9674 38.4015 65.9802 39.0387 65.3935ZM38.3827 73.573C38.3827 72.4611 38.8258 71.4272 39.6126 70.6684C39.8324 70.7041 40.0548 70.7222 40.2776 70.7222C41.1733 70.7222 42.0736 70.4323 42.8233 69.8356L43.1315 69.5903L60.2545 72.49V77.6172H42.427C40.197 77.6172 38.3827 75.8029 38.3827 73.573ZM62.6373 77.6172V72.8468L69.509 73.7761C70.4615 73.9049 71.1797 74.7268 71.1797 75.6879C71.1797 76.7518 70.3143 77.6172 69.2505 77.6172H62.6373ZM80.4648 77.6172H73.1052C73.3971 77.0363 73.5625 76.3812 73.5625 75.6879C73.5625 73.5397 71.9572 71.7027 69.8284 71.4148L69.3603 71.3516L79.7736 69.5882L80.0845 69.8358C80.8343 70.4324 81.7344 70.7222 82.6301 70.7222C82.8481 70.7222 83.0658 70.7044 83.2811 70.6703C84.0666 71.4288 84.5091 72.4621 84.5091 73.573C84.5092 75.8029 82.6949 77.6172 80.4648 77.6172Z"/>
</mask>
<path d="M85.4955 69.571C85.6172 69.4539 85.7332 69.3288 85.842 69.1943L85.8864 69.1394C87.2194 67.4917 87.0423 65.0763 85.4834 63.6406L78.6752 57.3707L78.3226 55.7619C78.1816 55.1191 77.5462 54.7123 76.9036 54.8533C76.2608 54.9943 75.8541 55.6295 75.995 56.2723L76.4282 58.2479C76.4805 58.4867 76.605 58.7035 76.7849 58.8691L83.8693 65.3935C84.5064 65.9802 84.5789 66.9674 84.0337 67.6412L83.9893 67.6961C83.3916 68.4345 82.3057 68.5581 81.5683 67.9712L75.2464 62.94C74.2995 62.1865 73.6134 61.1763 73.2619 60.0186L70.5783 51.1773L70.9344 44.5934C71.8499 44.9982 72.6639 45.629 73.2795 46.4412C73.5138 46.7504 73.8697 46.913 74.2298 46.913C74.4805 46.913 74.7335 46.8341 74.9486 46.671C75.4731 46.2736 75.576 45.5263 75.1786 45.0018C73.6109 42.9334 71.1262 41.6984 68.5319 41.6984H65.3786V40.6835C67.4567 39.373 68.841 37.0586 68.841 34.4256V31.2365C68.841 29.0476 67.8842 27.0788 66.3679 25.7236C66.5268 25.2207 66.6094 24.6931 66.6094 24.1631C66.6094 21.3161 64.2932 19 61.4463 19C58.5994 19 56.2832 21.3161 56.2832 24.1631C56.2832 24.6935 56.366 25.2207 56.5248 25.7235C55.0084 27.0786 54.0516 29.0475 54.0516 31.2365V34.4256C54.0516 37.0586 55.436 39.373 57.5139 40.6835V41.6984H54.376C52.4819 41.6984 50.6259 42.3523 49.1501 43.5396C47.6744 44.7269 46.6382 46.3997 46.2325 48.25L44.2327 57.3709L37.4246 63.6408C35.8656 65.0766 35.6886 67.4919 37.0213 69.1393L37.0662 69.1949C37.1721 69.3258 37.2849 69.4482 37.403 69.5627C36.5 70.6874 36 72.086 36 73.5731C35.9999 77.1168 38.8831 80 42.427 80H80.465C84.0089 80 86.892 77.1168 86.892 73.573C86.892 72.0894 86.3942 70.6943 85.4955 69.571ZM70.9818 60.7104C71.4742 62.3328 72.4358 63.7484 73.7625 64.8043L77.2696 67.5954L75.4562 67.9025C73.3169 67.1203 71.3995 65.8255 69.8776 64.1334L70.2017 58.1403L70.9818 60.7104ZM51.4203 68.5773C52.6505 67.7934 53.7746 66.8459 54.7587 65.7575H68.1334C69.1174 66.8459 70.2416 67.7933 71.4717 68.5773L61.4459 70.275L51.4203 68.5773ZM45.6355 67.5977L49.1455 64.8043C50.4721 63.7485 51.4337 62.3329 51.9261 60.7104L52.7022 58.1537L53.0175 64.13C51.4951 65.8236 49.5767 67.1198 47.436 67.9026L45.6355 67.5977ZM61.4463 26.2246C63.7993 26.2246 65.7777 27.8549 66.3139 30.0449H56.5788C57.1149 27.8549 59.0933 26.2246 61.4463 26.2246ZM58.666 24.1631C58.666 22.63 59.9132 21.3828 61.4463 21.3828C62.9794 21.3828 64.2266 22.63 64.2266 24.1631C64.2266 24.2368 64.2227 24.3099 64.2171 24.3824C63.3608 24.0349 62.4259 23.8418 61.4463 23.8418C60.4667 23.8418 59.5318 24.035 58.6753 24.3824C58.6698 24.3099 58.666 24.2368 58.666 24.1631ZM56.4345 32.4277H66.4582V34.4255C66.4582 37.189 64.2099 39.4373 61.4464 39.4373C58.6829 39.4373 56.4346 37.189 56.4346 34.4255V32.4277H56.4345ZM61.4463 41.8202C61.9778 41.8202 62.4958 41.7627 62.9957 41.6555V43.0525C62.9957 43.9068 62.3006 44.6019 61.4463 44.6019C60.5919 44.6019 59.8969 43.9068 59.8969 43.0525V41.6555C60.3968 41.7625 60.9148 41.8202 61.4463 41.8202ZM57.6514 44.0811C58.1049 45.752 59.6339 46.9847 61.4463 46.9847C63.2587 46.9847 64.7877 45.752 65.2412 44.0811H68.5318C68.5465 44.0811 68.561 44.0823 68.5757 44.0824L67.5324 63.3746H55.3637L54.346 44.0818C54.356 44.0818 54.366 44.0811 54.3761 44.0811H57.6514ZM39.0387 65.3935L46.123 58.8691C46.3028 58.7035 46.4273 58.4867 46.4797 58.2479L48.5599 48.7601C48.9742 46.8704 50.2885 45.3428 51.9865 44.5901L52.3333 51.1646L49.6459 60.0185C49.2944 61.1763 48.6083 62.1865 47.6616 62.9399L41.3395 67.9712C40.602 68.5581 39.516 68.4345 38.9189 67.6965L38.874 67.6408C38.3292 66.9674 38.4015 65.9802 39.0387 65.3935ZM38.3827 73.573C38.3827 72.4611 38.8258 71.4272 39.6126 70.6684C39.8324 70.7041 40.0548 70.7222 40.2776 70.7222C41.1733 70.7222 42.0736 70.4323 42.8233 69.8356L43.1315 69.5903L60.2545 72.49V77.6172H42.427C40.197 77.6172 38.3827 75.8029 38.3827 73.573ZM62.6373 77.6172V72.8468L69.509 73.7761C70.4615 73.9049 71.1797 74.7268 71.1797 75.6879C71.1797 76.7518 70.3143 77.6172 69.2505 77.6172H62.6373ZM80.4648 77.6172H73.1052C73.3971 77.0363 73.5625 76.3812 73.5625 75.6879C73.5625 73.5397 71.9572 71.7027 69.8284 71.4148L69.3603 71.3516L79.7736 69.5882L80.0845 69.8358C80.8343 70.4324 81.7344 70.7222 82.6301 70.7222C82.8481 70.7222 83.0658 70.7044 83.2811 70.6703C84.0666 71.4288 84.5091 72.4621 84.5091 73.573C84.5092 75.8029 82.6949 77.6172 80.4648 77.6172Z" fill="white" stroke="#4FA0CF" stroke-width="0.4" mask="url(#path-3-inside-1_1562_11245)"/>
<path d="M77.1021 50.7793C77.1021 51.3821 76.6135 51.8707 76.0107 51.8707C75.408 51.8707 74.9193 51.3821 74.9193 50.7793C74.9193 50.1765 75.408 49.6879 76.0107 49.6879C76.6135 49.6879 77.1021 50.1765 77.1021 50.7793Z" fill="white" stroke="#4FA0CF" stroke-width="0.2"/>
</svg>
