<svg xmlns="http://www.w3.org/2000/svg" width="159.073" height="211.371" viewBox="0 0 159.073 211.371">
  <g id="ic_data_not_found" data-name="ic_data_not found" transform="translate(-111.001 -231.629)">
    <g id="ic_data_not_found-2" data-name="ic_data_not found" transform="translate(111 231.629)">
      <path id="Path_35582" data-name="Path 35582" d="M34.02,90.948H58.033l55.524-53.241V12.62Z" transform="translate(-34.019 -12.62)" fill="#e1e8ee"/>
      <path id="Path_35583" data-name="Path 35583" d="M490.35,69.87V18.252H471.983V51.773L432.22,12.62V37.706l55.524,53.241h24.012Z" transform="translate(-352.682 -12.62)" fill="#e1e8ee"/>
      <path id="Path_35584" data-name="Path 35584" d="M34.02,461.48h5.843v21.566h11.28V461.48H56.9v52.005H51.142V488.108H39.863v25.38H34.02Z" transform="translate(-34.019 -375.465)" fill="#e1e8ee"/>
      <path id="Path_35585" data-name="Path 35585" d="M200,536.926v19.732c0,6.854-2.993,10.31-9.039,10.31-6.349,0-8.66-3.866-8.66-10.253v-19.79c0-6.618,3.177-10.126,8.917-10.126C197.253,526.8,200,530.786,200,536.926Zm-13.261-.174v20.27c0,4.453,1.648,6.151,4.395,6.151,2.871,0,4.4-1.7,4.4-6.327V536.752c0-4.154-1.467-6.151-4.457-6.151-2.923,0-4.33,1.882-4.33,6.159Z" transform="translate(-152.675 -428.268)" fill="#e1e8ee"/>
      <path id="Path_35586" data-name="Path 35586" d="M299.74,529.56v30.406c0,3.222,1.161,5.452,4.273,5.452s4.151-2.111,4.151-5.39V529.56h4.395v30.287c0,6.034-2.871,9.373-8.66,9.373-5.618,0-8.487-3.045-8.487-9.256v-30.4Z" transform="translate(-243.193 -430.498)" fill="#e1e8ee"/>
      <path id="Path_35587" data-name="Path 35587" d="M405.2,555.456v2.285c0,3.689,1.353,5.624,4.214,5.624,2.931,0,4.03-1.994,4.03-6.327,0-4.57-1.039-6.327-5.312-9.549-4.4-3.282-6.6-5.273-6.6-11.014,0-4.977,1.589-9.726,7.938-9.666,6.105,0,7.694,3.866,7.694,8.846v1.817h-4.33v-1.7c0-3.222-.612-5.33-3.421-5.33s-3.542,2.337-3.542,5.39c0,3.635.793,5.037,4.519,7.732,5.683,4.1,7.45,6.444,7.45,12.888,0,5.507-1.648,10.547-8.549,10.547-6.533,0-8.427-4.154-8.427-9.316v-2.228Z" transform="translate(-327.593 -428.273)" fill="#e1e8ee"/>
      <path id="Path_35588" data-name="Path 35588" d="M521.046,549.77h-9.161v15.113h10.381l-.541,3.809H507.55V529.56h13.983v3.869h-9.648v12.478h9.161Z" transform="translate(-412.966 -430.498)" fill="#e1e8ee"/>
      <path id="Path_35589" data-name="Path 35589" d="M613.85,461.48v40.4c0,4.281,1.543,7.239,5.683,7.239s5.518-2.8,5.518-7.163V461.48h5.843v40.244c0,8.02-3.813,12.463-11.523,12.463-7.466,0-11.28-4.05-11.28-12.3v-40.4Z" transform="translate(-493.421 -375.465)" fill="#e1e8ee"/>
      <path id="Path_35590" data-name="Path 35590" d="M749.99,533.12h7.334c5.913,0,8.719,2.856,8.719,9.053v2.337c0,5.73-1.791,9.97-9.017,9.97h-2.733v16.9h-4.3V533.12Zm4.3,17.936h2.33c4.538,0,5.2-2.635,5.2-6.59v-2.051c0-3.095-.717-5.844-4.839-5.844H754.29v14.5Z" transform="translate(-606.98 -433.375)" fill="#e1e8ee"/>
      <path id="Path_35591" data-name="Path 35591" d="M813.244,718.564a1.942,1.942,0,0,1-1.214,1.834,2.092,2.092,0,0,1-2.228-.39,1.889,1.889,0,0,1-.461-2.127,2.1,2.1,0,0,1,3.3-.669A1.865,1.865,0,0,1,813.244,718.564Zm-3.551,0a1.434,1.434,0,0,0,.435,1.07,1.562,1.562,0,0,0,1.1.442,1.512,1.512,0,1,0,0-3.025,1.569,1.569,0,0,0-1.1.444A1.44,1.44,0,0,0,809.693,718.564Zm1.215.992h-.458v-1.893a4.208,4.208,0,0,1,.758-.057,1.268,1.268,0,0,1,.685.138.511.511,0,0,1,.192.415.493.493,0,0,1-.409.439v.023a.562.562,0,0,1,.362.462,1.321,1.321,0,0,0,.146.473h-.493a1.591,1.591,0,0,1-.157-.462c-.035-.208-.154-.3-.409-.3h-.216v.763Zm0-1.072h.217c.254,0,.457-.081.457-.278s-.132-.291-.422-.291a1.154,1.154,0,0,0-.254.023v.545Z" transform="translate(-654.356 -581.751)" fill="#e1e8ee"/>
      <path id="Path_35592" data-name="Path 35592" d="M37.09,759.58h3.946c2.281,0,3.161.654,3.161,2.022a1.721,1.721,0,0,1-1.667,1.776v.031a1.979,1.979,0,0,1,1.978,1.955c0,1.2-.915,2.233-3.183,2.233H37.09Zm1.2,3.375h3.077c1.007,0,1.624-.366,1.624-1.22,0-.745-.382-1.244-2.024-1.244H38.3Zm0,3.731h2.882c1.624,0,2.059-.61,2.059-1.387,0-.922-.66-1.433-2.13-1.433H38.294Z" transform="translate(-36.474 -616.439)" fill="#e1e8ee"/>
      <path id="Path_35593" data-name="Path 35593" d="M100.813,759.58H102v4.788a3.919,3.919,0,0,1-7.778,0V759.58h1.2v4.842a2.693,2.693,0,0,0,5.372,0Z" transform="translate(-82.209 -616.439)" fill="#e1e8ee"/>
      <path id="Path_35594" data-name="Path 35594" d="M153.37,767.595v-3.344l-3.97-4.674h1.551l3.02,3.71,3.023-3.72h1.551l-3.97,4.673v3.344Z" transform="translate(-126.352 -616.437)" fill="#e1e8ee"/>
      <path id="Path_35595" data-name="Path 35595" d="M241.955,770.01a2.011,2.011,0,1,1-2.095,2.01A2.053,2.053,0,0,1,241.955,770.01Z" transform="translate(-198.743 -624.87)" fill="#e1e8ee"/>
      <path id="Path_35596" data-name="Path 35596" d="M315.043,760.811c-.116-1.122-1.307-1.433-2.663-1.433-1.193,0-2.2.566-2.2,1.454,0,.434.271.878,1.307,1.039l3.115.519c1.353.223,1.978.966,1.978,1.955,0,1.6-1.494,2.565-3.97,2.565-2.373,0-3.748-.846-3.9-2.609h1.275c.035,1.077,1.11,1.7,2.706,1.7,1.735,0,2.706-.654,2.706-1.532,0-2.22-6.4-.21-6.4-3.565,0-1.545,1.353-2.433,3.645-2.433,1.735,0,3.578.5,3.694,2.337Z" transform="translate(-253.84 -615.539)" fill="#e1e8ee"/>
      <path id="Path_35597" data-name="Path 35597" d="M367.523,759.58h6.249v.909h-5.047v2.531h4.725v.911h-4.725v2.755h5.185v.911H367.52V759.58Z" transform="translate(-300.905 -616.439)" fill="#e1e8ee"/>
      <path id="Path_35598" data-name="Path 35598" d="M420.44,759.58h1.2v7.106h4.814v.911H420.44Z" transform="translate(-343.254 -616.439)" fill="#e1e8ee"/>
      <path id="Path_35599" data-name="Path 35599" d="M468.37,759.58h1.2v7.106h4.817v.911H468.37Z" transform="translate(-381.609 -616.439)" fill="#e1e8ee"/>
      <path id="Path_35600" data-name="Path 35600" d="M546.085,770.01a2.011,2.011,0,1,1-2.095,2.01A2.053,2.053,0,0,1,546.085,770.01Z" transform="translate(-442.126 -624.87)" fill="#e1e8ee"/>
      <path id="Path_35601" data-name="Path 35601" d="M615.724,767.6h-1.2V759.58h4.108c2.582,0,3.161.833,3.161,2.121a1.953,1.953,0,0,1-1.911,1.867v.021c1.123.135,1.424.569,1.643,1.921a9.317,9.317,0,0,0,.474,2.077H620.72c-.219-.569-.349-1.688-.568-2.6-.141-.576-.541-.989-2.108-.989h-2.327v3.575Zm0-4.487h2.741c1.272,0,2.049-.288,2.049-1.3s-.555-1.3-2.024-1.3h-2.766Z" transform="translate(-498.567 -616.439)" fill="#e1e8ee"/>
      <path id="Path_35602" data-name="Path 35602" d="M671.653,759.58H677.9v.909h-5.034v2.531h4.725v.911h-4.725v2.755h5.185v.911h-6.4V759.58Z" transform="translate(-544.287 -616.439)" fill="#e1e8ee"/>
      <path id="Path_35603" data-name="Path 35603" d="M730.078,759.58h1.2V767.6h-1.643l-5.115-6.841H724.5V767.6h-1.2V759.58h1.643l5.115,6.841h.024V759.58Z" transform="translate(-585.606 -616.439)" fill="#e1e8ee"/>
      <path id="Path_35604" data-name="Path 35604" d="M782.535,760.556H778.99v-.976h8.287v.976h-3.543V767.6h-1.2Z" transform="translate(-630.186 -616.439)" fill="#e1e8ee"/>
    </g>
    <text id="Discover_Food" data-name="Discover Food" transform="translate(126 413)" fill="#232837" font-size="18" font-family="EnnVisions-Medium, EnnVisions" font-weight="500"><tspan x="0" y="0">Data Not Found</tspan></text>
    <text id="Discover_tasty_del" data-name="Discover tasty &amp; del" transform="translate(191 440)" fill="#5e5e5e" font-size="14" font-family="EnnVisions-Regular, EnnVisions"><tspan x="-47.544" y="0">Please Try Later</tspan></text>
  </g>
</svg>
