<svg width="16" height="9" viewBox="0 0 16 9" fill="none" xmlns="http://www.w3.org/2000/svg">
<g clip-path="url(#clip0_113_65)">
<path d="M14.951 0.432022C14.8935 0.374302 14.8251 0.328506 14.7499 0.297256C14.6746 0.266007 14.594 0.249924 14.5125 0.249924C14.431 0.249924 14.3503 0.266007 14.2751 0.297256C14.1998 0.328506 14.1315 0.374302 14.074 0.432022L7.69298 6.81403L1.30998 0.431023C1.25239 0.373438 1.18403 0.327757 1.10879 0.296593C1.03355 0.265428 0.952912 0.24939 0.871475 0.24939C0.790038 0.24939 0.709399 0.265428 0.634161 0.296593C0.558923 0.327757 0.49056 0.373438 0.432975 0.431023C0.375391 0.488607 0.329712 0.556972 0.298548 0.63221C0.267383 0.707448 0.251343 0.788085 0.251343 0.869522C0.251343 0.950959 0.267383 1.0316 0.298548 1.10684C0.329712 1.18208 0.375391 1.25044 0.432975 1.30802L7.25098 8.13103C7.30855 8.18863 7.37691 8.23432 7.45215 8.2655C7.52739 8.29667 7.60803 8.31271 7.68948 8.31271C7.77092 8.31271 7.85156 8.29667 7.9268 8.2655C8.00204 8.23432 8.0704 8.18863 8.12798 8.13103L14.951 1.31403C15.0093 1.25636 15.0557 1.18768 15.0873 1.11198C15.1189 1.03628 15.1352 0.955063 15.1352 0.873024C15.1352 0.790985 15.1189 0.709764 15.0873 0.634064C15.0557 0.558363 15.0093 0.489687 14.951 0.432022Z" fill="black"/>
<path d="M0.871997 2.60824e-06C0.986278 -0.000278205 1.09948 0.0221187 1.20505 0.0658901C1.31061 0.109661 1.40645 0.173942 1.487 0.255008L7.693 6.461L13.899 0.255008C14.0634 0.0984111 14.2826 0.0123022 14.5096 0.0150707C14.7367 0.0178391 14.9536 0.109265 15.1142 0.269824C15.2747 0.430383 15.3662 0.647352 15.3689 0.8744C15.3717 1.10145 15.2856 1.32058 15.129 1.485L8.307 8.307C8.14386 8.47005 7.92265 8.56164 7.692 8.56164C7.46135 8.56164 7.24014 8.47005 7.077 8.307L0.250997 1.486C0.129056 1.36439 0.0459535 1.20932 0.0122171 1.04043C-0.0215194 0.871545 -0.00437215 0.696443 0.0614868 0.53731C0.127346 0.378178 0.238953 0.242168 0.382172 0.146518C0.52539 0.0508667 0.693775 -0.000123197 0.865997 2.60824e-06H0.871997ZM7.694 7.169L1.134 0.609004C1.10007 0.572868 1.05922 0.54392 1.01389 0.523875C0.968551 0.50383 0.91965 0.4931 0.870087 0.49232C0.820524 0.49154 0.77131 0.500727 0.725367 0.519336C0.679423 0.537944 0.637687 0.565591 0.602637 0.600642C0.567586 0.635692 0.539936 0.677433 0.521327 0.723376C0.502719 0.76932 0.493532 0.818528 0.494312 0.86809C0.495092 0.917653 0.505823 0.966554 0.525867 1.01189C0.545912 1.05722 0.574861 1.09808 0.610997 1.13201L7.433 7.954C7.50238 8.02331 7.59643 8.06224 7.6945 8.06224C7.79256 8.06224 7.88662 8.02331 7.956 7.954L14.778 1.13201C14.8151 1.0981 14.8449 1.05698 14.8655 1.01119C14.8862 0.965391 14.8973 0.915863 14.8982 0.865626C14.8991 0.815389 14.8898 0.765499 14.8708 0.718989C14.8518 0.672479 14.8235 0.630324 14.7877 0.595103C14.7518 0.559882 14.7092 0.532331 14.6624 0.514125C14.6155 0.495918 14.5655 0.487439 14.5153 0.489207C14.465 0.490975 14.4157 0.502953 14.3703 0.524409C14.3249 0.545865 14.2843 0.576346 14.251 0.614001L7.694 7.169Z" fill="black"/>
</g>
<defs>
<clipPath id="clip0_113_65">
<rect width="15.369" height="8.562" fill="white"/>
</clipPath>
</defs>
</svg>
