<svg xmlns="http://www.w3.org/2000/svg" width="17.873" height="17.876" viewBox="0 0 17.873 17.876">
  <g id="ic_add_property_search" transform="translate(0.146 0.148)">
    <path id="Path_81" data-name="Path 81" d="M16.887,17.578a2.971,2.971,0,0,1-.4-.283q-2.164-2.118-4.32-4.246c-.036-.035-.074-.069-.118-.11a1.425,1.425,0,0,0-.142.1,7.227,7.227,0,0,1-3.2,1.4,7.287,7.287,0,0,1-5-.86A7.225,7.225,0,0,1,.359,9.52,6.58,6.58,0,0,1,.03,7.9.93.93,0,0,0,0,7.763V6.8c.044-.293.08-.587.134-.877A6.9,6.9,0,0,1,1.391,3.047,7.193,7.193,0,0,1,5.554.243,7.252,7.252,0,0,1,12.1,1.684,6.947,6.947,0,0,1,14.747,6.55a6.974,6.974,0,0,1-1.217,4.761c-.2.291-.424.564-.668.885a.947.947,0,0,1,.148.1q2.166,2.127,4.329,4.258c.253.249.317.516.145.747a1.647,1.647,0,0,1-.356.276h-.24ZM1.137,7.064a6.39,6.39,0,0,0,.5,2.629A6.116,6.116,0,0,0,6.68,13.385a5.934,5.934,0,0,0,4.486-1.208,5.88,5.88,0,0,0,2.413-5.708A5.8,5.8,0,0,0,10.365,1.88a6.048,6.048,0,0,0-6.23.167,5.907,5.907,0,0,0-3,5.017Z" fill="#232837"/>
    <path id="Path_82" data-name="Path 82" d="M17.178,17.728h-.352l-.035-.035-.115-.075a1.7,1.7,0,0,1-.294-.217C15.251,16.3,14.1,15.167,13,14.076l-.934-.919-.028-.027L12,13.156a7.4,7.4,0,0,1-3.268,1.43,8.33,8.33,0,0,1-1.393.121,7.34,7.34,0,0,1-3.7-1A7.4,7.4,0,0,1,.217,9.568,6.756,6.756,0,0,1-.119,7.906a.371.371,0,0,0-.014-.059A.23.23,0,0,0-.146,7.8V6.78l.039-.269c.028-.2.058-.409.1-.614A7.074,7.074,0,0,1,1.27,2.957,7.355,7.355,0,0,1,5.519.1,8.407,8.407,0,0,1,7.5-.148a7.363,7.363,0,0,1,4.7,1.716,7.083,7.083,0,0,1,2.7,4.968A7.132,7.132,0,0,1,13.654,11.4c-.138.2-.287.393-.445.6l-.13.167a.448.448,0,0,1,.035.031c1.483,1.456,2.952,2.9,4.329,4.258a.681.681,0,0,1,.16.944,1,1,0,0,1-.276.231c-.039.025-.076.05-.11.075Zm-.244-.3h.146l.085-.056a.775.775,0,0,0,.2-.159c.121-.162.077-.347-.13-.551-1.377-1.356-2.846-2.8-4.329-4.258a.422.422,0,0,0-.074-.051l-.052-.032-.131-.089.1-.126c.079-.1.155-.2.23-.3.155-.2.3-.387.433-.581A6.84,6.84,0,0,0,14.6,6.566,6.793,6.793,0,0,0,12.006,1.8,7.07,7.07,0,0,0,7.5.152,8.107,8.107,0,0,0,5.59.389,7.062,7.062,0,0,0,1.511,3.136,6.776,6.776,0,0,0,.282,5.953c-.037.2-.066.4-.094.6-.012.087-.025.174-.038.261v.931l.006.021a.6.6,0,0,1,.024.117A6.458,6.458,0,0,0,.5,9.472a7.1,7.1,0,0,0,3.28,3.977,7.043,7.043,0,0,0,3.555.958,8.029,8.029,0,0,0,1.343-.117,7.1,7.1,0,0,0,3.137-1.374c.034-.026.068-.048.1-.07l.047-.032.1-.068.123.114c.031.028.059.054.086.081l.934.92c1.109,1.091,2.255,2.22,3.386,3.326a1.451,1.451,0,0,0,.244.177Zm-9.427-3.84a6.581,6.581,0,0,1-.846-.054A6.264,6.264,0,0,1,1.5,9.757,6.558,6.558,0,0,1,.987,7.063V7.058A6.04,6.04,0,0,1,4.058,1.919,6.406,6.406,0,0,1,7.374.948a6.565,6.565,0,0,1,3.061.8,5.978,5.978,0,0,1,3.292,4.7,6.006,6.006,0,0,1-2.47,5.846A6.033,6.033,0,0,1,7.507,13.588ZM1.287,7.067A6.249,6.249,0,0,0,1.776,9.63,5.98,5.98,0,0,0,6.7,13.236a6.512,6.512,0,0,0,.808.051,5.739,5.739,0,0,0,3.568-1.23,5.724,5.724,0,0,0,2.355-5.57A5.689,5.689,0,0,0,10.3,2.013a6.269,6.269,0,0,0-2.922-.765,6.111,6.111,0,0,0-3.161.929,5.752,5.752,0,0,0-2.93,4.89Z" fill="#232837"/>
  </g>
</svg>
