<svg xmlns="http://www.w3.org/2000/svg" width="12.351" height="10.914" viewBox="0 0 12.351 10.914">
  <g id="ic_add_property_text_list" transform="translate(-0.001 0)">
    <path id="Path_85" data-name="Path 85" d="M131.638,24.006h3.406a.426.426,0,0,1,.467.4.42.42,0,0,1-.356.451.922.922,0,0,1-.161.01h-6.717c-.29,0-.464-.123-.509-.358a.423.423,0,0,1,.37-.5,1.609,1.609,0,0,1,.161,0h3.338Z" transform="translate(-123.165 -23.142)"/>
    <path id="Path_86" data-name="Path 86" d="M131.6,248.4h-3.379a.443.443,0,0,1-.461-.278.428.428,0,0,1,.317-.569.639.639,0,0,1,.133-.014h6.8a.433.433,0,0,1,.477.46.419.419,0,0,1-.386.4c-.085.006-.17,0-.256,0H131.6Z" transform="translate(-123.139 -238.637)"/>
    <path id="Path_87" data-name="Path 87" d="M131.584,135.769h3.406a.431.431,0,0,1,.078.859.915.915,0,0,1-.094,0h-6.785a.45.45,0,0,1-.465-.294.43.43,0,0,1,.427-.567h3.432Z" transform="translate(-123.108 -130.885)"/>
    <path id="Path_88" data-name="Path 88" d="M.04,105.363a1.578,1.578,0,1,1,1.572,1.58,1.578,1.578,0,0,1-1.572-1.58Zm.862,0a.717.717,0,1,0,.21-.507.716.716,0,0,0-.21.507Z" transform="translate(-0.039 -100.047)"/>
    <path id="Path_89" data-name="Path 89" d="M.04,217.3A1.573,1.573,0,1,1,.5,218.414,1.578,1.578,0,0,1,.04,217.3Zm.862,0a.712.712,0,1,0,.207-.507A.716.716,0,0,0,.9,217.3Z" transform="translate(-0.039 -207.961)"/>
    <path id="Path_90" data-name="Path 90" d="M1.3,1.549,1.851.993c.288-.289.575-.58.867-.865A.427.427,0,0,1,3.324.122a.42.42,0,0,1,.008.6Q2.472,1.6,1.6,2.459a.414.414,0,0,1-.6,0Q.563,2.031.139,1.6A.43.43,0,0,1,.745.99c.183.178.36.363.553.558Z" transform="translate(-0.01 0.001)"/>
  </g>
</svg>
