<svg xmlns="http://www.w3.org/2000/svg" width="44.653" height="9.891" viewBox="0 0 44.653 9.891">
  <g id="ic_add_property_payment_bitcoin" transform="translate(-8.391 -33.121)">
    <g id="Group_4" data-name="Group 4" transform="translate(8.394 33.122)">
      <path id="Path_15" data-name="Path 15" d="M19.027,39.261a4.886,4.886,0,0,1-5.927,3.6A4.946,4.946,0,0,1,9.54,36.87a4.885,4.885,0,0,1,5.925-3.6,4.946,4.946,0,0,1,3.561,5.991Zm-2.588-1.9c.1-.658-.4-1.011-1.076-1.247l.22-.891-.537-.135-.214.868c-.141-.036-.286-.069-.43-.1l.215-.873-.536-.135-.22.891c-.117-.027-.231-.053-.343-.081h0l-.74-.187-.143.579s.4.092.39.1a.288.288,0,0,1,.25.315l-.25,1.015a.439.439,0,0,1,.056.018l-.057-.014L12.675,38.9a.2.2,0,0,1-.246.129c.005.008-.39-.1-.39-.1l-.266.621.7.176.383.1-.222.9.536.135.22-.892c.146.04.289.077.428.112l-.219.887.537.135.222-.9c.915.175,1.6.1,1.892-.732a.955.955,0,0,0-.493-1.315.862.862,0,0,0,.685-.8ZM15.213,39.1c-.166.674-1.288.309-1.651.218l.3-1.194c.364.092,1.53.273,1.357.976Zm.166-1.747c-.151.613-1.085.3-1.388.225l.267-1.083c.3.076,1.278.219,1.121.858Zm0,0" transform="translate(-9.394 -33.122)" fill="#f7931a" fill-rule="evenodd"/>
      <path id="Path_16" data-name="Path 16" d="M44.617,36.118a2.313,2.313,0,0,1,1.027.213,2.072,2.072,0,0,1,.719.576,2.434,2.434,0,0,1,.42.851,3.925,3.925,0,0,1,.135,1.051,4.3,4.3,0,0,1-1.175,2.972,4.045,4.045,0,0,1-1.287.9,3.893,3.893,0,0,1-1.608.332c-.075,0-.206,0-.391-.006a5.65,5.65,0,0,1-.636-.056,7.393,7.393,0,0,1-.761-.151,3.788,3.788,0,0,1-.761-.275l2.141-9.1,1.918-.3-.767,3.228a2.96,2.96,0,0,1,.5-.175,2.175,2.175,0,0,1,.532-.063Zm-1.609,5.356a1.666,1.666,0,0,0,.817-.213,2.155,2.155,0,0,0,.663-.569,2.881,2.881,0,0,0,.439-.807,2.777,2.777,0,0,0,.161-.939,1.864,1.864,0,0,0-.2-.938.775.775,0,0,0-.73-.338,2.268,2.268,0,0,0-.451.062,1.123,1.123,0,0,0-.5.263l-.816,3.428.13.025a.958.958,0,0,0,.117.019,1.328,1.328,0,0,0,.149.007Zm5.586,1.363H46.763l1.547-6.58h1.844L48.6,42.837Zm.891-7.382a1.129,1.129,0,0,1-.693-.231.821.821,0,0,1-.31-.707,1.187,1.187,0,0,1,.1-.494,1.321,1.321,0,0,1,.279-.4,1.369,1.369,0,0,1,.4-.269,1.216,1.216,0,0,1,.49-.1,1.129,1.129,0,0,1,.693.231.829.829,0,0,1,.309.707,1.18,1.18,0,0,1-.1.495,1.3,1.3,0,0,1-.278.4,1.344,1.344,0,0,1-.4.268,1.2,1.2,0,0,1-.489.1Zm1.959-.837,1.919-.3-.471,1.94h2.055l-.371,1.526H52.534l-.544,2.3a2.629,2.629,0,0,0-.086.538.992.992,0,0,0,.061.432.54.54,0,0,0,.266.281,1.206,1.206,0,0,0,.551.1,2.9,2.9,0,0,0,.576-.057,4.053,4.053,0,0,0,.562-.156l.137,1.427a6.521,6.521,0,0,1-.8.237,4.585,4.585,0,0,1-1.028.1A2.818,2.818,0,0,1,50.9,42.73a1.48,1.48,0,0,1-.669-.7,2.251,2.251,0,0,1-.173-1.019,6.661,6.661,0,0,1,.173-1.214Zm3.421,5.593a4.666,4.666,0,0,1,.272-1.6,3.949,3.949,0,0,1,.78-1.315,3.655,3.655,0,0,1,1.232-.888,3.9,3.9,0,0,1,1.614-.325,4.219,4.219,0,0,1,1,.107,4,4,0,0,1,.8.281l-.632,1.452c-.165-.068-.336-.127-.513-.181a2.212,2.212,0,0,0-.65-.082,1.807,1.807,0,0,0-1.455.638,2.575,2.575,0,0,0-.539,1.715,1.777,1.777,0,0,0,.273,1.032,1.135,1.135,0,0,0,1,.394,3.178,3.178,0,0,0,.693-.075,3.39,3.39,0,0,0,.594-.188l.137,1.489a6.581,6.581,0,0,1-.767.245,4.223,4.223,0,0,1-1,.1,3.351,3.351,0,0,1-1.3-.225,2.473,2.473,0,0,1-.878-.607,2.294,2.294,0,0,1-.5-.9,3.71,3.71,0,0,1-.156-1.075Zm7.823,2.8a2.967,2.967,0,0,1-1.139-.2,2.1,2.1,0,0,1-.8-.563,2.441,2.441,0,0,1-.477-.857,3.5,3.5,0,0,1-.16-1.094,4.875,4.875,0,0,1,.241-1.5,4.268,4.268,0,0,1,.712-1.351,3.811,3.811,0,0,1,1.15-.983,3.138,3.138,0,0,1,1.559-.381,2.98,2.98,0,0,1,1.133.2,2.117,2.117,0,0,1,.8.563,2.452,2.452,0,0,1,.475.857,3.507,3.507,0,0,1,.161,1.094,5.036,5.036,0,0,1-.234,1.5,4.352,4.352,0,0,1-.693,1.351,3.644,3.644,0,0,1-1.145.982,3.222,3.222,0,0,1-1.591.382Zm.916-5.355a1.15,1.15,0,0,0-.717.237,2.044,2.044,0,0,0-.519.6,3,3,0,0,0-.317.8,3.469,3.469,0,0,0-.1.819,2.015,2.015,0,0,0,.2.977.754.754,0,0,0,.718.35,1.143,1.143,0,0,0,.718-.238,2.047,2.047,0,0,0,.519-.6,3,3,0,0,0,.317-.794,3.5,3.5,0,0,0,.1-.819,2,2,0,0,0-.2-.976.754.754,0,0,0-.718-.35Zm4.43,5.18H66.2l1.547-6.58h1.845l-1.559,6.58Zm.89-7.382a1.127,1.127,0,0,1-.693-.231.824.824,0,0,1-.31-.707,1.183,1.183,0,0,1,.105-.494,1.3,1.3,0,0,1,.279-.4,1.369,1.369,0,0,1,.4-.269,1.207,1.207,0,0,1,.488-.1,1.129,1.129,0,0,1,.693.231.828.828,0,0,1,.31.707,1.2,1.2,0,0,1-.106.495,1.3,1.3,0,0,1-.278.4,1.358,1.358,0,0,1-.4.268,1.2,1.2,0,0,1-.49.1Zm1.361,1.1c.139-.041.294-.091.463-.144s.359-.1.57-.149a6.769,6.769,0,0,1,.7-.113A7.846,7.846,0,0,1,72.9,36.1a2.2,2.2,0,0,1,2,.851,2.931,2.931,0,0,1,.193,2.327l-.843,3.553H72.415l.817-3.478c.05-.217.089-.427.118-.632a1.511,1.511,0,0,0-.007-.538.644.644,0,0,0-.228-.376.878.878,0,0,0-.551-.144,3.686,3.686,0,0,0-.73.076l-1.2,5.091H68.789l1.5-6.28Zm0,0" transform="translate(-30.601 -33.126)" fill="#4d4d4d" fill-rule="evenodd"/>
    </g>
  </g>
</svg>
