<svg xmlns="http://www.w3.org/2000/svg" width="9.079" height="11.916" viewBox="0 0 9.079 11.916">
  <path id="ic_add_property_text_italian" d="M8.819,0c.016.01.03.021.046.03A.349.349,0,0,1,8.712.7h-.92a1.039,1.039,0,0,0-1.072.83L4.536,10.323c-.036.146-.075.293-.11.44a.337.337,0,0,0,.364.455H5.919a.347.347,0,0,1,.331.491.339.339,0,0,1-.324.206H.433a.785.785,0,0,1-.151-.007A.352.352,0,0,1,0,11.538a.349.349,0,0,1,.343-.318h.931a1.034,1.034,0,0,0,1.1-.857Q3.5,5.783,4.639,1.206C4.719.884,4.577.7,4.248.7H3.19A.36.36,0,0,1,2.8.423a.354.354,0,0,1,.234-.4c.006,0,.009-.011.014-.017H8.82Z" transform="translate(0.001)"/>
</svg>
