<svg width="18" height="22" viewBox="0 0 18 22" fill="none" xmlns="http://www.w3.org/2000/svg">
<path d="M15.0494 11.3193C15.0399 9.56429 15.8337 8.23964 17.4405 7.26408C16.5414 5.97768 15.1833 5.26993 13.39 5.13124C11.6923 4.99734 9.83688 6.12115 9.15781 6.12115C8.44049 6.12115 6.79543 5.17907 5.50425 5.17907C2.83581 5.2221 0 7.30712 0 11.5489C0 12.8018 0.229543 14.0962 0.688629 15.432C1.30074 17.187 3.5101 21.491 5.81509 21.4192C7.02019 21.3905 7.87141 20.5632 9.43996 20.5632C10.9607 20.5632 11.7497 21.4192 13.0935 21.4192C15.4176 21.3858 17.4166 17.474 18 15.7141C14.882 14.246 15.0494 11.4102 15.0494 11.3193ZM12.3427 3.46706C13.6482 1.91764 13.5287 0.506908 13.4904 0C12.3379 0.0669501 11.0037 0.784272 10.2434 1.66897C9.40648 2.61583 8.91392 3.78746 9.01913 5.10733C10.2673 5.20298 11.4054 4.56217 12.3427 3.46706Z" fill="black"/>
</svg>
