<svg xmlns="http://www.w3.org/2000/svg" width="48.214" height="9.594" viewBox="0 0 48.214 9.594"><path d="M78.8.034V.205a2.377,2.377,0,0,1,2.12,2.158h.186c-.006-.869-.01-1.7-.06-2.329C80.387,0,79.632,0,78.8.034Z" transform="translate(-77.764 -0.008)" fill="#c7112b"/><path d="M78.8,506.03v-.117a2.886,2.886,0,0,0,2.364-2.4l.212.016-.153,2.51Z" transform="translate(-77.764 -496.888)" fill="#c7112b"/><path d="M269,2.2c1.152.135.644.559,4.269,9.329l1.692-3.692-.2-.057c-.932,1.351-1.009,1.325-1.556,0L271.352,3.1c-.329-.641-.026-.921.8-.9V2H269Z" transform="translate(-265.462 -1.974)" fill="#c7112b"/><path d="M263.153,504.74c-.028.793-.076,1.624-.153,2.51" transform="translate(-259.541 -498.102)" fill="#4d4d4d"/><path d="M81.223,695.106q-1.194.032-2.423-.006" transform="translate(-77.764 -685.958)" fill="#4d4d4d"/><path d="M0,219.938l.009.184a1.72,1.72,0,0,1,1.3,1.608h.23L1.5,218.34h-.2A1.647,1.647,0,0,1,0,219.938Z" transform="translate(0 -215.468)" fill="#c7112b"/><path d="M710,2a1.431,1.431,0,0,1,0,.186c1.328-.044,1.328,1.25.886,2.687h.179c.582-1.3,1.157-2.634,2.044-2.692V2.015Z" transform="translate(-700.662 -1.974)" fill="#c7112b"/><path d="M997.24,574.87h.287v1.76h1.089v.25H997.24Z" transform="translate(-984.125 -567.31)" fill="#4d4d4d"/><path d="M1128.4,576.63v.25h-1.459v-2.01h1.419v.25h-1.131v.618h1.008v.244h-1.008v.649Z" transform="translate(-1112.119 -567.31)" fill="#4d4d4d"/><path d="M1251.879,575.12h-.689v-.25h1.663v.25h-.689v1.76h-.284Z" transform="translate(-1234.735 -567.31)" fill="#4d4d4d"/><path d="M1395.28,564.585a.559.559,0,0,1-.046.2l-.138.4h-.18l.106-.428a.183.183,0,0,1-.121-.178.188.188,0,0,1,.193-.2A.184.184,0,0,1,1395.28,564.585Z" transform="translate(-1376.556 -556.967)" fill="#4d4d4d"/><path d="M1445.09,574.973l.106-.224a1.033,1.033,0,0,0,.663.233c.348,0,.5-.135.5-.31,0-.491-1.218-.181-1.218-.928,0-.31.241-.574.77-.574a1.183,1.183,0,0,1,.646.178l-.095.23a1.039,1.039,0,0,0-.551-.164c-.342,0-.488.143-.488.319,0,.491,1.218.184,1.218.922,0,.307-.247.571-.778.571A1.2,1.2,0,0,1,1445.09,574.973Z" transform="translate(-1426.085 -565.632)" fill="#4d4d4d"/><path d="M1642.556,574.107h.276v.784a1.189,1.189,0,0,1-.761.255,1.029,1.029,0,1,1,.006-2.056,1.007,1.007,0,0,1,.772.31l-.179.179a.8.8,0,0,0-.583-.233.773.773,0,1,0,0,1.545.851.851,0,0,0,.471-.129Z" transform="translate(-1619.418 -565.553)" fill="#4d4d4d"/><path d="M1823.344,576.88l-.434-.617c-.04,0-.083.006-.127.006h-.5v.612H1822v-2.01h.784c.523,0,.839.264.839.7a.634.634,0,0,1-.443.635l.477.675Zm-.009-1.309c0-.287-.192-.451-.56-.451h-.488v.9h.488C1823.143,576.025,1823.335,575.858,1823.335,575.571Z" transform="translate(-1798.038 -567.31)" fill="#4d4d4d"/><path d="M1968.28,574.158a1.069,1.069,0,1,1,1.071,1.028A1.022,1.022,0,0,1,1968.28,574.158Zm1.85,0a.781.781,0,1,0-.778.772A.755.755,0,0,0,1970.13,574.158Z" transform="translate(-1942.394 -565.592)" fill="#4d4d4d"/><path d="M2146.45,574.87l-.672,2.01h-.3l-.548-1.605-.549,1.605h-.307l-.672-2.01h.3l.543,1.634.566-1.634h.264l.554,1.643.554-1.643Z" transform="translate(-2115.211 -567.31)" fill="#4d4d4d"/><path d="M2442.589,575.12h-.689v-.25h1.663v.25h-.689v1.76h-.284Z" transform="translate(-2409.785 -567.31)" fill="#4d4d4d"/><path d="M2577.51,574.158a1.069,1.069,0,1,1,1.071,1.028A1.022,1.022,0,0,1,2577.51,574.158Zm1.85,0a.781.781,0,1,0-.778.772A.755.755,0,0,0,2579.36,574.158Z" transform="translate(-2543.612 -565.592)" fill="#4d4d4d"/><path d="M2762.526,574.107h.276v.784a1.189,1.189,0,0,1-.761.255,1.029,1.029,0,1,1,.006-2.056,1.006,1.006,0,0,1,.773.31l-.179.179a.8.8,0,0,0-.583-.233.773.773,0,1,0,0,1.545.851.851,0,0,0,.471-.129Z" transform="translate(-2724.659 -565.553)" fill="#4d4d4d"/><path d="M2943.458,576.63v.25H2942v-2.01h1.418v.25h-1.131v.618h1.008v.244h-1.008v.649Z" transform="translate(-2903.308 -567.31)" fill="#4d4d4d"/><path d="M3066.89,575.12h-.689v-.25h1.663v.25h-.689v1.76h-.284Z" transform="translate(-3025.876 -567.31)" fill="#4d4d4d"/><path d="M3218.12,574.87v2.01h-.288v-.9h-1.155v.9h-.287v-2.01h.287v.864h1.155v-.864Z" transform="translate(-3174.09 -567.31)" fill="#4d4d4d"/><path d="M3395.2,576.63v.25h-1.459v-2.01h1.418v.25h-1.131v.618h1.008v.244h-1.008v.649Z" transform="translate(-3349.107 -567.31)" fill="#4d4d4d"/><path d="M3541.345,576.88l-.435-.617c-.04,0-.083.006-.126.006h-.5v.612H3540v-2.01h.784c.522,0,.839.264.839.7a.634.634,0,0,1-.442.635l.477.675Zm-.009-1.309c0-.287-.192-.451-.56-.451h-.488v.9h.488C3541.144,576.025,3541.336,575.858,3541.336,575.571Z" transform="translate(-3493.443 -567.31)" fill="#4d4d4d"/><path d="M986.45,487.066q4.4-.041,8.807-.051l2.2-.006,2.2,0,4.4,0,4.4,0,2.2,0,2.2.006q4.4.015,8.807.051-4.4.041-8.807.051l-2.2.006-2.2,0-4.4,0-4.4,0-2.2,0-2.2-.006Q990.854,487.1,986.45,487.066Z" transform="translate(-973.477 -480.595)" fill="#4d4d4d"/><path d="M991.567,1.99h.158V3.267h-.158a.75.75,0,0,0-.208-.421,1.077,1.077,0,0,0-.533-.085h-1.315V4.643a.365.365,0,0,0,.088.278.443.443,0,0,0,.3.081h.926a2.92,2.92,0,0,0,.687-.054.669.669,0,0,0,.321-.2,1.9,1.9,0,0,0,.28-.473h.158l-.244.981H988.21V5.1a.539.539,0,0,0,.479-.182,1.221,1.221,0,0,0,.122-.644V.991a1.221,1.221,0,0,0-.126-.659.544.544,0,0,0-.474-.179V0h3.817V.878h-.1a.888.888,0,0,0-.233-.5,1.152,1.152,0,0,0-.657-.123h-1.527v2.25h1.482a.6.6,0,0,0,.413-.108A.745.745,0,0,0,991.567,1.99Z" transform="translate(-975.213 0)"/><path d="M1330.78,145.85v.65a1.611,1.611,0,0,1,1.184-.65,1.064,1.064,0,0,1,.791.321,1.152,1.152,0,0,1,.316.846v1.468a.628.628,0,0,0,.113.444.66.66,0,0,0,.443.108v.152h-1.748v-.152a.837.837,0,0,0,.445-.083.366.366,0,0,0,.12-.321v-1.7a.727.727,0,0,0-.206-.543.719.719,0,0,0-.526-.2,1.259,1.259,0,0,0-.931.636v1.59a.817.817,0,0,0,.105.514.628.628,0,0,0,.441.11v.152H1329.6v-.152q.375,0,.46-.119a.982.982,0,0,0,.086-.506v-1.834a.517.517,0,0,0-.1-.384.719.719,0,0,0-.443-.092v-.153l1.021-.1Z" transform="translate(-1312.114 -143.932)"/><path d="M1652.98,145.85v.65a1.611,1.611,0,0,1,1.184-.65,1.063,1.063,0,0,1,.79.321,1.154,1.154,0,0,1,.316.846v1.468a.627.627,0,0,0,.113.444.659.659,0,0,0,.443.108v.152h-1.748v-.152a.837.837,0,0,0,.445-.083.367.367,0,0,0,.12-.321v-1.7a.727.727,0,0,0-.206-.543.719.719,0,0,0-.526-.2,1.258,1.258,0,0,0-.931.636v1.59a.816.816,0,0,0,.105.514.627.627,0,0,0,.441.11v.152H1651.8v-.152q.375,0,.46-.119a.983.983,0,0,0,.086-.506v-1.834a.518.518,0,0,0-.1-.384.72.72,0,0,0-.443-.092v-.153l1.021-.1Z" transform="translate(-1630.076 -143.932)"/><path d="M1891.955,0V.161q-.584,0-.963,1.022l-1.563,4.146h-.15l-1.641-4.267a2.262,2.262,0,0,0-.4-.746.713.713,0,0,0-.479-.163V0h1.925V.152q-.464,0-.464.354a.725.725,0,0,0,.059.264l1.3,3.393,1.23-3.276a1.085,1.085,0,0,0,.077-.363q0-.372-.473-.372V0Z" transform="translate(-1861.946 0)"/><path d="M2291.8,19.733h.157v2.738a.435.435,0,0,0,.117.359.745.745,0,0,0,.429.09v.152h-1.793V22.92a.938.938,0,0,0,.506-.088.444.444,0,0,0,.113-.362v-2a.535.535,0,0,0-.1-.391.875.875,0,0,0-.515-.094v-.152Zm-.145-1.681a.385.385,0,0,1,.283.114.379.379,0,0,1,.115.28.39.39,0,0,1-.117.285.38.38,0,0,1-.28.118.4.4,0,0,1-.29-.118.383.383,0,0,1-.122-.285.372.372,0,0,1,.12-.28.407.407,0,0,1,.291-.114Z" transform="translate(-2260.583 -17.815)"/><path d="M2471.4,145.771v1h-.185a.972.972,0,0,0-.271-.6.753.753,0,0,0-.547-.222.6.6,0,0,0-.393.121.394.394,0,0,0-.149.323.5.5,0,0,0,.138.347,2.032,2.032,0,0,0,.6.361,2.146,2.146,0,0,1,.789.515.935.935,0,0,1,.192.592.95.95,0,0,1-.308.706,1.008,1.008,0,0,1-.727.3,1.529,1.529,0,0,1-.574-.157.862.862,0,0,0-.258-.085.191.191,0,0,0-.145.063.258.258,0,0,0-.067.157h-.158v-1.107h.158a1.191,1.191,0,0,0,.379.693.992.992,0,0,0,.673.257.559.559,0,0,0,.409-.161.536.536,0,0,0,.165-.4.573.573,0,0,0-.152-.4,2.071,2.071,0,0,0-.657-.389,2.145,2.145,0,0,1-.75-.463.785.785,0,0,1-.181-.52.871.871,0,0,1,.3-.658,1,1,0,0,1,.7-.276,1.1,1.1,0,0,1,.412.09.732.732,0,0,0,.257.063.208.208,0,0,0,.195-.152Z" transform="translate(-2436.864 -143.853)"/><path d="M2673.089,19.733h.158v2.738a.434.434,0,0,0,.117.359.743.743,0,0,0,.429.09v.152H2672V22.92a.937.937,0,0,0,.506-.088.445.445,0,0,0,.113-.362v-2a.535.535,0,0,0-.1-.391.877.877,0,0,0-.515-.094v-.152Zm-.144-1.681a.385.385,0,0,1,.282.114.379.379,0,0,1,.115.28.39.39,0,0,1-.117.285.381.381,0,0,1-.28.118.4.4,0,0,1-.29-.118.382.382,0,0,1-.122-.285.371.371,0,0,1,.12-.28A.407.407,0,0,1,2672.944,18.053Z" transform="translate(-2636.859 -17.815)"/><path d="M2851.408,147.535a1.626,1.626,0,0,1-.513,1.226,1.917,1.917,0,0,1-2.562,0,1.735,1.735,0,0,1,0-2.46,1.923,1.923,0,0,1,2.566,0A1.643,1.643,0,0,1,2851.408,147.535Zm-.682,0a1.921,1.921,0,0,0-.3-1.122.995.995,0,0,0-1.626-.009,2.277,2.277,0,0,0,0,2.249,1,1,0,0,0,1.631,0,1.9,1.9,0,0,0,.3-1.113Z" transform="translate(-2810.367 -143.892)"/><path d="M3153.33,145.85v.65a1.611,1.611,0,0,1,1.184-.65,1.064,1.064,0,0,1,.791.321,1.154,1.154,0,0,1,.316.846v1.468a.628.628,0,0,0,.113.444.66.66,0,0,0,.443.108v.152h-1.749v-.152a.837.837,0,0,0,.445-.083.366.366,0,0,0,.12-.321v-1.7a.727.727,0,0,0-.206-.543.718.718,0,0,0-.526-.2,1.258,1.258,0,0,0-.93.636v1.59a.819.819,0,0,0,.1.514.628.628,0,0,0,.441.11v.152h-1.726v-.152q.375,0,.46-.119a.984.984,0,0,0,.086-.506v-1.834a.517.517,0,0,0-.1-.384.719.719,0,0,0-.442-.092v-.153l1.021-.1Z" transform="translate(-3110.695 -143.932)"/><path d="M3497.094,145.771v1h-.185a.971.971,0,0,0-.271-.6.753.753,0,0,0-.547-.222.6.6,0,0,0-.393.121.4.4,0,0,0-.149.323.5.5,0,0,0,.138.347,2.042,2.042,0,0,0,.6.361,2.138,2.138,0,0,1,.789.515.933.933,0,0,1,.192.592.95.95,0,0,1-.307.706,1.006,1.006,0,0,1-.727.3,1.524,1.524,0,0,1-.574-.157.864.864,0,0,0-.258-.085.19.19,0,0,0-.145.063.26.26,0,0,0-.068.157h-.158v-1.107h.158a1.2,1.2,0,0,0,.38.693.994.994,0,0,0,.674.257.56.56,0,0,0,.408-.161.536.536,0,0,0,.165-.4.571.571,0,0,0-.152-.4,2.078,2.078,0,0,0-.658-.389,2.128,2.128,0,0,1-.749-.463.781.781,0,0,1-.18-.52.869.869,0,0,1,.3-.658,1,1,0,0,1,.7-.276,1.1,1.1,0,0,1,.411.09.732.732,0,0,0,.257.063.207.207,0,0,0,.194-.152Z" transform="translate(-3449.064 -143.853)"/></svg>