<svg xmlns="http://www.w3.org/2000/svg" width="19.028" height="19.033" viewBox="0 0 19.028 19.033">
  <g id="ic_add_property_add_card" transform="translate(0.044 -0.01)">
    <path id="Path_1" data-name="Path 1" d="M18.984,9.713a.981.981,0,0,1-.744.721,1.651,1.651,0,0,1-.313.021H10.413v.227c0,2.4-.009,4.8.006,7.191a1.064,1.064,0,0,1-.749,1.17H9.3a.987.987,0,0,1-.721-.745,1.545,1.545,0,0,1-.021-.3q0-3.652,0-7.3v-.244H.967A.929.929,0,1,1,.911,8.6c.841-.006,1.681,0,2.522,0H8.556V8.372c0-2.4.009-4.8-.007-7.192A1.064,1.064,0,0,1,9.3.01h.37a.979.979,0,0,1,.72.745,1.656,1.656,0,0,1,.021.314q0,3.642,0,7.284V8.6h.226c2.393,0,4.785.009,7.178-.007a1.061,1.061,0,0,1,1.168.751v.372Z" fill="#232837"/>
  </g>
</svg>
