<svg width="14" height="23" viewBox="0 0 14 23" fill="none" xmlns="http://www.w3.org/2000/svg">
<path d="M6.99976 10.7231C9.02322 10.7231 10.6694 9.07712 10.6694 7.05392C10.6694 5.03073 9.02322 3.38477 6.99976 3.38477C4.9763 3.38477 3.33008 5.03073 3.33008 7.05392C3.33008 9.07712 4.9763 10.7231 6.99976 10.7231ZM6.99976 4.69625C8.29997 4.69625 9.35778 5.75393 9.35778 7.05392C9.35778 8.35395 8.30001 9.41163 6.99976 9.41163C5.69951 9.41163 4.64174 8.35395 4.64174 7.05392C4.64174 5.75393 5.69955 4.69625 6.99976 4.69625Z" fill="#006197"/>
<path d="M3.0043 13.647C3.99832 14.9927 3.59896 14.4693 6.4621 18.5571C6.72234 18.9301 7.27573 18.9319 7.53745 18.5577C10.4135 14.4505 10.0178 14.9707 10.9956 13.647C11.9862 12.3059 13.0105 10.9192 13.5718 9.29426C14.3842 6.94197 14.033 4.61452 12.5831 2.74059C12.583 2.74059 12.583 2.74054 12.583 2.74054C11.2548 1.0245 9.16767 0 6.99997 0C4.83227 0 2.74516 1.0245 1.41693 2.74063C-0.0330296 4.61456 -0.384205 6.94206 0.428238 9.29435C0.989455 10.9193 2.01378 12.306 3.0043 13.647ZM2.45428 3.54319C3.53587 2.14579 5.23522 1.31149 6.99997 1.31149C8.76473 1.31149 10.4641 2.14579 11.5457 3.54319L11.5456 3.54315C12.7159 5.05558 12.9951 6.94604 12.3319 8.86622C11.8362 10.3015 10.8725 11.6062 9.94054 12.8678C9.21493 13.8501 9.4321 13.5497 6.99997 17.036C4.57038 13.5532 4.78479 13.8498 4.0594 12.8678C3.12746 11.6062 2.16379 10.3015 1.66802 8.86622C1.00484 6.94599 1.28405 5.05558 2.45428 3.54319Z" fill="#006197"/>
<path d="M3.54343 16.4902C3.35001 16.1841 2.94497 16.0925 2.63874 16.286L0.77399 17.4638C0.3672 17.7207 0.366807 18.3154 0.77399 18.5726L6.65024 22.284C6.86417 22.4192 7.13682 22.4191 7.35071 22.284L13.227 18.5726C13.6338 18.3156 13.6341 17.7209 13.227 17.4638L11.3622 16.286C11.0559 16.0926 10.6509 16.1841 10.4575 16.4902C10.264 16.7964 10.3555 17.2014 10.6617 17.3948L11.6487 18.0182L7.00045 20.954L2.35223 18.0182L3.33921 17.3948C3.64544 17.2014 3.73686 16.7964 3.54343 16.4902Z" fill="#006197"/>
</svg>
