<svg xmlns="http://www.w3.org/2000/svg" width="17" height="17" viewBox="0 0 17 17">
  <g id="ic_add_property_additional_sel" transform="translate(-153 -1509)">
    <rect id="Rectangle_2" data-name="Rectangle 2" width="17" height="17" rx="2" transform="translate(153 1509)" fill="#00b0e9"/>
    <rect id="Rectangle_3" data-name="Rectangle 3" width="15" height="15" rx="7.5" transform="translate(154 1510)" fill="#fff"/>
    <path id="Path_5" data-name="Path 5" d="M8.627,16.239H7.612c-.2-.024-.4-.046-.594-.074A8.151,8.151,0,0,1,.126,9.536c-.054-.3-.085-.6-.126-.907V7.614c.024-.2.045-.4.074-.6A7.964,7.964,0,0,1,2.32,2.453,7.944,7.944,0,0,1,7.923.008a7.617,7.617,0,0,1,4.294,1.115,7.959,7.959,0,0,1,4.015,6.863,7.576,7.576,0,0,1-1.15,4.3,8.012,8.012,0,0,1-5.564,3.83C9.223,16.171,8.924,16.2,8.627,16.239ZM7.37,9.406c-.061-.079-.081-.111-.107-.137-.53-.531-1.062-1.06-1.59-1.592a.677.677,0,1,0-.97.943q1.044,1.052,2.1,2.1a.7.7,0,0,0,1.124,0L12.147,6.5a1.787,1.787,0,0,0,.131-.138.672.672,0,0,0-.4-1.092.688.688,0,0,0-.64.231L7.5,9.222a1.541,1.541,0,0,0-.132.183Z" transform="translate(153.382 1509.378)" fill="#00b0e9"/>
  </g>
</svg>
