<svg width="7" height="23" viewBox="0 0 7 23" fill="none" xmlns="http://www.w3.org/2000/svg">
<path d="M0.0578612 19.5C0.0578613 21.15 1.40644 22.5 3.05471 22.5C4.70298 22.5 6.05156 21.15 6.05156 19.5C6.05156 17.85 4.70298 16.5 3.05471 16.5C1.40644 16.5 0.0578611 17.85 0.0578612 19.5ZM4.55314 19.5C4.55314 20.325 3.87885 21 3.05471 21C2.23058 21 1.55629 20.325 1.55629 19.5C1.55629 18.675 2.23058 18 3.05471 18C3.87885 18 4.55314 18.675 4.55314 19.5Z" fill="#006197"/>
<path d="M0.0578612 3C0.0578612 3.4125 0.395007 3.75 0.807074 3.75C1.21914 3.75 1.55629 3.4125 1.55629 3C1.55629 2.175 2.23058 1.5 3.05471 1.5C3.87885 1.5 4.55314 2.175 4.55314 3C4.55314 3.825 3.87885 4.5 3.05471 4.5C2.64264 4.5 2.3055 4.8375 2.3055 5.25C2.3055 5.6625 2.64264 6 3.05471 6C4.70298 6 6.05156 4.65 6.05156 3C6.05156 1.35 4.70298 -2.58744e-06 3.05471 -2.51532e-06C1.40644 -2.4432e-06 0.0578611 1.35 0.0578612 3Z" fill="#006197"/>
<path d="M0.0578612 11.25C0.0578613 12.9 1.40644 14.25 3.05471 14.25C4.70298 14.25 6.05156 12.9 6.05156 11.25C6.05156 9.6 4.70298 8.25 3.05471 8.25C1.40644 8.25 0.0578611 9.6 0.0578612 11.25ZM4.55314 11.25C4.55314 12.075 3.87885 12.75 3.05471 12.75C2.23058 12.75 1.55629 12.075 1.55629 11.25C1.55629 10.425 2.23058 9.75 3.05471 9.75C3.87885 9.75 4.55314 10.425 4.55314 11.25Z" fill="#006197"/>
</svg>
