<svg width="23" height="12" viewBox="0 0 23 12" fill="none" xmlns="http://www.w3.org/2000/svg">
<path d="M21.9545 5.00002L3.56942 5.00002L7.01196 1.7071C7.42024 1.31663 7.42024 0.683431 7.01196 0.292899C6.60374 -0.0976331 5.94176 -0.0976331 5.53348 0.292899L0.306213 5.29288C-0.102071 5.68335 -0.102071 6.31655 0.306213 6.70708L5.53348 11.7071C5.73762 11.9023 6.00519 12 6.27275 12C6.54032 12 6.80789 11.9023 7.01196 11.7071C7.42024 11.3166 7.42024 10.6834 7.01196 10.2929L3.56942 7.00001L21.9545 7.00001C22.5319 7.00001 23 6.55228 23 6.00002C23 5.44775 22.5319 5.00002 21.9545 5.00002Z" fill="#006197"/>
</svg>
