<svg xmlns="http://www.w3.org/2000/svg" width="10.909" height="10.925" viewBox="0 0 10.909 10.925">
  <g id="ic_add_property_text_underline" transform="translate(-0.005 0.004)">
    <path id="Path_91" data-name="Path 91" d="M21.914,0c.017.011.034.022.052.032a.319.319,0,0,1-.14.607H21.24a.329.329,0,0,0-.37.375q0,2.387,0,4.773A3.691,3.691,0,0,1,19.67,8.6a3.656,3.656,0,0,1-3.791.865,3.7,3.7,0,0,1-2.6-2.917,3.746,3.746,0,0,1-.071-.783c-.006-1.577,0-3.154,0-4.731,0-.28-.115-.4-.392-.4h-.522a.33.33,0,0,1-.358-.253.325.325,0,0,1,.214-.37c.005,0,.009-.01.013-.015h4.008a.025.025,0,0,0,.013.016.325.325,0,0,1,.214.37.33.33,0,0,1-.358.253h-.565a.321.321,0,0,0-.349.343c0,1.627-.005,3.253,0,4.88A1.917,1.917,0,1,0,18.96,5.8V1A.326.326,0,0,0,18.6.636H18a.319.319,0,0,1-.14-.607c.018-.01.035-.021.052-.032Z" transform="translate(-11.576)"/>
    <path id="Path_92" data-name="Path 92" d="M10.914,361.108a.411.411,0,0,1-.429.237q-5.04-.006-10.08,0c-.255,0-.4-.118-.4-.32s.148-.32.4-.32h10.08a.411.411,0,0,1,.429.237v.171Z" transform="translate(0 -350.428)"/>
  </g>
</svg>
