<svg width="23" height="12" viewBox="0 0 23 12" fill="none" xmlns="http://www.w3.org/2000/svg">
<path d="M17.4665 0.29285C17.0583 -0.0976168 16.3963 -0.0976168 15.988 0.29285C15.5797 0.683318 15.5797 1.31652 15.988 1.70705L19.4306 4.99999L1.04546 4.99999C0.468086 4.99999 0 5.44772 0 5.99999C0 6.55226 0.468086 6.99999 1.04546 6.99999L19.4306 6.99999L15.9881 10.2929C15.5798 10.6834 15.5798 11.3166 15.9881 11.7071C16.1922 11.9023 16.4597 12 16.7273 12C16.9949 12 17.2624 11.9023 17.4665 11.7071L22.6938 6.70706C23.1021 6.31659 23.1021 5.68339 22.6938 5.29286L17.4665 0.29285Z" fill="#006197"/>
</svg>
