<svg xmlns="http://www.w3.org/2000/svg" width="10.656" height="10.926" viewBox="0 0 10.656 10.926">
  <g id="ic_add_property_text_cross" transform="translate(-1.842 0.003)">
    <g id="Group_26" data-name="Group 26">
      <path id="Path_83" data-name="Path 83" d="M12.339,135.185a.539.539,0,0,1-.564.312c-1.721-.007-1.443,0-3.164,0H8.433v3.7a.435.435,0,0,0,.5.5h.728a.421.421,0,1,1,0,.839H4.689a.421.421,0,1,1,0-.839h.8a.411.411,0,0,0,.425-.412V135.5h-3.4a.745.745,0,0,1-.206-.022.412.412,0,0,1-.3-.436.426.426,0,0,1,.387-.379h9.379a.54.54,0,0,1,.564.311v.224Z" transform="translate(-0.008 -129.615)"/>
      <path id="Path_84" data-name="Path 84" d="M27.459.846H24.228V2.067a.423.423,0,0,1-.2.389.413.413,0,0,1-.632-.339c-.01-.574-.007-1.148,0-1.721a.411.411,0,0,1,.4-.4h9.726c.375,0,.523.15.523.526V2.09a.418.418,0,0,1-.827.095.694.694,0,0,1-.011-.153c0-.392,0-.783,0-1.185H29.976V4.191H27.46V.846Z" transform="translate(-21.548 0.001)"/>
    </g>
  </g>
</svg>
