<svg xmlns="http://www.w3.org/2000/svg" width="32.358" height="47.171" viewBox="0 0 32.358 47.171">
  <g id="ic_add_property_map_pin" transform="translate(0.004)">
    <path id="Path_14" data-name="Path 14" d="M14.982,0h2.39a3.812,3.812,0,0,0,.4.081,15.479,15.479,0,0,1,5.981,1.8A16.462,16.462,0,0,1,30.4,24.117c-1.01,1.906-2.065,3.79-3.1,5.684q-4.26,7.8-8.518,15.593a3.012,3.012,0,0,1-1.909,1.6c-.088.023-.158.117-.236.177h-.92c-.079-.06-.149-.152-.237-.177a3.025,3.025,0,0,1-1.909-1.6Q7.837,34.872,2.087,24.359A16.475,16.475,0,0,1,.164,13.981,16.311,16.311,0,0,1,11.967.561C12.953.3,13.976.183,14.982,0Zm1.2,9.092a5.753,5.753,0,1,0,.006,0Z" fill="#00b0e9"/>
  </g>
</svg>
