<svg xmlns="http://www.w3.org/2000/svg" width="21.927" height="21.92" viewBox="0 0 21.927 21.92">
  <path id="ic_add_property_sel_payment" d="M11.646,21.921h-1.37c-.267-.033-.535-.062-.8-.1a11,11,0,0,1-9.3-8.95C.1,12.466.056,12.056,0,11.647v-1.37c.033-.268.061-.537.1-.8A10.751,10.751,0,0,1,3.132,3.31,10.724,10.724,0,0,1,10.7.01a10.283,10.283,0,0,1,5.8,1.5,10.744,10.744,0,0,1,5.42,9.265,10.227,10.227,0,0,1-1.553,5.8,10.816,10.816,0,0,1-7.511,5.171C12.451,21.828,12.047,21.866,11.646,21.921ZM9.949,12.7c-.083-.106-.11-.15-.145-.185-.715-.717-1.433-1.43-2.147-2.149a.914.914,0,1,0-1.309,1.273q1.409,1.42,2.828,2.829a.938.938,0,0,0,1.518,0l5.7-5.7a2.412,2.412,0,0,0,.177-.186A.907.907,0,0,0,16.028,7.1a.929.929,0,0,0-.864.311q-2.516,2.521-5.036,5.039a2.08,2.08,0,0,0-.178.247Z" transform="translate(0 -0.001)" fill="#00b0e9"/>
</svg>
