<svg xmlns="http://www.w3.org/2000/svg" width="203" height="290" viewBox="0 0 203 290"><g transform="translate(24193 19978)"><rect width="203" height="290" transform="translate(-24193 -19978)" fill="#f6f5f7"/><g transform="translate(-24149 -19891)"><path d="M34.02,72.151H51.529L92.016,31.686V12.62Z" transform="translate(-34.02 -12.62)" fill="#d2d1d1"/><path d="M474.607,56.132V16.9H461.214V42.378L432.22,12.62V31.686l40.487,40.465h17.509Z" transform="translate(-374.224 -12.62)" fill="#d2d1d1"/><g transform="translate(0 65.374)"><path d="M34.02,461.48h4.26v16.39h8.225V461.48h4.2v39.526h-4.2V481.718H38.28v19.289H34.02Z" transform="translate(-34.02 -461.48)" fill="#d2d1d1"/><path d="M195.21,534.5v15c0,5.21-2.183,7.836-6.591,7.836-4.629,0-6.315-2.938-6.315-7.793V534.5c0-5.03,2.317-7.7,6.5-7.7C193.2,526.8,195.21,529.829,195.21,534.5Zm-9.669-.132v15.406c0,3.384,1.2,4.675,3.2,4.675,2.094,0,3.207-1.293,3.207-4.809V534.364c0-3.157-1.07-4.675-3.25-4.675-2.131.006-3.155,1.431-3.155,4.681Z" transform="translate(-160.7 -517.286)" fill="#d2d1d1"/><path d="M298.568,529.56v23.11c0,2.449.846,4.144,3.116,4.144s3.027-1.6,3.027-4.1V529.56h3.2v23.019c0,4.586-2.094,7.124-6.315,7.124-4.1,0-6.188-2.315-6.188-7.035V529.56Z" transform="translate(-257.336 -519.644)" fill="#d2d1d1"/><path d="M404.03,548.581v1.737c0,2.8.987,4.274,3.072,4.274,2.137,0,2.938-1.516,2.938-4.809,0-3.473-.758-4.809-3.874-7.258-3.207-2.494-4.809-4.008-4.809-8.371,0-3.783,1.158-7.392,5.788-7.347,4.452,0,5.61,2.938,5.61,6.723v1.381H409.6v-1.293c0-2.449-.446-4.051-2.494-4.051s-2.583,1.776-2.583,4.1c0,2.763.578,3.828,3.3,5.877,4.144,3.118,5.432,4.9,5.432,9.8,0,4.185-1.2,8.016-6.234,8.016-4.764,0-6.145-3.157-6.145-7.08v-1.693Z" transform="translate(-347.439 -517.292)" fill="#d2d1d1"/><path d="M517.391,544.92h-6.68v11.487h7.57l-.395,2.895H507.55V529.56h10.2v2.94h-7.035v9.484h6.68Z" transform="translate(-438.582 -519.644)" fill="#d2d1d1"/><path d="M612.29,461.48v30.709c0,3.254,1.125,5.5,4.144,5.5s4.024-2.131,4.024-5.444V461.48h4.26v30.587c0,6.1-2.78,9.472-8.4,9.472-5.444,0-8.225-3.078-8.225-9.35V461.48Z" transform="translate(-524.477 -461.48)" fill="#d2d1d1"/><path d="M749.99,533.12h5.348c4.312,0,6.358,2.171,6.358,6.881v1.776c0,4.355-1.306,7.578-6.575,7.578h-1.993V562.2h-3.136V533.12Zm3.136,13.632h1.7c3.309,0,3.789-2,3.789-5.008v-1.559c0-2.352-.523-4.442-3.528-4.442h-1.959v11.019Z" transform="translate(-645.712 -522.685)" fill="#d2d1d1"/></g><g transform="translate(112.9 102.544)"><path d="M812.146,718.11a1.478,1.478,0,1,1-1.474-1.439,1.447,1.447,0,0,1,1.474,1.439Zm-2.589,0a1.115,1.115,0,0,0,1.123,1.148,1.15,1.15,0,0,0,0-2.3,1.119,1.119,0,0,0-1.123,1.15Zm.886.754h-.333v-1.439a2.951,2.951,0,0,1,.553-.044.894.894,0,0,1,.5.1.4.4,0,0,1,.14.316.369.369,0,0,1-.3.333v.018a.425.425,0,0,1,.264.351,1.042,1.042,0,0,0,.107.359h-.359a1.256,1.256,0,0,1-.114-.351c-.026-.158-.113-.229-.3-.229h-.158v.58Zm0-.815h.158c.186,0,.334-.061.334-.211s-.1-.221-.308-.221a.809.809,0,0,0-.186.018v.414Z" transform="translate(-809.19 -716.671)" fill="#d2d1d1"/></g><g transform="translate(0.448 108.634)"><path d="M37.09,759.58h2.877c1.664,0,2.3.5,2.3,1.537a1.287,1.287,0,0,1-1.216,1.35v.024a1.474,1.474,0,0,1,1.442,1.486c0,.912-.667,1.7-2.321,1.7H37.09Zm.878,2.565h2.244c.734,0,1.184-.278,1.184-.927,0-.566-.278-.945-1.476-.945H37.97Zm0,2.836h2.1c1.184,0,1.5-.464,1.5-1.054,0-.7-.481-1.089-1.553-1.089h-2.05Z" transform="translate(-37.09 -759.422)" fill="#d2d1d1"/><path d="M99.029,759.58H99.9v3.639a2.846,2.846,0,0,1-5.671,0V759.58H95.1v3.68a1.96,1.96,0,0,0,3.917,0Z" transform="translate(-85.912 -759.422)" fill="#d2d1d1"/><path d="M152.295,765.668v-2.542l-2.895-3.552h1.131l2.2,2.82,2.2-2.828h1.131l-2.895,3.552v2.542Z" transform="translate(-133.043 -759.417)" fill="#d2d1d1"/><path d="M241.387,770.01a1.527,1.527,0,1,1-1.527,1.527A1.527,1.527,0,0,1,241.387,770.01Z" transform="translate(-210.327 -768.333)" fill="#d2d1d1"/><path d="M313.328,760.25c-.085-.853-.953-1.089-1.942-1.089-.87,0-1.6.43-1.6,1.105,0,.33.2.667.953.789l2.271.395c.987.17,1.443.734,1.443,1.486,0,1.216-1.089,1.95-2.895,1.95-1.731,0-2.733-.643-2.844-1.983h.929c.026.819.809,1.292,1.973,1.292,1.265,0,1.973-.5,1.973-1.164,0-1.687-4.669-.16-4.669-2.709,0-1.174.987-1.849,2.658-1.849,1.265,0,2.609.379,2.694,1.776Z" transform="translate(-269.149 -758.472)" fill="#d2d1d1"/><path d="M367.522,759.58h4.556v.691H368.4v1.924h3.445v.693H368.4v2.094h3.781v.693H367.52V759.58Z" transform="translate(-319.395 -759.422)" fill="#d2d1d1"/><path d="M420.44,759.58h.878v5.4h3.51v.693H420.44Z" transform="translate(-364.607 -759.422)" fill="#d2d1d1"/><path d="M468.37,759.58h.878v5.4h3.513v.693H468.37Z" transform="translate(-405.555 -759.422)" fill="#d2d1d1"/><path d="M545.517,770.01a1.527,1.527,0,1,1-1.527,1.527A1.527,1.527,0,0,1,545.517,770.01Z" transform="translate(-470.162 -768.333)" fill="#d2d1d1"/><path d="M615.4,765.674h-.878V759.58h3c1.883,0,2.3.633,2.3,1.612a1.454,1.454,0,0,1-1.393,1.419v.016c.819.1,1.038.432,1.2,1.46a7.339,7.339,0,0,0,.345,1.579h-.929c-.16-.432-.255-1.283-.414-1.973-.1-.438-.395-.752-1.537-.752h-1.7v2.717Zm0-3.41h2c.927,0,1.494-.219,1.494-.987,0-.742-.4-.987-1.476-.987H615.4Z" transform="translate(-530.419 -759.422)" fill="#d2d1d1"/><path d="M671.652,759.58h4.556v.691h-3.67v1.924h3.445v.693h-3.445v2.094h3.781v.693H671.65V759.58Z" transform="translate(-579.229 -759.422)" fill="#d2d1d1"/><path d="M728.24,759.58h.876v6.094h-1.2l-3.73-5.2h-.018v5.2h-.878V759.58h1.2l3.73,5.2h.018v-5.2Z" transform="translate(-623.344 -759.422)" fill="#d2d1d1"/><path d="M781.575,760.322H778.99v-.742h6.042v.742h-2.583v5.352h-.874Z" transform="translate(-670.934 -759.422)" fill="#d2d1d1"/></g></g></g></svg>