<svg width="17" height="17" viewBox="0 0 17 17" fill="none" xmlns="http://www.w3.org/2000/svg">
<g clip-path="url(#clip0_113_238)">
<path d="M14.692 16.571H1.87802C1.84915 16.5588 1.8194 16.5488 1.78902 16.541C1.29135 16.4607 0.838351 16.2063 0.510722 15.8232C0.183092 15.4401 0.00211063 14.9531 1.95096e-05 14.449V3.41501C-0.00205109 2.9355 0.160753 2.46984 0.461151 2.09607C0.761548 1.7223 1.18128 1.46314 1.65002 1.36201C2.0013 1.31156 2.35629 1.29148 2.71102 1.30201C3.01102 1.29201 3.31102 1.30201 3.62502 1.30201V0.577012C3.61791 0.504779 3.626 0.431857 3.64877 0.36294C3.67155 0.294022 3.70849 0.230635 3.75724 0.176858C3.80598 0.12308 3.86545 0.0801019 3.9318 0.0506899C3.99816 0.0212779 4.06994 0.00608307 4.14252 0.00608307C4.2151 0.00608307 4.28688 0.0212779 4.35324 0.0506899C4.41959 0.0801019 4.47906 0.12308 4.5278 0.176858C4.57655 0.230635 4.61349 0.294022 4.63626 0.36294C4.65904 0.431857 4.66713 0.504779 4.66002 0.577012V1.28901H11.908V0.889012C11.908 0.247012 12.049 0.00201194 12.422 1.19437e-05C12.795 -0.00198806 12.944 0.247012 12.944 0.882012V1.29401H14.463C14.9287 1.29989 15.3796 1.45771 15.7473 1.74346C16.115 2.02921 16.3793 2.42724 16.5 2.87701C16.526 2.97701 16.548 3.07701 16.572 3.17701V14.695C16.5603 14.7184 16.5509 14.7428 16.544 14.768C16.4888 15.1394 16.335 15.4893 16.0986 15.7811C15.8622 16.0728 15.5519 16.2959 15.2 16.427C15.0343 16.4851 14.8654 16.5335 14.694 16.572L14.692 16.571ZM1.03702 5.70201V14.352C1.02441 14.5104 1.04629 14.6697 1.10114 14.8189C1.15599 14.9681 1.24251 15.1036 1.35475 15.2161C1.46699 15.3286 1.60228 15.4155 1.75131 15.4707C1.90033 15.5259 2.05956 15.5482 2.21802 15.536H14.352C14.5105 15.5482 14.6697 15.5259 14.8187 15.4707C14.9678 15.4155 15.103 15.3286 15.2153 15.2161C15.3275 15.1036 15.414 14.9681 15.4689 14.8189C15.5237 14.6697 15.5456 14.5104 15.533 14.352C15.533 11.526 15.533 8.69968 15.533 5.87301V5.70201H1.03702ZM15.537 4.65501V3.42301C15.5346 3.13284 15.4177 2.85535 15.2117 2.65101C15.0056 2.44666 14.7272 2.332 14.437 2.33201C13.984 2.32701 13.531 2.33201 13.078 2.33201C13.037 2.33201 12.995 2.33801 12.944 2.34201V2.81801C12.9471 2.88788 12.936 2.95766 12.9114 3.02312C12.8867 3.08858 12.8491 3.14838 12.8008 3.19891C12.7524 3.24944 12.6943 3.28966 12.63 3.31713C12.5657 3.3446 12.4965 3.35877 12.4265 3.35877C12.3566 3.35877 12.2874 3.3446 12.223 3.31713C12.1587 3.28966 12.1006 3.24944 12.0523 3.19891C12.0039 3.14838 11.9663 3.08858 11.9417 3.02312C11.9171 2.95766 11.9059 2.88788 11.909 2.81801V2.33801H4.66102V2.81601C4.66541 2.88661 4.6553 2.95736 4.63131 3.0239C4.60731 3.09044 4.56994 3.15136 4.5215 3.20291C4.47307 3.25445 4.41458 3.29553 4.34966 3.32362C4.28474 3.3517 4.21475 3.36618 4.14402 3.36618C4.07329 3.36618 4.0033 3.3517 3.93838 3.32362C3.87346 3.29553 3.81497 3.25445 3.76654 3.20291C3.7181 3.15136 3.68073 3.09044 3.65673 3.0239C3.63274 2.95736 3.62263 2.88661 3.62702 2.81601C3.62702 2.65601 3.62702 2.49701 3.62702 2.32701H2.13702C1.84528 2.32701 1.56549 2.4429 1.3592 2.64919C1.15291 2.85548 1.03702 3.13527 1.03702 3.42701V4.52701C1.03889 4.56653 1.0429 4.60592 1.04902 4.64501H15.533L15.537 4.65501Z" fill="#004980"/>
</g>
<defs>
<clipPath id="clip0_113_238">
<rect width="16.572" height="16.572" fill="white"/>
</clipPath>
</defs>
</svg>
