<svg width="33" height="33" viewBox="0 0 33 33" fill="none" xmlns="http://www.w3.org/2000/svg">
<path d="M23.0055 0.5H10.01C7.08822 0.5 4.69651 1.3724 3.03473 3.03336C1.37291 4.69435 0.5 7.08499 0.5 10.0055V22.979C0.5 25.9069 1.3727 28.3014 3.0345 29.9645C4.69635 31.6276 7.08821 32.5 10.01 32.5H22.99C25.9117 32.5 28.3034 31.6276 29.9652 29.9666C31.627 28.3057 32.4999 25.915 32.4999 22.9945L32.4999 10.0069C32.4999 10.0066 32.4999 10.0064 32.4999 10.0062C32.5078 7.08567 31.639 4.6948 29.979 3.03358C28.319 1.37236 25.9271 0.5 23.0055 0.5Z" fill="white" stroke="#EAEAEA"/>
<path d="M11.2537 22C10.935 22 10.6164 21.8826 10.3648 21.6312C9.87841 21.145 9.87841 20.3402 10.3648 19.854L19.8574 10.3647C20.3438 9.87845 21.1488 9.87845 21.6352 10.3647C22.1216 10.8509 22.1216 11.6556 21.6352 12.1418L12.1426 21.6312C11.9078 21.8826 11.5723 22 11.2537 22Z" fill="#292D32"/>
<path d="M20.7463 22C20.4277 22 20.109 21.8826 19.8574 21.6312L10.3648 12.1418C9.87841 11.6556 9.87841 10.8509 10.3648 10.3647C10.8512 9.87845 11.6562 9.87845 12.1426 10.3647L21.6352 19.854C22.1216 20.3402 22.1216 21.145 21.6352 21.6312C21.3836 21.8826 21.065 22 20.7463 22Z" fill="#292D32"/>
</svg>
