<svg width="16" height="16" viewBox="0 0 16 16" fill="none" xmlns="http://www.w3.org/2000/svg">
<path d="M12.2689 15.7782C12.044 15.7211 11.8141 15.6791 11.5947 15.605C10.2216 15.1417 9.33743 13.7869 9.4571 12.3424C9.57971 10.8659 10.7479 9.64543 12.2096 9.46729C13.9667 9.253 15.518 10.4432 15.763 12.1925C15.7662 12.2149 15.7812 12.2354 15.7906 12.2569V12.9612C15.7812 12.9827 15.7662 13.0032 15.763 13.0256C15.5771 14.3501 14.6386 15.3848 13.3392 15.6953C13.2175 15.7244 13.0952 15.7505 12.9729 15.7782H12.2684H12.2689ZM12.6191 15.0741C13.9702 15.0753 15.0855 13.9618 15.0867 12.6105C15.0879 11.2589 13.9749 10.1446 12.623 10.1434C11.2713 10.1422 10.1569 11.2548 10.1554 12.6064C10.1543 13.9574 11.2678 15.0727 12.6188 15.0738L12.6191 15.0741Z" fill="#006197" stroke="#006197" stroke-width="0.2"/>
<path d="M1.7033 5.45794C1.7033 5.52173 1.7033 5.57493 1.7033 5.62814C1.7033 8.21492 1.7033 10.8017 1.7033 13.3885C1.7033 13.8944 1.94294 14.1348 2.44691 14.1348C4.55955 14.1348 6.67247 14.1348 8.78511 14.1348C9.03827 14.1348 9.19147 14.2736 9.18706 14.4955C9.18353 14.6757 9.04827 14.8215 8.86891 14.8365C8.8348 14.8394 8.8004 14.838 8.76629 14.838C6.62925 14.838 4.49192 14.8385 2.35488 14.838C1.67448 14.838 1.14934 14.4038 1.01908 13.7345C1.0035 13.6536 1.00056 13.5696 1.00056 13.487C0.999969 10.0833 0.999675 6.6799 1.00056 3.27652C1.00056 2.50372 1.58039 1.92963 2.35723 1.92757C2.52336 1.92728 2.68919 1.92757 2.87826 1.92757C2.87826 1.74385 2.87767 1.56543 2.87826 1.3867C2.87914 1.1436 3.01645 0.988691 3.22963 0.988691C3.44339 0.988691 3.58012 1.14272 3.58129 1.38611C3.58218 1.56102 3.58129 1.73592 3.58129 1.91905H7.57398C7.57398 1.72563 7.57075 1.52751 7.57487 1.32968C7.57839 1.15801 7.70336 1.01691 7.86478 0.991043C8.03738 0.963411 8.20233 1.05924 8.25703 1.22591C8.2732 1.27559 8.27555 1.33115 8.27614 1.38406C8.27849 1.55925 8.27702 1.73445 8.27702 1.91817H12.2694C12.2694 1.75385 12.2694 1.59394 12.2694 1.43403C12.2694 1.14743 12.392 0.990455 12.6173 0.988397C12.849 0.98634 12.9725 1.1436 12.9727 1.44079C12.9727 1.59658 12.9727 1.75238 12.9727 1.92699C13.1512 1.92699 13.3206 1.92669 13.4897 1.92699C14.2753 1.92875 14.8504 2.50137 14.8507 3.28622C14.8516 5.1199 14.8504 6.95357 14.8519 8.78725C14.8519 8.9501 14.794 9.07414 14.6449 9.14293C14.5141 9.20348 14.3715 9.19702 14.2791 9.08914C14.2097 9.008 14.1542 8.88543 14.153 8.78049C14.1439 7.72931 14.1474 6.67784 14.1474 5.62667C14.1474 5.57347 14.1474 5.52026 14.1474 5.45706H1.7033V5.45794ZM7.57428 2.64129H3.58159C3.58159 2.82707 3.58247 3.00256 3.58159 3.17805C3.58012 3.4185 3.43869 3.57253 3.22375 3.56959C3.01675 3.56665 2.88002 3.41321 2.87855 3.18011C2.87767 3.00079 2.87855 2.82178 2.87855 2.6313C2.68655 2.6313 2.5116 2.62748 2.33665 2.63218C1.9744 2.64158 1.71212 2.90467 1.70477 3.2677C1.70006 3.50228 1.70389 3.73715 1.70359 3.97172C1.70359 4.22452 1.70359 4.47761 1.70359 4.73717H14.1439C14.1439 4.21746 14.1565 3.70481 14.1386 3.19363C14.1295 2.94053 13.9766 2.73447 13.7281 2.67745C13.487 2.62189 13.2306 2.63394 12.9736 2.61601C12.9736 2.8303 12.9745 3.00609 12.9736 3.18187C12.9722 3.41439 12.8348 3.56753 12.6273 3.57018C12.4129 3.57283 12.2721 3.41791 12.2706 3.17717C12.2697 2.99815 12.2706 2.81913 12.2706 2.64247H8.2782C8.2782 2.74594 8.2782 2.83853 8.2782 2.93083C8.2782 3.02372 8.27967 3.11661 8.27761 3.2095C8.2729 3.41821 8.1303 3.56695 7.933 3.56989C7.72923 3.57312 7.57839 3.42262 7.57516 3.20803C7.57251 3.02284 7.57457 2.83736 7.57457 2.64158L7.57428 2.64129Z" fill="#006197" stroke="#006197" stroke-width="0.2"/>
<path d="M2.87838 7.8988C2.87838 7.60073 2.8772 7.30266 2.87867 7.00489C2.87985 6.76297 3.01834 6.62422 3.26062 6.62393C3.86662 6.62275 4.47233 6.62275 5.07834 6.62393C5.32033 6.62452 5.45882 6.76326 5.45941 7.00548C5.46058 7.61132 5.46058 8.21715 5.45941 8.82299C5.45882 9.06491 5.31974 9.20366 5.07775 9.20424C4.47175 9.20542 3.86604 9.20542 3.26003 9.20424C3.01951 9.20366 2.87985 9.06315 2.87867 8.8224C2.8772 8.51463 2.87838 8.20686 2.87838 7.89909V7.8988ZM3.58817 8.49082H4.7449V7.33441H3.58817V8.49082Z" fill="#006197" stroke="#006197" stroke-width="0.2"/>
<path d="M9.2169 7.92156C9.2169 8.22433 9.21837 8.5274 9.21631 8.83017C9.21484 9.06151 9.07341 9.2029 8.84142 9.20349C8.23071 9.20496 7.62 9.20496 7.009 9.20349C6.77789 9.2029 6.63616 9.06033 6.63587 8.8284C6.6344 8.21757 6.6344 7.60703 6.63587 6.9962C6.63646 6.76515 6.77877 6.62376 7.01106 6.62317C7.62176 6.6217 8.23247 6.6217 8.84348 6.62317C9.07518 6.62376 9.21514 6.76515 9.21661 6.99796C9.21837 7.30573 9.21719 7.6135 9.21719 7.92127L9.2169 7.92156ZM7.34772 7.32895V8.49065H8.5021V7.32895H7.34772Z" fill="#006197" stroke="#006197" stroke-width="0.2"/>
<path d="M2.87838 11.6537C2.87838 11.3556 2.8772 11.0575 2.87867 10.7598C2.87985 10.5179 3.01834 10.3794 3.26062 10.3788C3.86662 10.3776 4.47233 10.3776 5.07834 10.3788C5.32033 10.3794 5.45882 10.5181 5.45941 10.7604C5.46058 11.3662 5.46058 11.972 5.45941 12.5779C5.45882 12.8198 5.31974 12.9585 5.07775 12.9591C4.47175 12.9603 3.86604 12.9603 3.26003 12.9591C3.01981 12.9585 2.87985 12.8177 2.87867 12.5773C2.8772 12.2695 2.87838 11.9617 2.87838 11.654V11.6537ZM4.74608 12.2498V11.0934H3.58964V12.2498H4.74608Z" fill="#006197" stroke="#006197" stroke-width="0.2"/>
<path d="M12.9735 12.257C13.1673 12.257 13.3467 12.2561 13.5263 12.257C13.7577 12.2584 13.9109 12.3972 13.9124 12.605C13.9138 12.814 13.7612 12.9583 13.5325 12.9595C13.2343 12.961 12.9359 12.9616 12.6377 12.9595C12.4152 12.9578 12.272 12.8149 12.2711 12.5924C12.269 12.1329 12.269 11.6732 12.2711 11.2137C12.272 10.998 12.4219 10.8472 12.6251 10.8486C12.8283 10.8501 12.9718 11.0009 12.9729 11.2199C12.975 11.5609 12.9735 11.9016 12.9735 12.257Z" fill="#006197" stroke="#006197" stroke-width="0.2"/>
</svg>
