<svg xmlns="http://www.w3.org/2000/svg" width="7.296" height="13.036" viewBox="0 0 7.296 13.036">
  <g id="ic_blog_detail_arrow" transform="translate(-1248.953 -1421.964)">
    <path id="Path_100" data-name="Path 100" d="M12.385,117.489a.522.522,0,0,0-.739,0l-5.377,5.377L.892,117.489a.523.523,0,1,0-.739.739L5.9,123.975a.522.522,0,0,0,.739,0l5.747-5.747a.522.522,0,0,0,0-.739Z" transform="translate(1131.872 1434.751) rotate(-90)"/>
    <path id="Path_101" data-name="Path 101" d="M.523,117.086a.767.767,0,0,1,.546.226l5.2,5.2,5.2-5.2a.772.772,0,0,1,1.092,1.092l-5.747,5.747a.772.772,0,0,1-1.092,0L-.023,118.4a.773.773,0,0,1,.546-1.319ZM6.27,123.22.715,117.666a.272.272,0,1,0-.385.385L6.077,123.8a.272.272,0,0,0,.385,0l5.747-5.747a.272.272,0,0,0-.385-.385Z" transform="translate(1131.872 1434.751) rotate(-90)"/>
  </g>
</svg>
