<svg xmlns="http://www.w3.org/2000/svg" width="14.135" height="14.57" viewBox="0 0 14.135 14.57">
  <g id="ic_blog_tag" transform="translate(-2 0.002)">
    <g id="Group_28" data-name="Group 28" transform="translate(2.003 -0.005)">
      <path id="Path_102" data-name="Path 102" d="M16.132,1.57V12.989a.124.124,0,0,0-.024.038,1.825,1.825,0,0,1-1.923,1.537H3.847A1.821,1.821,0,0,1,2,12.707Q2,7.279,2,1.85a1.893,1.893,0,0,1,.045-.43A1.82,1.82,0,0,1,3.878,0H14.247A1.779,1.779,0,0,1,15.9.938a4.083,4.083,0,0,1,.235.632ZM3,3.313v9.334a.841.841,0,0,0,.924.923H14.213a.841.841,0,0,0,.926-.921V3.313ZM3,2.3H15.135c0-.2.013-.382,0-.566a.839.839,0,0,0-.92-.75H3.922A1.488,1.488,0,0,0,3.675,1,.814.814,0,0,0,3,1.739c-.014.184,0,.37,0,.565Z" transform="translate(-2.003 0.005)" fill="#00b0e9"/>
      <path id="Path_103" data-name="Path 103" d="M179.789,127.812h2.451a.5.5,0,0,1,.5.348.472.472,0,0,1-.188.546.607.607,0,0,1-.3.094q-2.466.009-4.932,0a.5.5,0,1,1,.011-.991H179.8Z" transform="translate(-171.23 -122.513)" fill="#00b0e9"/>
      <path id="Path_104" data-name="Path 104" d="M179.8,192.594h-2.45a.492.492,0,0,1-.5-.643.5.5,0,0,1,.482-.347c.16-.005.32,0,.481,0h4.4a.5.5,0,0,1,.563.488.484.484,0,0,1-.5.5c-.356.006-.713,0-1.07,0H179.8Z" transform="translate(-171.248 -183.657)" fill="#00b0e9"/>
      <path id="Path_105" data-name="Path 105" d="M179.78,255.634h2.435a.494.494,0,0,1,.172.968.93.93,0,0,1-.23.024H177.38a1.02,1.02,0,0,1-.155-.008.5.5,0,0,1-.434-.52.489.489,0,0,1,.492-.462h2.5Z" transform="translate(-171.221 -245.036)" fill="#00b0e9"/>
      <path id="Path_106" data-name="Path 106" d="M66.55,127.809h.79a.5.5,0,1,1,0,.992h-.731a.5.5,0,1,1,0-.991C66.883,127.807,66.277,127.809,66.55,127.809Z" transform="translate(-64.28 -122.51)" fill="#00b0e9"/>
      <path id="Path_107" data-name="Path 107" d="M66.534,192.578h.09a.5.5,0,1,1-.008-.99c.536-.005.194-.005.73,0a.5.5,0,1,1-.007.99C67.071,192.58,66.8,192.578,66.534,192.578Z" transform="translate(-64.281 -183.641)" fill="#00b0e9"/>
      <path id="Path_108" data-name="Path 108" d="M66.535,255.619h.805a.5.5,0,1,1,0,.99c-.536.005-.194.006-.73,0a.5.5,0,1,1,.011-.991h-.09Z" transform="translate(-64.28 -245.022)" fill="#00b0e9"/>
    </g>
  </g>
</svg>
