<svg width="13" height="15" viewBox="0 0 13 15" fill="none" xmlns="http://www.w3.org/2000/svg">
<g clip-path="url(#clip0_703_1323)">
<path d="M0 14.5569V14.7342C0 14.8808 0.119932 14.9997 0.2677 14.9997H12.7323C12.8801 14.9997 13 14.8808 13 14.7342V14.5428C13 14.3963 12.8801 14.2773 12.7323 14.2773H12.17C12.0222 14.2773 11.9023 14.1584 11.9023 14.0119V2.04113C11.9023 1.8946 11.7823 1.77567 11.6346 1.77567H10.3683C10.2205 1.77567 10.1006 1.65675 10.1006 1.51022V0.265456C10.1006 0.118926 9.98068 0 9.83292 0H3.16087C3.0131 0 2.89317 0.118926 2.89317 0.265456V1.51668C2.89317 1.66321 2.77324 1.78213 2.62547 1.78213H1.36011C1.21235 1.78213 1.09242 1.90106 1.09242 2.04759V14.0148C1.09242 14.1605 0.974852 14.2788 0.827972 14.2812H0.825604C0.638155 14.2844 0.450411 14.2876 0.262961 14.2911C0.116971 14.2938 0.000296593 14.4118 0.000296593 14.5566L0 14.5569ZM10.9008 14.2712H2.10458C1.95681 14.2712 1.83688 14.1522 1.83688 14.0057V2.77113C1.83688 2.6246 1.95681 2.50568 2.10458 2.50568H10.9008C11.0485 2.50568 11.1685 2.6246 11.1685 2.77113V14.006C11.1685 14.1525 11.0485 14.2715 10.9008 14.2715V14.2712ZM9.10237 1.76775H3.90326C3.75549 1.76775 3.63556 1.64882 3.63556 1.50229V0.988998C3.63556 0.842469 3.75549 0.723542 3.90326 0.723542H9.10237C9.25014 0.723542 9.37007 0.842469 9.37007 0.988998V1.50229C9.37007 1.64882 9.25014 1.76775 9.10237 1.76775Z" fill="#006197" stroke="#006197" stroke-width="0.2"/>
<path d="M7.58045 4.28125H9.38061C9.57801 4.28125 9.73804 4.43987 9.73804 4.63553C9.73804 4.8312 9.57801 4.98982 9.38061 4.98982H7.58045C7.38305 4.98982 7.22303 4.8312 7.22303 4.63553C7.22303 4.43987 7.38305 4.28125 7.58045 4.28125Z" fill="#006197" stroke="#006197" stroke-width="0.2"/>
<path d="M3.61925 4.28516H5.42474C5.62002 4.28516 5.77832 4.44213 5.77832 4.63577C5.77832 4.82941 5.62002 4.98638 5.42474 4.98638H3.61925C3.42398 4.98638 3.26568 4.82941 3.26568 4.63577C3.26568 4.44213 3.42398 4.28516 3.61925 4.28516Z" fill="#006197" stroke="#006197" stroke-width="0.2"/>
<path d="M7.5809 11.7852H9.37573C9.57313 11.7852 9.73315 11.9438 9.73315 12.1396C9.73315 12.3353 9.57313 12.494 9.37573 12.494H7.5809C7.3835 12.494 7.22347 12.3353 7.22347 12.1396C7.22347 11.9438 7.3835 11.7852 7.5809 11.7852Z" fill="#006197" stroke="#006197" stroke-width="0.2"/>
<path d="M3.62015 11.7852H5.41528C5.61268 11.7852 5.77271 11.9438 5.77271 12.1396C5.77271 12.3353 5.61268 12.494 5.41528 12.494H3.62015C3.42275 12.494 3.26273 12.3353 3.26273 12.1396C3.26273 11.9438 3.42275 11.7852 3.62015 11.7852Z" fill="#006197" stroke="#006197" stroke-width="0.2"/>
<path d="M7.57394 6.78906H9.39009C9.58455 6.78906 9.74219 6.94538 9.74219 7.13821C9.74219 7.33103 9.58455 7.48735 9.39009 7.48735H7.57394C7.37948 7.48735 7.22185 7.33103 7.22185 7.13821C7.22185 6.94538 7.37948 6.78906 7.57394 6.78906Z" fill="#006197" stroke="#006197" stroke-width="0.2"/>
<path d="M3.61392 6.78906H5.42741C5.62121 6.78906 5.77832 6.94485 5.77832 7.13703V7.13733C5.77832 7.3295 5.62121 7.4853 5.42741 7.4853H3.61392C3.42012 7.4853 3.26301 7.3295 3.26301 7.13733V7.13703C3.26301 6.94485 3.42012 6.78906 3.61392 6.78906Z" fill="#006197" stroke="#006197" stroke-width="0.2"/>
<path d="M7.57413 9.29297H9.38673C9.58102 9.29297 9.73853 9.44915 9.73853 9.64182V9.64211C9.73853 9.83478 9.58102 9.99096 9.38673 9.99096H7.57413C7.37984 9.99096 7.22233 9.83478 7.22233 9.64211V9.64182C7.22233 9.44915 7.37984 9.29297 7.57413 9.29297Z" fill="#006197" stroke="#006197" stroke-width="0.2"/>
<path d="M3.61373 9.29297H5.42544C5.62006 9.29297 5.77783 9.44942 5.77783 9.64241C5.77783 9.8354 5.62006 9.99184 5.42544 9.99184H3.61373C3.41911 9.99184 3.26134 9.8354 3.26134 9.64241C3.26134 9.44942 3.41911 9.29297 3.61373 9.29297Z" fill="#006197" stroke="#006197" stroke-width="0.2"/>
</g>
<defs>
<clipPath id="clip0_703_1323">
<rect width="13" height="15" fill="white" transform="matrix(-1 0 0 1 13 0)"/>
</clipPath>
</defs>
</svg>
