<svg xmlns="http://www.w3.org/2000/svg" width="16.535" height="15.43" viewBox="0 0 16.535 15.43">
  <g id="ic_blog_comment" transform="translate(0.002 0.009)">
    <g id="Group_27" data-name="Group 27" transform="translate(-0.004 -0.007)">
      <path id="Path_97" data-name="Path 97" d="M3.3,12.119H1.671A1.624,1.624,0,0,1,.554,11.7,1.647,1.647,0,0,1,0,10.414Q0,7.969,0,5.523V1.735A1.657,1.657,0,0,1,1.736-.007H14.789a1.654,1.654,0,0,1,1.741,1.74v8.645a1.655,1.655,0,0,1-1.741,1.74H8.349a.5.5,0,0,0-.291.1Q6.21,13.69,4.371,15.166c-.054.043-.107.087-.162.128a.553.553,0,0,1-.9-.446V12.114Zm1.1,1.606.16-.125c.986-.789,1.974-1.575,2.955-2.368a.937.937,0,0,1,.629-.222q3.323.01,6.647,0a.565.565,0,0,0,.637-.634V1.721A.562.562,0,0,0,14.8,1.1H1.731a.565.565,0,0,0-.633.638v8.644a.563.563,0,0,0,.632.639H3.814a.551.551,0,0,1,.591.593v2.111Z" transform="translate(0.004 0.007)" fill="#00b0e9"/>
      <path id="Path_98" data-name="Path 98" d="M76.793,96.9H72.419a.55.55,0,0,1-.548-.747.535.535,0,0,1,.47-.352,1.447,1.447,0,0,1,.155,0H81.09a1.121,1.121,0,0,1,.223.012.553.553,0,0,1,.44.577.547.547,0,0,1-.533.51c-.379.008-.758,0-1.137,0h-3.29Z" transform="translate(-68.525 -91.391)" fill="#00b0e9"/>
      <path id="Path_99" data-name="Path 99" d="M74.662,143.72H76.78a.555.555,0,1,1,.01,1.1H72.52a.555.555,0,1,1,.008-1.1h2.135Z" transform="translate(-68.591 -137.106)" fill="#00b0e9"/>
    </g>
  </g>
</svg>
