<svg id="ic_back_arrow_with_circle" xmlns="http://www.w3.org/2000/svg" width="40" height="40" viewBox="0 0 40 40">
  <circle id="Ellipse_1" data-name="Ellipse 1" cx="19" cy="19" r="19" transform="translate(39 39) rotate(180)" fill="none" stroke="#d6d6d6" stroke-width="2"/>
  <path id="Path_95" data-name="Path 95" d="M24,12.009a.861.861,0,0,0-1.23,0h0L16,18.88h0a.884.884,0,0,0-.253.619h0a.883.883,0,0,0,.253.619l6.763,6.873h0a.861.861,0,0,0,1.23,0h0a.885.885,0,0,0,0-1.239L17.842,19.5,24,13.247h0A.885.885,0,0,0,24,12.009Zm0,0h0l-.178.175L24,12.009Z" fill="#d6d6d6" stroke="#d6d6d6" stroke-width="0.5"/>
</svg>
