<svg width="15" height="16" viewBox="0 0 15 16" fill="none" xmlns="http://www.w3.org/2000/svg">
<path d="M11.2674 15.0009C11.0486 14.9469 10.8249 14.9071 10.6115 14.837C9.27571 14.3985 8.41558 13.1161 8.532 11.7489C8.65128 10.3513 9.78772 9.19609 11.2096 9.02748C12.919 8.82465 14.4282 9.95122 14.6664 11.607C14.6696 11.6281 14.6842 11.6476 14.6933 11.6679V12.3346C14.6842 12.3549 14.6696 12.3743 14.6664 12.3955C14.4857 13.6492 13.5726 14.6286 12.3086 14.9224C12.1902 14.9499 12.0712 14.9747 11.9522 15.0009H11.2668H11.2674ZM11.6081 14.3345C12.9224 14.3356 14.0074 13.2817 14.0085 12.0026C14.0097 10.7233 12.927 9.66853 11.6118 9.66742C10.2969 9.66631 9.21278 10.7194 9.21135 11.9987C9.2102 13.2775 10.2934 14.3331 11.6078 14.3342L11.6081 14.3345Z" fill="#4DC9F5" stroke="#4DC9F5" stroke-width="0.1"/>
<path d="M0.988867 5.23249C0.988867 5.29286 0.988867 5.34322 0.988867 5.39358C0.988867 7.84203 0.988867 10.2905 0.988867 12.7389C0.988867 13.2178 1.22199 13.4454 1.71226 13.4454C3.76747 13.4454 5.82296 13.4454 7.87816 13.4454C8.12444 13.4454 8.27347 13.5767 8.26918 13.7867C8.26575 13.9573 8.13417 14.0953 7.95968 14.1095C7.9265 14.1123 7.89304 14.1109 7.85985 14.1109C5.78091 14.1109 3.70168 14.1114 1.62273 14.1109C0.960835 14.1109 0.449966 13.6999 0.32325 13.0664C0.308089 12.9899 0.305229 12.9103 0.305229 12.8321C0.304657 9.61048 0.304371 6.3891 0.305229 3.16772C0.305229 2.43625 0.869302 1.89286 1.62502 1.89091C1.78663 1.89063 1.94796 1.89091 2.13189 1.89091C2.13189 1.71702 2.13131 1.54813 2.13189 1.37896C2.13274 1.14887 2.26633 1.00224 2.4737 1.00224C2.68166 1.00224 2.81467 1.14803 2.81581 1.37841C2.81667 1.54396 2.81581 1.7095 2.81581 1.88284H6.69996C6.69996 1.69977 6.69681 1.51224 6.70082 1.32499C6.70425 1.1625 6.82582 1.02895 6.98285 1.00446C7.15076 0.978309 7.31123 1.06901 7.36443 1.22677C7.38016 1.27379 7.38245 1.32638 7.38302 1.37646C7.38531 1.54229 7.38388 1.70811 7.38388 1.88201H11.2677C11.2677 1.72648 11.2677 1.57512 11.2677 1.42376C11.2677 1.15248 11.387 1.00391 11.6061 1.00196C11.8315 1.00001 11.9517 1.14887 11.952 1.43016C11.952 1.57762 11.952 1.72509 11.952 1.89036C12.1256 1.89036 12.2903 1.89008 12.4548 1.89036C13.2191 1.89202 13.7786 2.43402 13.7789 3.1769C13.7798 4.91252 13.7786 6.64813 13.78 8.38375C13.78 8.53789 13.7237 8.6553 13.5787 8.72041C13.4514 8.77773 13.3127 8.7716 13.2228 8.66949C13.1553 8.5927 13.1013 8.47668 13.1001 8.37735C13.0913 7.38239 13.0947 6.38715 13.0947 5.39219C13.0947 5.34183 13.0947 5.29147 13.0947 5.23165H0.988867V5.23249ZM6.70024 2.56646H2.8161C2.8161 2.7423 2.81695 2.90841 2.8161 3.07451C2.81467 3.30211 2.67708 3.4479 2.46798 3.44512C2.26661 3.44234 2.1336 3.2971 2.13217 3.07646C2.13131 2.90674 2.13217 2.7373 2.13217 2.557C1.94539 2.557 1.77519 2.55338 1.605 2.55784C1.2526 2.56674 0.997448 2.81576 0.990297 3.15937C0.98572 3.3814 0.989439 3.60371 0.989153 3.82574C0.989153 4.06502 0.989153 4.30458 0.989153 4.55026H13.0913C13.0913 4.05834 13.1036 3.57311 13.0861 3.08926C13.0772 2.8497 12.9285 2.65466 12.6868 2.60068C12.4522 2.5481 12.2028 2.5595 11.9528 2.54253C11.9528 2.74536 11.9537 2.91175 11.9528 3.07813C11.9514 3.29821 11.8178 3.44317 11.6159 3.44568C11.4073 3.44818 11.2703 3.30155 11.2689 3.07368C11.268 2.90423 11.2689 2.73479 11.2689 2.56757H7.38503C7.38503 2.66551 7.38503 2.75315 7.38503 2.84052C7.38503 2.92844 7.38646 3.01636 7.38445 3.10428C7.37988 3.30183 7.24115 3.44262 7.04921 3.4454C6.85099 3.44846 6.70425 3.306 6.7011 3.10289C6.69853 2.92761 6.70053 2.75204 6.70053 2.56674L6.70024 2.56646Z" fill="#3D86AF" stroke="#3D86AF" stroke-width="0.1"/>
<path d="M2.13129 7.54249C2.13129 7.26036 2.13015 6.97823 2.13158 6.69639C2.13272 6.4674 2.26745 6.33607 2.50315 6.3358C3.09268 6.33468 3.68192 6.33468 4.27145 6.3358C4.50686 6.33635 4.64159 6.46768 4.64216 6.69694C4.6433 7.27038 4.6433 7.84382 4.64216 8.41725C4.64159 8.64624 4.50629 8.77757 4.27088 8.77812C3.68135 8.77923 3.0921 8.77923 2.50257 8.77812C2.26859 8.77757 2.13272 8.64457 2.13158 8.4167C2.13015 8.12539 2.13129 7.83408 2.13129 7.54277V7.54249ZM2.8218 8.10285H3.94708V7.00828H2.8218V8.10285Z" fill="#4DC9F5" stroke="#4DC9F5" stroke-width="0.1"/>
<path d="M8.2971 7.56398C8.2971 7.85056 8.29853 8.13742 8.29652 8.424C8.29509 8.64297 8.15751 8.7768 7.93182 8.77735C7.33771 8.77874 6.74361 8.77874 6.14921 8.77735C5.92439 8.7768 5.78651 8.64185 5.78623 8.42233C5.7848 7.84416 5.7848 7.26627 5.78623 6.6881C5.7868 6.46941 5.92524 6.33558 6.15122 6.33503C6.74532 6.33364 7.33943 6.33364 7.93382 6.33503C8.15922 6.33558 8.29538 6.46941 8.29681 6.68977C8.29853 6.98108 8.29738 7.27239 8.29738 7.5637L8.2971 7.56398ZM6.47873 7.00306V8.10264H7.60173V7.00306H6.47873Z" fill="#4DC9F5" stroke="#4DC9F5" stroke-width="0.1"/>
<path d="M2.13129 11.0972C2.13129 10.815 2.13015 10.5329 2.13158 10.2511C2.13272 10.0221 2.26745 9.89104 2.50315 9.89048C3.09268 9.88937 3.68192 9.88937 4.27145 9.89048C4.50686 9.89104 4.64159 10.0224 4.64216 10.2516C4.6433 10.8251 4.6433 11.3985 4.64216 11.9719C4.64159 12.2009 4.50629 12.3323 4.27088 12.3328C3.68135 12.3339 3.0921 12.3339 2.50257 12.3328C2.26888 12.3323 2.13272 12.199 2.13158 11.9714C2.13015 11.6801 2.13129 11.3888 2.13129 11.0975V11.0972ZM3.94822 11.6614V10.5669H2.82323V11.6614H3.94822Z" fill="#4DC9F5" stroke="#4DC9F5" stroke-width="0.1"/>
<path d="M11.9524 11.668C12.1409 11.668 12.3154 11.6671 12.4902 11.668C12.7153 11.6694 12.8643 11.8007 12.8658 11.9974C12.8672 12.1952 12.7187 12.3318 12.4962 12.333C12.2061 12.3344 11.9158 12.3349 11.6258 12.333C11.4092 12.3313 11.2699 12.1961 11.2691 11.9854C11.2671 11.5506 11.2671 11.1154 11.2691 10.6805C11.2699 10.4763 11.4158 10.3336 11.6135 10.335C11.8111 10.3364 11.9507 10.4791 11.9519 10.6864C11.9539 11.0091 11.9524 11.3316 11.9524 11.668Z" fill="#3D86AF" stroke="#3D86AF" stroke-width="0.1"/>
</svg>
