<svg xmlns="http://www.w3.org/2000/svg" width="13.822" height="16.573" viewBox="0 0 13.822 16.573">
  <g id="ic_blog_user" transform="translate(0.004)">
    <g id="Group_29" data-name="Group 29" transform="translate(-0.001)">
      <path id="Path_109" data-name="Path 109" d="M73.8,0c.215.043.432.08.646.13a4.019,4.019,0,0,1,2.919,3.243,3.874,3.874,0,0,1-.57,2.753A3.909,3.909,0,0,1,73.676,7.97,3.991,3.991,0,0,1,72.6.082c.152-.031.306-.055.459-.082Zm2.644,3.986a3.008,3.008,0,1,0-.877,2.141,3.021,3.021,0,0,0,.877-2.141Z" transform="translate(-66.617)" fill="#00b0e9"/>
      <path id="Path_110" data-name="Path 110" d="M6.912,206.177H2.964a3.09,3.09,0,0,1-1.85-.526,2.449,2.449,0,0,1-1.077-1.838A8.61,8.61,0,0,1,.6,199.8a3.378,3.378,0,0,1,1.524-1.822,3.035,3.035,0,0,1,1.508-.36,1.156,1.156,0,0,1,.5.172c.246.134.473.3.712.447A3.683,3.683,0,0,0,9,198.23c.188-.116.38-.228.556-.361a1.4,1.4,0,0,1,1.12-.225,3.061,3.061,0,0,1,2.313,1.658,6.883,6.883,0,0,1,.767,2.7,13.266,13.266,0,0,1,.064,1.469,2.646,2.646,0,0,1-2.469,2.675,5.6,5.6,0,0,1-.565.029H6.916Zm-.019-.971h0c1.37,0,2.74.011,4.109,0a1.73,1.73,0,0,0,1.842-1.894,12.617,12.617,0,0,0-.069-1.275,5.972,5.972,0,0,0-.619-2.211,2.088,2.088,0,0,0-1.79-1.225.392.392,0,0,0-.211.048c-.245.147-.481.308-.724.458a4.776,4.776,0,0,1-2.185.73,4.717,4.717,0,0,1-2.945-.783c-.214-.136-.426-.275-.641-.408a.283.283,0,0,0-.148-.052,1.983,1.983,0,0,0-1.369.569,3.157,3.157,0,0,0-.689,1.1,8.32,8.32,0,0,0-.478,3.257,1.606,1.606,0,0,0,.831,1.428,2.246,2.246,0,0,0,1.152.261H6.892Z" transform="translate(0.001 -189.606)" fill="#00b0e9"/>
    </g>
  </g>
</svg>
