<svg xmlns="http://www.w3.org/2000/svg" width="12.936" height="13.157" viewBox="0 0 12.936 13.157">
  <g id="ic_call" transform="translate(0.151 0.148)">
    <g id="ic_call-2" data-name="ic_call" transform="translate(-0.001 -0.001)">
      <path id="Path_30547" data-name="Path 30547" d="M0,.9A1.158,1.158,0,0,1,.367.24,1.021,1.021,0,0,1,1.038,0C1.8,0,2.552-.007,3.308,0A1.008,1.008,0,0,1,4.342,1.018a8.6,8.6,0,0,0,.361,2.3,1.079,1.079,0,0,1-.221,1.041C4.13,4.8,3.8,5.266,3.464,5.727a.165.165,0,0,0,0,.141A7.935,7.935,0,0,0,6.707,9.246a.337.337,0,0,0,.456-.028c.42-.349.857-.677,1.292-1.007a.944.944,0,0,1,.831-.16c.387.095.769.214,1.161.28a10.154,10.154,0,0,0,1.141.1,1.024,1.024,0,0,1,1,.771,1.343,1.343,0,0,1,.04.347c0,.728-.007,1.456,0,2.184a1.05,1.05,0,0,1-.871,1.106c-.007,0-.014.009-.02.013h-.617c-.04-.006-.08-.014-.121-.019-.457-.052-.917-.086-1.37-.161A10.9,10.9,0,0,1,6.062,11.41,11.677,11.677,0,0,1,1.776,7.3a11.768,11.768,0,0,1-1.7-4.961C.044,2.07.024,1.8,0,1.53V.9ZM2.177.711c-.374,0-.748,0-1.122,0A.328.328,0,0,0,.7,1.084a11.235,11.235,0,0,0,.643,3.7A11.067,11.067,0,0,0,4.258,9.226a10.781,10.781,0,0,0,4.132,2.418,10.63,10.63,0,0,0,3.13.5c.285,0,.411-.11.411-.4q0-1.092,0-2.184c0-.28-.111-.4-.383-.406a7.763,7.763,0,0,1-2.363-.388.377.377,0,0,0-.378.073c-.521.408-1.048.809-1.571,1.214a.381.381,0,0,1-.447.051,10.187,10.187,0,0,1-1.9-1.268A9.069,9.069,0,0,1,2.708,5.948a.4.4,0,0,1,.048-.456c.4-.533.79-1.07,1.191-1.6a.429.429,0,0,0,.073-.421A7.973,7.973,0,0,1,3.649,1.1c0-.267-.125-.39-.386-.391-.362,0-.724,0-1.085,0Z" transform="translate(0 0.004)" fill="#fff" stroke="#fff" stroke-width="0.3"/>
    </g>
  </g>
</svg>
