<svg width="15" height="16" viewBox="0 0 15 16" fill="none" xmlns="http://www.w3.org/2000/svg">
<path d="M13.5034 12.5459C13.5042 10.4479 13.5038 8.3499 13.5026 6.25188C13.5026 6.16908 13.4971 6.08301 13.48 5.99931L13.48 5.99916C13.4186 5.7032 13.1662 5.51602 12.8432 5.53293L12.8432 5.53294C12.6239 5.5446 12.4054 5.57355 12.1902 5.60469L12.1902 5.6047C10.7993 5.80711 9.4505 6.13304 8.24458 6.84361L8.24454 6.84364C8.17885 6.88244 8.12932 6.92379 8.09716 6.97715C8.06471 7.031 8.05322 7.09157 8.05322 7.16249L8.05322 7.16258C8.05672 9.1393 8.05655 11.1158 8.05638 13.0925C8.05634 13.5161 8.05631 13.9396 8.05631 14.3632V14.5496V14.5996H8.10631H8.10708V14.6014L8.12037 14.5978C8.1378 14.5929 8.14998 14.5899 8.15955 14.5875C8.16177 14.587 8.16385 14.5865 8.16583 14.586C8.17535 14.5836 8.18595 14.5809 8.19654 14.5758C9.59392 13.9093 11.0994 13.5817 12.6596 13.4174C12.9229 13.3898 13.1346 13.2981 13.2808 13.1475C13.4275 12.9965 13.5034 12.7912 13.5034 12.5459ZM13.5034 12.5459L13.4534 12.5459M13.5034 12.5459L13.4534 12.5459M13.4534 12.5459C13.4542 10.4479 13.4538 8.34991 13.4526 6.25191C13.4526 6.17116 13.4472 6.08867 13.431 6.00932L13.4534 12.5459ZM6.88261 14.5045L6.86672 14.5515C6.65391 14.4796 6.44341 14.4063 6.23399 14.3334C5.7646 14.17 5.3006 14.0085 4.82818 13.8683C4.02111 13.6291 3.18276 13.5023 2.33548 13.4182C2.33548 13.4182 2.33547 13.4182 2.33547 13.4182L2.34041 13.3684L6.88261 14.5045ZM6.88261 14.5045H6.88272H6.93272V14.5043V14.5041V14.504V14.5038V14.5036V14.5034V14.5032V14.503V14.5028V14.5026V14.5024V14.5021V14.5019V14.5017V14.5015V14.5013V14.5011V14.5008V14.5006V14.5004V14.5002V14.5V14.4998V14.4995V14.4993V14.4991V14.4989V14.4986V14.4984V14.4982V14.498V14.4977V14.4975V14.4973V14.4971V14.4968V14.4966V14.4964V14.4961V14.4959V14.4957V14.4954V14.4952V14.495V14.4947V14.4945V14.4943V14.494V14.4938V14.4936V14.4933V14.4931V14.4929V14.4926V14.4924V14.4921V14.4919V14.4917V14.4914V14.4912V14.4909V14.4907V14.4904V14.4902V14.4899V14.4897V14.4895V14.4892V14.489V14.4887V14.4885V14.4882V14.488V14.4877V14.4875V14.4872V14.487V14.4867V14.4865V14.4862V14.4859V14.4857V14.4854V14.4852V14.4849V14.4847V14.4844V14.4841V14.4839V14.4836V14.4834V14.4831V14.4828V14.4826V14.4823V14.4821V14.4818V14.4815V14.4813V14.481V14.4807V14.4805V14.4802V14.4799V14.4797V14.4794V14.4791V14.4789V14.4786V14.4783V14.4781V14.4778V14.4775V14.4772V14.477V14.4767V14.4764V14.4762V14.4759V14.4756V14.4753V14.4751V14.4748V14.4745V14.4742V14.4739V14.4737V14.4734V14.4731V14.4728V14.4726V14.4723V14.472V14.4717V14.4714V14.4711V14.4709V14.4706V14.4703V14.47V14.4697V14.4694V14.4692V14.4689V14.4686V14.4683V14.4682V14.468V14.4677V14.4674V14.4671V14.4668V14.4666V14.4663V14.466V14.4657V14.4654V14.4651V14.4648V14.4645V14.4642V14.4639V14.4636V14.4633V14.463V14.4627V14.4625V14.4622V14.4619V14.4616V14.4613V14.461V14.4607V14.4604V14.4601V14.4598V14.4595V14.4592V14.4589V14.4586V14.4583V14.458V14.4577V14.4573V14.457V14.4567V14.4564V14.4561V14.4558V14.4555V14.4552V14.4549V14.4546V14.4543V14.454V14.4537V14.4534V14.4531V14.4527V14.4524V14.4521V14.4518V14.4515V14.4512V14.4509V14.4506V14.4503V14.4499V14.4496V14.4493V14.449V14.4487V14.4484V14.448V14.4477V14.4474V14.4471V14.4468V14.4465V14.4461V14.4458V14.4455V14.4452V14.4449V14.4446V14.4442V14.4439V14.4436V14.4433V14.4429V14.4426V14.4423V14.442V14.4417V14.4413V14.441V14.4407V14.4404V14.44V14.4397V14.4394V14.4391V14.4387V14.4384V14.4381V14.4378V14.4374V14.4371V14.4368V14.4364V14.4361V14.4358V14.4355V14.4351V14.4348V14.4345V14.4341V14.4338V14.4335V14.4331V14.4328V14.4325V14.4321V14.4318V14.4315V14.4311V14.4308V14.4305V14.4301V14.4298V14.4295V14.4291V14.4288V14.4285V14.4281V14.4278V14.4275V14.4271V14.4268V14.4264V14.4261V14.4258V14.4254V14.4251V14.4247V14.4244V14.4241V14.4237V14.4234V14.423V14.4227V14.4224V14.422V14.4217V14.4213V14.421V14.4207V14.4203V14.42V14.4196V14.4193V14.4189V14.4186V14.4182V14.4179V14.4176V14.4172V14.4169V14.4165V14.4162V14.4158V14.4155V14.4151V14.4148V14.4144V14.4141V14.4137V14.4134V14.413V14.4127V14.4123V14.412V14.4116V14.4113V14.4109V14.4106V14.4102V14.4099V14.4095V14.4092V14.4088V14.4085V14.4081V14.4078V14.4074V14.4071V14.4067V14.4064V14.406V14.4057V14.4053V14.405V14.4046V14.4042V14.4039V14.4035V14.4032V14.4028V14.4025V14.4021V14.4018V14.4014V14.4011V14.4007V14.4003V14.4V14.3996V14.3993V14.3989V14.3986V14.3982V14.3978V14.3975V14.3971V14.3968V14.3964V14.396V14.3957V14.3953V14.395V14.3946V14.3942V14.3939V14.3935V14.3932V14.3928V14.3924V14.3921V14.3917V14.3914V14.391V14.3906V14.3903V14.3899V14.3896V14.3892V14.3888V14.3885V14.3881V14.3877V14.3874V14.387V14.3866V14.3863V14.3859V14.3856V14.3852V14.3848V14.3845V14.3841V14.3837V14.3834V14.383V14.3826V14.3823V14.3819V14.3815V14.3812V14.3808V14.3804V14.3801V14.3797V14.3793V14.379V14.3786V14.3782V14.3779V14.3775V14.3771V14.3768V14.3764V14.376V14.3757V14.3753V14.3749V14.3746V14.3742V14.3738V14.3735V14.3731V14.3727V14.3724V14.372V14.3716V14.3713V14.3709V14.3705V14.3702V14.3698V14.3694V14.369V14.3687V14.3683V14.3679V14.3676V14.3672V14.3668V14.3665V14.3661V14.3657V14.3653V14.365V14.3646V14.3642V14.3639V14.3635V14.3631V14.3628V14.3624V14.362V14.3616V14.3613V14.3609V14.3605V14.3602V14.3598V14.3594V14.359V14.3587V14.3583V14.3579V14.3576V14.3572V14.3568V14.3564V14.3561V14.3557V14.3553V14.355V14.3546V14.3542V14.3538V14.3535V14.3531V14.3527V14.3523V14.352V14.3516V14.3512V14.3509V14.3505V14.3501V14.3497V14.3494V14.349V14.3486V14.3483V14.3479V14.3475V14.3471V14.3468V14.3464V14.346V14.3456V14.3453V14.3449V14.3445V14.3442V14.3438V14.3434V14.343V14.3427V14.3423V14.3419V14.3352V14.3286V14.3219V14.3152V14.3085V14.3019V14.2952V14.2885V14.2818V14.2752V14.2685V14.2618V14.2551V14.2485V14.2418V14.2351V14.2284V14.2218V14.2151V14.2084V14.2017V14.1951V14.1884V14.1817V14.175V14.1684V14.1617V14.155V14.1483V14.1417V14.135V14.1283V14.1216V14.115V14.1083V14.1016V14.0949V14.0883V14.0816V14.0749V14.0682V14.0616V14.0549V14.0482V14.0415V14.0349V14.0282V14.0215V14.0148V14.0082V14.0015V13.9948V13.9881V13.9815V13.9748V13.9681V13.9614V13.9548V13.9481V13.9414V13.9347V13.9281V13.9214V13.9147V13.908V13.9014V13.8947V13.888V13.8813V13.8747V13.868V13.8613V13.8546V13.848V13.8413V13.8346V13.8279V13.8213V13.8146V13.8079V13.8012V13.7946V13.7879V13.7812V13.7745V13.7679V13.7612V13.7545V13.7478V13.7412V13.7345V13.7278V13.7211V13.7145V13.7078V13.7011V13.6944V13.6878V13.6811V13.6744V13.6677V13.6611V13.6544V13.6477V13.641V13.6344V13.6277V13.621V13.6143V13.6077V13.601V13.5943V13.5876V13.581V13.5743V13.5676V13.561V13.5543V13.5476V13.5409V13.5343V13.5276V13.5209V13.5142V13.5076V13.5009V13.4942V13.4875V13.4809V13.4742V13.4675V13.4608V13.4542V13.4475V13.4408V13.4341V13.4275V13.4208V13.4141V13.4074V13.4008V13.3941V13.3874V13.3807V13.3741V13.3674V13.3607V13.354V13.3474V13.3407V13.334V13.3273V13.3207V13.314V13.3073V13.3006V13.294V13.2873V13.2806V13.2739V13.2673V13.2606V13.2539V13.2472V13.2406V13.2339V13.2272V13.2205V13.2139V13.2072V13.2005V13.1938V13.1872V13.1805V13.1738V13.1671V13.1605V13.1538V13.1471V13.1404V13.1338V13.1271V13.1204V13.1137V13.1071V13.1004V13.0937V13.087V13.0804V13.0737V13.067V13.0603V13.0537V13.047V13.0403V13.0336V13.027V13.0203V13.0136V13.0069V13.0003V12.9936V12.9869V12.9802V12.9736V12.9669V12.9602V12.9535V12.9469V12.9402V12.9335V12.9268V12.9202V12.9135V12.9068V12.9001V12.8935V12.8868V12.8801V12.8734V12.8668V12.8601V12.8534V12.8467V12.8401V12.8334V12.8267V12.82V12.8134V12.8067V12.8V12.7933V12.7867V12.78V12.7733V12.7666V12.76V12.7533V12.7466V12.7399V12.7333V12.7266V12.7199V12.7132V12.7066V12.6999V12.6932V12.6865V12.6799V12.6732V12.6665V12.6598V12.6532V12.6465V12.6398V12.6331V12.6265V12.6198V12.6131V12.6064V12.5998V12.5931V12.5864V12.5797V12.5731V12.5664V12.5597V12.553V12.5464V12.5397V12.533V12.5263V12.5197V12.513V12.5063V12.4996V12.493V12.4863V12.4796V12.4729V12.4663V12.4596V12.4529V12.4462V12.4396V12.4329V12.4262V12.4195V12.4129V12.4062V12.3995V12.3928V12.3862V12.3795V12.3728V12.3661V12.3595V12.3528V12.3461V12.3394V12.3328V12.3261V12.3194V12.3127V12.3061V12.2994V12.2927V12.286V12.2794V12.2727V12.266V12.2593V12.2527V12.246V12.2393V12.2326V12.226V12.2193V12.2126V12.2059V12.1993V12.1926V12.1859V12.1792V12.1726V12.1659V12.1592V12.1525V12.1459V12.1392V12.1325V12.1258V12.1192V12.1125V12.1058V12.0991V12.0925V12.0858V12.0791V12.0724V12.0658V12.0591V12.0524V12.0457V12.0391V12.0324V12.0257V12.019V12.0124V12.0057V11.999V11.9923V11.9857V11.979V11.9723V11.9656V11.959V11.9523V11.9456V11.9389V11.9323V11.9256V11.9189V11.9122V11.9056V11.8989V11.8922V11.8855V11.8789V11.8722V11.8655V11.8588V11.8522V11.8455V11.8388V11.8321V11.8255V11.8188V11.8121V11.8054V11.7988V11.7921V11.7854V11.7787V11.7721V11.7654V11.7587V11.752V11.7454V11.7387V11.732V11.7253V11.7187V11.712V11.7053V11.6986V11.692V11.6853V11.6786V11.6719V11.6653V11.6586V11.6519V11.6452V11.6386V11.6319V11.6252V11.6185V11.6119V11.6052V11.5985V11.5918V11.5852V11.5785V11.5718V11.5651V11.5585V11.5518V11.5451V11.5384V11.5318V11.5251V11.5184V11.5117V11.5051V11.4984V11.4917V11.485V11.4784V11.4717V11.465V11.4583V11.4517V11.445V11.4383V11.4316V11.425V11.4183V11.4116V11.4049V11.3983V11.3916V11.3849V11.3782V11.3716V11.3649V11.3582V11.3516V11.3449V11.3382V11.3315V11.3249V11.3182V11.3115V11.3048V11.2982V11.2915V11.2848V11.2781V11.2715V11.2648V11.2581V11.2514V11.2448V11.2381V11.2314V11.2247V11.2181V11.2114V11.2047V11.198V11.1914V11.1847V11.178V11.1713V11.1647V11.158V11.1513V11.1446V11.138V11.1313V11.1246V11.1179V11.1113V11.1046V11.0979V11.0912V11.0846V11.0779V11.0712V11.0645V11.0579V11.0512V11.0445V11.0378V11.0312V11.0245V11.0178V11.0111V11.0045V10.9978V10.9911V10.9844V10.9778V10.9711V10.9644V10.9577V10.9511V10.9444V10.9377V10.931V10.9244C6.93272 10.6951 6.93277 10.4658 6.93283 10.2365C6.93306 9.2046 6.93329 8.1726 6.92886 7.1406L6.87886 7.14081C6.87886 7.0716 6.84605 6.96814 6.79086 6.93947M6.88261 14.5045L6.92886 7.14081C6.92886 7.09944 6.91929 7.05004 6.90204 7.00651C6.8856 6.96504 6.85788 6.91806 6.81414 6.89523M6.79086 6.93947L6.81414 6.89523M6.79086 6.93947C6.73505 6.9101 6.67928 6.88055 6.62347 6.85098C6.28677 6.67255 5.94891 6.49351 5.59429 6.35048L1.48639 12.5683C1.48524 10.4525 1.48524 8.33697 1.48639 6.22147V6.22145C1.48659 5.9854 1.55254 5.79854 1.68808 5.67814C1.82352 5.55782 2.01876 5.5125 2.25891 5.5384C3.41067 5.66238 4.54437 5.87349 5.61298 6.3041L5.613 6.30411C5.97023 6.44819 6.31065 6.6286 6.64723 6.80697C6.70295 6.83651 6.75857 6.86598 6.81414 6.89523M6.79086 6.93947L6.8139 6.8951C6.81398 6.89514 6.81406 6.89518 6.81414 6.89523M14.5808 13.0295L14.5808 13.0296L8.87983 15.4566L8.85872 15.4113C8.85871 15.4113 8.85871 15.4113 8.8587 15.4113C8.72126 15.4753 8.58744 15.5503 8.45555 15.6242C8.37921 15.6669 8.30351 15.7093 8.22814 15.749L8.22813 15.749C7.744 16.0042 7.24698 16.0276 6.78304 15.7544C5.58238 15.0471 4.2462 14.711 2.8628 14.5015L2.86276 14.5015C2.72597 14.4809 2.58855 14.4647 2.45201 14.4486L2.44409 14.4477C2.30997 14.4319 2.17673 14.4162 2.04434 14.3966C1.07051 14.2524 0.364615 13.5239 0.360879 12.6439L0.360879 12.6439C0.35123 10.4821 0.354703 8.31996 0.358949 6.15798L0.358949 6.15797C0.360814 5.18176 1.24579 4.36095 2.50206 4.53932L2.50908 4.48982L2.50206 4.53932C3.63216 4.69976 4.74782 4.8827 5.80134 5.27872C6.19836 5.42801 6.57807 5.61466 6.95973 5.80226C7.06779 5.85539 7.17602 5.90858 7.28483 5.96103C7.34887 5.9919 7.41219 6.01702 7.47842 6.02257C7.54656 6.02829 7.61386 6.01306 7.6856 5.97053L7.68563 5.97052C8.87349 5.26541 10.2045 4.90288 11.5901 4.66951L11.5817 4.6202L11.5901 4.66951C11.9729 4.60498 12.3594 4.55109 12.7458 4.52503C13.6848 4.46223 14.4622 5.04447 14.6038 5.88237L14.6038 5.88248C14.6083 5.90898 14.6161 5.93407 14.6238 5.9568C14.6266 5.96511 14.6294 5.97285 14.632 5.9803C14.6361 5.99205 14.64 6.00307 14.6436 6.01447V12.7676C14.6364 12.7974 14.6296 12.8269 14.6228 12.8561C14.6093 12.9144 14.596 12.9718 14.5808 13.0295Z" fill="#3D86AF" stroke="white" stroke-width="0.1"/>
<path d="M11.2991 1.67835L11.2992 1.67832C11.4017 1.45486 11.3235 1.21043 11.0736 1.0555C9.99299 0.386018 8.79715 0.0514081 7.45043 0.0500001C6.19004 0.0545317 5.00711 0.38794 3.93267 1.04448C3.77765 1.13942 3.67828 1.25335 3.65742 1.4134L3.65742 1.41342C3.64353 1.51977 3.65535 1.61413 3.69343 1.69516L11.2991 1.67835ZM11.2991 1.67835C11.1963 1.90305 10.9444 2.03 10.6654 1.97654C10.5822 1.96057 10.4985 1.92202 10.4206 1.87767L10.4205 1.87764M11.2991 1.67835L10.4205 1.87764M10.4205 1.87764C8.46986 0.77102 6.51651 0.77171 4.56891 1.88118M10.4205 1.87764L4.56891 1.88118M4.56891 1.88118C4.3395 2.01182 4.11976 2.03208 3.89751 1.90467L4.56891 1.88118Z" fill="#4DC9F5" stroke="white" stroke-width="0.1"/>
<path d="M7.66162 2.28251L7.66211 2.28295L7.68167 2.28277C8.15373 2.27831 8.7778 2.42579 9.36142 2.71792C9.52523 2.79997 9.63057 2.91537 9.67617 3.03901C9.72144 3.16178 9.70974 3.29756 9.63063 3.42697L9.63061 3.42701C9.47872 3.67586 9.14589 3.76102 8.82752 3.60893L8.82751 3.60892C7.93648 3.18363 7.04598 3.18508 6.15543 3.61104L6.15542 3.61104C5.84037 3.76177 5.50598 3.67284 5.35566 3.4221C5.27905 3.29401 5.2681 3.16036 5.31212 3.03967C5.35644 2.91816 5.45835 2.80507 5.61581 2.72434C6.17533 2.43783 6.80544 2.28745 7.66162 2.28251Z" fill="#4DC9F5" stroke="white" stroke-width="0.1"/>
</svg>
