<svg width="33" height="33" viewBox="0 0 33 33" fill="none" xmlns="http://www.w3.org/2000/svg">
<path d="M23.0055 0.5H10.01C7.08822 0.5 4.69651 1.3724 3.03473 3.03336C1.37291 4.69435 0.5 7.085 0.5 10.0055V22.979C0.5 25.9069 1.3727 28.3014 3.03451 29.9645C4.69636 31.6276 7.08821 32.5 10.01 32.5H22.99C25.9117 32.5 28.3034 31.6276 29.9652 29.9666C31.627 28.3057 32.4999 25.915 32.4999 22.9945L32.4999 10.0069C32.4999 10.0066 32.4999 10.0064 32.4999 10.0062C32.5078 7.08567 31.639 4.6948 29.979 3.03358C28.319 1.37236 25.9271 0.5 23.0055 0.5Z" fill="white" stroke="#EAEAEA"/>
<path d="M20.7463 22C20.4277 22 20.109 21.8826 19.8574 21.6312L10.3648 12.1418C9.87841 11.6556 9.87841 10.8509 10.3648 10.3647C10.8512 9.87845 11.6562 9.87845 12.1426 10.3647L21.6352 19.854C22.1216 20.3402 22.1216 21.145 21.6352 21.6312C21.3836 21.8826 21.065 22 20.7463 22Z" fill="#292D32"/>
<path d="M10 20.7463C10 20.4277 10.1174 20.109 10.3688 19.8574L19.8582 10.3648C20.3444 9.87841 21.1491 9.87841 21.6353 10.3648C22.1216 10.8512 22.1216 11.6562 21.6353 12.1426L12.146 21.6352C11.6598 22.1216 10.855 22.1216 10.3688 21.6352C10.1174 21.3836 10 21.065 10 20.7463Z" fill="#292D32"/>
</svg>
