<svg xmlns="http://www.w3.org/2000/svg" width="13.44" height="13.706" viewBox="0 0 13.44 13.706">
  <g id="ic_chat" transform="translate(0.05 0.09)">
    <g id="Group_19962" data-name="Group 19962" transform="translate(0 0)">
      <path id="Path_30542" data-name="Path 30542" d="M0,4.853c.042-.26.065-.526.13-.779A5.086,5.086,0,0,1,9.545,2.617a5.2,5.2,0,0,1-3.352,7.662,4.79,4.79,0,0,1-2.938-.224.173.173,0,0,0-.187.024,2.545,2.545,0,0,1-2.781.172.4.4,0,0,1-.179-.59A3.03,3.03,0,0,0,.384,7.13C.247,6.676.153,6.209.041,5.747.022,5.671.013,5.593,0,5.515V4.854ZM1.02,9.688a.344.344,0,0,0,.039.016c.025.008.05.015.075.021A1.778,1.778,0,0,0,2.767,9.29.45.45,0,0,1,3.314,9.2a4.115,4.115,0,0,0,2.755.283,4.4,4.4,0,0,0,3.283-5.21A4.344,4.344,0,0,0,4.706.838,4.233,4.233,0,0,0,1.239,3.283a3.9,3.9,0,0,0-.4,2.437,11.322,11.322,0,0,0,.323,1.264,3.81,3.81,0,0,1,.083,1.97c-.059.246-.149.486-.227.733Z" transform="translate(0 -0.002)" fill="#fff" stroke="#fff" stroke-width="0.1"/>
      <path id="Path_30543" data-name="Path 30543" d="M142.9,141.6c-.131-.028-.263-.05-.391-.084a2.463,2.463,0,0,1-.867-.409.2.2,0,0,0-.211-.029,5.054,5.054,0,0,1-5.173-.876.4.4,0,0,1-.15-.458.373.373,0,0,1,.333-.275.434.434,0,0,1,.342.128,4.236,4.236,0,0,0,2,.95,4.169,4.169,0,0,0,2.544-.3.522.522,0,0,1,.638.094,1.752,1.752,0,0,0,1.643.392.352.352,0,0,0,.05-.014.039.039,0,0,0,.013-.012c-.08-.263-.174-.518-.233-.782a3.508,3.508,0,0,1,.138-2.015,4.448,4.448,0,0,0-.65-4.484.418.418,0,0,1,.032-.6.394.394,0,0,1,.583.094,5.22,5.22,0,0,1,1.131,2.836c0,.043.015.085.023.127v.688a.735.735,0,0,0-.021.1,5.437,5.437,0,0,1-.361,1.534,2.619,2.619,0,0,0-.149,1.234,3.085,3.085,0,0,0,.414,1.226.407.407,0,0,1-.167.6,2.17,2.17,0,0,1-.379.171c-.21.064-.427.108-.641.161h-.5Z" transform="translate(-131.362 -128.044)" fill="#fff" stroke="#fff" stroke-width="0.1"/>
      <path id="Path_30544" data-name="Path 30544" d="M63.609,131.1a.625.625,0,0,1-.629-.633.626.626,0,1,1,1.251-.007.627.627,0,0,1-.622.641Z" transform="translate(-60.792 -125.238)" fill="#fff" stroke="#c4102a" stroke-width="0.1"/>
      <path id="Path_30545" data-name="Path 30545" d="M130.127,131.1a.624.624,0,0,1-.627-.635.632.632,0,0,1,.628-.637.638.638,0,0,1,.624.632A.632.632,0,0,1,130.127,131.1Z" transform="translate(-125.002 -125.238)" fill="#fff" stroke="#c4102a" stroke-width="0.1"/>
      <path id="Path_30546" data-name="Path 30546" d="M197.131,130.466a.622.622,0,0,1-.626.635.636.636,0,1,1,.626-.635Z" transform="translate(-189.075 -125.238)" fill="#fff" stroke="#c4102a" stroke-width="0.1"/>
    </g>
  </g>
</svg>
