<svg width="17" height="24" viewBox="0 0 17 24" fill="none" xmlns="http://www.w3.org/2000/svg">
<g clip-path="url(#clip0_113_266)">
<path d="M0.00194257 15.586L0.00194257 20.779C-0.00869788 21.0679 0.039138 21.3561 0.142575 21.6261C0.246012 21.8961 0.402917 22.1424 0.603887 22.3503C0.804857 22.5582 1.04575 22.7233 1.31211 22.8358C1.57847 22.9483 1.8648 23.0059 2.15394 23.005H13.4309C13.7201 23.0059 14.0064 22.9483 14.2728 22.8358C14.5391 22.7233 14.78 22.5582 14.981 22.3503C15.182 22.1424 15.3389 21.8961 15.4423 21.6261C15.5457 21.3561 15.5936 21.0679 15.5829 20.779V15.586H0.00194257Z" fill="#D32027"/>
<path d="M0.00194257 2.23001L0.00194257 7.42401L15.5829 7.42401V2.23001C15.5936 1.94106 15.5457 1.65294 15.4423 1.38293C15.3389 1.11293 15.182 0.866603 14.981 0.658722C14.78 0.450841 14.5391 0.28569 14.2728 0.173187C14.0064 0.060684 13.7201 0.00312859 13.4309 0.0039978L2.15394 0.0039978C1.8648 0.00312859 1.57847 0.060684 1.31211 0.173187C1.04575 0.28569 0.804857 0.450841 0.603887 0.658722C0.402917 0.866603 0.246012 1.11293 0.142575 1.38293C0.039138 1.65294 -0.00869788 1.94106 0.00194257 2.23001Z" fill="#D32027"/>
<path d="M0.00190608 2.23001L0.00190608 7.42401L11.1679 7.42401L15.5829 2.30502C15.5948 2.01217 15.5484 1.71987 15.4463 1.44513C15.3442 1.17039 15.1885 0.918702 14.9882 0.704681C14.788 0.490661 14.5472 0.318569 14.2798 0.198456C14.0125 0.0783427 13.7239 0.0125845 13.4309 0.00500488L2.15391 0.00500488C1.86485 0.00414086 1.5786 0.0616612 1.31231 0.174103C1.04602 0.286544 0.80518 0.45159 0.604224 0.659363C0.403268 0.867136 0.246335 1.11335 0.142836 1.38324C0.0393371 1.65313 -0.00859652 1.94115 0.00190608 2.23001Z" fill="#BC1723"/>
<path d="M0.00195313 15.585L0.00195312 20.779L4.41695 15.585H0.00195313Z" fill="#BC1723"/>
<path d="M15.5829 7.42401V2.23001C15.6042 1.93227 15.5612 1.63342 15.4568 1.35376C15.3525 1.0741 15.1892 0.820156 14.9781 0.609131C14.767 0.398106 14.513 0.234939 14.2332 0.130707C13.9535 0.0264742 13.6547 -0.0163996 13.3569 0.00500488V7.42401H15.5829Z" fill="#AA0E21"/>
<path d="M13.3569 23.005C13.6548 23.0264 13.9537 22.9835 14.2335 22.8793C14.5133 22.775 14.7673 22.6117 14.9785 22.4006C15.1896 22.1894 15.3529 21.9354 15.4572 21.6556C15.5615 21.3758 15.6044 21.0768 15.5829 20.779V15.586H13.3569V23.005Z" fill="#AA0E21"/>
<path d="M0.00190608 2.23001L0.00190608 7.42401H3.93391L6.23391 0.00500488H2.15391C1.86485 0.00414086 1.5786 0.0616612 1.31231 0.174103C1.04602 0.286544 0.80518 0.45159 0.604224 0.659363C0.403268 0.867136 0.246335 1.11335 0.142836 1.38324C0.0393371 1.65313 -0.00859652 1.94115 0.00190608 2.23001Z" fill="#AA0E21"/>
<path d="M0.00195313 15.585L0.00195312 20.779L1.52296 15.585H0.00195313Z" fill="#AA0E21"/>
<path d="M0.289063 7.005L0.289062 16.005H16.2891V7.005L0.289063 7.005Z" fill="white"/>
<path d="M11.168 7.005H0.00195313L0.00195312 16.005H4.41695L11.168 7.005Z" fill="#E9F3F4"/>
<path d="M12.2891 7.00598V16.006H16.2891V7.00598H12.2891Z" fill="#D3E9EA"/>
<path d="M3.93395 6.97801H0.00195313L0.00195312 16.036H1.52296L3.93395 6.97801Z" fill="#D3E9EA"/>
<path d="M7.86696 8.05502C7.75596 8.16602 7.75596 8.42603 7.56696 8.46303C7.18454 8.48893 6.80481 8.38305 6.49097 8.16302C6.63897 8.86302 6.93596 9.42403 6.11996 9.42403C6.60196 9.83203 7.11996 10.277 7.00996 10.424C6.86196 10.684 5.59997 10.164 4.93297 10.124C5.04397 10.384 5.30396 10.824 5.30396 10.824C4.85143 10.9797 4.426 11.2051 4.04297 11.492C4.426 11.7789 4.85143 12.0043 5.30396 12.16C5.30396 12.16 5.04397 12.642 4.93297 12.86C5.60097 12.823 6.86196 12.304 7.00996 12.56C7.08396 12.745 6.60196 13.154 6.11996 13.56C6.89896 13.56 6.63897 14.116 6.49097 14.821C6.80481 14.601 7.18454 14.4951 7.56696 14.521C7.75196 14.558 7.75196 14.821 7.86696 14.929C8.68296 14.113 9.27697 12.703 9.94397 13.371L9.75896 11.553C10.353 11.479 11.132 11.701 11.503 11.516V11.368C11.132 11.182 10.353 11.405 9.75896 11.331L9.94397 9.51302C9.23997 10.281 8.68296 8.87102 7.86696 8.05502Z" fill="#D32027"/>
<path d="M7.86696 8.05501C7.75596 8.16601 7.75596 8.426 7.56696 8.463C7.18454 8.4889 6.80481 8.38302 6.49097 8.16299C6.63897 8.86299 6.93596 9.424 6.11996 9.424C6.60196 9.832 7.11996 10.277 7.00996 10.424C6.86196 10.684 5.59997 10.164 4.93297 10.124C5.04397 10.384 5.30396 10.824 5.30396 10.824C4.85143 10.9797 4.426 11.2051 4.04297 11.492H11.499V11.418C11.128 11.233 10.349 11.455 9.75496 11.381L9.93996 9.563C9.23996 10.281 8.68296 8.87101 7.86696 8.05501Z" fill="#AA0E21"/>
</g>
<defs>
<clipPath id="clip0_113_266">
<rect width="16.289" height="23.011" fill="white"/>
</clipPath>
</defs>
</svg>
