<svg xmlns="http://www.w3.org/2000/svg" xmlns:xlink="http://www.w3.org/1999/xlink" width="53" height="53" viewBox="0 0 53 53">
  <defs>
    <filter id="pexels-andrea-piacquadio-3822850" x="0" y="0" width="53" height="53" filterUnits="userSpaceOnUse">
      <feOffset dy="3" input="SourceAlpha"/>
      <feGaussianBlur stdDeviation="3" result="blur"/>
      <feFlood flood-opacity="0.4"/>
      <feComposite operator="in" in2="blur"/>
      <feComposite in="SourceGraphic"/>
    </filter>
  </defs>
  <g id="ic_create_image_story" transform="translate(8.985 6)">
    <g id="Group_20386" data-name="Group 20386">
      <g transform="matrix(1, 0, 0, 1, -8.98, -6)" filter="url(#pexels-andrea-piacquadio-3822850)">
        <g id="pexels-andrea-piacquadio-3822850-2" data-name="pexels-andrea-piacquadio-3822850" transform="translate(9 6)" stroke="#fff" stroke-width="1" opacity="0.3">
          <rect width="35" height="35" rx="4" stroke="none"/>
          <rect x="0.5" y="0.5" width="34" height="34" rx="3.5" fill="none"/>
        </g>
      </g>
      <g id="Layer_1" data-name="Layer 1" transform="translate(7.348 8.052)">
        <g id="Group_20340" data-name="Group 20340" transform="translate(0 0)">
          <path id="Path_32809" data-name="Path 32809" d="M9.9,19.832q-2.695,0-5.39,0a4.368,4.368,0,0,1-2.838-.954A4.354,4.354,0,0,1,0,15.324q0-2.376,0-4.752,0-3.078.016-6.156A4.318,4.318,0,0,1,3.025.232,4.958,4.958,0,0,1,4.464.014C8.093,0,11.722,0,15.351.006a4.352,4.352,0,0,1,4.413,3.879,4.94,4.94,0,0,1,.025.647c0,1.851,0,3.7,0,5.552q0,2.613.015,5.227a4.416,4.416,0,0,1-4.689,4.516c-.394-.014-.79.006-1.185.006q-2.015,0-4.031,0ZM1.406,9.671a9.754,9.754,0,0,1,8.533,1.286,9.794,9.794,0,0,1,4.32,7.464h.91A10.77,10.77,0,0,0,12.9,12.475a9.408,9.408,0,0,1,5.512-.143V12.1q0-3.812,0-7.625a3.222,3.222,0,0,0-.032-.538,2.971,2.971,0,0,0-3.012-2.548q-5.465-.006-10.93,0a3.016,3.016,0,0,0-.515.035A2.972,2.972,0,0,0,1.4,4.415c-.006,1.685,0,3.37,0,5.055,0,.063.006.127.01.2Z" transform="translate(0 -0.002)" fill="#fff"/>
          <path id="Path_32810" data-name="Path 32810" d="M191.93,50.592a2.528,2.528,0,1,1,2.513,2.537A2.522,2.522,0,0,1,191.93,50.592Z" transform="translate(-180.872 -45.294)" fill="#fff"/>
        </g>
      </g>
    </g>
  </g>
</svg>
