<svg width="31" height="27" viewBox="0 0 31 27" fill="none" xmlns="http://www.w3.org/2000/svg">
<path d="M0.458104 22.5318C0.340801 22.5318 0.223499 22.4869 0.13417 22.3976C-0.0447232 22.2187 -0.0447232 21.9286 0.13417 21.7497L8.21162 13.6723C8.39051 13.4934 8.68059 13.4934 8.85948 13.6723C9.03838 13.8511 9.03838 14.1412 8.85948 14.3199L0.781804 22.3976C0.692475 22.4869 0.575172 22.5318 0.458104 22.5318Z" fill="#A0ECFF"/>
<path d="M1.44828 19.5257C1.33121 19.5257 1.21391 19.481 1.12458 19.3917C0.945452 19.2128 0.945452 18.9227 1.12458 18.7438L2.15703 17.7111C2.33593 17.5325 2.62601 17.5325 2.8049 17.7111C2.9838 17.89 2.9838 18.1801 2.8049 18.359L1.77221 19.3917C1.68289 19.481 1.56558 19.5257 1.44828 19.5257Z" fill="#A0ECFF"/>
<path d="M3.47178 24.175C3.35447 24.175 3.23717 24.1304 3.14784 24.0411C2.96895 23.8622 2.96895 23.5721 3.14784 23.3932L4.1803 22.3607C4.35919 22.1818 4.64927 22.1818 4.82816 22.3607C5.00706 22.5396 5.00706 22.8297 4.82816 23.0084L3.79571 24.0411C3.70615 24.1304 3.58908 24.175 3.47178 24.175Z" fill="#A0ECFF"/>
<path d="M21.1769 22.5318C21.0596 22.5318 20.9422 22.4869 20.8529 22.3976C20.674 22.2187 20.674 21.9286 20.8529 21.7497L28.9304 13.6723C29.1093 13.4934 29.3993 13.4934 29.5782 13.6723C29.7571 13.8511 29.7571 14.1412 29.5782 14.3199L21.5008 22.3976C21.4112 22.4869 21.2939 22.5318 21.1769 22.5318Z" fill="#A0ECFF"/>
<path d="M15.3772 19.9018L5.60484 26.4412C5.32793 26.6267 5.03549 26.5289 4.8747 26.3272C4.71767 26.1297 4.68546 25.8331 4.91607 25.6024L9.72925 20.7893H6.5294C6.04397 20.7893 5.80019 20.2018 6.14387 19.8584L11.2927 14.71H15.8911L11.6975 18.9032H15.0739C15.613 18.9032 15.825 19.6019 15.3772 19.9018Z" fill="#F6CB43"/>
<path d="M15.3775 19.9011L5.60515 26.4405C5.32823 26.6259 5.03579 26.5281 4.875 26.3264L12.9588 19.8658H9.75236C9.26645 19.8658 9.02315 19.2784 9.3666 18.9347L13.5919 14.709H15.8914L11.6976 18.9025H15.0742C15.6133 18.9025 15.8253 19.6012 15.3775 19.9011Z" fill="#FAB03C"/>
<path d="M18.5206 21.5462C18.4035 21.5462 18.2862 21.5016 18.1967 21.4122C18.0178 21.2333 18.0178 20.9433 18.1967 20.7644L21.7722 17.1889C21.9511 17.01 22.2412 17.01 22.42 17.1889C22.5989 17.3677 22.5989 17.6578 22.42 17.8367L18.8445 21.4122C18.755 21.5016 18.6379 21.5462 18.5206 21.5462Z" fill="#A0ECFF"/>
<path d="M15.837 24.231C15.7199 24.231 15.6026 24.1861 15.5131 24.0968C15.3342 23.9179 15.3342 23.6278 15.5131 23.4489L16.6581 22.3041C16.837 22.1252 17.1269 22.1252 17.3058 22.3041C17.4847 22.483 17.4847 22.7728 17.3058 22.952L16.1609 24.0968C16.0716 24.1861 15.9543 24.231 15.837 24.231Z" fill="#A0ECFF"/>
<path d="M17.1046 18.4924C16.9873 18.4924 16.8702 18.4475 16.7807 18.3582C16.6018 18.1793 16.6018 17.8892 16.7807 17.7103L20.3113 14.1799C20.4902 14.0011 20.7802 14.0011 20.9591 14.1799C21.1378 14.3588 21.1378 14.6487 20.9591 14.8276L17.4285 18.3582C17.339 18.4475 17.2217 18.4924 17.1046 18.4924Z" fill="#A0ECFF"/>
<path d="M26.767 7.41007C26.5169 3.27578 23.0853 0 18.888 0C15.5029 0 12.6159 2.13073 11.4941 5.12419C8.57897 5.15945 6.22656 7.53207 6.22656 10.4555C6.22656 13.4007 8.61423 15.7884 11.5595 15.7884H26.6208C28.9354 15.7884 30.8118 13.912 30.8118 11.5975C30.8118 9.33181 29.0139 7.48717 26.767 7.41007Z" fill="#6D6D6D"/>
<path d="M30.811 11.597C30.811 13.9116 28.9342 15.7884 26.6196 15.7884H26.295C26.5987 15.2082 26.7708 14.5477 26.7708 13.8476C26.7708 11.582 24.9729 9.73732 22.7261 9.65998C22.476 5.52593 19.0443 2.24991 14.8468 2.24991C14.2807 2.24991 13.729 2.30939 13.1973 2.42269C14.6331 0.929255 16.6512 0 18.887 0C23.0843 0 26.5162 3.27531 26.7663 7.41007C29.0132 7.4867 30.811 9.33158 30.811 11.597Z" fill="#565656"/>
<path d="M24.6777 6.9551C24.4709 6.9551 24.2833 6.81381 24.2327 6.60389C24.1599 6.30064 24.0602 6.00163 23.9363 5.7153C23.8357 5.48328 23.9424 5.21365 24.1747 5.11304C24.4067 5.01243 24.6763 5.11939 24.7769 5.35141C24.9218 5.68592 25.0384 6.03524 25.1235 6.38974C25.1825 6.63586 25.0311 6.88293 24.7852 6.94217C24.7492 6.95086 24.7132 6.9551 24.6777 6.9551Z" fill="#6D6D6D"/>
<path d="M23.1857 4.23301C23.0654 4.23301 22.945 4.18599 22.8552 4.0922C21.8063 2.99933 20.3973 2.39754 18.8876 2.39754C18.6347 2.39754 18.4297 2.19232 18.4297 1.93937C18.4297 1.68643 18.6347 1.48145 18.8876 1.48145C20.649 1.48145 22.2929 2.18338 23.516 3.45773C23.6914 3.64038 23.6853 3.93023 23.5029 4.10536C23.414 4.1907 23.2998 4.23301 23.1857 4.23301Z" fill="#6D6D6D"/>
<path d="M5.07722 9.79865C5.25611 6.8428 7.70936 4.50098 10.7101 4.50098C13.1302 4.50098 15.1942 6.0245 15.9963 8.1644C18.0802 8.18955 19.7619 9.88586 19.7619 11.9759C19.7619 14.0815 18.0551 15.7884 15.9495 15.7884C15.0679 15.7884 6.08757 15.7884 5.18183 15.7884C3.52713 15.7884 2.18555 14.447 2.18555 12.7921C2.18555 11.1724 3.47094 9.85389 5.07722 9.79865Z" fill="#A09D9C"/>
<path d="M19.7627 11.9759C19.7627 14.0634 18.084 15.759 16.0024 15.7874C16.6266 15.1083 17.0072 14.2035 17.0072 13.2091C17.0072 11.1195 15.3257 9.423 13.241 9.39761C12.4389 7.25795 10.3752 5.73419 7.95485 5.73419C7.669 5.73419 7.38809 5.75581 7.11328 5.79672C8.08979 4.98735 9.34298 4.50098 10.7104 4.50098C13.1308 4.50098 15.1945 6.02403 15.9966 8.1644C18.081 8.18955 19.7627 9.88539 19.7627 11.9759Z" fill="#82807F"/>
<path d="M19.7653 24.2308C19.7644 24.2308 19.7637 24.2308 19.7629 24.2308H19.7566C19.5037 24.2294 19.2996 24.0234 19.3008 23.7705C19.302 23.5183 19.5067 23.3145 19.7587 23.3145H19.7611H19.7674C20.0204 23.3159 20.2244 23.5218 20.2232 23.7747C20.222 24.027 20.0171 24.2308 19.7653 24.2308Z" fill="#A0ECFF"/>
<path d="M25.2184 21.1261C25.2177 21.1261 25.217 21.1261 25.2163 21.1261H25.21C24.957 21.1249 24.7527 20.9187 24.7539 20.6658C24.7551 20.4135 24.9601 20.21 25.2121 20.21H25.2142H25.2205C25.4735 20.2111 25.6778 20.4171 25.6766 20.67C25.6752 20.9222 25.4704 21.1261 25.2184 21.1261Z" fill="#A0ECFF"/>
<path d="M2.36099 25.3018H2.35465C2.10171 25.3018 1.89648 25.0966 1.89648 24.8437C1.89648 24.5907 2.10171 24.3857 2.35465 24.3857H2.36099C2.61394 24.3857 2.81892 24.5907 2.81892 24.8437C2.81892 25.0968 2.61394 25.3018 2.36099 25.3018Z" fill="#A0ECFF"/>
</svg>
