<svg xmlns="http://www.w3.org/2000/svg" xmlns:xlink="http://www.w3.org/1999/xlink" width="53" height="53" viewBox="0 0 53 53">
  <defs>
    <filter id="pexels-andrea-piacquadio-3822850" x="0" y="0" width="53" height="53" filterUnits="userSpaceOnUse">
      <feOffset dy="3" input="SourceAlpha"/>
      <feGaussianBlur stdDeviation="3" result="blur"/>
      <feFlood flood-opacity="0.4"/>
      <feComposite operator="in" in2="blur"/>
      <feComposite in="SourceGraphic"/>
    </filter>
  </defs>
  <g id="ic_create_text_story" transform="translate(-284 94)">
    <g transform="matrix(1, 0, 0, 1, 284, -94)" filter="url(#pexels-andrea-piacquadio-3822850)">
      <g id="pexels-andrea-piacquadio-3822850-2" data-name="pexels-andrea-piacquadio-3822850" transform="translate(9 6)" stroke="#fff" stroke-width="1" opacity="0.41">
        <rect width="35" height="35" rx="4" stroke="none"/>
        <rect x="0.5" y="0.5" width="34" height="34" rx="3.5" fill="none"/>
      </g>
    </g>
    <g id="Group_20090" data-name="Group 20090" transform="translate(302.621 -78.243)">
      <path id="Path_31243" data-name="Path 31243" d="M16.422,135.4a.752.752,0,0,1-.787.435c-2.4-.01-2.013-.005-4.415-.005h-.248v5.167a.607.607,0,0,0,.7.691c.339,0,.677,0,1.015,0a.587.587,0,1,1,0,1.17q-3.466,0-6.932,0a.587.587,0,1,1,0-1.17c.371,0,.742,0,1.113,0a.573.573,0,0,0,.593-.574c0-1.75,0-3.5,0-5.282H2.714a1.041,1.041,0,0,1-.288-.031.574.574,0,0,1-.416-.608.594.594,0,0,1,.54-.529c.071-.006.143,0,.214,0,6.151,0,6.72,0,12.871-.005a.753.753,0,0,1,.787.435v.313Z" transform="translate(-1.78 -127.625)" fill="#fff"/>
      <path id="Path_31244" data-name="Path 31244" d="M29.07,1.181H24.561c0,.574,0,1.138,0,1.7a.591.591,0,0,1-.285.543.577.577,0,0,1-.882-.473c-.014-.8-.01-1.6,0-2.4A.574.574,0,0,1,23.948,0c.058,0,.117,0,.176,0h13.4c.523,0,.73.209.73.734,0,.729,0,1.458,0,2.187a.584.584,0,0,1-1.154.132.969.969,0,0,1-.015-.213c0-.546,0-1.092,0-1.654h-4.5V5.848H29.07V1.181Z" transform="translate(-23.385 0.001)" fill="#fff"/>
    </g>
  </g>
</svg>
