<svg xmlns="http://www.w3.org/2000/svg" xmlns:xlink="http://www.w3.org/1999/xlink" width="53" height="53" viewBox="0 0 53 53">
  <defs>
    <filter id="pexels-andrea-piacquadio-3822850" x="0" y="0" width="53" height="53" filterUnits="userSpaceOnUse">
      <feOffset dy="3" input="SourceAlpha"/>
      <feGaussianBlur stdDeviation="3" result="blur"/>
      <feFlood flood-opacity="0.4"/>
      <feComposite operator="in" in2="blur"/>
      <feComposite in="SourceGraphic"/>
    </filter>
  </defs>
  <g id="ic_create_video_story" transform="translate(-413 -555)">
    <g id="ic_create_galley_story" transform="translate(421.985 561)">
      <g id="Group_20386" data-name="Group 20386">
        <g transform="matrix(1, 0, 0, 1, -8.98, -6)" filter="url(#pexels-andrea-piacquadio-3822850)">
          <g id="pexels-andrea-piacquadio-3822850-2" data-name="pexels-andrea-piacquadio-3822850" transform="translate(9 6)" stroke="#fff" stroke-width="1" opacity="0.3">
            <rect width="35" height="35" rx="4" stroke="none"/>
            <rect x="0.5" y="0.5" width="34" height="34" rx="3.5" fill="none"/>
          </g>
        </g>
      </g>
    </g>
    <path id="video-library" d="M3,6A1,1,0,0,0,2,7V20a2.006,2.006,0,0,0,2,2H17a1,1,0,0,0,0-2H5a1,1,0,0,1-1-1V7A1,1,0,0,0,3,6ZM20,2H8A2.006,2.006,0,0,0,6,4V16a2.006,2.006,0,0,0,2,2H20a2.006,2.006,0,0,0,2-2V4A2.006,2.006,0,0,0,20,2ZM12,14.5v-9l5.47,4.1a.5.5,0,0,1,0,.8Z" transform="translate(427 567)" fill="#fcfbfb"/>
  </g>
</svg>
