<svg xmlns="http://www.w3.org/2000/svg" width="11.943" height="14.639" viewBox="0 0 11.943 14.639">
  <g id="ic_delete_time" transform="translate(0.15 0.151)">
    <path id="Path_123" data-name="Path 123" d="M222.734,154.7a.336.336,0,0,0-.336.336v6.347a.336.336,0,1,0,.672,0v-6.347A.336.336,0,0,0,222.734,154.7Zm0,0" transform="translate(-214.93 -149.509)" fill="#00b0e9"/>
    <path id="Path_124" data-name="Path 124" d="M222.734,161.871a.486.486,0,0,1-.486-.486v-6.347a.486.486,0,1,1,.972,0v6.347a.486.486,0,0,1-.486.486Zm0-7.018a.186.186,0,0,0-.186.186v6.347a.186.186,0,1,0,.372,0v-6.347a.186.186,0,0,0-.186-.186Z" transform="translate(-214.93 -149.509)" fill="#00b0e9"/>
    <path id="Path_125" data-name="Path 125" d="M104.734,154.7a.336.336,0,0,0-.336.336v6.347a.336.336,0,1,0,.672,0v-6.347A.336.336,0,0,0,104.734,154.7Zm0,0" transform="translate(-100.892 -149.509)" fill="#00b0e9"/>
    <path id="Path_126" data-name="Path 126" d="M104.734,161.871a.486.486,0,0,1-.486-.486v-6.347a.486.486,0,1,1,.972,0v6.347a.486.486,0,0,1-.486.486Zm0-7.018a.186.186,0,0,0-.186.186v6.347a.186.186,0,0,0,.372,0v-6.347A.186.186,0,0,0,104.734,154.853Z" transform="translate(-100.892 -149.509)" fill="#00b0e9"/>
    <path id="Path_127" data-name="Path 127" d="M.95,4.267V12.54a1.853,1.853,0,0,0,.493,1.278,1.654,1.654,0,0,0,1.2.519H9a1.653,1.653,0,0,0,1.2-.519,1.853,1.853,0,0,0,.493-1.278V4.267a1.283,1.283,0,0,0-.329-2.523H8.64v-.42A1.319,1.319,0,0,0,7.31,0H4.329A1.319,1.319,0,0,0,3,1.325v.42H1.28A1.283,1.283,0,0,0,.95,4.267ZM9,13.665H2.643A1.063,1.063,0,0,1,1.622,12.54V4.3h8.4v8.24A1.063,1.063,0,0,1,9,13.665ZM3.67,1.325A.647.647,0,0,1,4.329.67H7.31a.647.647,0,0,1,.658.655v.42H3.67ZM1.28,2.416h9.08a.6.6,0,0,1,0,1.209H1.28a.6.6,0,1,1,0-1.209Zm0,0" transform="translate(0.003 0.001)" fill="#00b0e9"/>
    <path id="Path_128" data-name="Path 128" d="M9,14.487H2.643a1.811,1.811,0,0,1-1.309-.566A2.016,2.016,0,0,1,.8,12.54V4.378a1.433,1.433,0,0,1,.479-2.783h1.57v-.27A1.478,1.478,0,0,1,3.28.277,1.46,1.46,0,0,1,4.318-.152h3A1.46,1.46,0,0,1,8.359.277,1.479,1.479,0,0,1,8.79,1.326V1.6h1.569a1.433,1.433,0,0,1,.479,2.783V12.54a2.016,2.016,0,0,1-.534,1.381,1.81,1.81,0,0,1-1.3.566ZM1.28,1.895A1.133,1.133,0,0,0,.989,4.122l.112.03V12.54a1.713,1.713,0,0,0,.451,1.174,1.51,1.51,0,0,0,1.091.472H9a1.509,1.509,0,0,0,1.091-.472,1.714,1.714,0,0,0,.452-1.175V4.152l.112-.03a1.133,1.133,0,0,0-.291-2.228H8.49v-.57A1.177,1.177,0,0,0,8.147.49,1.162,1.162,0,0,0,7.321.148h-3A1.162,1.162,0,0,0,3.492.49a1.177,1.177,0,0,0-.343.834v.571ZM9,13.815H2.643A1.213,1.213,0,0,1,1.472,12.54V4.147h8.695V12.54A1.213,1.213,0,0,1,9,13.815ZM1.772,4.447V12.54a.917.917,0,0,0,.871.975H9a.917.917,0,0,0,.871-.975V4.447Zm8.587-.672H1.28a.754.754,0,1,1,0-1.509h9.08a.754.754,0,1,1,0,1.509ZM1.28,2.566a.454.454,0,1,0,0,.909h9.08a.454.454,0,0,0,0-.909Zm6.839-.672H3.52v-.57A.8.8,0,0,1,3.755.752.792.792,0,0,1,4.317.52h3a.792.792,0,0,1,.562.232.8.8,0,0,1,.235.575Zm-4.3-.3h4v-.27a.5.5,0,0,0-.146-.36A.494.494,0,0,0,7.322.82h-3a.494.494,0,0,0-.351.145.5.5,0,0,0-.146.358Z" transform="translate(0.003 0.001)" fill="#00b0e9"/>
    <path id="Path_129" data-name="Path 129" d="M163.734,154.7a.336.336,0,0,0-.336.336v6.347a.336.336,0,1,0,.672,0v-6.347A.336.336,0,0,0,163.734,154.7Zm0,0" transform="translate(-157.911 -149.509)" fill="#00b0e9"/>
    <path id="Path_130" data-name="Path 130" d="M163.734,161.871a.486.486,0,0,1-.486-.486v-6.347a.486.486,0,1,1,.972,0v6.347a.486.486,0,0,1-.486.486Zm0-7.018a.186.186,0,0,0-.186.186v6.347a.186.186,0,1,0,.372,0v-6.347A.186.186,0,0,0,163.734,154.853Z" transform="translate(-157.911 -149.509)" fill="#00b0e9"/>
  </g>
</svg>
