<svg width="15" height="11" viewBox="0 0 15 11" fill="none" xmlns="http://www.w3.org/2000/svg">
<g clip-path="url(#clip0_1562_11082)">
<path d="M15.0001 10.4974C14.8891 11.0898 14.2948 11.1616 13.9343 10.6968C13.4353 10.054 12.8831 9.45391 12.3537 8.8358C12.326 8.80341 12.2959 8.77269 12.2675 8.74197C9.84742 10.3913 7.00377 9.4489 5.71388 7.53114C4.35149 5.50585 4.6738 2.81471 6.4901 1.17644C8.24762 -0.408724 10.9348 -0.38635 12.71 1.2095C14.4982 2.81738 14.9521 5.87618 13.062 8.0307C13.3821 8.40437 13.7031 8.7797 14.0244 9.15471C14.2713 9.44289 14.5276 9.72339 14.7624 10.0216C14.864 10.1508 14.9224 10.3154 15.0005 10.464V10.4974H15.0001ZM9.57148 8.51423C11.5517 8.53961 13.2145 6.87163 13.2367 4.83832C13.2586 2.81571 11.6415 1.11667 9.69263 1.06691C7.73395 1.01683 5.965 2.56593 5.92418 4.73948C5.88532 6.81319 7.51385 8.48818 9.57148 8.51456V8.51423Z" fill="black"/>
<path d="M2.62061 0.710258C3.30082 0.710258 3.98104 0.70959 4.66158 0.710258C4.99075 0.710592 5.23044 0.935327 5.23044 1.24154C5.23044 1.54842 4.99173 1.77383 4.66256 1.77383C3.29658 1.77449 1.9306 1.77449 0.564614 1.77383C0.232181 1.77383 0.000326555 1.5541 0 1.24221C0 0.928314 0.228915 0.710592 0.563308 0.710258C1.24907 0.70959 1.93484 0.710258 2.62061 0.710258Z" fill="black"/>
<path d="M2.2811 6.38885C2.84114 6.38885 3.40151 6.38551 3.96155 6.39019C4.31358 6.39319 4.54478 6.62928 4.52715 6.9542C4.51082 7.25473 4.27962 7.4621 3.95241 7.46277C3.16378 7.46444 2.37515 7.46344 1.58652 7.46344C1.23286 7.46344 0.879523 7.46811 0.52619 7.46143C0.259394 7.45643 0.0477859 7.26742 0.00957892 7.01864C-0.030914 6.75584 0.0918709 6.51942 0.32993 6.4326C0.419406 6.39987 0.520965 6.39152 0.616972 6.39085C1.17179 6.38718 1.72628 6.38918 2.2811 6.38918V6.38885Z" fill="black"/>
<path d="M1.9159 3.544C2.37798 3.544 2.83973 3.54066 3.3018 3.54567C3.55456 3.54834 3.75767 3.7143 3.81907 3.95039C3.87687 4.17145 3.78412 4.42123 3.57872 4.53477C3.48761 4.58519 3.37332 4.61391 3.26947 4.61458C2.3672 4.62059 1.46525 4.62092 0.562982 4.61658C0.225323 4.61525 0 4.39352 0 4.08229C0 3.76807 0.237732 3.54567 0.578983 3.54433C1.02473 3.54266 1.47015 3.544 1.9159 3.54433V3.544Z" fill="black"/>
</g>
<defs>
<clipPath id="clip0_1562_11082">
<rect width="15" height="11" fill="white"/>
</clipPath>
</defs>
</svg>
