<svg width="16" height="16" viewBox="0 0 16 16" fill="none" xmlns="http://www.w3.org/2000/svg">
<path d="M14.5938 0.9375H14.125V0.46875C14.125 0.209875 13.9151 0 13.6562 0C13.3974 0 13.1875 0.209875 13.1875 0.46875V0.9375H11.2812V0.46875C11.2812 0.209875 11.0714 0 10.8125 0C10.5536 0 10.3438 0.209875 10.3438 0.46875V0.9375H8.46875V0.46875C8.46875 0.209875 8.25887 0 8 0C7.74113 0 7.53125 0.209875 7.53125 0.46875V0.9375H5.65625V0.46875C5.65625 0.209875 5.44637 0 5.1875 0C4.92863 0 4.71875 0.209875 4.71875 0.46875V0.9375H2.8125V0.46875C2.8125 0.209875 2.60262 0 2.34375 0C2.08488 0 1.875 0.209875 1.875 0.46875V0.9375H1.40625C0.630844 0.9375 0 1.56834 0 2.34375C0 2.918 0 13.9488 0 14.5938C0 15.3692 0.630844 16 1.40625 16H14.5938C15.3692 16 16 15.3692 16 14.5938C16 13.9486 16 2.91772 16 2.34375C16 1.56834 15.3692 0.9375 14.5938 0.9375ZM15.0625 14.5938C15.0625 14.8522 14.8522 15.0625 14.5938 15.0625H1.40625C1.14778 15.0625 0.9375 14.8522 0.9375 14.5938V4.6875H15.0625V14.5938ZM15.0625 3.75H0.9375V2.34375C0.9375 2.08528 1.14778 1.875 1.40625 1.875H1.875V2.34375C1.875 2.60262 2.08488 2.8125 2.34375 2.8125C2.60262 2.8125 2.8125 2.60262 2.8125 2.34375V1.875H4.71875V2.34375C4.71875 2.60262 4.92863 2.8125 5.1875 2.8125C5.44637 2.8125 5.65625 2.60262 5.65625 2.34375V1.875H7.53125V2.34375C7.53125 2.60262 7.74113 2.8125 8 2.8125C8.25887 2.8125 8.46875 2.60262 8.46875 2.34375V1.875H10.3438V2.34375C10.3438 2.60262 10.5536 2.8125 10.8125 2.8125C11.0714 2.8125 11.2812 2.60262 11.2812 2.34375V1.875H13.1875V2.34375C13.1875 2.60262 13.3974 2.8125 13.6562 2.8125C13.9151 2.8125 14.125 2.60262 14.125 2.34375V1.875H14.5938C14.8522 1.875 15.0625 2.08528 15.0625 2.34375V3.75Z" fill="#006197"/>
<path d="M11.9688 13.1875H11.5V11.7812C11.5 11.0058 10.8692 10.375 10.0938 10.375H8.6875V9.32563C9.23309 9.13213 9.625 8.61109 9.625 8C9.625 7.76181 9.557 7.51906 9.48713 7.39697L8.62556 5.89209C8.54203 5.74622 8.38681 5.65625 8.21875 5.65625C8.05069 5.65625 7.89547 5.74622 7.81194 5.89209L6.95038 7.39697C6.88166 7.51706 6.8125 7.75859 6.8125 8C6.8125 8.61109 7.20441 9.13213 7.75 9.32563V10.375H6.34375C5.56834 10.375 4.9375 11.0058 4.9375 11.7812V13.1875H4.46875C4.20987 13.1875 4 13.3974 4 13.6562C4 13.9151 4.20987 14.125 4.46875 14.125C4.71863 14.125 11.5788 14.125 11.9688 14.125C12.2276 14.125 12.4375 13.9151 12.4375 13.6562C12.4375 13.3974 12.2276 13.1875 11.9688 13.1875ZM7.7795 7.83559L8.21875 7.06841L8.658 7.83559C8.67759 7.88784 8.6875 7.94303 8.6875 8C8.6875 8.25847 8.47722 8.46875 8.21875 8.46875C7.96028 8.46875 7.75 8.25847 7.75 8C7.75 7.94306 7.75991 7.88787 7.7795 7.83559ZM10.5625 13.1875H5.875V11.7812C5.875 11.5228 6.08528 11.3125 6.34375 11.3125H10.0938C10.3522 11.3125 10.5625 11.5228 10.5625 11.7812V13.1875Z" fill="#006197"/>
</svg>
