<svg width="15" height="14" viewBox="0 0 15 14" fill="none" xmlns="http://www.w3.org/2000/svg">
<path d="M0.167969 6.67174C0.176696 6.65612 0.189082 6.6416 0.193868 6.62516C0.335186 6.1249 0.727895 5.82901 1.2622 5.82847C2.63823 5.8271 4.01398 5.82764 5.39 5.82847C5.53498 5.82847 5.68193 5.81915 5.82466 5.83806C6.39781 5.91477 6.76603 6.33147 6.768 6.89749C6.76997 7.45309 6.76857 8.00842 6.76857 8.56403C6.76857 9.99852 6.76857 11.4327 6.76857 12.8672C6.76857 13.4642 6.51155 13.8023 5.92234 13.9828C5.91418 13.9853 5.90827 13.9941 5.90151 14.0001H1.03925C0.895676 13.9373 0.743096 13.8889 0.610786 13.8086C0.364182 13.6582 0.245384 13.4157 0.167969 13.1522C0.167969 10.9919 0.167969 8.8317 0.167969 6.67174ZM1.06683 9.9125C1.06683 10.9007 1.06683 11.8892 1.06683 12.8774C1.06683 13.0861 1.10653 13.125 1.31851 13.125C2.74633 13.125 4.17388 13.125 5.6017 13.125C5.82944 13.125 5.86097 13.0946 5.86097 12.8727C5.86097 10.9007 5.86097 8.92841 5.86097 6.95639C5.86097 6.73968 5.83113 6.71037 5.61071 6.71037C4.17838 6.71009 2.74605 6.71009 1.31372 6.71037C1.10315 6.71037 1.06712 6.74543 1.06712 6.94735C1.06712 7.93555 1.06712 8.92402 1.06712 9.91222L1.06683 9.9125Z" fill="#3D86AF"/>
<path d="M0.16825 0.84776C0.185141 0.800912 0.202595 0.754337 0.218359 0.707215C0.363619 0.280374 0.752668 0.00147541 1.21322 0.000927476C2.71114 -0.000168393 4.20906 -0.00044236 5.70699 0.000927476C6.29084 0.00147541 6.75871 0.435439 6.76519 1.00447C6.77532 1.88801 6.7742 2.77156 6.76575 3.6551C6.7604 4.21701 6.30576 4.66549 5.72838 4.66851C4.22117 4.67645 2.71396 4.67453 1.20646 4.66933C0.725361 4.66769 0.327023 4.35262 0.198653 3.90167C0.191334 3.87647 0.178385 3.85263 0.167969 3.82825C0.167969 2.83484 0.167969 1.84117 0.167969 0.84776H0.16825ZM3.46897 0.874609C2.7483 0.874609 2.02763 0.874609 1.30696 0.874609C1.11159 0.874609 1.06712 0.917622 1.06712 1.10611C1.06683 1.92116 1.06683 2.73622 1.06712 3.55127C1.06712 3.75346 1.10315 3.78907 1.31288 3.78907C2.74943 3.78935 4.18626 3.78962 5.62281 3.78907C5.82691 3.78907 5.86097 3.75592 5.86125 3.55894C5.86182 2.74389 5.86182 1.92883 5.86125 1.11378C5.86125 0.909677 5.82466 0.874609 5.61718 0.874609C4.9013 0.874609 4.18514 0.874609 3.46925 0.874609H3.46897Z" fill="#4DC9F5"/>
<path d="M8.82346 14.0005C8.79391 13.9895 8.76463 13.9764 8.73423 13.9679C8.27958 13.8399 7.96204 13.4523 7.95866 12.9903C7.95219 12.1068 7.95022 11.2233 7.95922 10.3397C7.96485 9.77973 8.42484 9.33371 9.00166 9.33124C10.5089 9.32466 12.0161 9.32412 13.5233 9.33179C14.1072 9.3348 14.5542 9.79287 14.5553 10.3605C14.557 11.2213 14.5562 12.0821 14.5556 12.943C14.5553 13.4662 14.2578 13.8396 13.7344 13.9766C13.717 13.9813 13.7015 13.9922 13.6849 14.0005H8.82318H8.82346ZM11.2546 13.126C11.9753 13.126 12.6959 13.126 13.4166 13.126C13.612 13.126 13.6576 13.0824 13.6576 12.895C13.6579 12.08 13.6579 11.2649 13.6576 10.4498C13.6576 10.2471 13.6215 10.2112 13.4127 10.2112C11.9761 10.2109 10.5393 10.2109 9.10272 10.2112C8.89778 10.2112 8.86372 10.2438 8.86344 10.4403C8.86288 11.2553 8.86288 12.0704 8.86344 12.8854C8.86344 13.0906 8.89975 13.1257 9.10667 13.1257C9.82255 13.1257 10.5387 13.1257 11.2546 13.1257V13.126Z" fill="#4DC9F5"/>
<path d="M14.5569 4.088C14.5569 5.09483 14.5575 6.10193 14.5569 7.10876C14.5566 7.72601 14.1059 8.16984 13.4711 8.17093C11.996 8.1734 10.5209 8.1734 9.04606 8.17093C8.41604 8.16984 7.95886 7.72135 7.9583 7.10602C7.95661 5.09209 7.95661 3.07843 7.9583 1.0645C7.9583 0.437663 8.41153 0.000684918 9.05563 0.000410951C10.526 -0.000136984 11.9963 -0.000136984 13.4666 0.000410951C14.1127 0.000410951 14.5561 0.434923 14.5564 1.06724C14.5569 2.07407 14.5564 3.08117 14.5564 4.088H14.5569ZM8.8642 4.07321C8.8642 5.06606 8.8642 6.05892 8.8642 7.05178C8.8642 7.25753 8.89658 7.28876 9.10968 7.28876C10.542 7.28903 11.9743 7.28903 13.4067 7.28876C13.6246 7.28876 13.6581 7.25534 13.6581 7.04246C13.6581 5.07045 13.6581 3.09816 13.6581 1.12614C13.6581 0.909982 13.6209 0.874092 13.3965 0.874092C11.9735 0.874092 10.5505 0.874092 9.12741 0.874092C8.89207 0.874092 8.86364 0.901763 8.86364 1.13546C8.86364 2.11462 8.86364 3.09377 8.86364 4.07321H8.8642Z" fill="#3D86AF"/>
</svg>
