<svg width="26" height="21" viewBox="0 0 26 21" fill="none" xmlns="http://www.w3.org/2000/svg">
<path d="M22.0245 1.68559C20.3414 0.898146 18.5419 0.325863 16.6605 0C16.4294 0.417745 16.1595 0.979621 15.9734 1.42659C13.9734 1.12582 11.9918 1.12582 10.0286 1.42659C9.84251 0.979621 9.56643 0.417745 9.33331 0C7.44987 0.325863 5.64824 0.900249 3.96521 1.68976C0.57053 6.81957 -0.349712 11.822 0.11041 16.7533C2.36194 18.4347 4.54394 19.4561 6.68912 20.1245C7.21878 19.3955 7.69116 18.6206 8.09811 17.8039C7.32306 17.5094 6.58074 17.146 5.87933 16.7241C6.06541 16.5862 6.24743 16.4421 6.42328 16.2938C10.7014 18.2948 15.3496 18.2948 19.5766 16.2938C19.7545 16.4421 19.9365 16.5862 20.1206 16.7241C19.4171 17.1481 18.6727 17.5115 17.8977 17.806C18.3046 18.6206 18.775 19.3976 19.3067 20.1265C21.4539 19.4582 23.638 18.4368 25.8895 16.7533C26.4294 11.0366 24.9672 6.08017 22.0245 1.68559ZM8.68094 13.7206C7.3967 13.7206 6.34351 12.5217 6.34351 11.0617C6.34351 9.60168 7.37421 8.4007 8.68094 8.4007C9.98771 8.4007 11.0409 9.59958 11.0184 11.0617C11.0204 12.5217 9.98771 13.7206 8.68094 13.7206ZM17.319 13.7206C16.0347 13.7206 14.9815 12.5217 14.9815 11.0617C14.9815 9.60168 16.0122 8.4007 17.319 8.4007C18.6257 8.4007 19.6789 9.59958 19.6564 11.0617C19.6564 12.5217 18.6257 13.7206 17.319 13.7206Z" fill="#5865F2"/>
</svg>
