<svg xmlns="http://www.w3.org/2000/svg" width="11.486" height="6.343" viewBox="0 0 11.486 6.343">
  <g id="ic_drop_down" transform="translate(-140.859 -109.028)">
    <path id="Path_131" data-name="Path 131" d="M0,5.743a.6.6,0,0,1-.424-.176A.6.6,0,0,1-.6,5.142a.6.6,0,0,1,.176-.424L4.718-.424a.6.6,0,0,1,.849,0,.6.6,0,0,1,0,.849L.424,5.567A.6.6,0,0,1,0,5.743Z" transform="translate(141.459 114.771) rotate(-90)"/>
    <path id="Path_132" data-name="Path 132" d="M5.143,5.743a.6.6,0,0,1-.424-.176L-.424.424A.6.6,0,0,1-.6,0,.6.6,0,0,1-.424-.425.6.6,0,0,1,0-.6a.6.6,0,0,1,.424.176L5.567,4.718a.6.6,0,0,1-.424,1.024Z" transform="translate(146.602 114.771) rotate(-90)"/>
  </g>
</svg>
