<svg width="16" height="16" viewBox="0 0 16 16" fill="none" xmlns="http://www.w3.org/2000/svg">
<path d="M13.2819 3.05028C11.9326 1.73751 10.1027 1 8.19455 1C6.28644 1 4.45648 1.73751 3.10724 3.05028C1.758 4.36306 1 6.14356 1 8.0001C1 9.85665 1.758 11.6372 3.10724 12.9499C3.77379 13.6019 4.56663 14.1188 5.43987 14.4707C6.3131 14.8226 7.24939 15.0025 8.19455 15C8.30638 15 8.41363 14.9567 8.4927 14.8798C8.57178 14.8029 8.6162 14.6985 8.6162 14.5897C8.6162 14.4809 8.57178 14.3766 8.4927 14.2996C8.41363 14.2227 8.30638 14.1795 8.19455 14.1795C6.93844 14.1795 5.71054 13.8171 4.66612 13.1381C3.6217 12.4591 2.80767 11.494 2.32698 10.3648C1.84629 9.23571 1.72052 7.99325 1.96557 6.79457C2.21063 5.59589 2.8155 4.49483 3.70371 3.63063C4.59191 2.76643 5.72355 2.17791 6.95553 1.93948C8.18751 1.70104 9.46448 1.82342 10.625 2.29112C11.7855 2.75882 12.7774 3.55084 13.4752 4.56703C14.1731 5.58322 14.5456 6.77794 14.5456 8.0001V9.64355C14.5456 9.97174 14.4116 10.2865 14.1731 10.5186C13.9345 10.7506 13.611 10.881 13.2737 10.881C12.9364 10.881 12.6129 10.7506 12.3744 10.5186C12.1359 10.2865 12.0019 9.97174 12.0019 9.64355V8.0001C12.0027 7.11928 11.6812 6.26695 11.095 5.59573C10.5088 4.92451 9.69616 4.47825 8.80261 4.33685C7.90906 4.19545 6.99296 4.36814 6.21834 4.82402C5.44373 5.27989 4.8612 5.98917 4.57507 6.82483C4.28893 7.6605 4.31788 8.56798 4.65672 9.38478C4.99556 10.2016 5.62217 10.8743 6.42435 11.2826C7.22652 11.6909 8.15187 11.808 9.03469 11.6129C9.9175 11.4179 10.7001 10.9234 11.2424 10.2181C11.3836 10.6951 11.6972 11.1063 12.1254 11.3759C12.5536 11.6456 13.0675 11.7556 13.5725 11.6856C14.0775 11.6157 14.5395 11.3704 14.8733 10.9951C15.2071 10.6199 15.3902 10.1398 15.3889 9.64355V8.0001C15.3915 7.08048 15.2067 6.16947 14.845 5.31983C14.4833 4.47019 13.952 3.69879 13.2819 3.05028ZM8.19455 10.8853C7.60807 10.8853 7.03476 10.7161 6.54711 10.399C6.05947 10.082 5.6794 9.6314 5.45496 9.10421C5.23053 8.57701 5.1718 7.9969 5.28622 7.43724C5.40064 6.87757 5.68306 6.36348 6.09776 5.95998C6.51247 5.55649 7.04083 5.2817 7.61605 5.17038C8.19126 5.05905 8.78749 5.11619 9.32932 5.33456C9.87116 5.55293 10.3343 5.92273 10.6601 6.39719C10.9859 6.87165 11.1599 7.42947 11.1599 8.0001C11.1592 8.7651 10.8466 9.49858 10.2906 10.0395C9.73465 10.5804 8.9808 10.8846 8.19455 10.8853Z" fill="#006197" stroke="#006197" stroke-width="0.3"/>
</svg>
