<svg width="79" height="79" viewBox="0 0 79 79" fill="none" xmlns="http://www.w3.org/2000/svg">
<rect width="79" height="79" rx="39.5" fill="#E43535"/>
<path d="M17.7317 32.0592C16.7998 31.1881 16.7522 29.7273 17.6225 28.7947C18.4928 27.8621 19.9428 27.8021 20.8877 28.6847C23.3872 31.032 25.9536 28.8708 26.2381 28.6171C27.0876 27.8559 28.3455 27.839 29.2112 28.5256C29.3134 28.6055 29.4103 28.697 29.5002 28.7978C30.3506 29.748 30.2699 31.2081 29.3196 32.0592C27.2714 33.8928 22.2401 36.2762 17.7317 32.0592ZM61.4116 28.7701C62.2619 29.7204 62.1812 31.1804 61.2309 32.0315C59.1835 33.8652 54.1514 36.2478 49.6437 32.0315C48.7119 31.1604 48.6643 29.6996 49.5338 28.767C50.4034 27.8344 51.8549 27.7744 52.7991 28.6571C55.2985 31.0043 57.8649 28.8431 58.1494 28.5894C58.9989 27.8283 60.2568 27.8113 61.1225 28.4979C61.224 28.5779 61.3201 28.6701 61.4116 28.7701ZM57.9626 52.8323C58.4684 54.0017 57.931 55.3595 56.7616 55.8654C55.5922 56.3728 54.236 55.8339 53.7301 54.6645C51.5051 49.5217 46.2493 46.1973 40.3355 46.1973C34.287 46.1973 28.9982 49.5187 26.8639 54.6599C26.4956 55.5448 25.6368 56.0822 24.7335 56.0822C24.439 56.0822 24.1392 56.0253 23.8501 55.9054C22.6738 55.4156 22.1163 54.0656 22.6046 52.89C25.4569 46.022 32.4172 41.585 40.3362 41.585C48.0899 41.585 55.0095 45.9997 57.9626 52.8323Z" fill="#FAFAFA"/>
</svg>
