<svg width="21" height="21" viewBox="0 0 21 21" fill="none" xmlns="http://www.w3.org/2000/svg">
<path d="M13.5414 13.3511C13.8607 13.03 13.8588 12.5115 13.5373 12.1928C13.2156 11.8742 12.6961 11.8761 12.3769 12.1972L7.45389 17.1476L3.8499 13.5395L10.9256 6.45289L15.0903 10.6097C15.4107 10.9295 15.9301 10.9295 16.2505 10.6097L16.2855 10.5748L20.0882 6.84061C20.0899 6.83901 20.0915 6.83757 20.0931 6.83597C21.1377 5.79327 21.0913 4.73904 20.8685 4.03841C20.6444 3.33361 20.148 2.62369 19.259 1.7364C18.3699 0.848959 17.6586 0.353566 16.9527 0.129902C16.2505 -0.0924796 15.1943 -0.138943 14.1487 0.904714L2.08419 12.9877C1.98466 13.0872 1.91259 13.2107 1.87487 13.3461L0.0300143 19.9615C-0.049443 20.2468 0.031459 20.5528 0.2419 20.7616C0.397765 20.9164 0.606601 21 0.820574 21C0.895376 21 0.97066 20.9897 1.04466 20.9688L7.61233 19.1067C7.77076 19.0774 7.92213 19.0016 8.04429 18.8789L13.5414 13.3511ZM16.4562 1.6909C17.0295 1.87259 17.6681 2.46491 18.0986 2.89446C18.5291 3.32416 19.1224 3.9615 19.3044 4.53396C19.4012 4.83822 19.4234 5.18717 18.9348 5.67567L17.8596 6.73151L14.2476 3.12629L15.3102 2.06197C15.8006 1.57218 16.1509 1.59429 16.4562 1.6909ZM13.0891 4.28627L16.6897 7.88027L15.6748 8.87698L12.0841 5.29291L13.0891 4.28627ZM3.57525 18.5487L2.44375 17.4139L3.08952 15.0982L5.88273 17.8945L3.57525 18.5487ZM21 20.1446C21 20.5969 20.6327 20.9635 20.1796 20.9635H10.2107C9.75751 20.9635 9.39008 20.5969 9.39008 20.1446C9.39008 19.6923 9.75751 19.3256 10.2107 19.3256H20.1796C20.6326 19.3256 21 19.6923 21 20.1446Z" fill="#1976D2"/>
</svg>
