<svg id="ic_forward_arrow_with_circle" xmlns="http://www.w3.org/2000/svg" width="40" height="40" viewBox="0 0 40 40">
  <circle id="Ellipse_2" data-name="Ellipse 2" cx="19" cy="19" r="19" transform="translate(1 1)" fill="none" stroke="#00b0e9" stroke-width="2"/>
  <path id="Path_146" data-name="Path 146" d="M16,27.991a.861.861,0,0,0,1.23,0h0L24,21.12h0a.884.884,0,0,0,.253-.619h0A.883.883,0,0,0,24,19.881l-6.763-6.873h0a.861.861,0,0,0-1.23,0h0a.885.885,0,0,0,0,1.239L22.158,20.5,16,26.753h0A.885.885,0,0,0,16,27.991Zm0,0h0l.178-.175L16,27.991Z" fill="#00b0e9" stroke="#00b0e9" stroke-width="0.5"/>
</svg>
