<svg width="19" height="19" viewBox="0 0 19 19" fill="none" xmlns="http://www.w3.org/2000/svg">
<path d="M16.15 0H2.85C1.27599 0 0 1.27599 0 2.85V16.15C0 17.724 1.27599 19 2.85 19H16.15C17.724 19 19 17.724 19 16.15V2.85C19 1.27599 17.724 0 16.15 0Z" fill="#1877F2"/>
<path d="M13.1961 12.2461L13.6191 9.5H10.9844V7.71875C10.9844 6.96914 11.3518 6.23437 12.5318 6.23437H13.7305V3.89648C13.7305 3.89648 12.6432 3.71094 11.6041 3.71094C9.4332 3.71094 8.01562 5.02461 8.01562 7.40703V9.5H5.60352V12.2461H8.01562V19H10.9844V12.2461H13.1961Z" fill="white"/>
</svg>
