<svg xmlns="http://www.w3.org/2000/svg" width="18.415" height="18.359" viewBox="0 0 18.415 18.359">
  <g id="ic_gmail" transform="translate(-373.961 -402.976)">
    <path id="Path_147" data-name="Path 147" d="M1004.214,691.026a7.551,7.551,0,0,0-.2-1.876H995.2v3.405h5.176a4.474,4.474,0,0,1-1.92,2.977l-.018.114,2.785,2.11.193.018A8.859,8.859,0,0,0,1004.214,691.026Z" transform="translate(-611.842 -278.668)" fill="#4285f4"/>
    <path id="Path_148" data-name="Path 148" d="M994.477,700.3a9.069,9.069,0,0,0,6.216-2.223l-2.96-2.243a5.815,5.815,0,0,1-8.6-2.9l-.11.009-2.9,2.191-.038.1a9.407,9.407,0,0,0,8.392,5.061Z" transform="translate(-611.121 -278.969)" fill="#34a853"/>
    <path id="Path_149" data-name="Path 149" d="M989.049,692.423a5.541,5.541,0,0,1-.312-1.815,5.809,5.809,0,0,1,.3-1.815l0-.122-2.935-2.227-.1.044a8.969,8.969,0,0,0,0,8.238Z" transform="translate(-611.034 -278.457)" fill="#fbbc05"/>
    <path id="Path_150" data-name="Path 150" d="M994.477,684.548a5.272,5.272,0,0,1,3.632,1.366l2.649-2.528A9.138,9.138,0,0,0,994.477,681a9.408,9.408,0,0,0-8.388,5.057l3.036,2.3a5.665,5.665,0,0,1,5.352-3.809Z" transform="translate(-611.121 -278.023)" fill="#eb4335"/>
  </g>
</svg>
