<svg xmlns="http://www.w3.org/2000/svg" width="72" height="72" viewBox="0 0 72 72">
  <g id="ic_item_placeholder" transform="translate(24122 19770)">
    <g id="_859baff1d76042a45e319d1de80aec7a" data-name="859baff1d76042a45e319d1de80aec7a" transform="translate(-24122 -19770)" fill="#f6f5f7" stroke="#dbdbdb" stroke-width="0.3">
      <rect width="72" height="72" rx="4" stroke="none"/>
      <rect x="0.15" y="0.15" width="71.7" height="71.7" rx="3.85" fill="none"/>
    </g>
    <g id="Layer_2" data-name="Layer 2" transform="translate(-24107 -19753)">
      <g id="Illustration" transform="translate(0 0)">
        <path id="Path_32742" data-name="Path 32742" d="M543.32.062V.469c3.043.656,4.8,2.414,5.053,5.146h.444c-.016-2.073-.024-4.061-.144-5.553C547.1-.023,545.3-.018,543.32.062Z" transform="translate(-534.914 0)" fill="#d2d1d1"/>
        <path id="Path_32743" data-name="Path 32743" d="M543.32,1026.115v-.279a6.879,6.879,0,0,0,5.633-5.726l.506.038-.364,5.982Z" transform="translate(-534.914 -1004.327)" fill="#d2d1d1"/>
        <path id="Path_32744" data-name="Path 32744" d="M928.58,4.481c2.745.321,1.536,1.333,10.174,22.236l4.035-8.8-.469-.136c-2.222,3.22-2.407,3.158-3.708.006L934.188,6.628c-.785-1.528-.063-2.194,1.906-2.147V4H928.58Z" transform="translate(-914.213 -3.938)" fill="#d2d1d1"/>
        <path id="Path_32745" data-name="Path 32745" d="M916.944,1022.6c-.067,1.888-.182,3.871-.364,5.983" transform="translate(-902.399 -1006.779)" fill="#d2d1d1"/>
        <path id="Path_32746" data-name="Path 32746" d="M549.095,1408.3q-2.847.075-5.775-.016" transform="translate(-534.914 -1386.491)" fill="#d2d1d1"/>
        <path id="Path_32747" data-name="Path 32747" d="M383.68,446.258l.02.44a4.1,4.1,0,0,1,3.1,3.831h.549l-.086-8.079-.469,0A3.929,3.929,0,0,1,383.68,446.258Z" transform="translate(-377.744 -435.605)" fill="#d2d1d1"/>
        <path id="Path_32748" data-name="Path 32748" d="M1822.24,4a3.516,3.516,0,0,1,0,.444c3.165-.1,3.163,2.98,2.11,6.4h.426c1.387-3.1,2.757-6.278,4.871-6.417V4.037Z" transform="translate(-1794.047 -3.938)" fill="#d2d1d1"/>
        <path id="Path_32749" data-name="Path 32749" d="M10.79,2286.379h.338v2.072h1.28v.294H10.79Z" transform="translate(-10.623 -2251.005)" fill="#d2d1d1"/>
        <path id="Path_32750" data-name="Path 32750" d="M142.206,2288.451v.294H140.49v-2.365h1.669v.294h-1.331v.727h1.186v.287h-1.186v.764Z" transform="translate(-138.316 -2251.005)" fill="#d2d1d1"/>
        <path id="Path_32751" data-name="Path 32751" d="M265.551,2286.674h-.811v-.294H266.7v.294h-.811v2.071h-.335Z" transform="translate(-260.644 -2251.005)" fill="#d2d1d1"/>
        <path id="Path_32752" data-name="Path 32752" d="M408.858,2276.129a.656.656,0,0,1-.054.24l-.162.473h-.213l.125-.5a.213.213,0,0,1-.142-.209.221.221,0,0,1,.226-.229A.217.217,0,0,1,408.858,2276.129Z" transform="translate(-402.093 -2240.688)" fill="#d2d1d1"/>
        <path id="Path_32753" data-name="Path 32753" d="M458.64,2286.781l.125-.263a1.218,1.218,0,0,0,.78.274c.409,0,.584-.159.584-.365,0-.577-1.432-.213-1.432-1.091,0-.365.284-.676.905-.676a1.394,1.394,0,0,1,.76.209l-.111.27a1.222,1.222,0,0,0-.649-.193c-.4,0-.574.169-.574.375,0,.578,1.433.217,1.433,1.084,0,.362-.291.673-.916.673A1.4,1.4,0,0,1,458.64,2286.781Z" transform="translate(-451.544 -2249.313)" fill="#d2d1d1"/>
        <path id="Path_32754" data-name="Path 32754" d="M656.38,2285.846h.325v.922a1.4,1.4,0,0,1-.895.3,1.211,1.211,0,1,1,.006-2.419,1.186,1.186,0,0,1,.909.365l-.209.21a.936.936,0,0,0-.686-.274.909.909,0,1,0,0,1.817,1,1,0,0,0,.554-.152Z" transform="translate(-644.423 -2249.302)" fill="#d2d1d1"/>
        <path id="Path_32755" data-name="Path 32755" d="M837.111,2288.745l-.511-.726c-.047,0-.1.007-.149.007h-.584v.72h-.338v-2.365h.922c.615,0,.987.312.987.825a.746.746,0,0,1-.521.746l.561.794Zm-.01-1.541c0-.337-.226-.531-.659-.531h-.574v1.065h.574C836.875,2287.738,837.1,2287.542,837.1,2287.2Z" transform="translate(-822.603 -2251.005)" fill="#d2d1d1"/>
        <path id="Path_32756" data-name="Path 32756" d="M981.83,2285.839a1.257,1.257,0,1,1,1.26,1.21A1.2,1.2,0,0,1,981.83,2285.839Zm2.176,0a.919.919,0,1,0-.916.908A.888.888,0,0,0,984.006,2285.839Z" transform="translate(-966.64 -2249.282)" fill="#d2d1d1"/>
        <path id="Path_32757" data-name="Path 32757" d="M1160.587,2286.379l-.791,2.365h-.355l-.645-1.889-.645,1.889h-.362l-.79-2.365h.348l.639,1.923.665-1.923h.311l.652,1.933.652-1.933Z" transform="translate(-1139.099 -2251.005)" fill="#d2d1d1"/>
        <path id="Path_32758" data-name="Path 32758" d="M1456.26,2286.674h-.811v-.294h1.956v.294h-.811v2.071h-.335Z" transform="translate(-1432.932 -2251.005)" fill="#d2d1d1"/>
        <path id="Path_32759" data-name="Path 32759" d="M1591.06,2285.839a1.258,1.258,0,1,1,1.26,1.21A1.2,1.2,0,0,1,1591.06,2285.839Zm2.176,0a.919.919,0,1,0-.915.908A.888.888,0,0,0,1593.235,2285.839Z" transform="translate(-1566.444 -2249.282)" fill="#d2d1d1"/>
        <path id="Path_32760" data-name="Path 32760" d="M1776.35,2285.826h.324v.921a1.391,1.391,0,0,1-.895.3,1.211,1.211,0,1,1,.007-2.42,1.184,1.184,0,0,1,.909.366l-.209.209a.939.939,0,0,0-.686-.274.909.909,0,1,0,0,1.817,1,1,0,0,0,.554-.151Z" transform="translate(-1747.065 -2249.282)" fill="#d2d1d1"/>
        <path id="Path_32761" data-name="Path 32761" d="M1957.217,2288.451v.294H1955.5v-2.365h1.669v.294h-1.331v.727h1.186v.287h-1.186v.764Z" transform="translate(-1925.245 -2251.005)" fill="#d2d1d1"/>
        <path id="Path_32762" data-name="Path 32762" d="M2080.561,2286.674h-.81v-.294h1.955v.294h-.81v2.071h-.335Z" transform="translate(-2047.573 -2251.005)" fill="#d2d1d1"/>
        <path id="Path_32763" data-name="Path 32763" d="M2232.033,2286.379v2.365h-.338v-1.054h-1.359v1.054H2230v-2.365h.338v1.018h1.357v-1.018Z" transform="translate(-2195.498 -2251.005)" fill="#d2d1d1"/>
        <path id="Path_32764" data-name="Path 32764" d="M2409.006,2288.451v.294h-1.716v-2.365h1.669v.294h-1.33v.727h1.186v.287h-1.186v.764Z" transform="translate(-2370.045 -2251.005)" fill="#d2d1d1"/>
        <path id="Path_32765" data-name="Path 32765" d="M2555.141,2288.745l-.51-.726c-.048,0-.1.007-.149.007h-.584v.72h-.337v-2.365h.922c.615,0,.986.312.986.825a.745.745,0,0,1-.52.746l.561.794Zm-.01-1.541c0-.337-.226-.531-.659-.531h-.575v1.065h.575C2554.905,2287.738,2555.131,2287.542,2555.131,2287.2Z" transform="translate(-2514.052 -2251.005)" fill="#d2d1d1"/>
        <path id="Path_32766" data-name="Path 32766" d="M0,2198.558q5.18-.049,10.361-.061l2.59-.007,2.59-.006,5.18,0,5.18,0,2.59,0,2.59.008q5.18.017,10.36.061-5.18.047-10.36.06l-2.59.008-2.59.005-5.18,0-5.18,0-2.59-.006-2.59-.007Q5.18,2198.6,0,2198.558Z" transform="translate(0 -2164.465)" fill="#d2d1d1"/>
        <path id="Path_32767" data-name="Path 32767" d="M5.709,1713.851h.186v1.5H5.709a.879.879,0,0,0-.244-.5,1.269,1.269,0,0,0-.627-.1H3.29v2.214a.428.428,0,0,0,.1.327.521.521,0,0,0,.353.095h1.09a3.421,3.421,0,0,0,.808-.063.782.782,0,0,0,.377-.234,2.239,2.239,0,0,0,.33-.557h.186l-.287,1.155H1.76v-.179a.634.634,0,0,0,.563-.214,1.443,1.443,0,0,0,.144-.757v-3.868a1.434,1.434,0,0,0-.149-.775.64.64,0,0,0-.558-.211v-.179H6.25v1.033H6.134a1.043,1.043,0,0,0-.274-.588,1.362,1.362,0,0,0-.774-.145h-1.8v2.646H5.034a.7.7,0,0,0,.486-.126A.879.879,0,0,0,5.709,1713.851Z" transform="translate(-1.733 -1685.03)" fill="#d2d1d1"/>
        <path id="Path_32768" data-name="Path 32768" d="M344.557,1857.349v.765a1.9,1.9,0,0,1,1.392-.765,1.252,1.252,0,0,1,.93.378,1.353,1.353,0,0,1,.371.995v1.727a.738.738,0,0,0,.133.523.777.777,0,0,0,.521.127v.179h-2.056v-.179a.982.982,0,0,0,.523-.1.431.431,0,0,0,.141-.377v-2a.856.856,0,0,0-.242-.639.846.846,0,0,0-.619-.238,1.481,1.481,0,0,0-1.095.749v1.871a.959.959,0,0,0,.124.6.738.738,0,0,0,.519.13v.179h-2.03v-.179q.441,0,.542-.14a1.152,1.152,0,0,0,.1-.595v-2.157a.608.608,0,0,0-.122-.452.841.841,0,0,0-.521-.108v-.179l1.2-.116Z" transform="translate(-337.861 -1828.613)" fill="#d2d1d1"/>
        <path id="Path_32769" data-name="Path 32769" d="M666.738,1857.349v.765a1.9,1.9,0,0,1,1.392-.765,1.251,1.251,0,0,1,.93.378,1.358,1.358,0,0,1,.372.995v1.727a.737.737,0,0,0,.133.523.777.777,0,0,0,.521.127v.179h-2.057v-.179a.982.982,0,0,0,.523-.1.43.43,0,0,0,.141-.377v-2a.855.855,0,0,0-.242-.639.845.845,0,0,0-.619-.238,1.481,1.481,0,0,0-1.095.749v1.871a.958.958,0,0,0,.124.6.738.738,0,0,0,.519.13v.179h-2.03v-.179q.441,0,.541-.14a1.154,1.154,0,0,0,.1-.595v-2.157a.609.609,0,0,0-.122-.452.842.842,0,0,0-.521-.108v-.179l1.2-.116Z" transform="translate(-655.056 -1828.613)" fill="#d2d1d1"/>
        <path id="Path_32770" data-name="Path 32770" d="M906.422,1711.51v.19q-.686,0-1.133,1.2l-1.84,4.877h-.177l-1.931-5.019a2.659,2.659,0,0,0-.468-.878.839.839,0,0,0-.564-.192v-.179h2.264v.179q-.546,0-.546.416a.852.852,0,0,0,.069.311l1.526,3.992,1.448-3.855a1.264,1.264,0,0,0,.091-.427q0-.437-.558-.437v-.179Z" transform="translate(-886.381 -1685.03)" fill="#d2d1d1"/>
        <path id="Path_32771" data-name="Path 32771" d="M1305.54,1731.538h.186v3.221a.511.511,0,0,0,.138.422.874.874,0,0,0,.5.105v.179h-2.109v-.179a1.107,1.107,0,0,0,.6-.1.526.526,0,0,0,.133-.426V1732.4a.63.63,0,0,0-.122-.46,1.035,1.035,0,0,0-.606-.111v-.179Zm-.17-1.977a.451.451,0,0,1,.332.134.446.446,0,0,1,.135.33.461.461,0,0,1-.138.335.449.449,0,0,1-.329.139.473.473,0,0,1-.341-.139.452.452,0,0,1-.144-.335.438.438,0,0,1,.141-.33.476.476,0,0,1,.344-.134Z" transform="translate(-1284.081 -1702.802)" fill="#d2d1d1"/>
        <path id="Path_32772" data-name="Path 32772" d="M1485.318,1857.31v1.176h-.218a1.142,1.142,0,0,0-.318-.7.884.884,0,0,0-.643-.261.708.708,0,0,0-.463.143.462.462,0,0,0-.175.379.588.588,0,0,0,.162.409,2.414,2.414,0,0,0,.7.424,2.529,2.529,0,0,1,.928.606,1.1,1.1,0,0,1,.226.7,1.119,1.119,0,0,1-.361.83,1.187,1.187,0,0,1-.856.351,1.8,1.8,0,0,1-.675-.185,1.008,1.008,0,0,0-.3-.1.222.222,0,0,0-.17.074.306.306,0,0,0-.08.185h-.185v-1.3h.185a1.407,1.407,0,0,0,.447.816,1.167,1.167,0,0,0,.792.3.662.662,0,0,0,.481-.19.635.635,0,0,0,.193-.471.672.672,0,0,0-.179-.467,2.423,2.423,0,0,0-.773-.458,2.5,2.5,0,0,1-.882-.544.916.916,0,0,1-.212-.612,1.022,1.022,0,0,1,.348-.774,1.169,1.169,0,0,1,.826-.325,1.291,1.291,0,0,1,.484.106.87.87,0,0,0,.3.073.244.244,0,0,0,.228-.179Z" transform="translate(-1459.947 -1828.574)" fill="#d2d1d1"/>
        <path id="Path_32773" data-name="Path 32773" d="M1686.821,1731.539h.185v3.221a.512.512,0,0,0,.138.423.876.876,0,0,0,.505.1v.18h-2.11v-.18a1.112,1.112,0,0,0,.6-.1.525.525,0,0,0,.133-.426v-2.354a.629.629,0,0,0-.122-.46,1.032,1.032,0,0,0-.606-.111v-.179Zm-.171-1.976a.452.452,0,0,1,.332.134.446.446,0,0,1,.135.33.461.461,0,0,1-.138.335.448.448,0,0,1-.33.139.471.471,0,0,1-.34-.139.451.451,0,0,1-.143-.335.438.438,0,0,1,.14-.33.477.477,0,0,1,.344-.134Z" transform="translate(-1659.462 -1702.803)" fill="#d2d1d1"/>
        <path id="Path_32774" data-name="Path 32774" d="M1865.6,1859.379a1.914,1.914,0,0,1-.6,1.442,2.256,2.256,0,0,1-3.013,0,2.041,2.041,0,0,1,0-2.895,2.262,2.262,0,0,1,3.019,0A1.929,1.929,0,0,1,1865.6,1859.379Zm-.8,0a2.257,2.257,0,0,0-.351-1.32,1.171,1.171,0,0,0-1.914-.011,2.679,2.679,0,0,0,0,2.645,1.178,1.178,0,0,0,1.918-.005A2.229,2.229,0,0,0,1864.8,1859.383Z" transform="translate(-1832.581 -1828.614)" fill="#d2d1d1"/>
        <path id="Path_32775" data-name="Path 32775" d="M2167.087,1857.349v.765a1.9,1.9,0,0,1,1.393-.765,1.249,1.249,0,0,1,.929.378,1.356,1.356,0,0,1,.373.995v1.727a.734.734,0,0,0,.133.523.774.774,0,0,0,.52.127v.179h-2.057v-.179a.983.983,0,0,0,.523-.1.431.431,0,0,0,.141-.377v-2a.823.823,0,0,0-.861-.876,1.481,1.481,0,0,0-1.095.749v1.871a.959.959,0,0,0,.124.6.738.738,0,0,0,.52.13v.179H2165.7v-.179q.442,0,.542-.14a1.154,1.154,0,0,0,.1-.595v-2.157a.608.608,0,0,0-.123-.452.843.843,0,0,0-.521-.108v-.179l1.2-.116Z" transform="translate(-2132.192 -1828.613)" fill="#d2d1d1"/>
        <path id="Path_32776" data-name="Path 32776" d="M2511,1857.281v1.176h-.217a1.147,1.147,0,0,0-.319-.7.889.889,0,0,0-.643-.26.715.715,0,0,0-.463.142.465.465,0,0,0-.175.38.587.587,0,0,0,.162.408,2.41,2.41,0,0,0,.7.425,2.507,2.507,0,0,1,.927.606,1.1,1.1,0,0,1,.226.7,1.12,1.12,0,0,1-.361.831,1.188,1.188,0,0,1-.856.35,1.8,1.8,0,0,1-.675-.185,1.011,1.011,0,0,0-.3-.1.223.223,0,0,0-.17.074.308.308,0,0,0-.08.184h-.186V1860h.186a1.4,1.4,0,0,0,.446.815,1.171,1.171,0,0,0,.792.3.66.66,0,0,0,.481-.19.628.628,0,0,0,.194-.47.672.672,0,0,0-.179-.468,2.423,2.423,0,0,0-.774-.457,2.5,2.5,0,0,1-.881-.544.916.916,0,0,1-.212-.613,1.024,1.024,0,0,1,.349-.774,1.17,1.17,0,0,1,.826-.325,1.283,1.283,0,0,1,.483.106.861.861,0,0,0,.3.074.243.243,0,0,0,.229-.179Z" transform="translate(-2469.757 -1828.545)" fill="#d2d1d1"/>
      </g>
    </g>
  </g>
</svg>
