<svg width="17" height="17" viewBox="0 0 17 17" fill="none" xmlns="http://www.w3.org/2000/svg">
<path d="M12.9532 17.0008C12.6947 16.9353 12.4304 16.8869 12.1783 16.8018C10.6001 16.2693 9.58387 14.7122 9.72141 13.0519C9.86234 11.3549 11.205 9.95212 12.885 9.74738C14.9045 9.50108 16.6876 10.8691 16.9691 12.8796C16.9728 12.9053 16.99 12.929 17.0008 12.9536V13.7631C16.99 13.7878 16.9728 13.8114 16.9691 13.8371C16.7555 15.3595 15.6768 16.5488 14.1834 16.9055C14.0434 16.939 13.9029 16.969 13.7623 17.0008H12.9525H12.9532ZM13.3557 16.1916C14.9086 16.193 16.1904 14.9132 16.1918 13.3601C16.1931 11.8066 14.914 10.5258 13.3601 10.5244C11.8066 10.5231 10.5257 11.8019 10.524 13.3553C10.5227 14.9081 11.8025 16.1899 13.3554 16.1913L13.3557 16.1916Z" fill="#006197"/>
<path d="M0.80834 5.13947C0.80834 5.21279 0.80834 5.27394 0.80834 5.33509C0.80834 8.30822 0.80834 11.2814 0.80834 14.2545C0.80834 14.8359 1.08377 15.1123 1.66301 15.1123C4.09118 15.1123 6.51969 15.1123 8.94786 15.1123C9.23883 15.1123 9.4149 15.2718 9.40983 15.5268C9.40578 15.7339 9.25032 15.9015 9.04417 15.9188C9.00497 15.9221 8.96543 15.9204 8.92623 15.9204C6.47001 15.9204 4.01345 15.9211 1.55724 15.9204C0.775221 15.9204 0.171642 15.4214 0.0219307 14.6521C0.00401937 14.5592 0.000639871 14.4626 0.000639871 14.3677C-3.60285e-05 10.4556 -0.000373978 6.54394 0.000639871 2.63225C0.000639871 1.74402 0.667077 1.08419 1.55994 1.08183C1.75088 1.08149 1.94148 1.08183 2.15879 1.08183C2.15879 0.870667 2.15811 0.665589 2.15879 0.460172C2.1598 0.180766 2.31762 0.00271597 2.56264 0.00271597C2.80833 0.00271597 2.96547 0.179752 2.96682 0.459497C2.96784 0.660521 2.96682 0.861545 2.96682 1.07203H7.55584C7.55584 0.84972 7.55212 0.622005 7.55686 0.394628C7.56091 0.197321 7.70454 0.0351501 7.89007 0.00541881C8.08845 -0.0263396 8.27804 0.0838013 8.3409 0.275365C8.35949 0.332463 8.36219 0.396318 8.36287 0.457132C8.36557 0.658494 8.36388 0.859856 8.36388 1.07102H12.9526C12.9526 0.882154 12.9526 0.698361 12.9526 0.514567C12.9526 0.185158 13.0935 0.0047431 13.3524 0.00237811C13.6187 1.31213e-05 13.7606 0.180766 13.7609 0.522338C13.7609 0.701401 13.7609 0.880465 13.7609 1.08115C13.9661 1.08115 14.1607 1.08081 14.3551 1.08115C15.2581 1.08318 15.9191 1.74132 15.9194 2.6434C15.9204 4.75094 15.9191 6.85848 15.9208 8.96603C15.9208 9.1532 15.8542 9.29577 15.6829 9.37483C15.5325 9.44443 15.3686 9.437 15.2624 9.313C15.1827 9.21976 15.1188 9.07887 15.1175 8.95825C15.107 7.75008 15.111 6.54157 15.111 5.3334C15.111 5.27225 15.111 5.2111 15.111 5.13846H0.80834V5.13947ZM7.55618 1.90214H2.96716C2.96716 2.11567 2.96818 2.31737 2.96716 2.51906C2.96547 2.79543 2.80292 2.97247 2.55588 2.96909C2.31796 2.96571 2.16081 2.78935 2.15912 2.52143C2.15811 2.31534 2.15912 2.10958 2.15912 1.89065C1.93844 1.89065 1.73736 1.88626 1.53628 1.89167C1.11993 1.90248 0.818478 2.20486 0.810029 2.62211C0.804622 2.89172 0.809015 3.16167 0.808677 3.43128C0.808677 3.72183 0.808677 4.01272 0.808677 4.31105H15.107C15.107 3.71372 15.1215 3.1245 15.1009 2.53697C15.0904 2.24608 14.9147 2.00924 14.6291 1.9437C14.352 1.87984 14.0573 1.89369 13.7619 1.87308C13.7619 2.11938 13.763 2.32142 13.7619 2.52346C13.7603 2.7907 13.6024 2.96672 13.3638 2.96976C13.1175 2.9728 12.9556 2.79475 12.9539 2.51805C12.9529 2.3123 12.9539 2.10654 12.9539 1.90349H8.36523C8.36523 2.02242 8.36523 2.12884 8.36523 2.23493C8.36523 2.34169 8.36692 2.44845 8.36456 2.55522C8.35915 2.79509 8.19524 2.96605 7.96848 2.96943C7.73428 2.97314 7.56091 2.80016 7.55719 2.55353C7.55415 2.34068 7.55652 2.12749 7.55652 1.90248L7.55618 1.90214Z" fill="#006197"/>
<path d="M2.15872 7.94383C2.15872 7.60125 2.15736 7.25866 2.15905 6.91641C2.1604 6.63836 2.31958 6.47889 2.59805 6.47855C3.29456 6.4772 3.99074 6.4772 4.68725 6.47855C4.96539 6.47923 5.12456 6.6387 5.12524 6.91709C5.12659 7.61341 5.12659 8.30973 5.12524 9.00605C5.12456 9.28411 4.96471 9.44357 4.68658 9.44425C3.99006 9.4456 3.29389 9.4456 2.59737 9.44425C2.32093 9.44357 2.1604 9.28208 2.15905 9.00537C2.15736 8.65164 2.15872 8.29791 2.15872 7.94417V7.94383ZM2.97453 8.62427H4.30402V7.29515H2.97453V8.62427Z" fill="#006197"/>
<path d="M9.44435 7.97014C9.44435 8.31813 9.44604 8.66646 9.44368 9.01445C9.44199 9.28034 9.27943 9.44285 9.01279 9.44353C8.31087 9.44521 7.60895 9.44521 6.90669 9.44353C6.64106 9.44285 6.47817 9.27899 6.47783 9.01242C6.47614 8.31036 6.47614 7.60863 6.47783 6.90657C6.47851 6.64101 6.64207 6.47851 6.90905 6.47783C7.61097 6.47614 8.3129 6.47614 9.01516 6.47783C9.28146 6.47851 9.44232 6.64101 9.44401 6.9086C9.44604 7.26233 9.44469 7.61606 9.44469 7.9698L9.44435 7.97014ZM7.29601 7.28902V8.62423H8.6228V7.28902H7.29601Z" fill="#006197"/>
<path d="M2.15872 12.2612C2.15872 11.9186 2.15736 11.576 2.15905 11.2338C2.1604 10.9557 2.31958 10.7966 2.59805 10.7959C3.29456 10.7946 3.99074 10.7946 4.68725 10.7959C4.96539 10.7966 5.12456 10.9561 5.12524 11.2345C5.12659 11.9308 5.12659 12.6271 5.12524 13.3234C5.12456 13.6015 4.96471 13.761 4.68658 13.7616C3.99006 13.763 3.29389 13.763 2.59737 13.7616C2.32127 13.761 2.1604 13.5991 2.15905 13.3228C2.15736 12.969 2.15872 12.6153 2.15872 12.2616V12.2612ZM4.30537 12.9464V11.6173H2.97622V12.9464H4.30537Z" fill="#006197"/>
<path d="M13.7603 12.9536C13.983 12.9536 14.1892 12.9526 14.3957 12.9536C14.6616 12.9553 14.8377 13.1148 14.8394 13.3537C14.8411 13.5939 14.6657 13.7598 14.4028 13.7611C14.0601 13.7628 13.7171 13.7635 13.3744 13.7611C13.1185 13.7591 12.954 13.5949 12.9529 13.3391C12.9506 12.8111 12.9506 12.2827 12.9529 11.7546C12.954 11.5066 13.1263 11.3333 13.3598 11.335C13.5934 11.3367 13.7583 11.51 13.7596 11.7617C13.762 12.1536 13.7603 12.5452 13.7603 12.9536Z" fill="#006197"/>
</svg>
