<svg width="363" height="302" viewBox="0 0 363 302" fill="none" xmlns="http://www.w3.org/2000/svg">
<path d="M51.3347 301.421H49.3107V289.975C49.3107 289.113 49.3107 288.006 49.4372 286.652C49.1842 287.39 49.0577 288.006 48.9312 288.252L42.9858 301.298H41.9738L36.0285 288.375C35.902 288.006 35.649 287.39 35.5225 286.652C35.649 287.39 35.649 288.498 35.649 289.975V301.298H33.625V284.313H36.2814L41.5943 296.129C41.9738 296.99 42.2268 297.729 42.3533 298.221H42.4798C42.8593 297.236 43.1123 296.621 43.3653 296.129L48.8047 284.313H51.3347V301.421Z" fill="white"/>
<path d="M97.6332 294.898L94.8502 287.637C94.7237 287.39 94.7237 287.021 94.5972 286.529C94.4707 287.021 94.4707 287.39 94.3442 287.637L91.6878 294.898H97.6332ZM102.44 301.421H100.163L98.2656 296.621H90.8023L89.0313 301.421H86.8809L93.5852 284.437H95.7357L102.44 301.421Z" fill="white"/>
<path d="M140.008 286.283V292.437H142.791C143.297 292.437 143.803 292.314 144.183 292.19C144.562 292.067 144.942 291.821 145.321 291.575C145.701 291.329 145.954 290.96 146.08 290.59C146.207 290.221 146.333 289.729 146.333 289.237C146.333 288.375 146.08 287.637 145.448 287.144C144.815 286.652 143.93 286.406 142.791 286.406H140.008V286.283ZM150.508 301.421H148.104L145.195 296.621C144.942 296.129 144.689 295.76 144.436 295.514C144.183 295.144 143.93 294.898 143.677 294.775C143.424 294.529 143.171 294.406 142.791 294.283C142.538 294.16 142.159 294.16 141.779 294.16H140.008V301.421H137.984V284.437H143.171C143.93 284.437 144.689 284.56 145.321 284.683C145.954 284.929 146.586 285.175 146.966 285.544C147.472 285.913 147.851 286.406 148.104 287.021C148.357 287.637 148.484 288.252 148.484 288.99C148.484 289.606 148.357 290.098 148.231 290.59C148.104 291.083 147.725 291.575 147.472 291.944C147.092 292.314 146.713 292.683 146.333 292.929C145.827 293.175 145.321 293.421 144.689 293.544C144.942 293.667 145.195 293.79 145.448 294.037C145.701 294.16 145.827 294.406 146.08 294.652C146.207 294.898 146.46 295.144 146.713 295.391C146.839 295.637 147.092 296.006 147.345 296.375L150.508 301.421Z" fill="white"/>
<path d="M196.175 286.283H191.115V301.421H189.091V286.283H184.031V284.437H196.175V286.283Z" fill="white"/>
<path d="M235.641 284.437V286.16H233.87V299.698H235.641V301.421H230.201V299.698H231.846V286.16H230.201V284.437H235.641Z" fill="white"/>
<path d="M280.169 294.898L277.386 287.637C277.259 287.39 277.259 287.021 277.133 286.529C277.006 287.021 277.006 287.39 276.88 287.637L274.223 294.898H280.169ZM284.976 301.421H282.699L280.801 296.621H273.338L271.567 301.421H269.29L275.994 284.437H278.145L284.976 301.421Z" fill="white"/>
<path d="M329.628 301.421H320.521V284.437H322.544V299.575H329.628V301.421Z" fill="white"/>
<path fill-rule="evenodd" clip-rule="evenodd" d="M342.278 254.405C360.367 246.036 368.083 224.866 359.481 207.266L268.15 20.1859C259.548 2.58568 237.791 -4.92213 219.701 3.44723C201.612 11.8166 193.896 32.9861 202.498 50.5864L293.829 237.666C302.431 255.266 324.315 262.774 342.278 254.405Z" fill="#4DC9F5"/>
<path fill-rule="evenodd" clip-rule="evenodd" d="M235.262 254.404C253.351 246.035 261.067 224.865 252.466 207.265L161.134 20.1849C154.936 7.38473 141.78 0 128.118 0C114.457 0 101.301 7.38473 95.1026 20.1849L3.51827 207.388C-5.08357 224.988 2.63279 246.158 20.7219 254.527C38.8111 262.896 60.5687 255.388 69.1705 237.788L127.992 117.417L186.813 237.788C195.415 255.265 217.173 262.773 235.262 254.404Z" fill="#E0E0E0"/>
</svg>
