<svg xmlns="http://www.w3.org/2000/svg" width="164.303" height="32.695" viewBox="0 0 164.303 32.695"><path d="M78.8.1V.68c4.35.936,6.866,3.451,7.225,7.355h.635c-.022-2.963-.034-5.806-.206-7.938C84.207-.025,81.636-.018,78.8.1Z" transform="translate(-75.268 -0.008)" fill="#f3f3f3"/><path d="M78.8,512.1v-.4c4.35-.938,7.694-4.281,8.055-8.187l.722.055-.522,8.553Z" transform="translate(-75.268 -480.944)" fill="#f3f3f3"/><path d="M269,2.687c3.926.459,2.2,1.906,14.547,31.792l5.767-12.58-.672-.194c-3.176,4.605-3.44,4.517-5.3.009L277.017,5.757c-1.123-2.184-.09-3.137,2.726-3.07V2H269Z" transform="translate(-256.944 -1.91)" fill="#f3f3f3"/><path d="M263.522,504.74c-.1,2.7-.26,5.534-.522,8.554" transform="translate(-251.213 -482.119)" fill="#f3f3f3"/><path d="M87.055,695.122q-4.069.108-8.255-.022" transform="translate(-75.268 -663.947)" fill="#f3f3f3"/><path d="M0,223.786l.03.627a5.863,5.863,0,0,1,4.437,5.478h.785L5.128,218.34l-.672,0A5.614,5.614,0,0,1,0,223.786Z" transform="translate(0 -208.554)" fill="#f3f3f3"/><path d="M710,2a4.836,4.836,0,0,1,0,.635c4.527-.151,4.527,4.259,3.019,9.155h.609c1.983-4.437,3.944-8.976,6.966-9.174V2.052Z" transform="translate(-678.179 -1.91)" fill="#f3f3f3"/><path d="M997.24,574.87h.978v6h3.709v.852H997.24Z" transform="translate(-952.546 -549.106)" fill="#f3f3f3"/><path d="M1131.911,580.869v.852h-4.972V574.87h4.834v.852h-3.854v2.106h3.435v.832h-3.435v2.212Z" transform="translate(-1076.433 -549.106)" fill="#f3f3f3"/><path d="M1253.539,575.722h-2.349v-.852h5.666v.852h-2.349v6h-.969Z" transform="translate(-1195.114 -549.106)" fill="#f3f3f3"/><path d="M1396.192,565.056a1.908,1.908,0,0,1-.156.695l-.47,1.37h-.615l.362-1.458a.623.623,0,0,1-.411-.607.64.64,0,0,1,.656-.666A.629.629,0,0,1,1396.192,565.056Z" transform="translate(-1332.385 -539.095)" fill="#f3f3f3"/><path d="M1445.09,579.314l.362-.762a3.523,3.523,0,0,0,2.26.793c1.184,0,1.693-.46,1.693-1.057,0-1.674-4.15-.617-4.15-3.161,0-1.057.822-1.957,2.623-1.957a4.03,4.03,0,0,1,2.2.606l-.323.783a3.54,3.54,0,0,0-1.879-.557c-1.165,0-1.664.489-1.664,1.086,0,1.674,4.149.627,4.149,3.142,0,1.047-.841,1.947-2.652,1.947A4.079,4.079,0,0,1,1445.09,579.314Z" transform="translate(-1380.324 -547.482)" fill="#f3f3f3"/><path d="M1646.3,576.556h.941v2.67a4.05,4.05,0,0,1-2.594.871,3.507,3.507,0,1,1,.02-7.007,3.433,3.433,0,0,1,2.633,1.057l-.61.609a2.715,2.715,0,0,0-1.987-.793,2.634,2.634,0,1,0-.009,5.265,2.9,2.9,0,0,0,1.6-.441Z" transform="translate(-1567.454 -547.405)" fill="#f3f3f3"/><path d="M1826.579,581.72l-1.479-2.1c-.137.01-.284.019-.431.019h-1.693v2.084H1822v-6.85h2.672c1.781,0,2.858.9,2.858,2.388a2.162,2.162,0,0,1-1.507,2.163l1.625,2.3Zm-.03-4.462c0-.978-.656-1.536-1.908-1.536h-1.664V578.8h1.664C1825.894,578.8,1826.549,578.237,1826.549,577.258Z" transform="translate(-1740.342 -549.106)" fill="#f3f3f3"/><path d="M1968.28,576.633a3.643,3.643,0,1,1,3.65,3.5A3.481,3.481,0,0,1,1968.28,576.633Zm6.3,0a2.662,2.662,0,1,0-2.652,2.631A2.572,2.572,0,0,0,1974.582,576.633Z" transform="translate(-1880.066 -547.444)" fill="#f3f3f3"/><path d="M2153.793,574.87l-2.29,6.85h-1.028l-1.869-5.47-1.869,5.47h-1.048l-2.29-6.85h1.008l1.85,5.569,1.927-5.569h.9l1.889,5.6,1.889-5.6Z" transform="translate(-2047.337 -549.106)" fill="#f3f3f3"/><path d="M2444.249,575.722H2441.9v-.852h5.666v.852h-2.348v6h-.969Z" transform="translate(-2332.459 -549.106)" fill="#f3f3f3"/><path d="M2577.51,576.633a3.643,3.643,0,1,1,3.65,3.5A3.481,3.481,0,0,1,2577.51,576.633Zm6.3,0a2.662,2.662,0,1,0-2.65,2.631A2.572,2.572,0,0,0,2583.812,576.633Z" transform="translate(-2461.991 -547.444)" fill="#f3f3f3"/><path d="M2766.272,576.556h.941v2.67a4.048,4.048,0,0,1-2.593.871,3.507,3.507,0,1,1,.019-7.007,3.432,3.432,0,0,1,2.633,1.057l-.609.609a2.715,2.715,0,0,0-1.987-.793,2.634,2.634,0,1,0-.01,5.265,2.9,2.9,0,0,0,1.6-.441Z" transform="translate(-2637.229 -547.405)" fill="#f3f3f3"/><path d="M2946.969,580.869v.852H2942V574.87h4.834v.852h-3.854v2.106h3.435v.832h-3.435v2.212Z" transform="translate(-2810.146 -549.106)" fill="#f3f3f3"/><path d="M3068.549,575.722H3066.2v-.852h5.666v.852h-2.349v6h-.969Z" transform="translate(-2928.78 -549.106)" fill="#f3f3f3"/><path d="M3222.283,574.87v6.85h-.981v-3.053h-3.934v3.053h-.979v-6.85h.979v2.946h3.934V574.87Z" transform="translate(-3072.238 -549.106)" fill="#f3f3f3"/><path d="M3398.711,580.869v.852h-4.971V574.87h4.835v.852h-3.854v2.106h3.436v.832h-3.436v2.212Z" transform="translate(-3241.64 -549.106)" fill="#f3f3f3"/><path d="M3544.582,581.72l-1.479-2.1c-.137.01-.284.019-.431.019h-1.693v2.084H3540v-6.85h2.672c1.781,0,2.857.9,2.857,2.388a2.162,2.162,0,0,1-1.507,2.163l1.625,2.3Zm-.029-4.462c0-.978-.655-1.536-1.908-1.536h-1.664V578.8h1.664C3543.9,578.8,3544.552,578.237,3544.552,577.258Z" transform="translate(-3381.344 -549.106)" fill="#f3f3f3"/><path d="M986.45,487.224q15.006-.139,30.012-.174l7.5-.022,7.5-.016,15.006-.013,15.006.012,7.5.016,7.5.021q15.006.049,30.012.175-15.006.14-30.012.175l-7.5.021-7.5.016-15.006.012-15.006-.013-7.5-.016-7.5-.022Q1001.456,487.347,986.45,487.224Z" transform="translate(-942.239 -465.174)" fill="#f3f3f3"/><path d="M999.648,6.781h.538v4.353h-.538A2.554,2.554,0,0,0,998.94,9.7a3.67,3.67,0,0,0-1.817-.29h-4.48v6.411a1.243,1.243,0,0,0,.3.947,1.509,1.509,0,0,0,1.024.275h3.156a9.948,9.948,0,0,0,2.34-.183,2.277,2.277,0,0,0,1.093-.68,6.487,6.487,0,0,0,.955-1.613h.538l-.831,3.344H988.21V17.4a1.838,1.838,0,0,0,1.632-.619,4.167,4.167,0,0,0,.415-2.194V3.378a4.16,4.16,0,0,0-.431-2.247A1.853,1.853,0,0,0,988.21.519V0h13.008V2.993h-.338a3.025,3.025,0,0,0-.793-1.7,3.928,3.928,0,0,0-2.241-.42h-5.2V8.537h5.05a2.039,2.039,0,0,0,1.409-.367A2.541,2.541,0,0,0,999.648,6.781Z" transform="translate(-943.921 0)" fill="#f3f3f3"/><path d="M1333.62,145.85v2.214a5.49,5.49,0,0,1,4.034-2.214,3.627,3.627,0,0,1,2.694,1.094,3.924,3.924,0,0,1,1.076,2.883v5a2.139,2.139,0,0,0,.385,1.514,2.247,2.247,0,0,0,1.509.367v.519h-5.956v-.519a2.854,2.854,0,0,0,1.516-.283,1.248,1.248,0,0,0,.408-1.094v-5.8a2.478,2.478,0,0,0-.7-1.851,2.448,2.448,0,0,0-1.793-.688q-1.568,0-3.171,2.169v5.418a2.788,2.788,0,0,0,.359,1.752,2.142,2.142,0,0,0,1.5.375v.519H1329.6v-.519q1.278,0,1.569-.406a3.351,3.351,0,0,0,.293-1.723v-6.25a1.764,1.764,0,0,0-.354-1.31,2.454,2.454,0,0,0-1.509-.314v-.52l3.479-.336Z" transform="translate(-1270.01 -139.313)" fill="#f3f3f3"/><path d="M1655.82,145.85v2.214a5.489,5.489,0,0,1,4.034-2.214,3.626,3.626,0,0,1,2.694,1.094,3.934,3.934,0,0,1,1.078,2.883v5a2.14,2.14,0,0,0,.385,1.514,2.247,2.247,0,0,0,1.509.367v.519h-5.957v-.519a2.854,2.854,0,0,0,1.517-.283,1.249,1.249,0,0,0,.408-1.094v-5.8a2.478,2.478,0,0,0-.7-1.851,2.448,2.448,0,0,0-1.793-.688q-1.569,0-3.171,2.169v5.418a2.787,2.787,0,0,0,.359,1.752,2.141,2.141,0,0,0,1.5.375v.519H1651.8v-.519q1.278,0,1.569-.406a3.351,3.351,0,0,0,.293-1.723v-6.25a1.764,1.764,0,0,0-.354-1.31,2.454,2.454,0,0,0-1.509-.314v-.52l3.479-.336Z" transform="translate(-1577.77 -139.313)" fill="#f3f3f3"/><path d="M1904.464,0V.55q-1.989,0-3.282,3.482l-5.328,14.127h-.512l-5.592-14.539a7.711,7.711,0,0,0-1.356-2.543,2.431,2.431,0,0,0-1.633-.557V0h6.558V.519q-1.581,0-1.581,1.206a2.483,2.483,0,0,0,.2.9l4.421,11.563,4.194-11.163a3.7,3.7,0,0,0,.262-1.237q0-1.268-1.613-1.268V0Z" transform="translate(-1802.199 0)" fill="#f3f3f3"/><path d="M2294.42,23.78h.538v9.329a1.482,1.482,0,0,0,.4,1.224,2.535,2.535,0,0,0,1.462.306v.519h-6.11v-.519a3.2,3.2,0,0,0,1.724-.3,1.517,1.517,0,0,0,.385-1.233V26.289a1.824,1.824,0,0,0-.354-1.332,2.984,2.984,0,0,0-1.755-.322v-.519Zm-.493-5.727a1.314,1.314,0,0,1,.964.389,1.292,1.292,0,0,1,.392.955,1.33,1.33,0,0,1-.4.97,1.3,1.3,0,0,1-.954.4,1.365,1.365,0,0,1-.986-.4,1.306,1.306,0,0,1-.416-.97,1.268,1.268,0,0,1,.408-.955,1.386,1.386,0,0,1,.992-.389Z" transform="translate(-2188.045 -17.243)" fill="#f3f3f3"/><path d="M2476.374,145.774v3.406h-.631a3.305,3.305,0,0,0-.924-2.039,2.562,2.562,0,0,0-1.863-.756,2.06,2.06,0,0,0-1.34.412,1.345,1.345,0,0,0-.508,1.1,1.7,1.7,0,0,0,.469,1.184,6.916,6.916,0,0,0,2.04,1.229,7.3,7.3,0,0,1,2.686,1.756,3.179,3.179,0,0,1,.654,2.017,3.241,3.241,0,0,1-1.047,2.405,3.437,3.437,0,0,1-2.479,1.016,5.2,5.2,0,0,1-1.955-.535,2.937,2.937,0,0,0-.878-.29.648.648,0,0,0-.493.214.878.878,0,0,0-.231.535h-.538v-3.774h.538a4.066,4.066,0,0,0,1.293,2.363,3.384,3.384,0,0,0,2.294.874,1.912,1.912,0,0,0,1.393-.55,1.83,1.83,0,0,0,.562-1.362,1.954,1.954,0,0,0-.518-1.354,7.069,7.069,0,0,0-2.241-1.324,7.277,7.277,0,0,1-2.555-1.576,2.66,2.66,0,0,1-.615-1.773,2.963,2.963,0,0,1,1.008-2.241,3.39,3.39,0,0,1,2.394-.941,3.756,3.756,0,0,1,1.4.305,2.5,2.5,0,0,0,.877.214.705.705,0,0,0,.662-.519Z" transform="translate(-2358.669 -139.237)" fill="#f3f3f3"/><path d="M2675.709,23.78h.538v9.329a1.481,1.481,0,0,0,.4,1.224,2.535,2.535,0,0,0,1.462.306v.519H2672v-.519a3.2,3.2,0,0,0,1.724-.3,1.519,1.519,0,0,0,.385-1.233V26.289a1.823,1.823,0,0,0-.354-1.332,2.986,2.986,0,0,0-1.755-.322v-.519Zm-.493-5.727a1.315,1.315,0,0,1,.962.389,1.292,1.292,0,0,1,.392.955,1.331,1.331,0,0,1-.4.97,1.3,1.3,0,0,1-.954.4,1.366,1.366,0,0,1-.986-.4,1.306,1.306,0,0,1-.415-.97,1.27,1.27,0,0,1,.408-.955,1.386,1.386,0,0,1,.994-.389Z" transform="translate(-2552.247 -17.243)" fill="#f3f3f3"/><path d="M2860.045,151.69a5.542,5.542,0,0,1-1.748,4.177,6.532,6.532,0,0,1-8.729,0,5.912,5.912,0,0,1-.009-8.385,6.552,6.552,0,0,1,8.744,0A5.594,5.594,0,0,1,2860.045,151.69Zm-2.325.008a6.544,6.544,0,0,0-1.016-3.823,3.39,3.39,0,0,0-5.542-.03,7.759,7.759,0,0,0-.008,7.664,3.415,3.415,0,0,0,5.558-.016,6.48,6.48,0,0,0,1.008-3.792Z" transform="translate(-2720.187 -139.275)" fill="#f3f3f3"/><path d="M3156.17,145.85v2.214a5.489,5.489,0,0,1,4.034-2.214,3.627,3.627,0,0,1,2.694,1.094,3.929,3.929,0,0,1,1.078,2.883v5a2.14,2.14,0,0,0,.385,1.514,2.246,2.246,0,0,0,1.509.367v.519h-5.958v-.519a2.856,2.856,0,0,0,1.517-.283,1.25,1.25,0,0,0,.408-1.094v-5.8a2.478,2.478,0,0,0-.7-1.851,2.447,2.447,0,0,0-1.792-.688q-1.568,0-3.171,2.169v5.418a2.789,2.789,0,0,0,.358,1.752,2.141,2.141,0,0,0,1.5.375v.519h-5.882v-.519q1.278,0,1.569-.406a3.347,3.347,0,0,0,.293-1.723v-6.25a1.764,1.764,0,0,0-.354-1.31,2.454,2.454,0,0,0-1.509-.314v-.52l3.479-.336Z" transform="translate(-3010.878 -139.313)" fill="#f3f3f3"/><path d="M3502.065,145.774v3.406h-.631a3.3,3.3,0,0,0-.924-2.039,2.561,2.561,0,0,0-1.862-.756,2.059,2.059,0,0,0-1.339.412,1.344,1.344,0,0,0-.508,1.1,1.7,1.7,0,0,0,.47,1.183,6.918,6.918,0,0,0,2.04,1.229,7.294,7.294,0,0,1,2.687,1.756,3.189,3.189,0,0,1,.654,2.017,3.24,3.24,0,0,1-1.047,2.405,3.437,3.437,0,0,1-2.479,1.016,5.206,5.206,0,0,1-1.955-.535,2.931,2.931,0,0,0-.877-.29.648.648,0,0,0-.493.214.882.882,0,0,0-.231.535h-.538v-3.773h.538a4.072,4.072,0,0,0,1.293,2.363,3.383,3.383,0,0,0,2.294.874,1.913,1.913,0,0,0,1.393-.55,1.83,1.83,0,0,0,.562-1.362,1.956,1.956,0,0,0-.518-1.354,7.082,7.082,0,0,0-2.241-1.324,7.266,7.266,0,0,1-2.554-1.576,2.664,2.664,0,0,1-.615-1.773,2.964,2.964,0,0,1,1.008-2.241,3.389,3.389,0,0,1,2.394-.941,3.755,3.755,0,0,1,1.4.305,2.5,2.5,0,0,0,.878.214.708.708,0,0,0,.662-.519Z" transform="translate(-3338.39 -139.237)" fill="#f3f3f3"/></svg>