<svg width="19" height="16" viewBox="0 0 19 16" fill="none" xmlns="http://www.w3.org/2000/svg">
<path d="M0.25 13.2113C0.334448 13.0627 0.32695 12.8935 0.366806 12.7347C0.728275 11.2958 2.08102 10.1706 3.63107 10.0273C4.3327 9.96233 5.0359 10.0002 5.73832 10.0002C6.43403 10.0002 7.13289 9.94731 7.82545 10.0291C9.31275 10.2051 10.3384 10.973 10.9378 12.2674C10.9559 12.3072 10.9697 12.3489 10.9855 12.3894C11.0739 12.657 11.1402 12.9295 11.1856 13.2065C11.2369 13.7101 11.2077 14.2153 11.2097 14.7193C11.2128 15.4756 10.6833 15.9935 9.88574 15.9954C7.11395 16.001 4.34177 16.0002 1.56999 15.9954C0.912955 15.9942 0.476904 15.6632 0.291435 15.062C0.283937 15.0372 0.280385 15.0143 0.25 15.0075V14.97C0.293802 14.9494 0.290645 14.9111 0.290645 14.8739C0.290645 14.4018 0.290645 13.93 0.290251 13.4579C0.290251 13.4208 0.291829 13.3825 0.25 13.3607V13.211L0.25 13.2113ZM5.71898 15.1948C6.363 15.1948 7.00701 15.1896 7.65103 15.1986C7.80098 15.2008 7.83334 15.1622 7.83176 15.0244C7.82387 14.3076 7.829 13.5904 7.82742 12.8732C7.82702 12.693 7.87872 12.5407 8.05432 12.4483C8.36094 12.2873 8.68453 12.4956 8.6861 12.8593C8.68926 13.5889 8.68926 14.3185 8.68492 15.0481C8.68413 15.1535 8.69755 15.202 8.82974 15.1982C9.1778 15.1881 9.52624 15.1971 9.87469 15.1941C10.1876 15.1914 10.3506 15.0383 10.3522 14.7475C10.3541 14.3421 10.3557 13.9368 10.351 13.5315C10.334 12.0573 9.03968 10.8267 7.48213 10.8146C6.3188 10.8056 5.15547 10.8131 3.99254 10.8124C3.84732 10.8124 3.70526 10.8285 3.56162 10.8484C2.36672 11.0132 1.32415 12.0014 1.15328 13.1337C1.07356 13.6613 1.12763 14.1916 1.11539 14.7208C1.1079 15.0481 1.27048 15.1933 1.62247 15.1945C1.95119 15.1956 2.27991 15.1881 2.60823 15.1978C2.74318 15.202 2.78422 15.1723 2.78265 15.0372C2.77475 14.314 2.77949 13.5904 2.77831 12.8672C2.77831 12.6949 2.82724 12.5482 2.99377 12.4555C3.2992 12.2855 3.63423 12.4848 3.6362 12.8462C3.64094 13.5818 3.64054 14.3177 3.63462 15.0537C3.63383 15.1697 3.66501 15.1986 3.78655 15.1975C4.43056 15.1914 5.07458 15.1945 5.71859 15.1945L5.71898 15.1948Z" fill="#3D86AF"/>
<path d="M18.7377 12.2947C18.5388 12.8854 18.0866 13.2025 17.4299 13.2029C15.4399 13.2044 13.4502 13.2033 11.4602 13.2037C11.3682 13.2037 11.2763 13.2059 11.1843 13.2074C11.1389 12.9304 11.0727 12.658 10.9843 12.3904C12.41 12.3923 13.8361 12.3926 15.2619 12.399C15.3972 12.3998 15.4059 12.3397 15.4055 12.2399C15.4028 11.5167 15.402 10.7935 15.4051 10.0702C15.4063 9.77037 15.5938 9.59285 15.8724 9.61462C16.1072 9.63301 16.2536 9.8049 16.2548 10.0766C16.2571 10.7687 16.2548 11.4607 16.2559 12.1528C16.2567 12.4264 16.2224 12.3949 16.503 12.3964C16.8183 12.3983 17.134 12.3986 17.4493 12.3964C17.772 12.3938 17.9319 12.2534 17.9263 11.9543C17.9161 11.4067 17.9772 10.8565 17.8829 10.3116C17.6612 9.0299 16.4406 8.02633 15.0729 8.01395C13.9099 8.00344 12.7466 8.00644 11.5837 8.01282C10.948 8.0162 10.3714 8.2046 9.86157 8.56827C9.74398 8.65234 9.62323 8.73153 9.46775 8.70713C9.29254 8.67974 9.16784 8.58891 9.11654 8.41965C9.06248 8.241 9.12759 8.09951 9.27241 7.98955C9.77515 7.60862 10.3466 7.3718 10.9787 7.26334C11.1666 7.23106 11.356 7.21717 11.547 7.21717C12.7166 7.21755 13.8863 7.20554 15.0559 7.22018C16.9536 7.24382 18.5254 8.59867 18.7491 10.3832" fill="#4DC9F5"/>
<path d="M13.07 0C13.2586 0.0709326 13.4627 0.0656784 13.6576 0.108463C15.1986 0.448489 16.3157 1.82436 16.2542 3.31469C16.1903 4.85569 15.0013 6.13623 13.4185 6.36817C11.2631 6.68418 9.37918 5.04597 9.52558 2.98405C9.63371 1.46331 10.9249 0.200038 12.5345 0.0390317C12.5827 0.0341527 12.6427 0.0581723 12.6754 0L13.07 0ZM15.4046 3.2325C15.4109 1.91068 14.2886 0.828673 12.9055 0.823419C11.5093 0.818165 10.3622 1.89454 10.3582 3.21336C10.3543 4.5213 11.4951 5.60856 12.8759 5.61344C14.2661 5.61794 15.3983 4.55207 15.405 3.2325H15.4046Z" fill="#4DC9F5"/>
<path d="M0.25 13.3613C0.291829 13.3831 0.290251 13.4214 0.290251 13.4585C0.290251 13.9307 0.290251 14.4024 0.290645 14.8746C0.290645 14.9117 0.293408 14.95 0.25 14.9706V13.3613Z" fill="black"/>
<path d="M5.30942 9.2065C3.43894 9.20537 1.94334 7.77809 1.94531 5.99614C1.94729 4.24122 3.46814 2.80718 5.32362 2.81055C7.16885 2.81393 8.68812 4.26373 8.68575 6.01828C8.68299 7.77509 7.16648 9.20725 5.30942 9.20612V9.2065ZM5.31889 8.40222C6.73043 8.39171 7.83575 7.32059 7.82628 5.97287C7.8172 4.66719 6.674 3.61596 5.2739 3.62609C3.90261 3.63585 2.78308 4.71785 2.79334 6.02391C2.8036 7.34386 3.93852 8.41273 5.31849 8.40222H5.31889Z" fill="#3D86AF"/>
</svg>
