<svg xmlns="http://www.w3.org/2000/svg" width="42" height="42" viewBox="0 0 42 42">
  <g id="ic_menu_placeholder" transform="translate(24013 19687)">
    <g id="_859baff1d76042a45e319d1de80aec7a_1_" data-name="859baff1d76042a45e319d1de80aec7a (1)" transform="translate(-24013 -19687)" fill="#f6f5f7" stroke="#dbdbdb" stroke-width="0.3">
      <rect width="42" height="42" rx="3" stroke="none"/>
      <rect x="0.15" y="0.15" width="41.7" height="41.7" rx="2.85" fill="none"/>
    </g>
    <g id="Layer_2" data-name="Layer 2" transform="translate(-24005 -19678)">
      <g id="Illustration" transform="translate(0 0)">
        <path id="Path_32742" data-name="Path 32742" d="M543.32.04V.3a3.65,3.65,0,0,1,3.254,3.313h.286c-.01-1.335-.015-2.615-.093-3.576C545.755-.015,544.6-.011,543.32.04Z" transform="translate(-537.907 0)" fill="#d2d1d1"/>
        <path id="Path_32743" data-name="Path 32743" d="M543.32,1023.977v-.18a4.43,4.43,0,0,0,3.628-3.687l.326.025-.234,3.852Z" transform="translate(-537.907 -1009.947)" fill="#d2d1d1"/>
        <path id="Path_32744" data-name="Path 32744" d="M928.58,4.31c1.768.207.989.858,6.551,14.318l2.6-5.665-.3-.087c-1.431,2.074-1.55,2.034-2.388,0l-2.849-7.187c-.506-.984-.041-1.413,1.227-1.383V4H928.58Z" transform="translate(-919.329 -3.96)" fill="#d2d1d1"/>
        <path id="Path_32745" data-name="Path 32745" d="M916.814,1022.6c-.043,1.215-.117,2.493-.234,3.852" transform="translate(-907.448 -1012.412)" fill="#d2d1d1"/>
        <path id="Path_32746" data-name="Path 32746" d="M547.039,1408.29q-1.833.048-3.719-.01" transform="translate(-537.907 -1394.25)" fill="#d2d1d1"/>
        <path id="Path_32747" data-name="Path 32747" d="M383.68,444.9l.013.283a2.64,2.64,0,0,1,2,2.467h.354l-.056-5.2-.3,0A2.53,2.53,0,0,1,383.68,444.9Z" transform="translate(-379.858 -438.042)" fill="#d2d1d1"/>
        <path id="Path_32748" data-name="Path 32748" d="M1822.24,4a2.248,2.248,0,0,1,0,.286c2.038-.068,2.037,1.919,1.359,4.124h.274c.893-2,1.775-4.043,3.137-4.132V4.024Z" transform="translate(-1804.086 -3.96)" fill="#d2d1d1"/>
        <path id="Path_32749" data-name="Path 32749" d="M10.79,2286.38h.217v1.334h.825v.189H10.79Z" transform="translate(-10.683 -2263.601)" fill="#d2d1d1"/>
        <path id="Path_32750" data-name="Path 32750" d="M141.6,2287.714v.189H140.49v-1.523h1.075v.189h-.857v.468h.764v.185h-.764v.492Z" transform="translate(-139.09 -2263.601)" fill="#d2d1d1"/>
        <path id="Path_32751" data-name="Path 32751" d="M265.262,2286.569h-.522v-.189H266v.189h-.522v1.333h-.215Z" transform="translate(-262.102 -2263.601)" fill="#d2d1d1"/>
        <path id="Path_32752" data-name="Path 32752" d="M408.7,2276.048a.424.424,0,0,1-.035.155l-.1.3h-.137l.08-.324a.138.138,0,0,1-.091-.135.142.142,0,0,1,.146-.148A.14.14,0,0,1,408.7,2276.048Z" transform="translate(-404.343 -2253.226)" fill="#d2d1d1"/>
        <path id="Path_32753" data-name="Path 32753" d="M458.64,2286.026l.08-.169a.783.783,0,0,0,.5.176c.263,0,.376-.1.376-.235,0-.372-.922-.137-.922-.7,0-.235.183-.435.583-.435a.9.9,0,0,1,.489.135l-.072.174a.787.787,0,0,0-.418-.124c-.259,0-.37.109-.37.241,0,.372.922.139.922.7,0,.233-.187.433-.59.433A.9.9,0,0,1,458.64,2286.026Z" transform="translate(-454.071 -2261.899)" fill="#d2d1d1"/>
        <path id="Path_32754" data-name="Path 32754" d="M655.729,2285.42h.209v.594a.9.9,0,0,1-.576.194.78.78,0,1,1,0-1.558.763.763,0,0,1,.585.235l-.135.135a.6.6,0,0,0-.442-.176.585.585,0,1,0,0,1.17.641.641,0,0,0,.357-.1Z" transform="translate(-648.029 -2261.889)" fill="#d2d1d1"/>
        <path id="Path_32755" data-name="Path 32755" d="M836.548,2287.9l-.329-.468c-.031,0-.063,0-.1,0h-.376v.463h-.218v-1.523h.594c.4,0,.635.2.635.531a.48.48,0,0,1-.335.481l.361.511Zm-.007-.992c0-.217-.146-.342-.424-.342h-.37v.686h.37C836.4,2287.255,836.542,2287.128,836.542,2286.911Z" transform="translate(-827.206 -2263.601)" fill="#d2d1d1"/>
        <path id="Path_32756" data-name="Path 32756" d="M981.83,2285.409a.81.81,0,1,1,.811.779A.774.774,0,0,1,981.83,2285.409Zm1.4,0a.592.592,0,1,0-.59.585A.572.572,0,0,0,983.231,2285.409Z" transform="translate(-972.049 -2261.869)" fill="#d2d1d1"/>
        <path id="Path_32757" data-name="Path 32757" d="M1159.31,2286.38l-.509,1.523h-.228l-.416-1.216-.415,1.216h-.233l-.509-1.523h.224l.411,1.238.428-1.238h.2l.42,1.245.42-1.245Z" transform="translate(-1145.473 -2263.601)" fill="#d2d1d1"/>
        <path id="Path_32758" data-name="Path 32758" d="M1455.972,2286.569h-.522v-.189h1.259v.189h-.522v1.333h-.215Z" transform="translate(-1440.95 -2263.601)" fill="#d2d1d1"/>
        <path id="Path_32759" data-name="Path 32759" d="M1591.06,2285.409a.81.81,0,1,1,.811.779A.774.774,0,0,1,1591.06,2285.409Zm1.4,0a.592.592,0,1,0-.589.585A.572.572,0,0,0,1592.461,2285.409Z" transform="translate(-1575.209 -2261.869)" fill="#d2d1d1"/>
        <path id="Path_32760" data-name="Path 32760" d="M1775.7,2285.4h.209v.594a.9.9,0,0,1-.576.194.78.78,0,1,1,0-1.558.762.762,0,0,1,.585.235l-.135.135a.6.6,0,0,0-.442-.176.585.585,0,1,0,0,1.17.647.647,0,0,0,.357-.1Z" transform="translate(-1756.841 -2261.869)" fill="#d2d1d1"/>
        <path id="Path_32761" data-name="Path 32761" d="M1956.605,2287.714v.189H1955.5v-1.523h1.074v.189h-.857v.468h.763v.185h-.763v.492Z" transform="translate(-1936.018 -2263.601)" fill="#d2d1d1"/>
        <path id="Path_32762" data-name="Path 32762" d="M2080.272,2286.569h-.522v-.189h1.259v.189h-.522v1.333h-.216Z" transform="translate(-2059.031 -2263.601)" fill="#d2d1d1"/>
        <path id="Path_32763" data-name="Path 32763" d="M2231.309,2286.38v1.523h-.218v-.679h-.875v.679H2230v-1.523h.218v.655h.874v-.655Z" transform="translate(-2207.783 -2263.601)" fill="#d2d1d1"/>
        <path id="Path_32764" data-name="Path 32764" d="M2408.4,2287.714v.189h-1.1v-1.523h1.074v.189h-.857v.468h.764v.185h-.764v.492Z" transform="translate(-2383.307 -2263.601)" fill="#d2d1d1"/>
        <path id="Path_32765" data-name="Path 32765" d="M2554.578,2287.9l-.329-.468c-.031,0-.063,0-.1,0h-.376v.463h-.217v-1.523h.594c.4,0,.635.2.635.531a.48.48,0,0,1-.335.481l.361.511Zm-.007-.992c0-.217-.146-.342-.424-.342h-.37v.686h.37C2554.426,2287.255,2554.572,2287.128,2554.572,2286.911Z" transform="translate(-2528.12 -2263.601)" fill="#d2d1d1"/>
        <path id="Path_32766" data-name="Path 32766" d="M0,2198.53q3.336-.031,6.671-.039l1.668,0,1.668,0,3.336,0,3.336,0,1.668,0,1.668.005q3.336.011,6.671.039-3.336.03-6.671.039l-1.668,0-1.668,0-3.336,0-3.336,0-1.668,0-1.668,0Q3.336,2198.558,0,2198.53Z" transform="translate(0 -2176.577)" fill="#d2d1d1"/>
        <path id="Path_32767" data-name="Path 32767" d="M4.3,1713.017h.12v.968H4.3a.566.566,0,0,0-.157-.319.816.816,0,0,0-.4-.065h-1v1.426a.276.276,0,0,0,.067.211.336.336,0,0,0,.228.061h.7a2.211,2.211,0,0,0,.52-.041.5.5,0,0,0,.243-.151,1.441,1.441,0,0,0,.212-.359h.12l-.185.744H1.76v-.115a.408.408,0,0,0,.363-.138.928.928,0,0,0,.092-.488v-2.491a.923.923,0,0,0-.1-.5.412.412,0,0,0-.359-.136v-.115H4.652v.665H4.576a.671.671,0,0,0-.176-.379.876.876,0,0,0-.5-.093H2.746v1.7H3.868a.453.453,0,0,0,.313-.082A.566.566,0,0,0,4.3,1713.017Z" transform="translate(-1.742 -1694.459)" fill="#d2d1d1"/>
        <path id="Path_32768" data-name="Path 32768" d="M344.063,1857.35v.492a1.221,1.221,0,0,1,.9-.492.807.807,0,0,1,.6.243.872.872,0,0,1,.239.641v1.112a.475.475,0,0,0,.086.337.5.5,0,0,0,.335.082v.115H344.9v-.115a.634.634,0,0,0,.337-.063.278.278,0,0,0,.091-.243v-1.289a.551.551,0,0,0-.156-.411.545.545,0,0,0-.4-.153.954.954,0,0,0-.7.482v1.2a.619.619,0,0,0,.08.389.476.476,0,0,0,.334.083v.115H343.17v-.115q.284,0,.349-.09a.743.743,0,0,0,.065-.383V1857.9a.392.392,0,0,0-.079-.291.542.542,0,0,0-.335-.07v-.115l.773-.075Z" transform="translate(-339.751 -1838.846)" fill="#d2d1d1"/>
        <path id="Path_32769" data-name="Path 32769" d="M666.244,1857.35v.492a1.22,1.22,0,0,1,.9-.492.806.806,0,0,1,.6.243.875.875,0,0,1,.24.641v1.112a.476.476,0,0,0,.086.337.5.5,0,0,0,.335.082v.115h-1.324v-.115a.634.634,0,0,0,.337-.063.277.277,0,0,0,.091-.243v-1.289a.551.551,0,0,0-.156-.411.544.544,0,0,0-.4-.153.954.954,0,0,0-.705.482v1.2a.618.618,0,0,0,.08.389.475.475,0,0,0,.334.083v.115h-1.307v-.115q.284,0,.349-.09a.743.743,0,0,0,.065-.383V1857.9a.392.392,0,0,0-.079-.291.543.543,0,0,0-.335-.07v-.115l.773-.075Z" transform="translate(-658.721 -1838.846)" fill="#d2d1d1"/>
        <path id="Path_32770" data-name="Path 32770" d="M904.245,1711.51v.122q-.442,0-.729.774l-1.185,3.14h-.114l-1.243-3.232a1.714,1.714,0,0,0-.3-.565.54.54,0,0,0-.363-.124v-.115h1.458v.115q-.351,0-.351.268a.549.549,0,0,0,.045.2l.983,2.57.932-2.482a.817.817,0,0,0,.058-.275q0-.281-.359-.282v-.115Z" transform="translate(-891.34 -1694.459)" fill="#d2d1d1"/>
        <path id="Path_32771" data-name="Path 32771" d="M1305.084,1730.834h.12v2.074a.329.329,0,0,0,.089.272.563.563,0,0,0,.325.068v.115h-1.358v-.115a.713.713,0,0,0,.383-.066.339.339,0,0,0,.085-.274v-1.515a.4.4,0,0,0-.079-.3.665.665,0,0,0-.39-.072v-.115Zm-.109-1.273a.291.291,0,0,1,.214.086.288.288,0,0,1,.087.212.3.3,0,0,1-.089.216.288.288,0,0,1-.212.089.3.3,0,0,1-.219-.089.29.29,0,0,1-.092-.216.283.283,0,0,1,.091-.212.307.307,0,0,1,.222-.086Z" transform="translate(-1291.266 -1712.33)" fill="#d2d1d1"/>
        <path id="Path_32772" data-name="Path 32772" d="M1484.454,1857.31v.757h-.141a.734.734,0,0,0-.205-.453.569.569,0,0,0-.414-.168.456.456,0,0,0-.3.092.3.3,0,0,0-.113.244.379.379,0,0,0,.1.263,1.551,1.551,0,0,0,.453.273,1.627,1.627,0,0,1,.6.39.709.709,0,0,1,.145.448.72.72,0,0,1-.233.535.765.765,0,0,1-.551.226,1.155,1.155,0,0,1-.435-.119.648.648,0,0,0-.2-.064.143.143,0,0,0-.109.047.2.2,0,0,0-.052.119h-.119v-.839h.119a.907.907,0,0,0,.288.525.752.752,0,0,0,.51.194.426.426,0,0,0,.31-.122.408.408,0,0,0,.125-.3.433.433,0,0,0-.115-.3,1.559,1.559,0,0,0-.5-.295,1.609,1.609,0,0,1-.568-.35.59.59,0,0,1-.137-.394.658.658,0,0,1,.224-.5.753.753,0,0,1,.532-.209.834.834,0,0,1,.312.068.558.558,0,0,0,.2.048.157.157,0,0,0,.147-.115Z" transform="translate(-1468.117 -1838.806)" fill="#d2d1d1"/>
        <path id="Path_32773" data-name="Path 32773" d="M1686.365,1730.835h.119v2.074a.329.329,0,0,0,.089.272.562.562,0,0,0,.325.068v.115h-1.358v-.115a.714.714,0,0,0,.383-.066.338.338,0,0,0,.085-.274v-1.516a.4.4,0,0,0-.079-.3.664.664,0,0,0-.39-.072v-.115Zm-.11-1.273a.29.29,0,0,1,.214.086.287.287,0,0,1,.087.212.3.3,0,0,1-.089.216.288.288,0,0,1-.212.089.3.3,0,0,1-.219-.089.29.29,0,0,1-.092-.216.281.281,0,0,1,.09-.212.307.307,0,0,1,.221-.086Z" transform="translate(-1668.747 -1712.331)" fill="#d2d1d1"/>
        <path id="Path_32774" data-name="Path 32774" d="M1864.1,1858.657a1.232,1.232,0,0,1-.388.929,1.452,1.452,0,0,1-1.94,0,1.231,1.231,0,0,1-.388-.929,1.244,1.244,0,0,1,.386-.935,1.457,1.457,0,0,1,1.944,0A1.243,1.243,0,0,1,1864.1,1858.657Zm-.517,0a1.455,1.455,0,0,0-.226-.85.754.754,0,0,0-1.232-.007,1.725,1.725,0,0,0,0,1.7.758.758,0,0,0,1.235,0A1.436,1.436,0,0,0,1863.581,1858.659Z" transform="translate(-1842.836 -1838.846)" fill="#d2d1d1"/>
        <path id="Path_32775" data-name="Path 32775" d="M2166.594,1857.35v.492a1.221,1.221,0,0,1,.9-.492.8.8,0,0,1,.6.243.874.874,0,0,1,.24.641v1.112a.474.474,0,0,0,.086.337.5.5,0,0,0,.335.082v.115h-1.324v-.115a.635.635,0,0,0,.337-.063.278.278,0,0,0,.091-.243v-1.289a.55.55,0,0,0-.156-.411.544.544,0,0,0-.4-.153.954.954,0,0,0-.705.482v1.2a.619.619,0,0,0,.08.389.476.476,0,0,0,.334.083v.115H2165.7v-.115q.284,0,.349-.09a.745.745,0,0,0,.065-.383V1857.9a.392.392,0,0,0-.079-.291.544.544,0,0,0-.335-.07v-.115l.774-.075Z" transform="translate(-2144.124 -1838.846)" fill="#d2d1d1"/>
        <path id="Path_32776" data-name="Path 32776" d="M2510.133,1857.281v.757h-.14a.738.738,0,0,0-.205-.453.571.571,0,0,0-.414-.168.46.46,0,0,0-.3.091.3.3,0,0,0-.113.245.377.377,0,0,0,.1.263,1.552,1.552,0,0,0,.454.273,1.615,1.615,0,0,1,.6.39.707.707,0,0,1,.146.448.721.721,0,0,1-.233.535.765.765,0,0,1-.551.226,1.155,1.155,0,0,1-.435-.119.654.654,0,0,0-.2-.064.143.143,0,0,0-.11.048.2.2,0,0,0-.051.119h-.12v-.838h.12a.9.9,0,0,0,.287.525.754.754,0,0,0,.51.195.425.425,0,0,0,.31-.123.4.4,0,0,0,.125-.3.433.433,0,0,0-.115-.3,1.564,1.564,0,0,0-.5-.294,1.612,1.612,0,0,1-.567-.35.591.591,0,0,1-.136-.395.659.659,0,0,1,.224-.5.753.753,0,0,1,.532-.209.825.825,0,0,1,.311.068.557.557,0,0,0,.2.047.157.157,0,0,0,.147-.115Z" transform="translate(-2483.578 -1838.777)" fill="#d2d1d1"/>
      </g>
    </g>
  </g>
</svg>
