<svg xmlns="http://www.w3.org/2000/svg" width="17" height="17" viewBox="0 0 17 17">
  <g id="ic_md_select" transform="translate(-761 -2102)">
    <rect id="Rectangle_19" data-name="Rectangle 19" width="17" height="17" rx="2" transform="translate(761 2102)" fill="#00b0e9"/>
    <path id="Path_155" data-name="Path 155" d="M36.011,40.194a.637.637,0,0,0-.748,1.032,8.068,8.068,0,0,1,2.473,3.321.637.637,0,0,0,1.159.007,22.273,22.273,0,0,1,5.442-7.432.637.637,0,0,0-.829-.968,22.91,22.91,0,0,0-5.2,6.71,8.321,8.321,0,0,0-2.3-2.67Z" transform="translate(729.449 2070)" fill="#fff"/>
  </g>
</svg>
