<svg xmlns="http://www.w3.org/2000/svg" width="44" height="44" viewBox="0 0 44 44">
  <g id="ic_minimum" transform="translate(-150 -1156)">
    <g id="Rectangle_9" data-name="Rectangle 9" transform="translate(150 1156)" fill="#f8f8f8" stroke="#efeff4" stroke-width="1">
      <rect width="44" height="44" rx="4" stroke="none"/>
      <rect x="0.5" y="0.5" width="43" height="43" rx="3.5" fill="none"/>
    </g>
    <g id="ic_minimum-2" data-name="ic_minimum" transform="translate(162.516 1168.409)">
      <path id="Path_30848" data-name="Path 30848" d="M18.984,9.713a.981.981,0,0,1-.744.721,1.651,1.651,0,0,1-.313.021H.967A.929.929,0,1,1,.911,8.6c.841-.006,1.681,0,2.522,0h7.2c2.393,0,4.785.009,7.178-.007a1.061,1.061,0,0,1,1.168.751v.372Z" fill="#00b0e9"/>
    </g>
  </g>
</svg>
