<svg xmlns="http://www.w3.org/2000/svg" width="22.527" height="22.528" viewBox="0 0 22.527 22.528">
  <g id="ic_newsfeed_sent" transform="translate(0.25 0.255)">
    <path id="Path_163" data-name="Path 163" d="M13.853,22.018a2.382,2.382,0,0,1-1.07-.513,2.08,2.08,0,0,1-.612-.991L9.862,12.427a.344.344,0,0,0-.274-.273q-4.013-1.139-8.023-2.29a2.021,2.021,0,0,1-1.529-1.6A.7.7,0,0,0,0,8.165V7.606c.028-.1.055-.191.084-.286a1.989,1.989,0,0,1,1.4-1.388Q9.895,3.408,18.3.889,19.7.47,21.1.044a.678.678,0,0,1,.737.137.679.679,0,0,1,.139.737q-2.94,9.775-5.876,19.551a2.021,2.021,0,0,1-1.637,1.518.193.193,0,0,0-.055.031h-.559ZM19.088,2.006c-.119.033-.193.051-.266.073L13.743,3.6,1.96,7.136c-.449.135-.668.385-.669.756s.224.616.676.745q3.964,1.132,7.926,2.269a.356.356,0,0,0,.41-.1Q14.6,6.5,18.909,2.2c.05-.05.1-.1.179-.19ZM20,2.977l-.066-.053a1.19,1.19,0,0,1-.131.2q-4.293,4.3-8.6,8.59a.356.356,0,0,0-.1.41q.713,2.465,1.413,4.932c.3,1.039.591,2.079.895,3.116a.727.727,0,0,0,1,.5.87.87,0,0,0,.472-.627Q17.177,12.4,19.47,4.767q.267-.891.533-1.784Z" transform="translate(0 0.005)" fill="#232837"/>
    <path id="Path_164" data-name="Path 164" d="M14.483,22.268h-.66l-.03-.007a2.658,2.658,0,0,1-1.178-.571,2.342,2.342,0,0,1-.684-1.107l-.758-2.653c-.509-1.781-1.036-3.622-1.551-5.435-.021-.073-.028-.08-.1-.1-1.655-.47-3.337-.951-4.964-1.416L1.5,10.1A2.268,2.268,0,0,1-.2,8.314.068.068,0,0,0-.21,8.29l-.016-.038-.024-.04V7.57l.01-.035.03-.1c.018-.062.036-.124.055-.186A2.228,2.228,0,0,1,1.416,5.693Q7.024,4.009,12.633,2.328l5.6-1.679C19.125.382,20.076.1,21.024-.2a1.242,1.242,0,0,1,.366-.06.852.852,0,0,1,.622.26.923.923,0,0,1,.2.987C20.3,7.362,18.324,13.94,16.344,20.541a2.264,2.264,0,0,1-1.79,1.683l-.011.007Zm-.6-.5h.458a.312.312,0,0,1,.075-.026A1.778,1.778,0,0,0,15.865,20.4C17.845,13.8,19.82,7.219,21.734.847c.084-.279.013-.4-.076-.488A.355.355,0,0,0,21.39.245a.765.765,0,0,0-.22.038c-.95.292-1.9.578-2.8.845l-5.6,1.679L1.559,6.172A1.732,1.732,0,0,0,.323,7.394C.3,7.453.288,7.512.27,7.571l-.02.071v.473a.556.556,0,0,1,.031.1A1.777,1.777,0,0,0,1.634,9.623l3.059.874c1.626.465,3.308.946,4.963,1.416a.591.591,0,0,1,.446.445c.515,1.812,1.041,3.653,1.551,5.434l.758,2.653a1.824,1.824,0,0,0,.539.875,2.124,2.124,0,0,0,.934.448Zm.238-.79a.991.991,0,0,1-.942-.737c-.233-.8-.465-1.608-.688-2.393l-.54-1.889c-.353-1.235-.717-2.512-1.08-3.767a.6.6,0,0,1,.166-.656c2.874-2.864,5.705-5.7,8.594-8.59a.518.518,0,0,0,.052-.081c.015-.026.03-.052.046-.077l.152-.234.826.674H20.19l-.111.374-.368,1.232L18.371,9.3q-1.622,5.406-3.242,10.812a1.111,1.111,0,0,1-.614.785,1,1,0,0,1-.393.081ZM19.5,3.782c-2.723,2.726-5.4,5.4-8.113,8.108-.062.062-.065.073-.039.163.363,1.255.728,2.533,1.081,3.769l.54,1.889c.224.784.455,1.594.687,2.389a.49.49,0,0,0,.463.378.506.506,0,0,0,.2-.042c.158-.067.247-.194.33-.469q1.62-5.406,3.242-10.812l1.34-4.466Zm-9.456,7.4a.8.8,0,0,1-.223-.036c-2.42-.7-4.883-1.4-7.264-2.079L1.9,8.877a1,1,0,0,1-.857-.986,1.011,1.011,0,0,1,.847-1l8.188-2.455,3.6-1.078L16.211,2.6l2.54-.762.155-.043.116-.031.864-.238-.617.651-.08.085c-.04.043-.071.076-.1.109l-1.38,1.378c-2.37,2.37-4.821,4.821-7.227,7.235a.59.59,0,0,1-.434.2Zm8.187-8.665-1.88.564-2.54.762L10.22,4.92,2.032,7.375c-.432.13-.491.334-.491.517s.059.38.5.5l.662.189c2.382.68,4.844,1.383,7.265,2.08a.338.338,0,0,0,.085.016c.011,0,.029,0,.08-.05,2.406-2.414,4.857-4.865,7.228-7.235Z" transform="translate(0 0.005)" fill="#232837"/>
  </g>
</svg>
