<svg xmlns="http://www.w3.org/2000/svg" width="15.82" height="18" viewBox="0 0 15.82 18">
  <path id="ic_notification" d="M46.293,14.836a1.584,1.584,0,0,1-1.582-1.582V7.91a5.811,5.811,0,0,0-4.219-5.581V1.582a1.582,1.582,0,1,0-3.164,0v.747A5.811,5.811,0,0,0,33.109,7.91v5.344a1.584,1.584,0,0,1-1.582,1.582H31v1.055h6.328v.527a1.582,1.582,0,1,0,3.164,0v-.527H46.82V14.836ZM38.383,1.582a.528.528,0,1,1,1.055,0v.552c-.174-.016-.35-.024-.527-.024s-.354.009-.527.024Zm.527,1.582A4.751,4.751,0,0,1,43.656,7.91v4.816H34.164V7.91A4.751,4.751,0,0,1,38.91,3.164Zm-4.8,10.617h9.6a2.626,2.626,0,0,0,.476,1.055H33.635a2.626,2.626,0,0,0,.476-1.055Zm5.326,2.637a.528.528,0,1,1-1.055,0v-.527h1.055Z" transform="translate(-31)" fill="#1b283f"/>
</svg>
