<svg width="29" height="31" viewBox="0 0 29 31" fill="none" xmlns="http://www.w3.org/2000/svg">
<path d="M13.6154 0C13.9402 0 14.2657 0 14.5906 0C14.6157 0.0157282 14.6395 0.04295 14.6657 0.0465795C16.336 0.278267 17.7637 1.90432 17.5091 3.83223C17.481 4.04577 17.5592 4.11594 17.7448 4.20002C21.7423 6.00271 23.9133 9.07212 24.1503 13.4343C24.2211 14.7409 24.1655 16.0548 24.1668 17.3651C24.1674 18.071 24.1631 18.7764 24.1686 19.4823C24.1716 19.8302 24.2987 19.9494 24.6407 19.9748C24.8526 19.9905 25.0675 20.0038 25.2752 20.0461C27.1548 20.4272 28.3732 22.0624 28.1729 23.9262C27.9848 25.6756 26.444 26.9774 24.5588 26.9786C22.6901 26.9792 20.8214 26.9786 18.9521 26.9786C18.8422 26.9786 18.7329 26.9786 18.6266 26.9786C18.5992 27.0942 18.5759 27.1819 18.557 27.2708C18.1705 29.091 17.0712 30.2658 15.2892 30.8193C15.0993 30.8786 14.9039 30.9222 14.7115 30.9736H13.4926C13.4486 30.9536 13.4059 30.924 13.3595 30.9149C11.5219 30.5513 10.325 29.4727 9.74545 27.713C9.6685 27.4783 9.63125 27.2309 9.57324 26.9792C9.44438 26.9792 9.33324 26.9792 9.2227 26.9792C7.28317 26.9792 5.34364 26.9913 3.4041 26.9744C1.29541 26.9556 -0.3571 24.8977 0.0667153 22.8464C0.397706 21.2457 1.74549 20.0988 3.43647 19.9796C3.96349 19.9427 4.038 19.8635 4.038 19.336C4.038 17.451 4.02761 15.566 4.0441 13.6817C4.0496 13.0695 4.06853 12.4476 4.17906 11.8475C4.84532 8.23187 6.91493 5.70932 10.2987 4.24781C10.6041 4.11594 10.7189 4.00282 10.6896 3.65075C10.59 2.44936 11.0566 1.47482 11.9964 0.715631C12.4728 0.329686 13.0383 0.154257 13.6154 0ZM14.1045 24.9811C17.5268 24.9811 20.9485 24.9811 24.3707 24.9811C24.4923 24.9811 24.615 24.9848 24.7359 24.9745C25.5078 24.9092 26.0959 24.3635 26.1698 23.6473C26.2461 22.9087 25.7814 22.2565 25.0168 22.0515C24.8428 22.0049 24.6571 21.9952 24.4758 21.9789C23.0474 21.8494 22.1521 20.8803 22.1509 19.4557C22.1497 17.5508 22.1497 15.6459 22.1509 13.741C22.1509 12.7029 21.964 11.6993 21.5909 10.7308C19.9219 6.3941 15.1189 4.30528 10.888 6.18479C7.79187 7.5604 6.17661 10.0418 6.06913 13.4131C6.00318 15.4771 6.06058 17.5454 6.05447 19.6112C6.05142 20.6898 5.32043 21.6274 4.26883 21.893C3.97693 21.9668 3.66548 21.9638 3.36685 22.0152C2.74884 22.1216 2.29632 22.4538 2.10213 23.0551C1.91465 23.6346 2.07281 24.1506 2.5119 24.5716C2.85449 24.9001 3.28502 24.983 3.74731 24.983C7.19951 24.9799 10.6523 24.9811 14.1045 24.9811ZM11.6801 26.9865C11.7674 28.0542 12.9973 29.0227 14.1857 28.9719C15.3466 28.9217 16.5186 27.9253 16.51 26.9865H11.6801ZM15.5091 3.54186C15.5457 2.94782 15.3192 2.48928 14.8111 2.1971C14.2908 1.89827 13.7589 1.9273 13.2703 2.27998C12.838 2.59212 12.6499 3.02283 12.7018 3.54186H15.5091Z" fill="#006197"/>
<path d="M1.05975 11.9852C1.52998 11.9834 1.89639 11.7178 2.03257 11.2665C2.11379 10.9973 2.17242 10.7215 2.25181 10.4517C2.80509 8.57095 3.77608 6.93159 5.15439 5.52936C5.6521 5.02304 5.68752 4.44049 5.24966 4.00797C4.80569 3.56879 4.20722 3.61537 3.69852 4.135C3.48661 4.35157 3.27898 4.57358 3.08173 4.80284C1.57395 6.55774 0.556549 8.55703 0.0789936 10.8177C-0.0535249 11.4468 0.419755 11.9882 1.05975 11.9852Z" fill="white"/>
<path d="M1.05975 11.9855C0.419755 11.9886 -0.0535249 11.4471 0.0789936 10.818C0.555938 8.55739 1.57395 6.5581 3.08234 4.8026C3.27959 4.57273 3.48722 4.35132 3.69913 4.13476C4.20783 3.61512 4.8063 3.56915 5.25027 4.00772C5.68752 4.44025 5.65271 5.02279 5.155 5.52912C3.77608 6.93134 2.8057 8.5707 2.25242 10.4514C2.17303 10.7212 2.11502 10.9971 2.03318 11.2663C1.89639 11.7175 1.53059 11.9831 1.06036 11.9849L1.05975 11.9855Z" fill="#4DC9F5"/>
<path d="M27.1355 11.9845C26.614 11.9821 26.2531 11.6682 26.1169 11.0844C25.8916 10.1202 25.5502 9.20006 25.0903 8.32171C24.534 7.25945 23.8274 6.3079 22.981 5.45616C22.6885 5.16156 22.5658 4.81433 22.7019 4.40842C22.832 4.02066 23.1105 3.79079 23.5135 3.72061C23.847 3.66254 24.1395 3.76961 24.374 4.00251C26.2702 5.88626 27.5178 8.12873 28.1102 10.7251C28.2671 11.4135 27.8042 11.9876 27.1361 11.9845H27.1355Z" fill="#4DC9F5"/>
</svg>
