<svg xmlns="http://www.w3.org/2000/svg" width="22.462" height="22.479" viewBox="0 0 22.462 22.479">
  <g id="ic_newsfeed_comment" transform="translate(0.017 0.02)">
    <path id="Path_156" data-name="Path 156" d="M11.054,22.084a12.793,12.793,0,0,0,3.732-.664,3.569,3.569,0,0,0,.519-.179,1.5,1.5,0,0,1,1.315-.008c1.046.409,2.107.779,3.17,1.145a1.223,1.223,0,0,0,1.612-.81,1.721,1.721,0,0,0-.007-.831c-.267-1.058-.565-2.109-.866-3.159A.633.633,0,0,1,20.618,17a10.428,10.428,0,0,0,1.7-4.421A10.6,10.6,0,0,0,19.9,4.027,10.879,10.879,0,0,0,12.881.117,11.109,11.109,0,0,0,.531,7.811,10.667,10.667,0,0,0,3.773,19.325a10.578,10.578,0,0,0,7.281,2.759Zm8.656-1.448c-.136-.045-.229-.072-.319-.1l-2.607-.941a2.324,2.324,0,0,0-1.615-.009l-.849.3a9.742,9.742,0,0,1-5.146.4,9.424,9.424,0,0,1-7.508-8.513A8.908,8.908,0,0,1,4.089,4.736,9.674,9.674,0,0,1,17.307,3.728,8.973,8.973,0,0,1,20.7,12.554a8.854,8.854,0,0,1-1.448,3.617,1.914,1.914,0,0,0-.281,1.78c.168.488.28,1,.417,1.493.1.383.209.766.325,1.192Z" transform="translate(-0.004 0.001)" fill="#232837"/>
  </g>
</svg>
