<svg xmlns="http://www.w3.org/2000/svg" width="16.974" height="22.944" viewBox="0 0 16.974 22.944">
  <g id="ic_newsfeed_saved" transform="translate(0.247 0.244)">
    <path id="Path_161" data-name="Path 161" d="M0,12.525V3.617A3.58,3.58,0,0,1,2.912.071,3.838,3.838,0,0,1,3.655,0q4.583,0,9.166,0a3.584,3.584,0,0,1,3.648,3.64q0,8.978,0,17.955a.784.784,0,0,1-.4.762.771.771,0,0,1-.872-.1L8.442,17.522a.3.3,0,0,0-.421,0Q4.651,19.9,1.268,22.258a.755.755,0,0,1-1.243-.384A1.406,1.406,0,0,1,0,21.55q0-4.512,0-9.024Zm14.969,7.74V3.665A2.088,2.088,0,0,0,12.8,1.5H3.7A2.1,2.1,0,0,0,1.5,3.7V20.261c.116-.077.2-.131.28-.187l5.878-4.115a.813.813,0,0,1,1.165,0L13.591,19.3l1.383.965Z" fill="#232837"/>
    <path id="Path_162" data-name="Path 162" d="M15.731,22.7a1.167,1.167,0,0,1-.673-.243l-2.379-1.666c-1.435-1-2.919-2.043-4.376-3.069a.255.255,0,0,0-.063-.036.3.3,0,0,0-.07.041c-2.183,1.535-4.352,3.052-6.758,4.733a1.2,1.2,0,0,1-.688.229.949.949,0,0,1-.941-.76,1.463,1.463,0,0,1-.029-.351V3.617A3.834,3.834,0,0,1,2.863-.174a4.058,4.058,0,0,1,.791-.07h9.17A3.9,3.9,0,0,1,15.6.874a3.875,3.875,0,0,1,1.124,2.769V21.6a1.031,1.031,0,0,1-.529.981.954.954,0,0,1-.464.121ZM8.239,17.189a.614.614,0,0,1,.351.127c1.457,1.026,2.94,2.064,4.375,3.068l2.379,1.666a.7.7,0,0,0,.386.153.455.455,0,0,0,.222-.062.539.539,0,0,0,.27-.542V3.644a3.323,3.323,0,0,0-3.4-3.391H3.653a3.569,3.569,0,0,0-.694.061,3.339,3.339,0,0,0-2.706,3.3c0,2.1,0,4.227,0,6.288v11.68a1.061,1.061,0,0,0,.015.233.453.453,0,0,0,.455.376.709.709,0,0,0,.4-.139c2.4-1.681,4.574-3.2,6.756-4.732A.619.619,0,0,1,8.239,17.189Zm6.984,3.556-.843-.587-.933-.652L10.08,17.149l-1.4-.98a.857.857,0,0,0-.443-.2.838.838,0,0,0-.435.2L1.924,20.278l-.175.118-.109.072-.389.259V3.7a2.347,2.347,0,0,1,2.455-2.45h9.1a2.338,2.338,0,0,1,2.42,2.414V15.351Zm-6.646-19H3.705A1.849,1.849,0,0,0,1.751,3.7q0,5.433,0,10.865v5.223l5.765-4.035a1.282,1.282,0,0,1,.721-.288,1.3,1.3,0,0,1,.73.294l1.4.98L13.734,19.1l.933.651.056.039V3.665A1.835,1.835,0,0,0,12.8,1.751Z" fill="#232837"/>
  </g>
</svg>
