<svg xmlns="http://www.w3.org/2000/svg" width="42" height="42" viewBox="0 0 42 42">
  <g id="ic_owner_number" transform="translate(-167 -350)">
    <rect id="Rectangle_7101" data-name="Rectangle 7101" width="42" height="42" rx="21" transform="translate(167 350)" fill="#00b0e9"/>
    <g id="ic_call" transform="translate(177 359)">
      <path id="Path_30547" data-name="Path 30547" d="M0,1.634A2.1,2.1,0,0,1,.664.437,1.847,1.847,0,0,1,1.878,0c1.368,0,2.737-.009,4.1,0a1.823,1.823,0,0,1,1.87,1.843A15.548,15.548,0,0,0,8.5,6a1.952,1.952,0,0,1-.4,1.883c-.636.808-1.235,1.648-1.841,2.481a.3.3,0,0,0,0,.255,14.348,14.348,0,0,0,5.863,6.108.609.609,0,0,0,.824-.05c.76-.631,1.549-1.225,2.336-1.821a1.707,1.707,0,0,1,1.5-.29c.7.171,1.391.387,2.1.507a18.361,18.361,0,0,0,2.062.184,1.851,1.851,0,0,1,1.816,1.394,2.428,2.428,0,0,1,.072.628c.006,1.316-.013,2.634.008,3.95a1.9,1.9,0,0,1-1.575,2c-.013,0-.025.016-.036.024H20.121c-.073-.011-.145-.026-.218-.034-.826-.095-1.657-.155-2.477-.29a19.716,19.716,0,0,1-6.465-2.289A21.114,21.114,0,0,1,3.212,13.2,21.278,21.278,0,0,1,.134,4.233C.08,3.746.044,3.257,0,2.769V1.634Z" transform="translate(0 0.004)" fill="#fff"/>
    </g>
  </g>
</svg>
