<svg xmlns="http://www.w3.org/2000/svg" width="32.358" height="47.171" viewBox="0 0 32.358 47.171">
  <g id="ic_property_detail_map_pin" transform="translate(-442.994 -2317.49)">
    <g id="Group_61" data-name="Group 61" transform="translate(442.998 2358.7)" opacity="0.14">
      <path id="Path_232" data-name="Path 232" d="M14.982,0h2.39c.134,0,.267.009.4.01q3.175.036,5.981.227c7.932.538,10.9,1.794,6.646,2.81-1.01.241-2.065.479-3.1.718L18.781,5.736a10.136,10.136,0,0,1-1.909.2c-.088,0-.158.015-.236.022h-.92c-.079-.008-.149-.019-.237-.022a10.173,10.173,0,0,1-1.909-.2Q7.837,4.407,2.087,3.078C.31,2.668-.334,2.232.164,1.767c.86-.8,5.626-1.491,11.8-1.7C12.953.038,13.976.023,14.982,0Zm1.2,1.023c-3.64,0-6.617.374-6.627.833s2.959.84,6.612.841,6.616-.374,6.627-.833-2.958-.84-6.612-.84Z" fill="#232837"/>
    </g>
    <g id="Group_62" data-name="Group 62" transform="translate(442.998 2317.49)">
      <path id="Path_233" data-name="Path 233" d="M14.982,0h2.39a3.812,3.812,0,0,0,.4.081,15.479,15.479,0,0,1,5.981,1.8A16.462,16.462,0,0,1,30.4,24.117c-1.01,1.906-2.065,3.79-3.1,5.684q-4.26,7.8-8.518,15.593a3.012,3.012,0,0,1-1.909,1.6c-.088.023-.158.117-.236.177h-.92c-.079-.06-.149-.152-.237-.177a3.025,3.025,0,0,1-1.909-1.6Q7.837,34.872,2.087,24.359A16.475,16.475,0,0,1,.164,13.981,16.311,16.311,0,0,1,11.967.561C12.953.3,13.976.183,14.982,0Zm1.2,9.092a5.753,5.753,0,1,0,.006,0Z" fill="#00b0e9"/>
    </g>
  </g>
</svg>
