<svg width="23" height="24" viewBox="0 0 23 24" fill="none" xmlns="http://www.w3.org/2000/svg">
<path d="M12.7823 10.5335V10.7335H12.9823H21.5177C22.2252 10.7335 22.8 11.3092 22.8 12.0209C22.8 12.7326 22.2252 13.3083 21.5177 13.3083H12.9823H12.7823V13.5083V22.0735C12.7823 22.7852 12.2075 23.361 11.5 23.361C10.7925 23.361 10.2177 22.7852 10.2177 22.0735V13.5083V13.3083H10.0177H1.48227C0.774734 13.3083 0.2 12.7326 0.2 12.0209C0.2 11.3092 0.774813 10.7335 1.48227 10.7335H10.0177H10.2177V10.5335V1.96827C10.2177 1.25657 10.7925 0.680835 11.5 0.680835C12.2075 0.680835 12.7823 1.25665 12.7823 1.96827V10.5335Z" fill="#006197" stroke="#BCDDF2" stroke-width="0.4"/>
</svg>
