<svg id="ic_post_test" xmlns="http://www.w3.org/2000/svg" width="44.385" height="45.475" viewBox="0 0 44.385 45.475">
  <path id="Path_31243" data-name="Path 31243" d="M45.042,136.881a2.244,2.244,0,0,1-2.349,1.3c-7.17-.031-6.01-.016-13.18-.016h-.741v15.427a1.812,1.812,0,0,0,2.076,2.062c1.011,0,2.02,0,3.031,0a1.752,1.752,0,1,1-.009,3.494q-10.348,0-20.695,0a1.752,1.752,0,1,1,0-3.494c1.107-.006,2.215.011,3.322-.006a1.711,1.711,0,0,0,1.769-1.715c.014-5.226.006-10.452.006-15.771h-.688c-7.268,0-6.2,0-13.471,0a3.11,3.11,0,0,1-.86-.093,1.715,1.715,0,0,1-1.241-1.815,1.773,1.773,0,0,1,1.612-1.578c.212-.019.427-.008.64-.008,18.363,0,20.064.006,38.427-.016a2.249,2.249,0,0,1,2.349,1.3v.933Z" transform="translate(-1.328 -113.676)" fill="#232837"/>
  <path id="Path_31244" data-name="Path 31244" d="M40.356,3.528H26.9c0,1.713,0,3.4,0,5.084a1.763,1.763,0,0,1-.85,1.62,1.722,1.722,0,0,1-2.634-1.411c-.042-2.389-.03-4.78,0-7.17A1.712,1.712,0,0,1,25.067.005c.174-.011.349,0,.525,0h40c1.561,0,2.179.623,2.179,2.192,0,2.176.009,4.354,0,6.53a1.742,1.742,0,0,1-3.445.394,2.892,2.892,0,0,1-.045-.637c0-1.631,0-3.262,0-4.938H50.839V17.461H40.358V3.528Z" transform="translate(-23.385 0.001)" fill="#232837"/>
</svg>
