<svg width="16" height="18" viewBox="0 0 16 18" fill="none" xmlns="http://www.w3.org/2000/svg">
<path d="M13.9472 7.28194L4.37397 1.33542C3.68137 0.905741 2.84399 0.887876 2.13394 1.28763C1.4239 1.68732 1 2.41533 1 3.2349V15.0738C1 16.313 1.99088 17.3266 3.20875 17.3333C3.21207 17.3333 3.2154 17.3333 3.21866 17.3333C3.59925 17.3333 3.99585 17.2131 4.36628 16.9853C4.66427 16.8021 4.75845 16.4102 4.57664 16.1099C4.39483 15.8096 4.00582 15.7147 3.70793 15.8979C3.53466 16.0044 3.36545 16.0595 3.21556 16.0595C2.75605 16.057 2.26406 15.6603 2.26406 15.0738V3.23493C2.26406 2.88335 2.4459 2.57114 2.75044 2.39967C3.05502 2.2282 3.41418 2.23586 3.7109 2.41996L13.2842 8.36648C13.5719 8.545 13.7366 8.84267 13.7359 9.18318C13.7352 9.52366 13.5693 9.82066 13.28 9.99857L6.35849 14.2691C6.06078 14.4528 5.9672 14.8449 6.14949 15.1449C6.33174 15.4449 6.72084 15.5392 7.01855 15.3555L13.9392 11.0854C14.6019 10.6781 14.9984 9.96798 15 9.18573C15.0016 8.40358 14.6079 7.6918 13.9472 7.28194Z" fill="#006197" stroke="#006197" stroke-width="0.4"/>
</svg>
