<svg xmlns="http://www.w3.org/2000/svg" xmlns:xlink="http://www.w3.org/1999/xlink" width="29" height="28" viewBox="0 0 29 28">
  <defs>
    <clipPath id="clip-path">
      <rect id="Rectangle_5552" data-name="Rectangle 5552" width="22.153" height="23.86" fill="#fff"/>
    </clipPath>
  </defs>
  <g id="ic_placehoher" transform="translate(-1307 -16)">
    <rect id="Rectangle_5551" data-name="Rectangle 5551" width="29" height="28" rx="6" transform="translate(1307 16)" fill="#dff1eb"/>
    <g id="Group_19774" data-name="Group 19774" transform="translate(1310.25 18)" clip-path="url(#clip-path)">
      <path id="Path_35248" data-name="Path 35248" d="M954.2,325.845l-.035-.336a.23.23,0,0,0-.249-.214H953.9l-.336-2.891a1.622,1.622,0,0,0-1.032-1.357l-2.145-.77a.37.37,0,0,0-.465.214l-.012.027-.526-.189a.821.821,0,0,1-.522-.781v-1.327l1.645-.738a2.478,2.478,0,0,0,1.41-2.278V314.8a1.192,1.192,0,0,0,1.146-1.234,1.291,1.291,0,0,0-.238-.753,31.885,31.885,0,0,0,.619-4.6,2.392,2.392,0,0,0-1.528-2.057c-2-.925-4.517-1.2-5.346-2.055h0c-.829.855-3.342,1.13-5.346,2.055a2.392,2.392,0,0,0-1.528,2.057,31.858,31.858,0,0,0,.619,4.6,1.292,1.292,0,0,0-.237.752,1.192,1.192,0,0,0,1.146,1.234v.411a2.477,2.477,0,0,0,1.41,2.278l1.645.739v1.326a.82.82,0,0,1-.522.781l-.526.189-.011-.027a.37.37,0,0,0-.465-.214l-2.144.77a1.621,1.621,0,0,0-1.033,1.357l-.335,2.891h-.02a.229.229,0,0,0-.248.214l-.035.336a.239.239,0,0,0,.2.268l.559.067v.958a.8.8,0,0,0,.764.823h12.222a.8.8,0,0,0,.764-.823v-.958l.559-.067a.239.239,0,0,0,.2-.278Z" transform="translate(-935.493 -304.1)" fill="#f6b47b"/>
      <path id="Path_35249" data-name="Path 35249" d="M945.568,320.575v1.361a.839.839,0,0,1-.371.7,5.056,5.056,0,0,0,4.954-2.066Z" transform="translate(-936.783 -306.486)" fill="#e2a071"/>
      <path id="Path_35250" data-name="Path 35250" d="M953.64,308.213a2.393,2.393,0,0,0-1.528-2.057c-2-.925-4.517-1.2-5.346-2.055h0c-.829.855-3.341,1.13-5.346,2.055a2.394,2.394,0,0,0-1.528,2.057,40.785,40.785,0,0,0,.764,5.348h12.221a40.816,40.816,0,0,0,.763-5.348Z" transform="translate(-935.689 -304.1)" fill="#9d6e48"/>
      <path id="Path_35251" data-name="Path 35251" d="M946.764,304.1h0c-.829.855-3.341,1.13-5.346,2.055a2.394,2.394,0,0,0-1.528,2.057,40.785,40.785,0,0,0,.764,5.348h3.438v-3.7c0-2.742,2.673-4.045,2.673-5.759h0Z" transform="translate(-935.689 -304.1)" fill="#8d5f3d"/>
      <path id="Path_35252" data-name="Path 35252" d="M953.635,325.143a1.622,1.622,0,0,0-1.033-1.357l-2.145-.77a.371.371,0,0,0-.465.214,9.736,9.736,0,0,1-3.352,4.175,9.737,9.737,0,0,1-3.352-4.175.371.371,0,0,0-.466-.214l-2.144.77a1.622,1.622,0,0,0-1.033,1.357l-.364,3.13,3.157.366V330.7h8.4v-2.057l3.156-.366Z" transform="translate(-935.565 -306.836)" fill="#4f6e7f"/>
      <path id="Path_35253" data-name="Path 35253" d="M952.212,313.233v-.823a1.987,1.987,0,0,0-1.909-2.058h-6.875a1.988,1.988,0,0,0-1.91,2.058v.823a1.237,1.237,0,0,0,0,2.468v.411a2.478,2.478,0,0,0,1.411,2.278l2.471,1.11a3.568,3.568,0,0,0,2.938,0l2.468-1.107a2.477,2.477,0,0,0,1.41-2.278V315.7a1.237,1.237,0,0,0,0-2.468Z" transform="translate(-935.789 -305.005)" fill="#fdc88e"/>
      <path id="Path_35254" data-name="Path 35254" d="M945.084,315.436a.4.4,0,0,1-.382-.411v-.411a.383.383,0,1,1,.764,0v.411a.4.4,0,0,1-.382.411Z" transform="translate(-936.681 -305.563)" fill="#623f33"/>
      <path id="Path_35255" data-name="Path 35255" d="M951.818,315.436a.4.4,0,0,1-.382-.411v-.411a.383.383,0,1,1,.764,0v.411a.4.4,0,0,1-.382.411Z" transform="translate(-938.068 -305.563)" fill="#623f33"/>
      <path id="Path_35256" data-name="Path 35256" d="M948.054,318.814a3.013,3.013,0,0,1-1.743-.493.431.431,0,0,1-.1-.572.365.365,0,0,1,.53-.109,2.628,2.628,0,0,0,2.626,0,.366.366,0,0,1,.531.109.432.432,0,0,1-.1.572,3.008,3.008,0,0,1-1.744.493Z" transform="translate(-936.978 -306.05)" fill="#e2a071"/>
      <path id="Path_35257" data-name="Path 35257" d="M943.523,317.545a2.013,2.013,0,0,1-.477-1.318V310.4a2.026,2.026,0,0,0-1.528,2.016v.823a1.237,1.237,0,0,0,0,2.468v.411a2.477,2.477,0,0,0,1.411,2.278L945.4,319.5a3.485,3.485,0,0,0,.368.141,16.344,16.344,0,0,1-2.242-2.1Z" transform="translate(-935.789 -305.013)" fill="#f6b47b"/>
      <path id="Path_35258" data-name="Path 35258" d="M942.431,329.175v-.931a1.722,1.722,0,0,0-.373-1.078l-2.1-2.613a1.7,1.7,0,0,0-.318.815l-.4,3.437C939.846,328.845,941.462,329.049,942.431,329.175Z" transform="translate(-935.555 -307.062)" fill="#33546a"/>
      <path id="Path_35259" data-name="Path 35259" d="M942.368,329.261l-3.148-.377a.23.23,0,0,0-.248.214l-.035.336a.239.239,0,0,0,.2.268l3.232.387Z" transform="translate(-935.493 -307.689)" fill="#4f6e7f"/>
      <path id="Path_35260" data-name="Path 35260" d="M953.841,329.175v-.931a1.723,1.723,0,0,1,.373-1.078l2.1-2.613a1.718,1.718,0,0,1,.318.815l.4,3.437C956.425,328.845,954.81,329.049,953.841,329.175Z" transform="translate(-938.564 -307.062)" fill="#33546a"/>
      <path id="Path_35261" data-name="Path 35261" d="M953.841,329.261l3.148-.377a.23.23,0,0,1,.248.214l.034.336a.237.237,0,0,1-.2.268l-3.232.387Z" transform="translate(-938.564 -307.689)" fill="#4f6e7f"/>
      <path id="Path_35262" data-name="Path 35262" d="M950.83,310.113a8.995,8.995,0,0,1,2.391,2.674,5.846,5.846,0,0,0-.7-2.674Z" transform="translate(-937.943 -304.971)" fill="#9d6e48"/>
    </g>
  </g>
</svg>
