<svg xmlns="http://www.w3.org/2000/svg" width="13.043" height="13.073" viewBox="0 0 13.043 13.073">
  <g id="ic_property_detail_features" transform="translate(0.147 0.146)">
    <g id="Group_60" data-name="Group 60" transform="translate(0 0.004)">
      <path id="Path_226" data-name="Path 226" d="M0,5.692c.041-.223.076-.448.124-.67A6.362,6.362,0,0,1,5.177.118a6.3,6.3,0,0,1,4.788,1,.494.494,0,0,1,.159.688.488.488,0,0,1-.688.152,5.706,5.706,0,0,0-1.4-.689,5.264,5.264,0,0,0-4.79.739,5.17,5.17,0,0,0-2.1,3.033,5.191,5.191,0,0,0,.73,4.324,5.237,5.237,0,0,0,3.7,2.353,5.27,5.27,0,0,0,3.4-.627,2.175,2.175,0,0,1,.242-.127.494.494,0,0,1,.617.235.478.478,0,0,1-.175.644,8.033,8.033,0,0,1-.841.431,6.126,6.126,0,0,1-2,.482.73.73,0,0,0-.1.02H5.986c-.267-.036-.536-.06-.8-.109a6.392,6.392,0,0,1-5.06-4.9C.077,7.544.042,7.316,0,7.089v-1.4Z" transform="translate(0 -0.004)" fill="#00b0e9"/>
      <path id="Path_227" data-name="Path 227" d="M6.4-.146A6.485,6.485,0,0,1,10.048,1a.646.646,0,0,1,.2.892.638.638,0,0,1-.542.3.657.657,0,0,1-.354-.106,5.648,5.648,0,0,0-1.367-.672A5.817,5.817,0,0,0,6.3,1.151a5.088,5.088,0,0,0-2.972.982A5.025,5.025,0,0,0,1.294,5.078,5.045,5.045,0,0,0,2,9.282,5.09,5.09,0,0,0,5.6,11.57a5.336,5.336,0,0,0,.788.06,5.175,5.175,0,0,0,2.522-.669l.055-.031a1.614,1.614,0,0,1,.2-.1.624.624,0,0,1,.232-.044.651.651,0,0,1,.574.35.626.626,0,0,1-.233.842,8.133,8.133,0,0,1-.857.438,6.3,6.3,0,0,1-2.049.494l-.04.008-.036.009h-.79L5.712,12.9c-.181-.022-.369-.044-.553-.078A6.553,6.553,0,0,1-.02,7.8c-.034-.157-.062-.317-.089-.471-.013-.072-.025-.144-.038-.216V5.662c.013-.071.026-.142.038-.213.027-.151.054-.307.087-.461A6.512,6.512,0,0,1,5.15-.029,6.959,6.959,0,0,1,6.4-.146ZM9.71,1.893a.348.348,0,0,0,.172-.647A6.19,6.19,0,0,0,6.4.154,6.659,6.659,0,0,0,5.2.266,6.182,6.182,0,0,0,.271,5.054c-.032.148-.059.3-.085.449-.012.067-.024.135-.036.2v1.37c.012.068.024.136.036.2.026.151.054.308.086.459a6.25,6.25,0,0,0,4.94,4.78c.176.032.359.054.536.075L6,12.625h.733a.519.519,0,0,1,.092-.017,6,6,0,0,0,1.951-.47,7.839,7.839,0,0,0,.826-.423.326.326,0,0,0,.117-.445.348.348,0,0,0-.307-.187.325.325,0,0,0-.121.023,1.368,1.368,0,0,0-.167.086l-.059.033a5.472,5.472,0,0,1-2.668.707,5.639,5.639,0,0,1-.832-.063,5.379,5.379,0,0,1-3.811-2.42A5.334,5.334,0,0,1,1,5,5.317,5.317,0,0,1,3.156,1.888,5.382,5.382,0,0,1,6.3.851a6.116,6.116,0,0,1,1.775.277,5.928,5.928,0,0,1,1.441.707.358.358,0,0,0,.194.058Z" transform="translate(0 -0.004)" fill="#00b0e9"/>
      <path id="Path_228" data-name="Path 228" d="M134.026,48.932a1.359,1.359,0,0,1-.988-.372c-.857-.811-1.189-1.073-2.045-1.886a.487.487,0,0,1-.153-.53.477.477,0,0,1,.379-.341.511.511,0,0,1,.475.16c.316.3.108.051.425.351l1.565,1.484a.31.31,0,0,0,.533-.033l5.077-6.313a.723.723,0,0,1,.366-.3.5.5,0,0,1,.525.17.49.49,0,0,1,.042.55.937.937,0,0,1-.086.122l-5.186,6.449a1.253,1.253,0,0,1-.929.493Z" transform="translate(-127.545 -40.103)" fill="#00b0e9"/>
      <path id="Path_229" data-name="Path 229" d="M133.787,49.092l.011-.024a1.448,1.448,0,0,1-.863-.4c-.421-.4-.719-.667-1.007-.928s-.6-.545-1.039-.958a.65.65,0,0,1,.3-1.127.66.66,0,0,1,.609.2.873.873,0,0,0,.172.148.932.932,0,0,1,.253.2l1.565,1.484a.282.282,0,0,0,.16.095c.051,0,.111-.062.153-.113l5.077-6.313.024-.03a.793.793,0,0,1,.421-.324.679.679,0,0,1,.171-.022.644.644,0,0,1,.564.961,1.084,1.084,0,0,1-.1.142l-5.186,6.449a1.4,1.4,0,0,1-1.039.548Zm-2.468-3.15a.344.344,0,0,0-.07.007.329.329,0,0,0-.266.239.34.34,0,0,0,.113.377c.433.411.738.687,1.033.953s.588.532,1.012.932a1.206,1.206,0,0,0,.886.331h.005a1.112,1.112,0,0,0,.805-.436l5.186-6.449a.778.778,0,0,0,.073-.1.339.339,0,0,0-.03-.383.345.345,0,0,0-.274-.13.379.379,0,0,0-.1.012.528.528,0,0,0-.262.221l-.025.032-5.077,6.313a.5.5,0,0,1-.387.225.539.539,0,0,1-.367-.177l-1.565-1.484a.871.871,0,0,0-.172-.148.936.936,0,0,1-.253-.2.389.389,0,0,0-.265-.135Z" transform="translate(-127.545 -40.103)" fill="#00b0e9"/>
      <path id="Path_230" data-name="Path 230" d="M432.615,178.737a6.389,6.389,0,0,1-1.055,3.415.5.5,0,0,1-.713.178.513.513,0,0,1-.137-.7,10.409,10.409,0,0,0,.573-1.143,5.205,5.205,0,0,0,.175-3.146.5.5,0,0,1,.166-.55.471.471,0,0,1,.516-.062.5.5,0,0,1,.279.346,6.611,6.611,0,0,1,.2,1.665Z" transform="translate(-419.87 -172.262)" fill="#00b0e9"/>
      <path id="Path_231" data-name="Path 231" d="M431.925,176.527a.67.67,0,0,1,.277.063.641.641,0,0,1,.362.444,6.842,6.842,0,0,1,.2,1.554h0v.153a6.566,6.566,0,0,1-1.079,3.494.65.65,0,0,1-.917.224.661.661,0,0,1-.191-.9l.14-.259a7.235,7.235,0,0,0,.426-.867,5.072,5.072,0,0,0,.169-3.058.641.641,0,0,1,.219-.7.626.626,0,0,1,.394-.148Zm.538,2.29v-.084a6.421,6.421,0,0,0-.19-1.623.346.346,0,0,0-.2-.247.322.322,0,0,0-.361.043.345.345,0,0,0-.113.4,5.367,5.367,0,0,1-.18,3.235,7.469,7.469,0,0,1-.443.9c-.047.085-.093.17-.139.256a.366.366,0,0,0,.083.505.352.352,0,0,0,.508-.132,6.27,6.27,0,0,0,1.035-3.253Z" transform="translate(-419.87 -172.262)" fill="#00b0e9"/>
    </g>
  </g>
</svg>
