<svg width="14" height="15" viewBox="0 0 14 15" fill="none" xmlns="http://www.w3.org/2000/svg">
<path d="M6.91378 7.22562C7.38967 7.23271 7.86201 7.14282 8.30195 6.96146C8.74189 6.78009 9.14021 6.51105 9.47257 6.17077C9.81324 5.83878 10.0826 5.44092 10.2641 5.00147C10.4457 4.56202 10.5357 4.09022 10.5286 3.61487C10.5357 3.13952 10.4457 2.66771 10.2641 2.22826C10.0826 1.78882 9.81324 1.39095 9.47257 1.05897C9.13659 0.723242 8.73768 0.456922 8.29864 0.275222C7.8596 0.0935213 7.38902 0 6.91378 0C6.43855 0 5.96797 0.0935213 5.52893 0.275222C5.08989 0.456922 4.69099 0.723242 4.35501 1.05897C4.01434 1.39095 3.745 1.78882 3.56343 2.22826C3.38186 2.66771 3.29188 3.13952 3.29897 3.61487C3.29188 4.09022 3.38186 4.56202 3.56343 5.00147C3.745 5.44092 4.01434 5.83878 4.35501 6.17077C4.68741 6.511 5.08572 6.78001 5.52566 6.96137C5.96559 7.14273 6.43791 7.23264 6.91378 7.22562ZM4.97807 1.67711C5.23227 1.423 5.53411 1.22142 5.86634 1.08389C6.19857 0.946362 6.55468 0.875573 6.91432 0.875573C7.27395 0.875573 7.63005 0.946362 7.96228 1.08389C8.29451 1.22142 8.59635 1.423 8.85056 1.67711C9.11049 1.92677 9.31596 2.2274 9.45407 2.56013C9.59218 2.89286 9.65996 3.25051 9.65315 3.61065C9.65996 3.97078 9.59218 4.32843 9.45407 4.66117C9.31596 4.9939 9.11049 5.29453 8.85056 5.54419C8.59635 5.79829 8.29451 5.99987 7.96228 6.1374C7.63005 6.27493 7.27395 6.34572 6.91432 6.34572C6.55468 6.34572 6.19857 6.27493 5.86634 6.1374C5.53411 5.99987 5.23227 5.79829 4.97807 5.54419C4.71809 5.29456 4.51258 4.99394 4.37447 4.6612C4.23635 4.32846 4.1686 3.97079 4.17548 3.61065C4.1686 3.25051 4.23635 2.89283 4.37447 2.56009C4.51258 2.22735 4.71809 1.92673 4.97807 1.67711Z" fill="#006197"/>
<path d="M13.2457 11.5384C13.2223 11.22 13.1817 10.903 13.1243 10.589C13.0673 10.2678 12.9894 9.95066 12.8909 9.63963C12.791 9.33048 12.6594 9.03248 12.4981 8.75039C12.3394 8.46641 12.1401 8.20702 11.9067 7.98035C11.6621 7.74969 11.3753 7.56845 11.0618 7.4466C10.7156 7.31331 10.3473 7.24673 9.97624 7.2504C9.75985 7.27351 9.55517 7.36013 9.38802 7.49933C9.21167 7.61431 9.00574 7.74723 8.77552 7.89385C8.52661 8.0425 8.26022 8.15977 7.98244 8.243C7.35269 8.45185 6.67224 8.45185 6.0425 8.243C5.76504 8.1598 5.499 8.04252 5.25047 7.89385C5.02237 7.74829 4.81644 7.61537 4.63691 7.49933C4.4698 7.36008 4.2651 7.27345 4.0487 7.2504C3.67623 7.24428 3.30601 7.30908 2.95781 7.44132C2.64249 7.56252 2.35376 7.7438 2.1077 7.97507C1.87424 8.20175 1.67502 8.46114 1.51632 8.74511C1.35508 9.02722 1.22343 9.32522 1.12348 9.63435C1.02507 9.94539 0.947107 10.2625 0.890093 10.5837C0.832535 10.8978 0.791994 11.2147 0.768649 11.5331C0.748584 11.82 0.73908 12.1175 0.73908 12.4192C0.723434 12.7675 0.781142 13.1153 0.908477 13.44C1.03581 13.7647 1.22994 14.0591 1.47831 14.3042C1.99799 14.7784 2.68429 15.0283 3.38762 14.9993H10.6257C11.329 15.0283 12.0153 14.7784 12.535 14.3042C12.7836 14.059 12.9778 13.7645 13.1052 13.4396C13.2325 13.1147 13.2901 12.7667 13.2742 12.4181C13.2742 12.1154 13.2637 11.8179 13.2436 11.532L13.2457 11.5384ZM11.9278 13.6734C11.7514 13.831 11.5455 13.9522 11.3221 14.03C11.0986 14.1079 10.862 14.1408 10.6257 14.127H3.39079C3.15453 14.1408 2.91787 14.1079 2.6944 14.03C2.47094 13.9522 2.26509 13.831 2.0887 13.6734C1.92699 13.5101 1.80171 13.3145 1.72108 13.0994C1.64045 12.8844 1.6063 12.6547 1.62087 12.4255C1.62087 12.1438 1.63038 11.8664 1.64833 11.5995C1.66815 11.313 1.7034 11.0278 1.75393 10.7451C1.80362 10.4596 1.87206 10.1777 1.9588 9.90123C2.03924 9.64979 2.1454 9.4073 2.27561 9.1776C2.39234 8.96773 2.53889 8.77587 2.7107 8.60799C2.87482 8.45538 3.06706 8.33608 3.27674 8.25672C3.49837 8.17182 3.73321 8.12647 3.97055 8.12275C4.00118 8.13963 4.05609 8.17023 4.1448 8.22824C4.32538 8.34639 4.53448 8.48035 4.76469 8.62803C5.07641 8.81699 5.41061 8.96619 5.75948 9.07213C6.56501 9.33756 7.43458 9.33756 8.24011 9.07213C8.58933 8.96622 8.92388 8.81703 9.23595 8.62803C9.47251 8.47719 9.67527 8.34638 9.85585 8.22929C9.94455 8.17127 9.99947 8.13964 10.0301 8.12381C10.2674 8.12756 10.5023 8.1729 10.7239 8.25778C10.9332 8.33731 11.1251 8.45659 11.2889 8.60904C11.4608 8.77686 11.6073 8.96875 11.724 9.17866C11.8542 9.40798 11.9604 9.65012 12.0408 9.90123C12.1279 10.1777 12.1967 10.4596 12.2467 10.7451C12.2971 11.0278 12.3324 11.3131 12.3523 11.5995C12.3713 11.8654 12.3808 12.1428 12.3808 12.4244C12.3954 12.6536 12.3613 12.8833 12.2806 13.0984C12.2 13.3135 12.0747 13.5091 11.913 13.6723L11.9278 13.6734Z" fill="#006197"/>
</svg>
