<svg xmlns="http://www.w3.org/2000/svg" width="21.839" height="21.825" viewBox="0 0 21.839 21.825">
  <g id="ic_property_detail_call" transform="translate(1.415 1.419)">
    <path id="Path_214" data-name="Path 214" d="M0,1.513A1.93,1.93,0,0,1,.626.4,1.76,1.76,0,0,1,1.77,0C3.06,0,4.35-.008,5.639,0A1.7,1.7,0,0,1,7.4,1.708a14.161,14.161,0,0,0,.615,3.843A1.783,1.783,0,0,1,7.64,7.294c-.6.748-1.164,1.526-1.735,2.3a.272.272,0,0,0,0,.236,13.393,13.393,0,0,0,5.527,5.656.582.582,0,0,0,.777-.046c.716-.584,1.46-1.134,2.2-1.686a1.632,1.632,0,0,1,1.417-.268c.659.159,1.312.359,1.979.469a17.612,17.612,0,0,0,1.944.171,1.74,1.74,0,0,1,1.712,1.29,2.21,2.21,0,0,1,.067.581c.006,1.219-.012,2.438.008,3.657A1.766,1.766,0,0,1,20.052,21.5c-.012,0-.023.015-.034.022H18.967c-.069-.011-.137-.024-.206-.032-.779-.088-1.562-.144-2.335-.269A18.806,18.806,0,0,1,10.332,19.1a19.752,19.752,0,0,1-7.3-6.881,19.471,19.471,0,0,1-2.9-8.306C.076,3.468.041,3.016,0,2.564Zm3.71-.319H1.8a.554.554,0,0,0-.6.623A18.511,18.511,0,0,0,2.3,8.01a18.5,18.5,0,0,0,4.965,7.438A18.452,18.452,0,0,0,14.3,19.5a18.418,18.418,0,0,0,5.335.829c.485,0,.7-.185.7-.668V16c0-.468-.189-.675-.653-.679a13.45,13.45,0,0,1-4.027-.65.651.651,0,0,0-.645.123c-.889.682-1.787,1.354-2.678,2.033a.659.659,0,0,1-.762.085,17.391,17.391,0,0,1-3.246-2.122A15.213,15.213,0,0,1,4.615,9.96.664.664,0,0,1,4.7,9.2c.678-.892,1.347-1.791,2.031-2.679a.708.708,0,0,0,.124-.7,13.132,13.132,0,0,1-.632-3.966A.575.575,0,0,0,5.565,1.2H3.715Z" transform="translate(-1.265 -1.265)" fill="#fff"/>
    <path id="Path_215" data-name="Path 215" d="M4-.154c.608,0,1.144,0,1.64,0A1.849,1.849,0,0,1,7.551,1.7a13.952,13.952,0,0,0,.608,3.8,1.92,1.92,0,0,1-.4,1.882c-.5.629-.992,1.29-1.464,1.93l-.263.356a.17.17,0,0,0,.008.084,13.313,13.313,0,0,0,5.46,5.6.679.679,0,0,0,.311.107.463.463,0,0,0,.3-.138c.66-.539,1.354-1.056,2.026-1.555l.181-.135a1.786,1.786,0,0,1,1.542-.294c.21.05.421.106.626.159.439.115.892.233,1.342.308a16.545,16.545,0,0,0,1.82.163l.108.006a1.892,1.892,0,0,1,1.848,1.4,2.313,2.313,0,0,1,.073.621v1.4c0,.738,0,1.5.008,2.251a1.91,1.91,0,0,1-1.58,2h0l-.038.026h-1.12l-.072-.012c-.045-.007-.087-.014-.128-.019-.244-.028-.493-.052-.734-.076-.528-.053-1.074-.107-1.608-.194a19.027,19.027,0,0,1-6.143-2.136A19.979,19.979,0,0,1,2.9,12.3,19.706,19.706,0,0,1-.023,3.935c-.036-.317-.064-.639-.091-.95q-.018-.2-.036-.408V1.483A2.065,2.065,0,0,1,.53.288,1.915,1.915,0,0,1,1.77-.15h.351Zm7.815,15.913a.933.933,0,0,1-.456-.144A13.608,13.608,0,0,1,5.772,9.9a.411.411,0,0,1,.012-.4l.267-.362c.474-.642.963-1.306,1.471-1.94a1.639,1.639,0,0,0,.35-1.6A14.246,14.246,0,0,1,7.25,1.714,1.56,1.56,0,0,0,5.638.151C5.142.147,4.607.146,4,.146H1.77A1.6,1.6,0,0,0,.721.52,1.749,1.749,0,0,0,.15,1.53V2.557l.036.4c.027.31.055.63.09.943a19.408,19.408,0,0,0,2.879,8.243,19.683,19.683,0,0,0,7.25,6.83,18.728,18.728,0,0,0,6.046,2.1c.525.085,1.066.139,1.59.191.242.024.492.049.738.077.05.006.1.014.144.021l.056.009h.992a.178.178,0,0,1,.056-.02,1.616,1.616,0,0,0,1.36-1.7c-.012-.752-.01-1.517-.008-2.257v-1.4a2.028,2.028,0,0,0-.062-.542,1.588,1.588,0,0,0-1.575-1.181l-.108-.006a16.771,16.771,0,0,1-1.853-.167c-.463-.077-.924-.2-1.369-.313-.2-.053-.414-.108-.62-.158a1.489,1.489,0,0,0-1.292.243l-.181.135c-.669.5-1.36,1.013-2.015,1.547a.756.756,0,0,1-.489.207ZM2.562,1.042h3a.725.725,0,0,1,.807.8,13.044,13.044,0,0,0,.625,3.92.854.854,0,0,1-.148.841c-.41.533-.822,1.08-1.221,1.609q-.4.536-.809,1.07a.516.516,0,0,0-.067.6,15.01,15.01,0,0,0,3.676,4.785,17.167,17.167,0,0,0,3.218,2.1.506.506,0,0,0,.6-.071q.576-.44,1.155-.876c.5-.378,1.017-.769,1.522-1.157a.8.8,0,0,1,.782-.147,13.365,13.365,0,0,0,3.983.643.721.721,0,0,1,.8.829q0,1.828,0,3.657a.725.725,0,0,1-.832.818h-.02a18.647,18.647,0,0,1-5.379-.836,18.675,18.675,0,0,1-7.1-4.082A18.71,18.71,0,0,1,1.048,1.819a.784.784,0,0,1,.192-.56.751.751,0,0,1,.56-.214C2.022,1.043,2.265,1.042,2.562,1.042Zm1.15.3H1.8a.456.456,0,0,0-.34.12.488.488,0,0,0-.11.351A18.41,18.41,0,0,0,7.36,15.338a18.377,18.377,0,0,0,6.987,4.016,18.348,18.348,0,0,0,5.292.822h.017c.4,0,.532-.131.532-.518V16c0-.392-.127-.526-.5-.529a13.665,13.665,0,0,1-4.072-.657.5.5,0,0,0-.507.1c-.506.389-1.024.78-1.524,1.158l-1.154.875a.81.81,0,0,1-.922.1,17.462,17.462,0,0,1-3.273-2.141,15.3,15.3,0,0,1-3.75-4.878.813.813,0,0,1,.1-.922q.406-.533.808-1.069c.4-.529.811-1.076,1.222-1.611a.556.556,0,0,0,.1-.567,13.343,13.343,0,0,1-.639-4.01c0-.363-.145-.5-.508-.506H4.336Z" transform="translate(-1.265 -1.265)" fill="#fff"/>
  </g>
</svg>
