<svg xmlns="http://www.w3.org/2000/svg" width="375" height="230" viewBox="0 0 375 230"><g transform="translate(24193 19978)"><rect width="375" height="230" transform="translate(-24193 -19978)" fill="#f6f5f7"/><g transform="translate(-24104.02 -19939.619)"><g transform="translate(34.02 12.62)"><path d="M34.02,79.219H53.608L98.9,33.95V12.62Z" transform="translate(-34.02 -12.62)" fill="#d2d1d1"/><path d="M479.64,61.3V17.408H464.656v28.5L432.22,12.62V33.95l45.294,45.269H497.1Z" transform="translate(-367.338 -12.62)" fill="#d2d1d1"/></g><g transform="translate(34.02 85.756)"><path d="M34.02,461.48h4.766v18.336h9.2V461.48h4.7V505.7h-4.7V484.121h-9.2V505.7H34.02Z" transform="translate(-34.02 -461.48)" fill="#d2d1d1"/><path d="M196.742,535.41v16.778c0,5.828-2.442,8.766-7.373,8.766-5.179,0-7.064-3.287-7.064-8.718V535.41c0-5.627,2.592-8.61,7.274-8.61C194.5,526.8,196.742,530.189,196.742,535.41Zm-10.817-.148V552.5c0,3.786,1.344,5.23,3.585,5.23,2.342,0,3.587-1.446,3.587-5.38V535.262c0-3.532-1.2-5.23-3.636-5.23-2.384.007-3.53,1.6-3.53,5.236Z" transform="translate(-158.135 -516.157)" fill="#d2d1d1"/><path d="M298.943,529.56v25.853c0,2.74.947,4.636,3.486,4.636s3.386-1.795,3.386-4.583V529.56H309.4v25.752c0,5.13-2.342,7.969-7.064,7.969-4.583,0-6.923-2.59-6.923-7.87V529.56Z" transform="translate(-252.815 -518.467)" fill="#d2d1d1"/><path d="M404.405,551.166v1.943c0,3.137,1.1,4.782,3.437,4.782,2.391,0,3.287-1.7,3.287-5.38,0-3.885-.848-5.38-4.334-8.12-3.587-2.79-5.38-4.484-5.38-9.365,0-4.232,1.3-8.27,6.475-8.219,4.98,0,6.276,3.287,6.276,7.521v1.545h-3.532v-1.446c0-2.74-.5-4.532-2.79-4.532s-2.89,1.987-2.89,4.583c0,3.091.647,4.283,3.687,6.574,4.636,3.488,6.078,5.479,6.078,10.959,0,4.682-1.344,8.967-6.974,8.967-5.329,0-6.875-3.532-6.875-7.921v-1.894Z" transform="translate(-341.095 -516.162)" fill="#d2d1d1"/><path d="M518.559,546.744h-7.473v12.85h8.468l-.442,3.239H507.55V529.56h11.407v3.289h-7.87v10.61h7.473Z" transform="translate(-430.394 -518.467)" fill="#d2d1d1"/><path d="M612.789,461.48v34.355c0,3.64,1.258,6.155,4.636,6.155s4.5-2.384,4.5-6.091V461.48h4.766V495.7c0,6.819-3.111,10.6-9.4,10.6-6.091,0-9.2-3.444-9.2-10.46V461.48Z" transform="translate(-514.55 -461.48)" fill="#d2d1d1"/><path d="M749.99,533.12h5.983c4.824,0,7.113,2.428,7.113,7.7V542.8c0,4.872-1.462,8.477-7.356,8.477H753.5v14.372h-3.508V533.12Zm3.508,15.25h1.9c3.7,0,4.238-2.241,4.238-5.6v-1.744c0-2.632-.585-4.969-3.947-4.969H753.5v12.327Z" transform="translate(-633.331 -521.446)" fill="#d2d1d1"/></g><g transform="translate(160.325 127.338)"><path d="M812.5,718.281a1.654,1.654,0,1,1-1.649-1.609,1.618,1.618,0,0,1,1.649,1.609Zm-2.9,0a1.247,1.247,0,0,0,1.256,1.285,1.287,1.287,0,0,0,0-2.572,1.252,1.252,0,0,0-1.256,1.287Zm.991.843h-.373v-1.609a3.3,3.3,0,0,1,.618-.049,1,1,0,0,1,.558.117.442.442,0,0,1,.157.353.413.413,0,0,1-.333.373v.02a.475.475,0,0,1,.3.393,1.157,1.157,0,0,0,.119.4h-.4a1.4,1.4,0,0,1-.128-.393c-.029-.177-.126-.256-.333-.256h-.177v.649Zm0-.912h.177c.208,0,.373-.068.373-.236s-.108-.247-.344-.247a.907.907,0,0,0-.208.02v.464Z" transform="translate(-809.19 -716.671)" fill="#d2d1d1"/></g><g transform="translate(34.521 134.152)"><path d="M37.09,759.58h3.219c1.861,0,2.578.556,2.578,1.72a1.44,1.44,0,0,1-1.36,1.51v.026a1.649,1.649,0,0,1,1.614,1.662c0,1.02-.746,1.9-2.6,1.9H37.09Zm.982,2.87h2.51c.821,0,1.325-.311,1.325-1.037,0-.634-.311-1.057-1.651-1.057H38.075Zm0,3.172h2.351c1.325,0,1.68-.519,1.68-1.179,0-.784-.539-1.219-1.737-1.219H38.072Z" transform="translate(-37.09 -759.403)" fill="#d2d1d1"/><path d="M99.6,759.58h.971v4.071a3.183,3.183,0,0,1-6.345,0V759.58h.982V763.7a2.192,2.192,0,0,0,4.382,0Z" transform="translate(-84.925 -759.403)" fill="#d2d1d1"/><path d="M152.639,766.393v-2.844l-3.239-3.974h1.265l2.464,3.155,2.466-3.163h1.265l-3.239,3.974v2.843Z" transform="translate(-131.101 -759.399)" fill="#d2d1d1"/><path d="M241.569,770.01a1.709,1.709,0,1,1-1.709,1.709,1.709,1.709,0,0,1,1.709-1.709Z" transform="translate(-206.821 -768.133)" fill="#d2d1d1"/><path d="M313.876,760.461c-.095-.954-1.066-1.219-2.172-1.219-.974,0-1.795.481-1.795,1.236,0,.369.221.746,1.066.883l2.541.441c1.1.19,1.614.821,1.614,1.662,0,1.36-1.219,2.181-3.239,2.181-1.936,0-3.058-.72-3.181-2.219h1.04c.029.916.905,1.446,2.208,1.446,1.415,0,2.208-.556,2.208-1.3,0-1.887-5.223-.179-5.223-3.031,0-1.313,1.1-2.068,2.974-2.068,1.415,0,2.918.424,3.013,1.987Z" transform="translate(-264.452 -758.472)" fill="#d2d1d1"/><path d="M367.522,759.58h5.1v.773H368.5V762.5h3.854v.775H368.5v2.342h4.23v.775H367.52V759.58Z" transform="translate(-313.681 -759.403)" fill="#d2d1d1"/><path d="M420.44,759.58h.982v6.042h3.927v.775h-4.91Z" transform="translate(-357.978 -759.403)" fill="#d2d1d1"/><path d="M468.37,759.58h.982v6.042h3.93v.775H468.37Z" transform="translate(-398.097 -759.403)" fill="#d2d1d1"/><path d="M545.7,770.01a1.709,1.709,0,1,1-1.709,1.709A1.709,1.709,0,0,1,545.7,770.01Z" transform="translate(-461.396 -768.133)" fill="#d2d1d1"/><path d="M615.5,766.4h-.982V759.58h3.351c2.106,0,2.579.709,2.579,1.8a1.627,1.627,0,0,1-1.559,1.587v.018c.916.115,1.161.484,1.34,1.634a8.206,8.206,0,0,0,.386,1.766h-1.04c-.179-.484-.285-1.435-.464-2.208-.115-.49-.442-.841-1.72-.841h-1.9v3.04Zm0-3.815h2.236c1.037,0,1.671-.245,1.671-1.1,0-.83-.453-1.1-1.651-1.1H615.5Z" transform="translate(-520.434 -759.403)" fill="#d2d1d1"/><path d="M671.652,759.58h5.1v.773h-4.106V762.5H676.5v.775h-3.854v2.342h4.23v.775H671.65V759.58Z" transform="translate(-568.256 -759.403)" fill="#d2d1d1"/><path d="M728.827,759.58h.98V766.4h-1.34L724.3,760.58h-.02V766.4h-.982V759.58h1.34l4.172,5.817h.02V759.58Z" transform="translate(-611.477 -759.403)" fill="#d2d1d1"/><path d="M781.882,760.41H778.99v-.83h6.76v.83h-2.89V766.4h-.978Z" transform="translate(-658.105 -759.403)" fill="#d2d1d1"/></g></g></g></svg>