<svg xmlns="http://www.w3.org/2000/svg" width="44.975" height="44.975" viewBox="0 0 44.975 44.975">
  <path id="ic_post_video" d="M4.249,11A2.255,2.255,0,0,0,2,13.244V42.478a4.511,4.511,0,0,0,4.5,4.5H35.731a2.249,2.249,0,0,0,0-4.5H8.746A2.255,2.255,0,0,1,6.5,40.229V13.244A2.255,2.255,0,0,0,4.249,11ZM42.478,2H15.493A4.511,4.511,0,0,0,11,6.5V33.483a4.511,4.511,0,0,0,4.5,4.5H42.478a4.511,4.511,0,0,0,4.5-4.5V6.5A4.511,4.511,0,0,0,42.478,2ZM24.488,30.109V9.871l12.3,9.22a1.116,1.116,0,0,1,0,1.8Z" transform="translate(-2 -2)" fill="#232837"/>
</svg>
