<svg xmlns="http://www.w3.org/2000/svg" width="15.218" height="14.709" viewBox="0 0 15.218 14.709">
  <g id="ic_property_bath" transform="translate(0.098 0.101)">
    <g id="Group_54" data-name="Group 54">
      <path id="Path_190" data-name="Path 190" d="M14.974,8.269A.986.986,0,0,1,14.322,9c-.036.012-.061.08-.074.127q-.373,1.262-.741,2.525a2.143,2.143,0,0,1-1.363,1.49,6.243,6.243,0,0,1-.7.175c.007.015.02.053.038.089.106.208.216.413.318.623a.3.3,0,0,1-.137.446.318.318,0,0,1-.42-.176c-.155-.3-.308-.591-.456-.89a.191.191,0,0,0-.2-.124q-3.111.005-6.222,0a.181.181,0,0,0-.19.114c-.152.307-.308.613-.47.915a.31.31,0,1,1-.548-.288c.1-.2.205-.4.307-.6.021-.041.038-.084.047-.1a7.121,7.121,0,0,1-.771-.213,2.075,2.075,0,0,1-1.269-1.4c-.258-.858-.508-1.718-.76-2.579a.222.222,0,0,0-.149-.168A.9.9,0,0,1-.01,8.019a.917.917,0,0,1,.8-.788,1.956,1.956,0,0,1,.263-.013h12.04c0-.049.005-.085.005-.122V1.211a.558.558,0,0,0-.511-.6.5.5,0,0,0-.42.125c-.266.256-.523.522-.8.8.208.136.168.337.121.549-.1.421-.178.844-.263,1.266a.32.32,0,0,1-.566.171Q9.744,2.611,8.834,1.7a.3.3,0,0,1,.176-.531c.509-.088,1.017-.177,1.53-.24a1.207,1.207,0,0,1,.415.123c.2-.2.443-.435.686-.667a1.208,1.208,0,0,1,1.5-.207,1.094,1.094,0,0,1,.571.877,2.476,2.476,0,0,1,.009.256V7.228h.22a.938.938,0,0,1,1.01.73.185.185,0,0,0,.021.036v.284ZM1.337,9.043l.04.149c.186.632.369,1.265.559,1.9a4.242,4.242,0,0,0,.258.751,1.525,1.525,0,0,0,1.45.837h7.743a1.517,1.517,0,0,0,1.447-1.011c.179-.51.316-1.033.47-1.551.1-.354.208-.708.315-1.071H1.337Zm6.131-.609h6.367a1.494,1.494,0,0,0,.262-.017.282.282,0,0,0,.237-.347c-.032-.158-.15-.243-.358-.246H1.039a.957.957,0,0,0-.189.017.291.291,0,0,0,0,.575,1.532,1.532,0,0,0,.262.018H7.469ZM10.722,2.7c.054-.26.1-.491.148-.723a.148.148,0,0,0-.034-.113c-.1-.1-.2-.2-.3-.291a.127.127,0,0,0-.087-.038c-.248.036-.494.078-.77.123L10.721,2.7Z" transform="translate(0.018 0.008)" fill="#00b0e9"/>
      <path id="Path_191" data-name="Path 191" d="M3.413,14.6a.411.411,0,0,1-.345-.623l.184-.359.118-.229-.131-.032A3.9,3.9,0,0,1,2.7,13.2a2.17,2.17,0,0,1-1.328-1.46c-.219-.729-.436-1.471-.646-2.189L.615,9.16a.125.125,0,0,0-.09-.1A1,1,0,0,1-.109,8.005a1.01,1.01,0,0,1,.887-.873,2.062,2.062,0,0,1,.276-.014H13V1.21a.457.457,0,0,0-.422-.5.406.406,0,0,0-.34.1c-.185.178-.363.358-.551.549l-.166.168a.6.6,0,0,1,.071.577c-.081.359-.155.727-.226,1.083l-.036.181a.42.42,0,0,1-.735.222L10.38,3.37C9.848,2.842,9.3,2.3,8.767,1.757a.421.421,0,0,1-.124-.423A.43.43,0,0,1,9,1.057l.04-.007c.488-.085.993-.172,1.495-.234a.644.644,0,0,1,.315.073l.086.034L11.1.767c.156-.152.316-.31.483-.469a1.366,1.366,0,0,1,.948-.407A1.336,1.336,0,0,1,13.2.076a1.186,1.186,0,0,1,.621.953,2.565,2.565,0,0,1,.009.266q0,1.91,0,3.819v2h.12a1.035,1.035,0,0,1,1.1.8h0l.01.016.014.024v.212H15.1L15.07,8.3a1.08,1.08,0,0,1-.7.789.306.306,0,0,0-.025.066c-.292.989-.528,1.791-.741,2.525a2.244,2.244,0,0,1-1.424,1.555,3.385,3.385,0,0,1-.486.128l-.11.024.1.193c.068.132.139.268.206.4a.45.45,0,0,1,.033.355.424.424,0,0,1-.385.263.443.443,0,0,1-.384-.258c-.178-.339-.324-.622-.457-.892-.028-.057-.046-.069-.107-.069q-3.115,0-6.223,0c-.065,0-.078.012-.1.058-.168.34-.322.64-.472.918a.434.434,0,0,1-.382.245Zm3.6-7.28H1.054A1.889,1.889,0,0,0,.8,7.33a.815.815,0,0,0-.716.7A.8.8,0,0,0,.6,8.871.32.32,0,0,1,.807,9.1l.114.391c.21.717.426,1.459.645,2.187A1.978,1.978,0,0,0,2.777,13.01a3.7,3.7,0,0,0,.509.147c.082.02.167.04.251.063l.113.031-.056.125c-.01.023-.024.057-.041.09l-.123.239c-.062.119-.123.238-.184.358a.206.206,0,0,0,.015.26.2.2,0,0,0,.152.073.237.237,0,0,0,.2-.137c.148-.276.3-.574.469-.912a.28.28,0,0,1,.28-.17h6.222a.291.291,0,0,1,.288.18c.133.268.277.55.455.888a.222.222,0,0,0,.291.132.2.2,0,0,0,.113-.112.257.257,0,0,0-.025-.2c-.066-.134-.136-.27-.2-.4l-.114-.221c-.015-.03-.027-.06-.035-.08l-.006-.014-.047-.109.115-.028c.079-.019.157-.036.233-.052a3.188,3.188,0,0,0,.457-.12,2.053,2.053,0,0,0,1.3-1.424c.214-.734.449-1.536.741-2.525a.266.266,0,0,1,.138-.194.877.877,0,0,0,.583-.642V8.014a.166.166,0,0,1-.017-.036.839.839,0,0,0-.915-.661h-.32V1.3a2.377,2.377,0,0,0-.008-.245,1,1,0,0,0-.521-.8,1.139,1.139,0,0,0-.569-.159,1.17,1.17,0,0,0-.81.351c-.165.158-.326.315-.481.467l-.2.2-.043.042-.057-.018c-.057-.018-.108-.039-.158-.06a.5.5,0,0,0-.215-.059c-.5.061-1,.148-1.485.233l-.04.007a.233.233,0,0,0-.2.141.224.224,0,0,0,.076.222c.533.54,1.08,1.084,1.609,1.611l.215.215a.222.222,0,0,0,.4-.12l.036-.181c.072-.357.146-.726.227-1.087.052-.233.061-.353-.078-.443l-.1-.067.087-.087.243-.245c.189-.192.368-.373.555-.553a.605.605,0,0,1,.5-.152.655.655,0,0,1,.6.7V7.326Zm4.134,5.461h-7.5a1.631,1.631,0,0,1-1.539-.891,3.157,3.157,0,0,1-.218-.606c-.016-.055-.031-.109-.047-.163-.137-.456-.273-.921-.4-1.37L1.282,9.22c-.007-.025-.014-.05-.021-.077H1.172L1.249,9l.068.036h.02V8.943H13.754l-.124.423c-.076.261-.152.519-.228.776-.044.149-.087.3-.13.447-.1.365-.213.743-.342,1.108a1.626,1.626,0,0,1-1.538,1.078c-.08,0-.16,0-.24,0Zm-.348-.2h.582a1.413,1.413,0,0,0,1.355-.944c.126-.36.234-.735.338-1.1.043-.15.086-.3.131-.449.077-.257.152-.515.228-.775l.049-.167H1.468l.006.021.154.527c.132.449.268.913.4,1.369.017.055.032.111.048.166a3.009,3.009,0,0,0,.2.568,1.425,1.425,0,0,0,1.362.783H10.8ZM4.914,8.534h-3.8a1.633,1.633,0,0,1-.279-.019A.391.391,0,0,1,.83,7.743a1.057,1.057,0,0,1,.209-.019H13.978a.411.411,0,0,1,.455.326.382.382,0,0,1-.317.465,1.592,1.592,0,0,1-.279.019Zm8.758-.612H1.039a.856.856,0,0,0-.169.015.192.192,0,0,0-.16.187.189.189,0,0,0,.162.191,1.452,1.452,0,0,0,.245.016H13.836a1.381,1.381,0,0,0,.244-.016.183.183,0,0,0,.157-.228c-.015-.075-.058-.162-.262-.165ZM10.762,3l-.123-.235-.8-.8L9.474,1.6l.4-.065c.194-.032.378-.062.562-.089a.228.228,0,0,1,.17.065c.1.1.206.193.3.3a.248.248,0,0,1,.059.2c-.034.18-.072.361-.112.552ZM9.89,1.729l.089.09.683.684c.039-.187.077-.364.109-.539a.06.06,0,0,0-.009-.027c-.092-.1-.191-.191-.293-.286l-.016-.011c-.178.026-.357.056-.547.086Z" transform="translate(0.018 0.008)" fill="#00b0e9"/>
      <path id="Path_192" data-name="Path 192" d="M62.706,271.208c.157,0,.268.1.325.292.135.459.271.918.4,1.38a.429.429,0,0,0,.383.358.315.315,0,0,1,.3.385.34.34,0,0,1-.413.27.983.983,0,0,1-.882-.727c-.154-.5-.291-1-.429-1.5a.334.334,0,0,1,.324-.457Z" transform="translate(-60.099 -261.768)" fill="#00b0e9"/>
      <path id="Path_193" data-name="Path 193" d="M62.7,271.108h.009a.433.433,0,0,1,.42.364l.044.151c.118.4.241.818.351,1.231a.331.331,0,0,0,.3.285.456.456,0,0,1,.313.175.422.422,0,0,1,.066.326.428.428,0,0,1-.447.357.638.638,0,0,1-.076,0,1.085,1.085,0,0,1-.966-.8c-.142-.456-.27-.924-.394-1.376l-.035-.129a.478.478,0,0,1,.067-.421A.422.422,0,0,1,62.7,271.108Zm1.059,2.69a.228.228,0,0,0,.25-.191.232.232,0,0,0-.031-.175.263.263,0,0,0-.181-.094.527.527,0,0,1-.465-.431c-.11-.41-.232-.825-.35-1.226l-.045-.151c-.057-.2-.159-.219-.231-.22H62.7a.227.227,0,0,0-.186.084.277.277,0,0,0-.033.246l.035.129c.124.451.252.917.392,1.37a.886.886,0,0,0,.8.657l.049,0Z" transform="translate(-60.099 -261.768)" fill="#00b0e9"/>
    </g>
  </g>
</svg>
