<svg width="16" height="16" viewBox="0 0 16 16" fill="none" xmlns="http://www.w3.org/2000/svg">
<mask id="path-1-inside-1_1562_9578" fill="white">
<path d="M13.9684 16.0001C13.7986 15.9807 13.6292 15.9563 13.4588 15.9428C12.2236 15.847 11.0238 15.5847 9.8562 15.1752C8.03249 14.5356 6.39637 13.5732 4.95413 12.2874C2.90648 10.4618 1.46956 8.23962 0.648375 5.62138C0.356794 4.69123 0.165434 3.73948 0.069284 2.77083C0.0213657 2.28494 0.00507977 1.79435 6.87136e-05 1.30564C-0.00713468 0.568036 0.552851 0.00794516 1.28948 0.00387519C2.2635 -0.00144708 3.23784 -0.00113401 4.21186 0.00387519C4.91936 0.00763209 5.46024 0.522953 5.49595 1.22925C5.53228 1.94118 5.57362 2.65217 5.74556 3.34751C5.81666 3.6346 5.89996 3.91856 5.97544 4.20471C6.09007 4.63895 5.98797 5.02215 5.7155 5.37467C5.26669 5.95543 4.82603 6.54213 4.38725 7.1304C4.35969 7.16734 4.35625 7.2503 4.3788 7.29194C4.9607 8.36516 5.65662 9.35198 6.58116 10.1625C7.23353 10.7348 7.95262 11.211 8.71587 11.6215C8.75596 11.6431 8.83833 11.6324 8.87622 11.6039C9.48037 11.1515 10.0798 10.6929 10.6821 10.238C11.01 9.99033 11.3749 9.92553 11.7736 10.0232C12.2878 10.1491 12.7989 10.294 13.3195 10.3832C13.7535 10.4578 14.1989 10.4916 14.6399 10.4944C15.3073 10.4985 15.8616 10.9283 15.9785 11.5538C15.9813 11.5682 15.9929 11.5811 16.0001 11.5948V14.9069C15.9114 15.1028 15.8447 15.3129 15.7295 15.4914C15.5403 15.7841 15.2328 15.9146 14.9061 16.0004H13.9684V16.0001ZM2.7502 0.896764V0.897391C2.26569 0.897391 1.7815 0.893947 1.29699 0.898956C1.04487 0.901461 0.89329 1.06238 0.892977 1.31441C0.890785 2.2433 0.985368 3.16249 1.17297 4.07197C1.48209 5.57003 2.02454 6.97918 2.80532 8.29535C3.99702 10.3043 5.59147 11.9198 7.59151 13.1248C9.75973 14.4313 12.1159 15.0894 14.6496 15.1038C14.9477 15.1053 15.104 14.9595 15.1047 14.6602C15.1068 13.7231 15.1065 12.7858 15.1047 11.8487C15.104 11.5473 14.9615 11.412 14.6546 11.3957C14.2806 11.376 13.9058 11.36 13.5334 11.3218C12.8854 11.2555 12.2524 11.1118 11.6336 10.9086C11.4538 10.8494 11.3056 10.886 11.1553 11.0016C10.4951 11.5091 9.82738 12.0068 9.1653 12.5118C8.9921 12.644 8.81264 12.6872 8.61439 12.5851C7.59684 12.061 6.64286 11.4439 5.8035 10.6597C4.82165 9.74301 4.07312 8.6557 3.45425 7.47071C3.32804 7.22901 3.33587 7.02614 3.50311 6.80887C4.0108 6.14891 4.50846 5.48112 5.01269 4.81897C5.11918 4.67933 5.1505 4.53657 5.09632 4.36689C4.78375 3.38978 4.62027 2.38857 4.61494 1.36168C4.61338 1.04172 4.45897 0.89833 4.14108 0.897391C3.67756 0.895825 3.21404 0.897078 2.75051 0.897078L2.7502 0.896764Z"/>
</mask>
<path d="M13.9684 16.0001C13.7986 15.9807 13.6292 15.9563 13.4588 15.9428C12.2236 15.847 11.0238 15.5847 9.8562 15.1752C8.03249 14.5356 6.39637 13.5732 4.95413 12.2874C2.90648 10.4618 1.46956 8.23962 0.648375 5.62138C0.356794 4.69123 0.165434 3.73948 0.069284 2.77083C0.0213657 2.28494 0.00507977 1.79435 6.87136e-05 1.30564C-0.00713468 0.568036 0.552851 0.00794516 1.28948 0.00387519C2.2635 -0.00144708 3.23784 -0.00113401 4.21186 0.00387519C4.91936 0.00763209 5.46024 0.522953 5.49595 1.22925C5.53228 1.94118 5.57362 2.65217 5.74556 3.34751C5.81666 3.6346 5.89996 3.91856 5.97544 4.20471C6.09007 4.63895 5.98797 5.02215 5.7155 5.37467C5.26669 5.95543 4.82603 6.54213 4.38725 7.1304C4.35969 7.16734 4.35625 7.2503 4.3788 7.29194C4.9607 8.36516 5.65662 9.35198 6.58116 10.1625C7.23353 10.7348 7.95262 11.211 8.71587 11.6215C8.75596 11.6431 8.83833 11.6324 8.87622 11.6039C9.48037 11.1515 10.0798 10.6929 10.6821 10.238C11.01 9.99033 11.3749 9.92553 11.7736 10.0232C12.2878 10.1491 12.7989 10.294 13.3195 10.3832C13.7535 10.4578 14.1989 10.4916 14.6399 10.4944C15.3073 10.4985 15.8616 10.9283 15.9785 11.5538C15.9813 11.5682 15.9929 11.5811 16.0001 11.5948V14.9069C15.9114 15.1028 15.8447 15.3129 15.7295 15.4914C15.5403 15.7841 15.2328 15.9146 14.9061 16.0004H13.9684V16.0001ZM2.7502 0.896764V0.897391C2.26569 0.897391 1.7815 0.893947 1.29699 0.898956C1.04487 0.901461 0.89329 1.06238 0.892977 1.31441C0.890785 2.2433 0.985368 3.16249 1.17297 4.07197C1.48209 5.57003 2.02454 6.97918 2.80532 8.29535C3.99702 10.3043 5.59147 11.9198 7.59151 13.1248C9.75973 14.4313 12.1159 15.0894 14.6496 15.1038C14.9477 15.1053 15.104 14.9595 15.1047 14.6602C15.1068 13.7231 15.1065 12.7858 15.1047 11.8487C15.104 11.5473 14.9615 11.412 14.6546 11.3957C14.2806 11.376 13.9058 11.36 13.5334 11.3218C12.8854 11.2555 12.2524 11.1118 11.6336 10.9086C11.4538 10.8494 11.3056 10.886 11.1553 11.0016C10.4951 11.5091 9.82738 12.0068 9.1653 12.5118C8.9921 12.644 8.81264 12.6872 8.61439 12.5851C7.59684 12.061 6.64286 11.4439 5.8035 10.6597C4.82165 9.74301 4.07312 8.6557 3.45425 7.47071C3.32804 7.22901 3.33587 7.02614 3.50311 6.80887C4.0108 6.14891 4.50846 5.48112 5.01269 4.81897C5.11918 4.67933 5.1505 4.53657 5.09632 4.36689C4.78375 3.38978 4.62027 2.38857 4.61494 1.36168C4.61338 1.04172 4.45897 0.89833 4.14108 0.897391C3.67756 0.895825 3.21404 0.897078 2.75051 0.897078L2.7502 0.896764Z" fill="#006197"/>
<path d="M13.9684 16.0001H15.9684V14.2158L14.1956 14.0131L13.9684 16.0001ZM13.4588 15.9428L13.6164 13.949L13.6135 13.9488L13.4588 15.9428ZM9.8562 15.1752L10.5181 13.2879L10.5181 13.2879L9.8562 15.1752ZM4.95413 12.2874L3.6232 13.7802L3.6232 13.7802L4.95413 12.2874ZM0.648375 5.62138L-1.26005 6.21963L-1.25996 6.21991L0.648375 5.62138ZM0.069284 2.77083L-1.92106 2.96712L-1.92094 2.96838L0.069284 2.77083ZM6.87136e-05 1.30564L-1.99984 1.32517L-1.99983 1.32615L6.87136e-05 1.30564ZM1.28948 0.00387519L1.27855 -1.99609L1.27843 -1.99609L1.28948 0.00387519ZM4.21186 0.00387519L4.22248 -1.9961L4.22215 -1.9961L4.21186 0.00387519ZM5.49595 1.22925L3.4985 1.33022L3.49855 1.33118L5.49595 1.22925ZM5.74556 3.34751L3.80404 3.82761L3.8042 3.82827L5.74556 3.34751ZM5.97544 4.20471L4.04159 4.71481L4.04169 4.71518L5.97544 4.20471ZM5.7155 5.37467L4.13308 4.15157L4.13298 4.15171L5.7155 5.37467ZM4.38725 7.1304L5.99029 8.32633L5.99041 8.32617L4.38725 7.1304ZM4.3788 7.29194L2.62013 8.24436L2.62061 8.24525L4.3788 7.29194ZM6.58116 10.1625L7.90008 8.65905L7.89962 8.65865L6.58116 10.1625ZM8.71587 11.6215L9.66461 9.86081L9.66311 9.85999L8.71587 11.6215ZM8.87622 11.6039L7.67743 10.003L7.67439 10.0053L8.87622 11.6039ZM10.6821 10.238L9.47677 8.64198L9.47667 8.64205L10.6821 10.238ZM11.7736 10.0232L11.2976 11.9658L11.2981 11.9659L11.7736 10.0232ZM13.3195 10.3832L13.6578 8.41207L13.6574 8.41199L13.3195 10.3832ZM14.6399 10.4944L14.6271 12.4943L14.6277 12.4943L14.6399 10.4944ZM15.9785 11.5538L14.0124 11.921L14.014 11.9295L14.0157 11.938L15.9785 11.5538ZM16.0001 11.5948H18.0001V11.1035L17.7724 10.6681L16.0001 11.5948ZM16.0001 14.9069L17.8224 15.731L18.0001 15.3381V14.9069H16.0001ZM15.7295 15.4914L17.4092 16.5769L17.4095 16.5764L15.7295 15.4914ZM14.9061 16.0004V18.0004H15.1643L15.4141 17.9348L14.9061 16.0004ZM13.9684 16.0004H11.9684V18.0004H13.9684V16.0004ZM2.7502 0.896764L4.16388 -0.517987L0.750201 -3.92906V0.896764H2.7502ZM2.7502 0.897391V2.89739H4.7502V0.897391H2.7502ZM1.29699 0.898956L1.31686 2.89886L1.31767 2.89885L1.29699 0.898956ZM0.892977 1.31441L2.89297 1.31913L2.89298 1.31689L0.892977 1.31441ZM1.17297 4.07197L-0.785793 4.47601L-0.785765 4.47615L1.17297 4.07197ZM2.80532 8.29535L4.52547 7.275L4.52543 7.27493L2.80532 8.29535ZM7.59151 13.1248L8.62371 11.4118L8.62365 11.4117L7.59151 13.1248ZM14.6496 15.1038L14.6382 17.1038L14.6391 17.1038L14.6496 15.1038ZM15.1047 14.6602L13.1047 14.6555L13.1047 14.656L15.1047 14.6602ZM15.1047 11.8487L17.1047 11.8447V11.8446L15.1047 11.8487ZM14.6546 11.3957L14.7605 9.39853L14.7599 9.3985L14.6546 11.3957ZM13.5334 11.3218L13.7374 9.33228L13.7372 9.33225L13.5334 11.3218ZM11.6336 10.9086L11.0083 12.8083L11.0097 12.8088L11.6336 10.9086ZM11.1553 11.0016L9.93666 9.41573L9.93643 9.4159L11.1553 11.0016ZM9.1653 12.5118L7.95239 10.9216L7.95228 10.9217L9.1653 12.5118ZM8.61439 12.5851L7.69863 14.3631L7.69895 14.3633L8.61439 12.5851ZM5.8035 10.6597L7.16894 9.19832L7.16837 9.19779L5.8035 10.6597ZM3.45425 7.47071L1.68143 8.3965L1.68146 8.39656L3.45425 7.47071ZM3.50311 6.80887L5.08797 8.0288L5.08834 8.02832L3.50311 6.80887ZM5.01269 4.81897L3.42238 3.60616L3.42153 3.60727L5.01269 4.81897ZM5.09632 4.36689L7.00155 3.75853L7.00123 3.75753L5.09632 4.36689ZM4.61494 1.36168L2.61497 1.37147L2.61497 1.37205L4.61494 1.36168ZM4.14108 0.897391L4.13433 2.89738L4.13517 2.89738L4.14108 0.897391ZM2.75051 0.897078L1.33684 2.31183L1.92253 2.89708H2.75051V0.897078ZM14.1956 14.0131C14.1062 14.0028 13.8306 13.966 13.6164 13.949L13.3013 17.9366C13.4278 17.9466 13.4911 17.9586 13.7412 17.9872L14.1956 14.0131ZM13.6135 13.9488C12.5616 13.8672 11.532 13.6435 10.5181 13.2879L9.19427 17.0625C10.5155 17.5259 11.8856 17.8268 13.3042 17.9368L13.6135 13.9488ZM10.5181 13.2879C8.93971 12.7343 7.53117 11.9054 6.28505 10.7945L3.6232 13.7802C5.26158 15.2409 7.12526 16.3368 9.19429 17.0625L10.5181 13.2879ZM6.28506 10.7945C4.50646 9.20883 3.26949 7.29542 2.55671 5.02284L-1.25996 6.21991C-0.330364 9.18382 1.3065 11.7148 3.6232 13.7802L6.28506 10.7945ZM2.5568 5.02312C2.30725 4.22705 2.14254 3.40978 2.0595 2.57328L-1.92094 2.96838C-1.81167 4.06919 -1.59366 5.15541 -1.26005 6.21963L2.5568 5.02312ZM2.05963 2.57454C2.01991 2.17182 2.0047 1.74679 1.99996 1.28513L-1.99983 1.32615C-1.99454 1.84191 -1.97718 2.39805 -1.92106 2.96712L2.05963 2.57454ZM1.99997 1.28611C2.00151 1.44344 1.93666 1.63625 1.78479 1.78914C1.63422 1.94072 1.44824 2.00303 1.30053 2.00384L1.27843 -1.99609C-0.549827 -1.98599 -2.01802 -0.536432 -1.99984 1.32517L1.99997 1.28611ZM1.30041 2.00385C2.26673 1.99857 3.23397 1.99887 4.20158 2.00385L4.22215 -1.9961C3.24171 -2.00114 2.26027 -2.00146 1.27855 -1.99609L1.30041 2.00385ZM4.20124 2.00385C4.06043 2.0031 3.87794 1.94582 3.72542 1.80034C3.57264 1.65461 3.50574 1.47352 3.4985 1.33022L7.4934 1.12828C7.40393 -0.641662 5.98741 -1.98672 4.22248 -1.9961L4.20124 2.00385ZM3.49855 1.33118C3.53396 2.02514 3.57956 2.9198 3.80404 3.82761L7.68708 2.86742C7.56768 2.38455 7.5306 1.85723 7.49335 1.12732L3.49855 1.33118ZM3.8042 3.82827C3.87596 4.11802 3.98925 4.5164 4.04159 4.71481L7.9093 3.69461C7.81068 3.32073 7.75736 3.15118 7.68692 2.86676L3.8042 3.82827ZM4.04169 4.71518C4.02126 4.63781 4.00923 4.51054 4.04285 4.3663C4.07446 4.23073 4.1282 4.15789 4.13308 4.15157L7.29791 6.59777C7.89618 5.82374 8.20389 4.81057 7.9092 3.69424L4.04169 4.71518ZM4.13298 4.15171C3.67362 4.74612 3.22489 5.34364 2.78409 5.93462L5.99041 8.32617C6.42717 7.74061 6.85977 7.16473 7.29801 6.59763L4.13298 4.15171ZM2.78421 5.93446C2.42981 6.4095 2.37692 6.90014 2.3666 7.11218C2.35552 7.33974 2.36905 7.78072 2.62013 8.24436L6.13746 6.33953C6.26561 6.57615 6.31614 6.78806 6.3384 6.91892C6.36249 7.06051 6.3675 7.19093 6.36187 7.30664C6.35627 7.42158 6.33842 7.55816 6.29589 7.70879C6.2569 7.8469 6.17387 8.08026 5.99029 8.32633L2.78421 5.93446ZM2.62061 8.24525C3.27405 9.45039 4.10493 10.6514 5.26269 11.6664L7.89962 8.65865C7.2083 8.05256 6.64736 7.27994 6.13698 6.33864L2.62061 8.24525ZM5.26223 11.666C6.04926 12.3564 6.89909 12.9153 7.76863 13.3829L9.66311 9.85999C9.00616 9.50671 8.41781 9.11323 7.90008 8.65905L5.26223 11.666ZM7.76712 13.3821C8.31127 13.6753 8.82485 13.6417 9.02748 13.6181C9.2562 13.5916 9.673 13.5071 10.078 13.2026L7.67439 10.0053C7.88058 9.85029 8.0735 9.77031 8.19499 9.72886C8.32643 9.68402 8.45148 9.65814 8.56626 9.64481C8.67972 9.63164 8.81973 9.62649 8.97964 9.64477C9.12569 9.66147 9.38103 9.708 9.66461 9.86081L7.76712 13.3821ZM10.075 13.2048C10.6814 12.7508 11.3007 12.2771 11.8875 11.8339L9.47667 8.64205C8.85895 9.10862 8.27937 9.55228 7.67744 10.003L10.075 13.2048ZM11.8874 11.834C11.8265 11.88 11.7199 11.9381 11.5783 11.9652C11.4404 11.9917 11.3383 11.9757 11.2976 11.9658L12.2495 8.08066C11.3064 7.8496 10.3161 8.00809 9.47677 8.64198L11.8874 11.834ZM11.2981 11.9659C11.7176 12.0685 12.3687 12.2494 12.9816 12.3545L13.6574 8.41199C13.2292 8.3386 12.858 8.22958 12.249 8.08054L11.2981 11.9659ZM12.9811 12.3544C13.5387 12.4501 14.0945 12.4909 14.6271 12.4943L14.6527 8.49443C14.3034 8.49219 13.9684 8.46539 13.6578 8.41207L12.9811 12.3544ZM14.6277 12.4943C14.5339 12.4938 14.4046 12.4618 14.279 12.3629C14.149 12.2606 14.0464 12.1028 14.0124 11.921L17.9445 11.1867C17.6333 9.52055 16.174 8.5037 14.6521 8.49442L14.6277 12.4943ZM14.0157 11.938C14.055 12.1386 14.1175 12.2976 14.1673 12.405C14.216 12.5103 14.2636 12.5892 14.2852 12.6242C14.2967 12.6429 14.3063 12.6577 14.3092 12.6623C14.3156 12.6722 14.3095 12.6627 14.3071 12.659C14.3003 12.6483 14.266 12.5947 14.2278 12.5216L17.7724 10.6681C17.7306 10.5881 17.6921 10.5277 17.681 10.5103C17.6765 10.5032 17.6682 10.4904 17.6724 10.4969C17.6732 10.4981 17.6806 10.5096 17.6901 10.525C17.7075 10.5532 17.7512 10.6253 17.7968 10.7237C17.8433 10.8243 17.9034 10.9763 17.9412 11.1697L14.0157 11.938ZM14.0001 11.5948V14.9069H18.0001V11.5948H14.0001ZM14.1778 14.0827C14.1403 14.1655 14.1085 14.2425 14.0861 14.297C14.0597 14.3614 14.0484 14.3896 14.0338 14.4242C14.0063 14.4888 14.0136 14.4617 14.0494 14.4063L17.4095 16.5764C17.5606 16.3426 17.6589 16.1212 17.7157 15.9872C17.8025 15.7827 17.7837 15.8166 17.8224 15.731L14.1778 14.0827ZM14.0497 14.4059C14.1601 14.235 14.2965 14.1326 14.3848 14.0826C14.4554 14.0427 14.4821 14.044 14.3981 14.066L15.4141 17.9348C15.8689 17.8154 16.8004 17.519 17.4092 16.5769L14.0497 14.4059ZM14.9061 14.0004H13.9684V18.0004H14.9061V14.0004ZM15.9684 16.0004V16.0001H11.9684V16.0004H15.9684ZM0.750201 0.896764V0.897391H4.7502V0.896764H0.750201ZM2.7502 -1.10261C2.28489 -1.10261 1.77437 -1.10609 1.27632 -1.10094L1.31767 2.89885C1.78864 2.89398 2.2465 2.89739 2.7502 2.89739V-1.10261ZM1.27713 -1.10095C0.719899 -1.09541 0.0693614 -0.90266 -0.439361 -0.374921C-0.941117 0.145592 -1.10637 0.785793 -1.10702 1.31192L2.89298 1.31689C2.89263 1.59099 2.80333 2.02472 2.44048 2.40114C2.07066 2.78479 1.62197 2.89583 1.31686 2.89886L1.27713 -1.10095ZM-1.10702 1.30969C-1.10954 2.37855 -1.00059 3.43468 -0.785793 4.47601L3.13173 3.66793C2.97133 2.89029 2.89111 2.10805 2.89297 1.31913L-1.10702 1.30969ZM-0.785765 4.47615C-0.432358 6.18883 0.189924 7.80657 1.08522 9.31576L4.52543 7.27493C3.85915 6.1518 3.39654 4.95123 3.1317 3.66779L-0.785765 4.47615ZM1.08518 9.3157C2.44323 11.6052 4.27258 13.4601 6.55937 14.8379L8.62365 11.4117C6.91036 10.3795 5.5508 9.00354 4.52547 7.275L1.08518 9.3157ZM6.55931 14.8379C9.03787 16.3313 11.747 17.0873 14.6382 17.1038L14.661 13.1038C12.4847 13.0914 10.4816 12.5313 8.62371 11.4118L6.55931 14.8379ZM14.6391 17.1038C15.088 17.1061 15.7912 16.9993 16.377 16.4345C16.9734 15.8593 17.1036 15.1432 17.1047 14.6643L13.1047 14.656C13.105 14.4764 13.1568 13.9829 13.6004 13.5551C14.0333 13.1376 14.5093 13.103 14.6601 13.1038L14.6391 17.1038ZM17.1047 14.6648C17.1068 13.7243 17.1065 12.784 17.1047 11.8447L13.1047 11.8528C13.1065 12.7876 13.1068 13.722 13.1047 14.6555L17.1047 14.6648ZM17.1047 11.8446C17.1037 11.4053 16.9979 10.686 16.4036 10.0959C15.8322 9.52869 15.1447 9.41891 14.7605 9.39853L14.5487 13.3929C14.4714 13.3888 14.0087 13.3548 13.5854 12.9346C13.1392 12.4916 13.1049 11.9907 13.1047 11.8529L17.1047 11.8446ZM14.7599 9.3985C14.356 9.3772 14.047 9.36403 13.7374 9.33228L13.3293 13.3114C13.7645 13.356 14.2053 13.3748 14.5493 13.393L14.7599 9.3985ZM13.7372 9.33225C13.2496 9.28231 12.7578 9.17265 12.2574 9.00838L11.0097 12.8088C11.7471 13.0509 12.5212 13.2286 13.3296 13.3114L13.7372 9.33225ZM12.2588 9.00884C11.8828 8.88508 11.444 8.83466 10.9781 8.93105C10.5276 9.02427 10.1806 9.22823 9.93666 9.41573L12.374 12.5874C12.2803 12.6594 12.0826 12.7873 11.7887 12.8481C11.4794 12.9121 11.2045 12.8729 11.0083 12.8083L12.2588 9.00884ZM9.93643 9.4159C9.26856 9.92929 8.64943 10.39 7.95239 10.9216L10.3782 14.1021C11.0053 13.6237 11.7217 13.0888 12.3742 12.5872L9.93643 9.4159ZM7.95228 10.9217C8.03776 10.8565 8.25224 10.7142 8.5843 10.6612C8.94998 10.6029 9.28435 10.6805 9.52984 10.8069L7.69895 14.3633C8.14269 14.5917 8.66591 14.6988 9.21418 14.6113C9.72884 14.5293 10.1196 14.2993 10.3783 14.102L7.95228 10.9217ZM9.53016 10.8071C8.6262 10.3415 7.83791 9.82338 7.16894 9.19832L4.43807 12.1211C5.4478 13.0645 6.56747 13.7805 7.69863 14.3631L9.53016 10.8071ZM7.16837 9.19779C6.39523 8.47597 5.77279 7.58983 5.22705 6.54486L1.68146 8.39656C2.37345 9.72156 3.24807 11.01 4.43864 12.1216L7.16837 9.19779ZM5.22708 6.54491C5.27574 6.63809 5.38831 6.89599 5.36435 7.26146C5.3395 7.64053 5.18357 7.90459 5.08797 8.0288L1.91825 5.58894C1.65541 5.93042 1.41194 6.40455 1.37292 6.9998C1.33479 7.58145 1.50656 8.06163 1.68143 8.3965L5.22708 6.54491ZM5.08834 8.02832C5.59475 7.37001 6.12161 6.66393 6.60386 6.03066L3.42153 3.60727C2.8953 4.2983 2.42684 4.9278 1.91789 5.58942L5.08834 8.02832ZM6.60301 6.03177C6.79959 5.77401 6.99325 5.42448 7.07843 4.98364C7.16511 4.53508 7.11555 4.11557 7.00155 3.75853L3.19109 4.97524C3.13126 4.78789 3.09314 4.52461 3.15108 4.22476C3.20753 3.93262 3.33229 3.72429 3.42238 3.60616L6.60301 6.03177ZM7.00123 3.75753C6.7488 2.96841 6.61915 2.16898 6.61491 1.35131L2.61497 1.37205C2.62138 2.60815 2.81871 3.81115 3.19141 4.97624L7.00123 3.75753ZM6.61492 1.35189C6.61272 0.903021 6.50145 0.166555 5.8871 -0.427665C5.28531 -1.00974 4.56389 -1.10137 4.14699 -1.1026L4.13517 2.89738C4.03616 2.89709 3.55089 2.87763 3.10617 2.44747C2.64888 2.00517 2.6156 1.50038 2.61497 1.37147L6.61492 1.35189ZM4.14784 -1.1026C3.68001 -1.10418 3.20663 -1.10292 2.75051 -1.10292V2.89708C3.22144 2.89708 3.67511 2.89583 4.13433 2.89738L4.14784 -1.1026ZM4.16419 -0.517674L4.16388 -0.517987L1.33653 2.31152L1.33684 2.31183L4.16419 -0.517674Z" fill="#006197" mask="url(#path-1-inside-1_1562_9578)"/>
</svg>
