<svg xmlns="http://www.w3.org/2000/svg" width="22.922" height="19.421" viewBox="0 0 22.922 19.421">
  <g id="ic_professional_meet_virtual" transform="translate(0.249 0.252)">
    <g id="Group_47" data-name="Group 47" transform="translate(0 0.001)">
      <path id="Path_167" data-name="Path 167" d="M0,1.885c.036-.124.07-.249.11-.372A2.169,2.169,0,0,1,2.155.006Q5.672,0,9.182,0a.439.439,0,0,1,.5.433c0,.271-.191.44-.512.441H2.27a1.384,1.384,0,0,0-.808.224A1.232,1.232,0,0,0,.88,2.148Q.87,7.423.876,12.7a.533.533,0,0,0,.013.075H21.543V2.314A1.321,1.321,0,0,0,20.116.879H13.374a1.936,1.936,0,0,1-.24-.005.444.444,0,0,1-.386-.435.444.444,0,0,1,.391-.431,1.573,1.573,0,0,1,.2,0H20.1a2.193,2.193,0,0,1,2.319,2.319q0,7.158,0,14.316a2.175,2.175,0,0,1-1.643,2.2,2.708,2.708,0,0,1-.67.074q-8.9.006-17.8,0A2.186,2.186,0,0,1,.033,17.09.2.2,0,0,0,0,17.037Q0,9.459,0,1.885ZM.876,13.672v2.977a1.316,1.316,0,0,0,1.4,1.393H20.142a1.317,1.317,0,0,0,1.4-1.4v-2.78c0-.063-.008-.126-.012-.194H.876Z" transform="translate(0 -0.001)" fill="#00b0e9"/>
      <path id="Path_168" data-name="Path 168" d="M5.38-.249h3.8a.688.688,0,0,1,.746.682.658.658,0,0,1-.186.48.789.789,0,0,1-.575.213h-6.9a1.13,1.13,0,0,0-.667.18.986.986,0,0,0-.474.841V12.523H21.293V2.314a1.075,1.075,0,0,0-1.177-1.185H13.257a1.235,1.235,0,0,1-.155-.008.691.691,0,0,1-.6-.685.694.694,0,0,1,.61-.677,1.091,1.091,0,0,1,.137-.007H20.1a2.433,2.433,0,0,1,2.569,2.569V16.638a2.439,2.439,0,0,1-1.83,2.446,2.932,2.932,0,0,1-.733.082H2.309A2.425,2.425,0,0,1-.2,17.185l-.007-.01-.042-.063V1.849l.01-.034.031-.109c.025-.088.051-.18.081-.271A2.419,2.419,0,0,1,2.154-.244C3.105-.248,4.13-.249,5.38-.249Zm.344.878H9.166A.316.316,0,0,0,9.387.563.158.158,0,0,0,9.428.438c0-.123-.084-.185-.247-.185H5.38c-1.249,0-2.273,0-3.224,0A1.92,1.92,0,0,0,.347,1.591c-.027.081-.05.164-.075.251L.25,1.92V16.962a.309.309,0,0,1,.026.07A1.94,1.94,0,0,0,2.309,18.67H20.1a2.447,2.447,0,0,0,.607-.066,1.928,1.928,0,0,0,1.456-1.962V2.326A1.939,1.939,0,0,0,20.1.253H13.245a.628.628,0,0,0-.074,0A.2.2,0,0,0,13,.44a.194.194,0,0,0,.168.185.74.74,0,0,0,.091,0h6.859A1.575,1.575,0,0,1,21.8,2.31V13.025H.679l-.036-.208v-.022a.432.432,0,0,1-.012-.1V2.148A1.478,1.478,0,0,1,1.321.895a1.626,1.626,0,0,1,.95-.268ZM.626,13.422H21.764l.016.233v.058c0,.049.008.1.008.153v2.781a1.562,1.562,0,0,1-1.651,1.645H2.278A1.562,1.562,0,0,1,.626,16.649c0-.655,0-1.31,0-1.971Zm20.667.5H1.126v2.726a1.066,1.066,0,0,0,1.153,1.144H20.141a1.067,1.067,0,0,0,1.151-1.146V13.922Z" transform="translate(0 -0.001)" fill="#00b0e9"/>
      <path id="Path_169" data-name="Path 169" d="M158.121,75.345a1.118,1.118,0,0,1-.553.969c-.8.481-1.6.96-2.422,1.4a1.23,1.23,0,0,1-1.812-1.108q-.013-1.324,0-2.648a1.231,1.231,0,0,1,1.832-1.1c.807.436,1.6.907,2.385,1.376a1.206,1.206,0,0,1,.57,1.111Zm-3.914-.071v1.291a.369.369,0,0,0,.581.35q1.122-.635,2.235-1.288a.373.373,0,0,0-.006-.693q-1.1-.646-2.215-1.277a.371.371,0,0,0-.594.349q0,.634,0,1.269Z" transform="translate(-144.358 -68.45)" fill="#00b0e9"/>
      <path id="Path_170" data-name="Path 170" d="M154.56,78.113a1.485,1.485,0,0,1-1.476-1.5c-.009-.88-.009-1.772,0-2.652a1.484,1.484,0,0,1,1.476-1.5,1.51,1.51,0,0,1,.724.187c.808.437,1.608.913,2.381,1.374l.013.008a1.448,1.448,0,0,1,.693,1.324,1.373,1.373,0,0,1-.675,1.184c-.856.515-1.63.976-2.433,1.4a1.482,1.482,0,0,1-.7.18Zm0-5.161a.989.989,0,0,0-.976,1.008c-.009.877-.009,1.766,0,2.643a.975.975,0,0,0,1.444.89c.793-.423,1.561-.881,2.411-1.392a.873.873,0,0,0,.432-.759.959.959,0,0,0-.449-.891l-.013-.008c-.769-.458-1.565-.932-2.363-1.364a1.016,1.016,0,0,0-.486-.127Zm0,4.279a.618.618,0,0,1-.6-.663c0-.3,0-.609,0-.906V74a.613.613,0,0,1,.6-.669.745.745,0,0,1,.37.1c.753.428,1.5.858,2.218,1.278a.664.664,0,0,1,.362.565.655.655,0,0,1-.355.56c-.745.437-1.5.871-2.238,1.29a.713.713,0,0,1-.357.1Zm-.1-1.347v.678c0,.04.009.168.1.168a.22.22,0,0,0,.106-.034c.738-.418,1.489-.85,2.231-1.286.067-.039.108-.088.108-.128s-.044-.093-.114-.134c-.717-.419-1.461-.849-2.213-1.276a.264.264,0,0,0-.122-.04c-.087,0-.1.122-.1.174v1.878Z" transform="translate(-144.358 -68.45)" fill="#00b0e9"/>
      <path id="Path_171" data-name="Path 171" d="M185.1.478a.435.435,0,0,1-.436.445A.445.445,0,0,1,184.229.5.445.445,0,0,1,184.67.05a.435.435,0,0,1,.431.428Z" transform="translate(-173.452 -0.047)" fill="#00b0e9"/>
      <path id="Path_172" data-name="Path 172" d="M184.667-.2h0A.687.687,0,0,1,185.15.969a.677.677,0,0,1-.486.2A.694.694,0,0,1,183.978.5a.7.7,0,0,1,.688-.7Z" transform="translate(-173.452 -0.047)" fill="#00b0e9"/>
      <path id="Path_173" data-name="Path 173" d="M135.43,263.494h5.252a1.949,1.949,0,0,1,.219,0,.436.436,0,0,1,0,.867,1.942,1.942,0,0,1-.219,0h-10.55c-.4,0-.608-.142-.615-.428s.205-.447.617-.447Z" transform="translate(-121.941 -248.079)" fill="#00b0e9"/>
      <path id="Path_174" data-name="Path 174" d="M140.791,263.242a1.194,1.194,0,0,1,.137.007.686.686,0,0,1,0,1.364,1.187,1.187,0,0,1-.137.007H130.132c-.766,0-.86-.47-.865-.672a.637.637,0,0,1,.174-.473.934.934,0,0,1,.693-.231h10.657Zm0,.878a.717.717,0,0,0,.081,0,.186.186,0,0,0,.175-.19.184.184,0,0,0-.173-.181.72.72,0,0,0-.082,0H130.134c-.232,0-.311.056-.335.08a.136.136,0,0,0-.032.111c0,.069,0,.184.365.184h10.657Z" transform="translate(-121.941 -248.079)" fill="#00b0e9"/>
      <path id="Path_175" data-name="Path 175" d="M53.686,251.175a1.313,1.313,0,1,1,1.319-1.3,1.313,1.313,0,0,1-1.319,1.3Zm.442-1.306a.445.445,0,0,0-.419-.443.436.436,0,1,0-.037.872.444.444,0,0,0,.456-.429Z" transform="translate(-49.316 -234.01)" fill="#00b0e9"/>
      <path id="Path_176" data-name="Path 176" d="M53.69,251.425h-.005a1.563,1.563,0,0,1,.009-3.126h.015a1.563,1.563,0,1,1-.019,3.126Zm0-2.626a1.063,1.063,0,0,0-.007,2.126v0A1.063,1.063,0,0,0,53.7,248.8Zm0,1.75h-.029a.687.687,0,1,1,.029,0Zm0-.873a.188.188,0,0,0-.184.182.191.191,0,0,0,.177.191h.007a.187.187,0,1,0,.008-.373Z" transform="translate(-49.316 -234.01)" fill="#00b0e9"/>
    </g>
  </g>
</svg>
