<svg xmlns="http://www.w3.org/2000/svg" width="17.455" height="17.488" viewBox="0 0 17.455 17.488">
  <g id="ic_property_detail_status" transform="translate(0.148 0.146)">
    <g id="Group_64" data-name="Group 64" transform="translate(0 0.004)">
      <path id="Path_240" data-name="Path 240" d="M0,7.66c.055-.3.1-.6.168-.9a8.563,8.563,0,0,1,6.8-6.6,8.476,8.476,0,0,1,6.445,1.35.665.665,0,0,1,.215.926.657.657,0,0,1-.926.2,7.681,7.681,0,0,0-1.89-.928A7.086,7.086,0,0,0,4.364,2.7,6.96,6.96,0,0,0,1.546,6.78a6.987,6.987,0,0,0,.983,5.82,7.049,7.049,0,0,0,4.987,3.167,7.094,7.094,0,0,0,4.583-.844,2.927,2.927,0,0,1,.326-.171.665.665,0,0,1,.83.316.643.643,0,0,1-.235.866,10.813,10.813,0,0,1-1.133.58,8.247,8.247,0,0,1-2.693.649.982.982,0,0,0-.13.027H8.058c-.359-.048-.721-.081-1.077-.146A8.6,8.6,0,0,1,.17,10.458C.1,10.154.056,9.846,0,9.54Z" transform="translate(0 -0.004)" fill="#00b0e9"/>
      <path id="Path_241" data-name="Path 241" d="M8.617-.146A8.678,8.678,0,0,1,13.5,1.384a.818.818,0,0,1,.258,1.13.808.808,0,0,1-.685.385.832.832,0,0,1-.449-.134,7.652,7.652,0,0,0-1.853-.911A7.882,7.882,0,0,0,8.481,1.5a6.9,6.9,0,0,0-4.03,1.327,6.814,6.814,0,0,0-2.76,3.994,6.841,6.841,0,0,0,.962,5.7,6.9,6.9,0,0,0,4.885,3.1,7.235,7.235,0,0,0,1.068.081,7.017,7.017,0,0,0,3.421-.908l.075-.042a2.13,2.13,0,0,1,.268-.137.788.788,0,0,1,.293-.056.824.824,0,0,1,.726.443A.792.792,0,0,1,13.1,16.07a10.9,10.9,0,0,1-1.148.587,8.429,8.429,0,0,1-2.741.661.413.413,0,0,0-.063.013l-.047.011H8.038L7.7,17.3c-.243-.029-.5-.06-.742-.1A8.769,8.769,0,0,1,.023,10.49c-.046-.21-.083-.425-.119-.632-.017-.1-.034-.194-.052-.291V7.633c.018-.1.034-.191.051-.287.036-.2.072-.413.117-.619A8.713,8.713,0,0,1,6.942.01,9.316,9.316,0,0,1,8.617-.146ZM13.07,2.6a.509.509,0,0,0,.431-.244.517.517,0,0,0-.171-.721A8.383,8.383,0,0,0,8.617.154,9.016,9.016,0,0,0,7,.305,8.374,8.374,0,0,0,.314,6.79c-.043.2-.08.41-.114.61-.016.092-.032.184-.049.276V9.527c.017.093.033.186.05.28.036.2.073.415.117.62A8.466,8.466,0,0,0,7.008,16.9c.238.043.485.073.724.1l.336.042h.981l.022,0a.644.644,0,0,1,.115-.021,8.129,8.129,0,0,0,2.643-.637,10.6,10.6,0,0,0,1.117-.572.5.5,0,0,0,.177-.668.521.521,0,0,0-.459-.28.49.49,0,0,0-.182.035,1.879,1.879,0,0,0-.231.118l-.079.044A7.314,7.314,0,0,1,8.606,16a7.538,7.538,0,0,1-1.112-.084A7.191,7.191,0,0,1,2.4,12.688a7.13,7.13,0,0,1-1-5.941A7.106,7.106,0,0,1,4.278,2.582,7.194,7.194,0,0,1,8.481,1.2a8.181,8.181,0,0,1,2.375.371,7.931,7.931,0,0,1,1.927.945.533.533,0,0,0,.287.084Z" transform="translate(0 -0.004)" fill="#00b0e9"/>
      <path id="Path_242" data-name="Path 242" d="M135.137,51.631a1.829,1.829,0,0,1-1.33-.5c-1.154-1.092-1.6-1.445-2.753-2.538a.655.655,0,0,1-.206-.714.642.642,0,0,1,.51-.458.688.688,0,0,1,.639.216c.425.406.146.068.572.473l2.106,2a.418.418,0,0,0,.718-.045l6.834-8.5a.973.973,0,0,1,.493-.409.676.676,0,0,1,.707.229.66.66,0,0,1,.057.74,1.258,1.258,0,0,1-.116.164l-6.981,8.681a1.686,1.686,0,0,1-1.25.663Z" transform="translate(-126.414 -39.747)" fill="#00b0e9"/>
      <path id="Path_243" data-name="Path 243" d="M134.9,51.792l.009-.021a1.915,1.915,0,0,1-1.207-.532c-.567-.536-.968-.9-1.355-1.249s-.811-.733-1.4-1.29a.8.8,0,0,1-.246-.868.788.788,0,0,1,.622-.56.837.837,0,0,1,.773.254c.195.186.225.2.245.209a1.223,1.223,0,0,1,.327.263l1.911,1.812.2.186a.416.416,0,0,0,.252.142c.073,0,.153-.056.246-.172l6.767-8.414.1-.125a1.025,1.025,0,0,1,.539-.419.862.862,0,0,1,.217-.028.815.815,0,0,1,.714,1.217,1.411,1.411,0,0,1-.129.185L136.5,51.063a1.84,1.84,0,0,1-1.361.719Zm-3.409-4.237a.513.513,0,0,0-.1.011.491.491,0,0,0-.4.357.5.5,0,0,0,.166.56c.584.554.995.926,1.392,1.285s.791.715,1.36,1.254a1.693,1.693,0,0,0,1.227.46h.009a1.547,1.547,0,0,0,1.123-.606l6.981-8.681a1.1,1.1,0,0,0,.1-.145.507.507,0,0,0-.044-.573.516.516,0,0,0-.409-.2.563.563,0,0,0-.142.018.76.76,0,0,0-.38.315l-.1.126-6.766,8.414a.626.626,0,0,1-.48.284.678.678,0,0,1-.458-.224l-.2-.186-1.911-1.812c-.2-.185-.227-.2-.246-.208a1.217,1.217,0,0,1-.327-.265.58.58,0,0,0-.393-.184Z" transform="translate(-126.414 -39.747)" fill="#00b0e9"/>
      <path id="Path_244" data-name="Path 244" d="M433.3,179.45a8.6,8.6,0,0,1-1.42,4.6.676.676,0,0,1-.959.24.69.69,0,0,1-.185-.947,14.006,14.006,0,0,0,.772-1.538,7.007,7.007,0,0,0,.235-4.235.671.671,0,0,1,.224-.74.635.635,0,0,1,.694-.083.666.666,0,0,1,.376.465,8.9,8.9,0,0,1,.263,2.241Z" transform="translate(-416.146 -170.734)" fill="#00b0e9"/>
      <path id="Path_245" data-name="Path 245" d="M432.373,176.527a.85.85,0,0,1,.351.08.814.814,0,0,1,.459.563,9.135,9.135,0,0,1,.27,2.13h0v.153a8.787,8.787,0,0,1-1.445,4.676.823.823,0,0,1-1.164.286.839.839,0,0,1-.239-1.145q.093-.174.189-.348a9.781,9.781,0,0,0,.576-1.173,6.879,6.879,0,0,0,.229-4.147.819.819,0,0,1,.277-.893.792.792,0,0,1,.5-.182Zm.776,3.027v-.107a8.7,8.7,0,0,0-.258-2.2.514.514,0,0,0-.293-.367.488.488,0,0,0-.539.064.519.519,0,0,0-.171.587,7.174,7.174,0,0,1-.241,4.324,10,10,0,0,1-.593,1.21c-.063.115-.126.23-.187.345a.542.542,0,0,0,.131.749.525.525,0,0,0,.755-.194A8.489,8.489,0,0,0,433.149,179.554Z" transform="translate(-416.146 -170.734)" fill="#00b0e9"/>
    </g>
  </g>
</svg>
