<svg xmlns="http://www.w3.org/2000/svg" width="23.115" height="23.086" viewBox="0 0 23.115 23.086">
  <g id="ic_property_detail_chat" transform="translate(1.628 1.624)">
    <g id="Group_59" data-name="Group 59" transform="translate(-1.579 -1.574)">
      <path id="Path_216" data-name="Path 216" d="M0,8.224C.073,7.783.111,7.333.225,6.9A8.661,8.661,0,0,1,7.235.175a8.793,8.793,0,1,1,3.45,17.244,8.4,8.4,0,0,1-5.07-.381.3.3,0,0,0-.322.041,4.457,4.457,0,0,1-4.8.292.676.676,0,0,1-.309-1,5.055,5.055,0,0,0,.476-4.29C.423,11.312.26,10.52.068,9.738.038,9.61.023,9.477,0,9.346Zm1.76,8.193a.6.6,0,0,0,.067.028c.043.013.086.026.129.035a3.107,3.107,0,0,0,2.818-.735.787.787,0,0,1,.944-.146,7.217,7.217,0,0,0,4.754.479A7.435,7.435,0,0,0,8.12,1.419,7.3,7.3,0,0,0,2.137,5.562a6.51,6.51,0,0,0-.686,4.13,18.911,18.911,0,0,0,.558,2.142,6.348,6.348,0,0,1,.143,3.34C2.052,15.592,1.894,16,1.76,16.417Z" transform="translate(0 -0.002)" fill="#fff"/>
      <path id="Path_217" data-name="Path 217" d="M8.892-.048a8.691,8.691,0,0,1,4.366,1.2,8.991,8.991,0,0,1,3.254,3.254,8.67,8.67,0,0,1,.5,7.852,8.967,8.967,0,0,1-2.448,3.281,9.205,9.205,0,0,1-3.87,1.925,8.566,8.566,0,0,1-1.946.228,8.655,8.655,0,0,1-3.153-.61.246.246,0,0,0-.276.036,4.719,4.719,0,0,1-2.638.865,4.865,4.865,0,0,1-2.21-.57.8.8,0,0,1-.423-.478.737.737,0,0,1,.094-.593A4.985,4.985,0,0,0,.615,12.1c-.168-.546-.3-1.112-.429-1.66-.053-.225-.107-.458-.164-.686-.022-.1-.038-.19-.052-.282-.006-.04-.012-.079-.019-.118V8.215c.023-.139.043-.282.062-.42A7.826,7.826,0,0,1,.176,6.89,8.7,8.7,0,0,1,7.225.126,8.073,8.073,0,0,1,8.892-.048ZM8.751,17.595a8.466,8.466,0,0,0,1.924-.225,8.924,8.924,0,0,0,6.249-5.149,8.571,8.571,0,0,0-.5-7.762A8.877,8.877,0,0,0,8.892.052,7.97,7.97,0,0,0,7.247.224,8.611,8.611,0,0,0,.273,6.915a7.754,7.754,0,0,0-.161.894c-.019.137-.039.279-.062.418V9.341c.007.039.013.077.019.116a2.713,2.713,0,0,0,.051.269c.056.229.111.462.164.687.128.546.26,1.11.428,1.653A5.08,5.08,0,0,1,.23,16.4a.639.639,0,0,0-.083.513.7.7,0,0,0,.372.416,4.766,4.766,0,0,0,2.165.559,4.621,4.621,0,0,0,2.583-.848.342.342,0,0,1,.368-.046,8.555,8.555,0,0,0,3.116.6ZM8.894,1.327a7.534,7.534,0,0,1,7.291,5.908,7.37,7.37,0,0,1-1.011,5.6,7.537,7.537,0,0,1-4.691,3.293,7.774,7.774,0,0,1-1.731.2A7.256,7.256,0,0,1,5.7,15.643a.872.872,0,0,0-.366-.09.777.777,0,0,0-.524.229,3.123,3.123,0,0,1-2.114.826,3.733,3.733,0,0,1-.747-.079c-.047-.01-.092-.023-.134-.036a.5.5,0,0,1-.061-.025l-.041-.018V16.4c.042-.132.087-.265.131-.393.1-.289.191-.562.26-.847a6.27,6.27,0,0,0-.142-3.314q-.052-.178-.1-.355A15.207,15.207,0,0,1,1.4,9.7a6.543,6.543,0,0,1,.691-4.161,7.341,7.341,0,0,1,6.024-4.17,7.215,7.215,0,0,1,.779-.042Zm-.142,14.9a7.674,7.674,0,0,0,1.709-.2,7.387,7.387,0,0,0-1.566-14.6,7.116,7.116,0,0,0-.769.042A7.246,7.246,0,0,0,2.182,5.585a6.445,6.445,0,0,0-.681,4.1,15.132,15.132,0,0,0,.452,1.781q.053.178.1.356A6.367,6.367,0,0,1,2.2,15.185c-.071.289-.168.577-.263.855-.039.114-.078.232-.116.349l.02.007c.039.012.082.025.125.034a3.633,3.633,0,0,0,.727.077,3.026,3.026,0,0,0,2.048-.8.882.882,0,0,1,.59-.254.969.969,0,0,1,.408.1,7.157,7.157,0,0,0,3.013.673Z" transform="translate(0 -0.002)" fill="#fff"/>
      <path id="Path_218" data-name="Path 218" d="M147.846,147.764c-.225-.047-.453-.085-.675-.142a4.285,4.285,0,0,1-1.5-.694.342.342,0,0,0-.364-.05,8.843,8.843,0,0,1-8.926-1.485.676.676,0,0,1-.26-.776.64.64,0,0,1,.575-.466.756.756,0,0,1,.591.218,7.562,7.562,0,0,0,7.847,1.1.912.912,0,0,1,1.1.159,3.063,3.063,0,0,0,2.834.664.612.612,0,0,0,.086-.024.066.066,0,0,0,.023-.02c-.137-.445-.3-.878-.4-1.325a5.846,5.846,0,0,1,.238-3.414,7.431,7.431,0,0,0-1.121-7.6.7.7,0,0,1,.056-1.018.688.688,0,0,1,1.006.159,8.76,8.76,0,0,1,1.951,4.806c.007.073.026.144.04.216v1.166a1.23,1.23,0,0,0-.036.17,9.077,9.077,0,0,1-.622,2.6,4.365,4.365,0,0,0-.257,2.091,5.167,5.167,0,0,0,.714,2.078.684.684,0,0,1-.288,1.022,3.777,3.777,0,0,1-.654.29c-.363.109-.737.183-1.106.273h-.854Z" transform="translate(-127.933 -124.783)" fill="#fff"/>
      <path id="Path_219" data-name="Path 219" d="M147.874,147.819l-.038-.007-.21-.042c-.154-.03-.313-.061-.468-.1a4.35,4.35,0,0,1-1.514-.7.3.3,0,0,0-.182-.071.406.406,0,0,0-.135.028,10.022,10.022,0,0,1-3.317.6,9.011,9.011,0,0,1-5.656-2.093.726.726,0,0,1-.276-.829.745.745,0,0,1,.7-.506.854.854,0,0,1,.545.234,7.348,7.348,0,0,0,3.435,1.6,7.92,7.92,0,0,0,1.407.13,7.171,7.171,0,0,0,2.954-.636,1.194,1.194,0,0,1,.487-.12,1,1,0,0,1,.666.286,2.934,2.934,0,0,0,1.969.751,3.683,3.683,0,0,0,.821-.1.21.21,0,0,0,.062-.016c-.04-.128-.082-.256-.123-.381a9.317,9.317,0,0,1-.27-.913,5.912,5.912,0,0,1,.24-3.443,7.414,7.414,0,0,0-1.113-7.551.747.747,0,0,1,.064-1.087.718.718,0,0,1,.45-.165.815.815,0,0,1,.626.331,8.848,8.848,0,0,1,1.962,4.832,1.218,1.218,0,0,0,.025.145.312.312,0,0,0,.014.066v1.187a.265.265,0,0,1-.013.054.633.633,0,0,0-.022.109,9.1,9.1,0,0,1-.625,2.615,4.33,4.33,0,0,0-.253,2.067,5.088,5.088,0,0,0,.707,2.058.734.734,0,0,1-.307,1.092,3.814,3.814,0,0,1-.663.293c-.256.077-.52.137-.776.2l-.333.078h-.835Zm-.029-.107h.849l.328-.077c.254-.058.517-.118.769-.194a3.73,3.73,0,0,0,.645-.286.635.635,0,0,0,.268-.953,5.185,5.185,0,0,1-.72-2.1,4.429,4.429,0,0,1,.26-2.114,9,9,0,0,0,.619-2.586.716.716,0,0,1,.024-.126.277.277,0,0,1,.011-.046v-1.156a.309.309,0,0,0-.012-.059,1.315,1.315,0,0,1-.027-.157,8.749,8.749,0,0,0-1.94-4.779.718.718,0,0,0-.549-.294.62.62,0,0,0-.387.143.652.652,0,0,0-.047.948,7.509,7.509,0,0,1,1.128,7.647,5.814,5.814,0,0,0-.236,3.386c.07.3.17.609.267.9.045.136.091.277.135.418l.013.041-.029.014a.1.1,0,0,1-.036.026.661.661,0,0,1-.093.026,3.783,3.783,0,0,1-.844.1,3.031,3.031,0,0,1-2.034-.775.9.9,0,0,0-.6-.262,1.1,1.1,0,0,0-.447.111,7.269,7.269,0,0,1-2.994.645,8.019,8.019,0,0,1-1.425-.131,7.447,7.447,0,0,1-3.481-1.621.7.7,0,0,0-.553-.206.593.593,0,0,0-.534.431.625.625,0,0,0,.243.722,8.913,8.913,0,0,0,5.594,2.072,9.922,9.922,0,0,0,3.284-.595.5.5,0,0,1,.169-.033.394.394,0,0,1,.241.09,4.251,4.251,0,0,0,1.479.686c.152.039.31.07.462.1Z" transform="translate(-127.933 -124.783)" fill="#fff"/>
      <path id="Path_220" data-name="Path 220" d="M64.065,131.984a1.069,1.069,0,1,1,.765-.317,1.069,1.069,0,0,1-.765.317Z" transform="translate(-59.205 -122.048)" fill="#fff"/>
      <path id="Path_221" data-name="Path 221" d="M64.015,132.034h0a1.127,1.127,0,0,1-.759-.329,1.113,1.113,0,0,1-.326-.794,1.13,1.13,0,0,1,1.126-1.131h.008a1.134,1.134,0,0,1,1.125,1.118,1.121,1.121,0,0,1-1.124,1.136Zm.041-2.155a1.029,1.029,0,0,0-1.026,1.031,1.014,1.014,0,0,0,.3.723,1.029,1.029,0,0,0,.734.3H64.1a1.021,1.021,0,0,0,.992-1.035,1.034,1.034,0,0,0-1.026-1.019Z" transform="translate(-59.205 -122.048)" fill="#00b0e9"/>
      <path id="Path_222" data-name="Path 222" d="M130.581,131.984a1.066,1.066,0,0,1-1.081-1.076,1.08,1.08,0,0,1,1.084-1.079,1.092,1.092,0,0,1,1.076,1.07,1.08,1.08,0,0,1-1.079,1.085Z" transform="translate(-121.738 -122.048)" fill="#fff"/>
      <path id="Path_223" data-name="Path 223" d="M130.578,132.034a1.128,1.128,0,1,1,0-2.255h.01a1.141,1.141,0,0,1,1.125,1.12,1.1,1.1,0,0,1-.321.794,1.129,1.129,0,0,1-.807.341Zm0-2.155a1.029,1.029,0,0,0-1.024,1.029,1.016,1.016,0,0,0,1.028,1.026v0a1.03,1.03,0,0,0,.736-.311,1,1,0,0,0,.293-.723,1.041,1.041,0,0,0-1.026-1.021Z" transform="translate(-121.738 -122.048)" fill="#00b0e9"/>
      <path id="Path_224" data-name="Path 224" d="M198.039,130.908a1.064,1.064,0,0,1-1.081,1.076,1.077,1.077,0,1,1,1.08-1.076Z" transform="translate(-184.139 -122.048)" fill="#fff"/>
      <path id="Path_225" data-name="Path 225" d="M196.962,132.034h0a1.131,1.131,0,0,1-.806-.34,1.109,1.109,0,0,1-.323-.795,1.14,1.14,0,0,1,1.125-1.12h.01a1.128,1.128,0,0,1,1.123,1.079h0v.05a1.114,1.114,0,0,1-1.127,1.126Zm0-2.155h-.009a1.039,1.039,0,0,0-1.026,1.021,1.009,1.009,0,0,0,.294.724,1.031,1.031,0,0,0,.736.31v0a1.014,1.014,0,0,0,1.027-1v-.026a1.028,1.028,0,0,0-1.019-1.029Z" transform="translate(-184.139 -122.048)" fill="#00b0e9"/>
    </g>
  </g>
</svg>
