<svg xmlns="http://www.w3.org/2000/svg" width="19.79" height="20.992" viewBox="0 0 19.79 20.992">
  <g id="ic_professional_post" transform="translate(-0.007 0.01)">
    <g id="Group_48" data-name="Group 48" transform="translate(0.008 -0.01)">
      <path id="Path_177" data-name="Path 177" d="M17.076-.009a.731.731,0,0,1,.488.785q-.008,9.34,0,18.68v.3h1.51a1.039,1.039,0,0,1,.283.031.6.6,0,0,1,.435.657.613.613,0,0,1-.558.538H.733c-.436,0-.709-.22-.725-.582a.609.609,0,0,1,.638-.647H2.237V.769A.731.731,0,0,1,2.722-.01H17.076Zm-.763,19.76V1.232H3.482V19.745H6.573V15.059c0-.489.227-.721.709-.721H12.51a.625.625,0,0,1,.713.717v4.7h3.089Zm-8.5-4.175v4.17h4.163v-4.17Z" transform="translate(-0.008 0.01)" fill="#00b0e9"/>
      <path id="Path_178" data-name="Path 178" d="M93.615,53.8H90.727a.629.629,0,0,1-.683-.673q0-1.455,0-2.909a.623.623,0,0,1,.668-.666q1.455-.006,2.909,0a.626.626,0,0,1,.673.683q0,1.444,0,2.888m-3.008-2.331v1.764h1.762V50.794Z" transform="translate(-85.108 -46.836)" fill="#00b0e9"/>
      <path id="Path_179" data-name="Path 179" d="M195.458,53.817h-1.434a.628.628,0,0,1-.681-.676q0-1.455,0-2.909a.623.623,0,0,1,.671-.664h2.909a.622.622,0,0,1,.67.665q.007,1.455,0,2.909a.628.628,0,0,1-.681.675Zm.891-1.243v-1.76h-1.758v1.76Z" transform="translate(-182.748 -46.849)" fill="#00b0e9"/>
      <path id="Path_180" data-name="Path 180" d="M94.312,156.286V157.7a.628.628,0,0,1-.7.7H90.745a.624.624,0,0,1-.687-.687q0-1.433,0-2.867a.626.626,0,0,1,.686-.688h2.888a.623.623,0,0,1,.676.677q0,.728,0,1.454ZM91.3,155.4v1.757h1.77V155.4Z" transform="translate(-85.126 -145.707)" fill="#00b0e9"/>
      <path id="Path_181" data-name="Path 181" d="M197.624,156.269v1.413a.636.636,0,0,1-.719.717h-2.827a.631.631,0,0,1-.705-.71q0-1.414,0-2.827a.632.632,0,0,1,.709-.706h2.847a.629.629,0,0,1,.7.7v1.413Zm-1.246.888V155.4h-1.759v1.753Z" transform="translate(-182.776 -145.708)" fill="#00b0e9"/>
    </g>
  </g>
</svg>
