<svg xmlns="http://www.w3.org/2000/svg" width="24.459" height="19.096" viewBox="0 0 24.459 19.096">
  <g id="ic_property_detail_bed" transform="translate(0.105 0.097)">
    <g id="Group_58" data-name="Group 58">
      <path id="Path_210" data-name="Path 210" d="M24.257,18.56a.6.6,0,0,1-.616.333c-.449-.016-.9,0-1.349,0s-.552-.134-.642-.546a17.831,17.831,0,0,0-.483-1.789,4.128,4.128,0,0,0-.448-.786.472.472,0,0,0-.454-.221q-5.421.01-10.844,0a2.534,2.534,0,0,1-.307-.01.443.443,0,0,1-.4-.419.438.438,0,0,1,.357-.478,1.8,1.8,0,0,1,.353-.022H23.292V13.041H11.606c-.695,0-1.391-.029-2.083.006-1.926.1-2.346-.416-2.245-2.2.006-.1,0-.2,0-.309H.972v4.083H4.818a1.751,1.751,0,0,1,.236.009.463.463,0,0,1,.429.472.452.452,0,0,1-.456.443c-.347.012-.7.017-1.041,0a.463.463,0,0,0-.421.2,4.865,4.865,0,0,0-.849,2c-.052.226-.078.458-.118.687a.478.478,0,0,1-.545.46H.609c-.437,0-.6-.158-.6-.59V7.625c0-1.271.007-2.543,0-3.813a1.409,1.409,0,0,1,.376-1.1A1.674,1.674,0,0,1,.635.362,1.7,1.7,0,0,1,2.807.419a1.639,1.639,0,0,1,.175,2.275c.559.519.327,1.219.4,1.851a2.884,2.884,0,0,1,2.693,1c.462.549.966,1.064,1.454,1.592a2.242,2.242,0,0,1,.581,1c.046.194.137.232.323.232q5.659-.008,11.317,0a9.038,9.038,0,0,1,2.6.25,2.489,2.489,0,0,1,1.56,1.01,6.178,6.178,0,0,1,.346.8v8.14ZM8.235,9.3c0,.838-.006,1.665.005,2.492a.32.32,0,0,0,.327.309,2.59,2.59,0,0,0,.26.007H22.862c.315-.01.444-.135.447-.442v-.86a1.158,1.158,0,0,0-.769-1.143A4.9,4.9,0,0,0,20.6,9.3q-6.113-.012-12.231-.01a.735.735,0,0,0-.133.011Zm-5.817.281V3.654c-.009-.263-.106-.359-.378-.364H1.4c-.366,0-.443.078-.443.436V9.583h1.46ZM3.374,6.1a1.58,1.58,0,0,0,.469,1.221C4.361,7.876,4.875,8.432,5.375,9a1.742,1.742,0,0,0,1.473.591.394.394,0,0,0,.407-.373,1.7,1.7,0,0,0-.447-1.48q-.791-.83-1.55-1.692a1.817,1.817,0,0,0-1.452-.6.4.4,0,0,0-.431.4C3.367,5.932,3.374,6.018,3.374,6.1ZM1.631,17.951l.817-2.38H.973v2.38Zm21.664,0V15.572H21.823l.809,2.379ZM2.417,1.646A.73.73,0,0,0,.959,1.624a.731.731,0,0,0,.728.733.742.742,0,0,0,.73-.711ZM4.645,9.587,3.385,8.213V9.587Z" transform="translate(-0.008 0.003)" fill="#00b0e9"/>
      <path id="Path_211" data-name="Path 211" d="M23.682,18.994h-.044c-.158,0-.329-.008-.538-.008h-.808c-.513,0-.647-.2-.739-.624a17.584,17.584,0,0,0-.48-1.779,2.425,2.425,0,0,0-.3-.549c-.046-.07-.094-.143-.139-.216a.372.372,0,0,0-.365-.173c-2.374,0-4.7.005-6.464.005H9.334a1.869,1.869,0,0,1-.232-.011.555.555,0,0,1-.052-1.094,1.8,1.8,0,0,1,.355-.024H23.192v-1.38H11.606c-.218,0-.44,0-.654-.006s-.435-.006-.652-.006c-.3,0-.542.005-.772.017-.149.007-.29.011-.418.011a2.034,2.034,0,0,1-1.556-.451c-.323-.341-.431-.881-.376-1.864v-.208H1.072v3.883H4.88a1.384,1.384,0,0,1,.187.01.561.561,0,0,1,.515.574.553.553,0,0,1-.553.54c-.222.008-.407.011-.582.011s-.319,0-.468-.01H3.955a.362.362,0,0,0-.312.16,4.769,4.769,0,0,0-.83,1.958c-.033.144-.056.294-.078.439q-.018.121-.039.243a.576.576,0,0,1-.643.543H.608c-.482,0-.7-.2-.7-.69V3.812a1.563,1.563,0,0,1,.353-1.12A1.741,1.741,0,0,1,.574.284,1.813,1.813,0,0,1,1.69-.1,1.784,1.784,0,0,1,2.874.345a1.73,1.73,0,0,1,.24,2.339,1.7,1.7,0,0,1,.354,1.331c0,.14-.006.283,0,.422.122-.01.242-.015.358-.015A2.867,2.867,0,0,1,6.148,5.477c.337.4.7.79,1.057,1.167q.2.211.394.422a2.31,2.31,0,0,1,.6,1.041c.031.13.066.155.222.155H19.877a8.659,8.659,0,0,1,2.5.255A2.587,2.587,0,0,1,24,9.566a3.458,3.458,0,0,1,.254.564c.032.083.064.169.1.251l.008.019v8.184l-.011.023A.682.682,0,0,1,23.682,18.994Zm-.581-.209c.211,0,.384,0,.545.008a.5.5,0,0,0,.512-.258v-8.1c-.033-.079-.064-.161-.094-.239a3.26,3.26,0,0,0-.238-.532,2.414,2.414,0,0,0-1.5-.966,8.5,8.5,0,0,0-2.445-.246H8.431a.362.362,0,0,1-.421-.309A2.121,2.121,0,0,0,7.453,7.2q-.2-.211-.393-.421C6.7,6.4,6.336,6.01,6,5.605a2.677,2.677,0,0,0-2.168-.984,4.276,4.276,0,0,0-.439.024l-.1.01-.011-.1a4.234,4.234,0,0,1-.012-.546,1.47,1.47,0,0,0-.353-1.243l-.066-.061.049-.07A1.543,1.543,0,0,0,2.741.494,1.584,1.584,0,0,0,1.69.1,1.612,1.612,0,0,0,.7.441,1.582,1.582,0,0,0,.471,2.658l.039.067L.454,2.78A1.293,1.293,0,0,0,.108,3.81c.008.913.006,1.841,0,2.739V18.3c0,.375.116.49.5.49H2.052a.381.381,0,0,0,.447-.377c.014-.079.026-.159.038-.238.023-.149.046-.3.081-.454a4.948,4.948,0,0,1,.868-2.037.556.556,0,0,1,.5-.236c.145.007.3.01.459.01s.356,0,.575-.011a.354.354,0,0,0,.36-.346.363.363,0,0,0-.342-.369,1.21,1.21,0,0,0-.161-.008H.872V10.439H7.378v.415c-.052.921.041,1.418.321,1.715a1.868,1.868,0,0,0,1.41.388c.125,0,.262,0,.408-.011.233-.012.482-.017.782-.017.218,0,.44,0,.654.006s.435.006.652.006H23.392v1.781H9.4a1.645,1.645,0,0,0-.315.02.339.339,0,0,0-.277.373.345.345,0,0,0,.313.326,1.693,1.693,0,0,0,.208.009h4.471c1.763,0,4.09,0,6.46-.005a.579.579,0,0,1,.54.269c.043.07.089.141.135.21a2.609,2.609,0,0,1,.323.6,17.783,17.783,0,0,1,.486,1.8c.08.367.157.467.544.467h.035c.257,0,.515-.006.772-.006Zm.294-.735H22.56l-.877-2.579h1.712Zm-.691-.2h.491V15.672H21.962Zm-21,.2H.873V15.47H2.588l-.045.132L1.978,17.25Zm-.629-.2H1.56l.229-.666.52-1.514H1.073Zm21.742-5.64H8.77a2.1,2.1,0,0,1-.212-.008.416.416,0,0,1-.417-.408c-.008-.61-.007-1.231-.006-1.833V9.209L8.227,9.2H8.29a.771.771,0,0,1,.079-.006h2.82c3.086,0,6.277,0,9.416.006a4.96,4.96,0,0,1,1.975.377,1.258,1.258,0,0,1,.829,1.234v.862c0,.358-.177.53-.544.541Zm-13.988-.2H22.86c.262-.008.347-.092.35-.343v-.858a1.06,1.06,0,0,0-.71-1.052A4.765,4.765,0,0,0,20.6,9.4c-3.139,0-6.33,0-9.416-.006H8.336v.571c0,.6,0,1.221.006,1.829,0,.162.15.2.238.211.064.006.13.007.192.007Zm-2.1-2.318A1.806,1.806,0,0,1,5.3,9.065c-.436-.494-.922-1.025-1.531-1.673a1.671,1.671,0,0,1-.5-1.292q0-.037,0-.075a1.644,1.644,0,0,1,0-.187.5.5,0,0,1,.531-.49h0a1.917,1.917,0,0,1,1.527.632c.479.546,1,1.115,1.547,1.689a1.8,1.8,0,0,1,.48,1.561.494.494,0,0,1-.5.46ZM3.8,5.448v.1a.3.3,0,0,0-.33.308,1.471,1.471,0,0,0,0,.164c0,.027,0,.055,0,.082v.006a1.481,1.481,0,0,0,.442,1.147c.61.649,1.1,1.182,1.535,1.678a1.616,1.616,0,0,0,1.281.56h.113A.3.3,0,0,0,7.156,9.2a1.611,1.611,0,0,0-.42-1.4c-.549-.576-1.072-1.147-1.553-1.7a1.707,1.707,0,0,0-1.377-.564ZM4.872,9.687H3.285V7.956l.519.566.914,1Zm-1.387-.2h.932l-.761-.83L3.485,8.47Zm-1.065.2H.859V3.725c0-.414.122-.534.543-.536h.643c.322.007.464.144.476.461V9.583h-.1Zm-1.36-.2H2.32V3.656c-.008-.209-.062-.262-.28-.266H1.4c-.309,0-.344.036-.344.336Zm.627-7.026a.835.835,0,0,1-.6-.261.8.8,0,0,1-.233-.582A.827.827,0,0,1,1.687.829H1.7a.832.832,0,0,1,.818.818.838.838,0,0,1-.832.81Zm0-1.428a.625.625,0,0,0-.628.6.6.6,0,0,0,.177.438.634.634,0,0,0,.45.193.643.643,0,0,0,.632-.612A.629.629,0,0,0,1.7,1.029Z" transform="translate(-0.008 0.003)" fill="#00b0e9"/>
      <path id="Path_212" data-name="Path 212" d="M105.128,236.361a.435.435,0,0,1-.449-.435.444.444,0,0,1,.452-.458.449.449,0,0,1,.441.45.444.444,0,0,1-.444.443Z" transform="translate(-98.045 -220.815)" fill="#00b0e9"/>
      <path id="Path_213" data-name="Path 213" d="M105.129,236.461h0a.534.534,0,0,1-.548-.534.553.553,0,0,1,.159-.4.533.533,0,0,1,.383-.16h.013a.551.551,0,0,1,.539.551.542.542,0,0,1-.546.543Zm-.008-.894a.335.335,0,0,0-.24.1.355.355,0,0,0-.1.257.334.334,0,0,0,.348.337h0a.344.344,0,0,0,.345-.345.35.35,0,0,0-.344-.349Z" transform="translate(-98.045 -220.815)" fill="#00b0e9"/>
    </g>
  </g>
</svg>
