<svg id="ic_post_image" xmlns="http://www.w3.org/2000/svg" width="45.06" height="45.118" viewBox="0 0 45.06 45.118">
  <g id="Group_20340" data-name="Group 20340" transform="translate(0 0)">
    <path id="Path_32809" data-name="Path 32809" d="M22.524,45.118q-6.131,0-12.263,0A9.939,9.939,0,0,1,3.805,42.95,9.906,9.906,0,0,1,0,34.861Q0,29.456,0,24.049q.01-7,.037-14A9.824,9.824,0,0,1,6.883.526a11.279,11.279,0,0,1,3.272-.5C18.412-.01,26.668,0,34.925.011A9.9,9.9,0,0,1,44.966,8.835a11.239,11.239,0,0,1,.056,1.472c0,4.21,0,8.421,0,12.631q.008,5.946.034,11.892A10.047,10.047,0,0,1,34.392,45.1c-.9-.033-1.8.013-2.7.014q-4.585,0-9.172,0ZM3.2,22c6.934-1.966,13.459-1.134,19.413,2.926s9.106,9.844,9.828,16.98h2.071a24.5,24.5,0,0,0-5.167-13.526,21.4,21.4,0,0,1,12.54-.326v-.527q0-8.673,0-17.347a7.331,7.331,0,0,0-.072-1.224,6.758,6.758,0,0,0-6.853-5.8q-12.434-.014-24.867,0a6.861,6.861,0,0,0-1.172.079A6.762,6.762,0,0,0,3.18,10.043c-.013,3.833,0,7.667,0,11.5,0,.144.014.288.022.457Z" transform="translate(0 -0.002)" fill="#232837"/>
    <path id="Path_32810" data-name="Path 32810" d="M191.93,53.817a5.751,5.751,0,1,1,5.718,5.771A5.737,5.737,0,0,1,191.93,53.817Z" transform="translate(-166.772 -41.763)" fill="#232837"/>
  </g>
</svg>
