<svg xmlns="http://www.w3.org/2000/svg" width="36" height="35" viewBox="0 0 36 35">
  <g id="ic_post_image_select" transform="translate(-668 -481)">
    <g id="Rectangle_6027" data-name="Rectangle 6027" transform="translate(668 481)" fill="#f9f9f9" stroke="#d1d1d1" stroke-width="0.5">
      <rect width="36" height="35" rx="3" stroke="none"/>
      <rect x="0.25" y="0.25" width="35.5" height="34.5" rx="2.75" fill="none"/>
    </g>
    <g id="ic_post_image_single_select" transform="translate(675.899 489)">
      <g id="Group_20250" data-name="Group 20250" transform="translate(0 0)">
        <path id="Path_32726" data-name="Path 32726" d="M66.341,62.129c-.041.136-.078.274-.125.409a1.846,1.846,0,0,1-1.76,1.28c-.24.006-.48,0-.72,0H49.967a2.045,2.045,0,0,1-1.656-.726,1.893,1.893,0,0,1-.412-1.266V54.446c0-1.491,0-2.983,0-4.474a1.913,1.913,0,0,1,1.435-1.925,2.453,2.453,0,0,1,.57-.063q7.2,0,14.406,0a1.941,1.941,0,0,1,2,1.6c0,.018.02.034.031.051Zm-1.319-7.553c0-1.577,0-3.13,0-4.683a.543.543,0,0,0-.491-.57,1.585,1.585,0,0,0-.307-.021H49.978a1.821,1.821,0,0,0-.226.007.535.535,0,0,0-.5.444,1.523,1.523,0,0,0-.033.346q0,4.1,0,8.208v.23a1.863,1.863,0,0,0,1.04-.275c.456-.291.895-.61,1.338-.922a3.559,3.559,0,0,1,4.432-.022c.372.258.731.535,1.1.79a2.327,2.327,0,0,0,1.349.433,2.827,2.827,0,0,0,2.182-1.11c.328-.379.645-.768.973-1.147a5.02,5.02,0,0,1,1.71-1.361,4.2,4.2,0,0,1,1.677-.348Zm-15.8,5.283c0,.713-.01,1.406,0,2.1a.512.512,0,0,0,.454.511,1.586,1.586,0,0,0,.346.03q7.111,0,14.222,0c.576,0,.775-.2.775-.784q0-2.8,0-5.609v-.223c-.228.03-.426.045-.619.083a3.054,3.054,0,0,0-1.683,1.079c-.5.564-.976,1.155-1.507,1.689a3.77,3.77,0,0,1-2.867,1.124,3.815,3.815,0,0,1-2.132-.773c-.443-.311-.873-.646-1.339-.919a2.018,2.018,0,0,0-2.08-.017c-.235.125-.45.288-.674.434-.052.034-.1.073-.148.111a4.38,4.38,0,0,1-2.752,1.164Z" transform="translate(-45.264 -45.341)" fill="#232837"/>
        <path id="Path_32727" data-name="Path 32727" d="M8.8,0h6.873A1.184,1.184,0,0,1,16,.035a.649.649,0,0,1,.462.695.667.667,0,0,1-.6.587c-.075.007-.151,0-.226,0H2.159c-.075,0-.151,0-.227,0a.581.581,0,0,0-.612.569,2.413,2.413,0,0,0-.007.268q0,5.453,0,10.906a1.2,1.2,0,0,1-.039.345.647.647,0,0,1-.684.447.669.669,0,0,1-.589-.6,1.649,1.649,0,0,1,0-.165Q0,7.571,0,2.045A1.989,1.989,0,0,1,.841.324,1.952,1.952,0,0,1,2.01,0Q5.406,0,8.8,0Z" transform="translate(0.004 0)" fill="#232837"/>
        <path id="Path_32728" data-name="Path 32728" d="M95.83,97.994a1.975,1.975,0,1,1,1.97,1.985,1.984,1.984,0,0,1-1.97-1.985Zm2.633,0a.658.658,0,1,0-.651.661A.664.664,0,0,0,98.463,98Z" transform="translate(-90.56 -90.739)" fill="#232837"/>
      </g>
    </g>
  </g>
</svg>
