<svg width="16" height="15" viewBox="0 0 16 15" fill="none" xmlns="http://www.w3.org/2000/svg">
<path d="M0.277344 1.37481C0.324936 1.23289 0.356664 1.08325 0.423223 0.950388C0.726363 0.346469 1.22366 0.0153201 1.9203 0.00559028C2.64832 -0.00481055 3.37633 0.00223517 4.1047 0.00357721C4.43922 0.00424823 4.68097 0.229711 4.68132 0.537039C4.68132 0.846044 4.44198 1.07184 4.10677 1.07251C3.41323 1.07386 2.71936 1.07251 2.02583 1.07318C1.59509 1.07352 1.37885 1.28221 1.37851 1.69858C1.37782 2.35685 1.36713 3.01512 1.38265 3.67305C1.39127 4.03406 1.16124 4.22866 0.951217 4.27764C0.679806 4.34106 0.44357 4.20685 0.297346 3.91328C0.292518 3.90355 0.284241 3.89516 0.277344 3.8861C0.277344 3.04934 0.277344 2.21224 0.277344 1.37548L0.277344 1.37481Z" fill="#3D86AF"/>
<path d="M0.277344 11.1169C0.382529 10.8904 0.533236 10.721 0.812925 10.7159C1.13434 10.7102 1.3761 10.9404 1.37713 11.2608C1.3792 11.9409 1.37713 12.621 1.37816 13.301C1.37851 13.7164 1.59647 13.9284 2.02341 13.9291C2.6997 13.9298 3.37599 13.9405 4.05193 13.9251C4.42922 13.9164 4.622 14.1455 4.67201 14.3455C4.73822 14.6115 4.59924 14.84 4.2961 14.9793C4.2861 14.984 4.27817 14.993 4.26954 15.0001H1.6882C1.65647 14.989 1.62544 14.9746 1.59267 14.9672C1.03537 14.844 0.640146 14.5273 0.409428 14.0207C0.352525 13.8952 0.320797 13.759 0.277344 13.6275C0.277344 12.7907 0.277344 11.9536 0.277344 11.1169Z" fill="#3D86AF"/>
<path d="M11.7013 15C11.4716 14.8949 11.2936 14.7517 11.2891 14.4782C11.284 14.1642 11.5192 13.931 11.8496 13.93C12.549 13.928 13.2483 13.93 13.9481 13.929C14.3761 13.9287 14.5916 13.718 14.5923 13.2996C14.593 12.6302 14.592 11.9609 14.5926 11.2916C14.593 10.9497 14.8178 10.7155 15.1424 10.7158C15.4655 10.7158 15.6914 10.9517 15.6921 11.2926C15.6928 11.984 15.6935 12.6759 15.6921 13.3674C15.6904 14.1696 15.1662 14.7986 14.3609 14.9694C14.3336 14.9751 14.3085 14.9896 14.2823 15H11.7016H11.7013Z" fill="#3D86AF"/>
<path d="M7.43444 8.03659C7.3434 8.03659 7.27546 8.03659 7.20752 8.03659C5.81425 8.03659 4.42133 8.03726 3.02806 8.03558C2.75596 8.03558 2.52144 7.83965 2.48316 7.59204C2.44075 7.31826 2.60628 7.05992 2.87769 6.98544C2.93701 6.969 3.00185 6.96732 3.06427 6.96698C4.5203 6.96598 5.97668 6.96497 7.43272 6.96698C8.05245 6.96765 8.53285 7.43435 8.53354 8.0376C8.53561 9.45412 8.53458 10.871 8.53389 12.2875C8.53389 12.625 8.30213 12.8596 7.97658 12.8569C7.66275 12.8542 7.43479 12.6173 7.43444 12.2895C7.43376 10.9455 7.43444 9.60107 7.43444 8.25702C7.43444 8.19092 7.43444 8.12483 7.43444 8.03659Z" fill="#3D86AF"/>
<path d="M13.4909 4.02129C13.4909 4.2944 13.493 4.56784 13.4905 4.84094C13.4847 5.42238 13.0043 5.88975 12.4056 5.89344C11.8438 5.8968 11.2823 5.8968 10.7206 5.89344C10.1236 5.88975 9.6425 5.42004 9.63905 4.83826C9.63594 4.29171 9.63594 3.7455 9.63905 3.19896C9.6425 2.61785 10.125 2.15015 10.7233 2.1468C11.2851 2.14378 11.8466 2.14378 12.4083 2.1468C13.0057 2.15015 13.4847 2.61886 13.4902 3.20164C13.4926 3.47475 13.4905 3.74819 13.4905 4.02129H13.4909ZM12.3877 3.2268H10.7512V4.81008H12.3877V3.2268Z" fill="#4DC9F5"/>
<path d="M6.3323 10.9946C6.3323 11.2624 6.33437 11.5298 6.33195 11.7975C6.32678 12.388 5.84638 12.8534 5.23596 12.856C4.68003 12.8584 4.1241 12.8591 3.56817 12.856C2.96155 12.8527 2.48322 12.3833 2.48046 11.7898C2.47804 11.2489 2.4777 10.7081 2.48046 10.1673C2.48356 9.5771 2.96603 9.11174 3.57611 9.10906C4.12617 9.10671 4.67658 9.10705 5.22665 9.10906C5.85569 9.11141 6.32919 9.57609 6.33195 10.1918C6.33333 10.4595 6.33195 10.7269 6.33195 10.9946H6.3323ZM3.58956 10.1867V11.775H5.21941V10.1867H3.58956Z" fill="#4DC9F5"/>
<path d="M13.4905 10.9939C13.4905 11.2616 13.4926 11.529 13.4902 11.7967C13.485 12.3879 13.0049 12.8533 12.3952 12.8563C11.8393 12.859 11.2833 12.859 10.7274 12.8563C10.1204 12.8529 9.64142 12.3839 9.63866 11.791C9.63625 11.2502 9.6359 10.7094 9.63866 10.1685C9.64176 9.57802 10.1235 9.112 10.7333 9.10931C11.2892 9.10696 11.8451 9.10663 12.4011 9.10931C13.0084 9.11233 13.4857 9.58037 13.4902 10.1742C13.4922 10.4473 13.4902 10.7208 13.4902 10.9939H13.4905ZM10.7502 10.1863V11.7736H12.3817V10.1863H10.7502Z" fill="#4DC9F5"/>
<path d="M12.9986 0.00296958C13.3597 0.00296958 13.7204 0.000285499 14.0815 0.0036406C14.9561 0.0120284 15.6851 0.722639 15.6906 1.57618C15.6955 2.29518 15.693 3.01418 15.6913 3.73317C15.6906 4.05594 15.4537 4.28844 15.1354 4.2861C14.8278 4.28375 14.5936 4.0499 14.5929 3.73687C14.5912 3.06249 14.5929 2.38811 14.5922 1.7134C14.5922 1.27791 14.3784 1.07291 13.9259 1.07258C13.2441 1.07258 12.5623 1.07325 11.8805 1.07224C11.5315 1.07191 11.2887 0.850469 11.2891 0.536431C11.2891 0.221051 11.5298 0.00330509 11.8815 0.00263407C12.254 0.00162754 12.6265 0.00263407 12.9989 0.00263407L12.9986 0.00296958Z" fill="#3D86AF"/>
<path d="M3.57923 3.21532C3.57923 3.29316 3.57923 3.35288 3.57923 3.41294C3.57923 4.0541 3.58027 4.69526 3.57889 5.33676C3.5782 5.66153 3.34438 5.89437 3.02606 5.89337C2.71085 5.89236 2.48048 5.6565 2.47979 5.33038C2.47876 4.62212 2.47738 3.91419 2.48014 3.20593C2.48255 2.61476 2.96433 2.14806 3.57406 2.14605C4.30208 2.1437 5.02975 2.14437 5.75777 2.14605C6.09195 2.14672 6.33266 2.37319 6.33197 2.68153C6.33163 2.9902 6.0916 3.21432 5.7557 3.21499C5.03941 3.21633 4.32311 3.21532 3.57958 3.21532H3.57923Z" fill="#4DC9F5"/>
<path d="M6.60811 4.82369C7.0554 4.82369 7.5027 4.82268 7.94999 4.82369C8.28762 4.8247 8.5311 5.04546 8.5342 5.35044C8.5373 5.66683 8.29555 5.89296 7.9493 5.8933C7.05471 5.8943 6.16012 5.8943 5.26553 5.8933C4.91928 5.89296 4.67857 5.66649 4.68167 5.34943C4.68477 5.04244 4.92584 4.8247 5.26622 4.82402C5.71352 4.82302 6.16081 4.82402 6.60811 4.82402V4.82369Z" fill="#3D86AF"/>
<path d="M8.53376 2.94235C8.53376 3.04837 8.53859 3.15473 8.53272 3.26041C8.5172 3.53553 8.272 3.75194 7.98162 3.75093C7.69297 3.74992 7.44639 3.53016 7.43673 3.25471C7.42949 3.05407 7.43052 2.8531 7.43639 2.65213C7.44432 2.36527 7.68814 2.1445 7.98749 2.14551C8.28476 2.14652 8.5241 2.36997 8.5341 2.65784C8.53721 2.75245 8.53445 2.8474 8.53445 2.94235C8.53445 2.94235 8.5341 2.94235 8.53376 2.94235Z" fill="#3D86AF"/>
<path d="M10.4653 8.03659C10.3677 8.03659 10.2701 8.03894 10.1729 8.03626C9.86803 8.0282 9.63628 7.79234 9.63869 7.49508C9.6411 7.2062 9.87148 6.9747 10.1691 6.96799C10.3639 6.96363 10.5591 6.96396 10.754 6.96799C11.0592 6.97403 11.2913 7.2109 11.2885 7.5085C11.2861 7.7967 11.0551 8.02753 10.7578 8.03626C10.6605 8.03928 10.5629 8.03659 10.4653 8.03659Z" fill="#4DC9F5"/>
<path d="M12.6648 8.03646C12.5672 8.03646 12.4696 8.03881 12.3724 8.03613C12.0678 8.02741 11.8368 7.79087 11.8399 7.49294C11.843 7.20406 12.0737 6.9739 12.3724 6.96786C12.5672 6.96384 12.7624 6.96384 12.9573 6.96786C13.2545 6.9739 13.487 7.20608 13.4901 7.49361C13.4932 7.79188 13.2625 8.02774 12.9573 8.03613C12.86 8.03881 12.7624 8.03646 12.6648 8.03646Z" fill="#4DC9F5"/>
</svg>
