<svg xmlns="http://www.w3.org/2000/svg" width="8.723" height="8.72" viewBox="0 0 8.723 8.72">
  <g id="ic_remove_selected" transform="translate(-48.71 -49.371)">
    <path id="Path_246" data-name="Path 246" d="M5.746,2.756H3.223V.234a.234.234,0,1,0-.467,0V2.756H.234a.234.234,0,1,0,0,.467H2.756V5.746a.234.234,0,1,0,.467,0V3.223H5.746a.234.234,0,1,0,0-.467Z" transform="translate(53.226 49.499) rotate(47)" fill="#232837"/>
    <path id="Path_247" data-name="Path 247" d="M2.99-.1a.334.334,0,0,1,.334.334V2.656H5.746a.334.334,0,0,1,0,.667H3.323V5.746a.334.334,0,1,1-.667,0V3.323H.234a.334.334,0,0,1,0-.667H2.656V.234A.334.334,0,0,1,2.99-.1ZM5.746,3.123a.134.134,0,1,0,0-.267H3.123V.234a.134.134,0,1,0-.267,0V2.856H.234a.134.134,0,1,0,0,.267H2.856V5.746a.134.134,0,1,0,.267,0V3.123Z" transform="translate(53.226 49.499) rotate(47)" fill="#232837"/>
  </g>
</svg>
