<svg xmlns="http://www.w3.org/2000/svg" width="344" height="178" viewBox="0 0 344 178">
  <g id="ic_res_placeholder" transform="translate(24193 19978)">
    <rect id="Bg" width="344" height="178" rx="5" transform="translate(-24193 -19978)" fill="#f6f5f7"/>
    <g id="ic_logo" transform="translate(-24100.02 -19945.619)">
      <g id="Group_20389" data-name="Group 20389" transform="translate(34.02 12.62)">
        <path id="Path_35582" data-name="Path 35582" d="M34.02,58.433H47.494l31.157-31.14V12.62Z" transform="translate(-34.02 -12.62)" fill="#d2d1d1"/>
        <path id="Path_35583" data-name="Path 35583" d="M464.839,46.1V15.914H454.533V35.52L432.22,12.62V27.293l31.157,31.14h13.474Z" transform="translate(-387.589 -12.62)" fill="#d2d1d1"/>
      </g>
      <g id="Group_20390" data-name="Group 20390" transform="translate(34.02 62.929)">
        <path id="Path_35584" data-name="Path 35584" d="M34.02,461.48H37.3v12.613h6.329V461.48h3.233V491.9H43.628V477.055H37.3V491.9H34.02Z" transform="translate(-34.02 -461.48)" fill="#d2d1d1"/>
        <path id="Path_35585" data-name="Path 35585" d="M192.236,532.723v11.541c0,4.009-1.68,6.03-5.072,6.03-3.563,0-4.859-2.261-4.859-6V532.723c0-3.871,1.783-5.923,5-5.923C190.693,526.8,192.236,529.131,192.236,532.723Zm-7.441-.1v11.856c0,2.6.925,3.6,2.466,3.6,1.611,0,2.468-.995,2.468-3.7V532.621c0-2.43-.823-3.6-2.5-3.6-1.64,0-2.428,1.1-2.428,3.6Z" transform="translate(-165.679 -519.479)" fill="#d2d1d1"/>
        <path id="Path_35586" data-name="Path 35586" d="M297.841,529.56v17.784c0,1.885.651,3.189,2.4,3.189s2.33-1.235,2.33-3.153V529.56h2.466v17.714c0,3.529-1.611,5.482-4.859,5.482-3.153,0-4.762-1.781-4.762-5.414V529.56Z" transform="translate(-266.11 -521.929)" fill="#d2d1d1"/>
        <path id="Path_35587" data-name="Path 35587" d="M403.3,543.563V544.9c0,2.158.759,3.289,2.364,3.289,1.645,0,2.261-1.166,2.261-3.7,0-2.673-.583-3.7-2.981-5.585-2.468-1.919-3.7-3.084-3.7-6.442,0-2.911.891-5.689,4.454-5.654,3.426,0,4.317,2.261,4.317,5.174v1.063h-2.43v-.995c0-1.885-.343-3.118-1.919-3.118s-1.988,1.367-1.988,3.153c0,2.126.445,2.946,2.536,4.522,3.189,2.4,4.181,3.769,4.181,7.538,0,3.221-.925,6.169-4.8,6.169-3.666,0-4.729-2.43-4.729-5.449v-1.3Z" transform="translate(-359.752 -519.485)" fill="#d2d1d1"/>
        <path id="Path_35588" data-name="Path 35588" d="M515.123,541.381h-5.14v8.84h5.825l-.3,2.228H507.55V529.56H515.4v2.263h-5.414v7.3h5.14Z" transform="translate(-454.476 -521.929)" fill="#d2d1d1"/>
        <path id="Path_35589" data-name="Path 35589" d="M611.323,461.48v23.632c0,2.5.866,4.234,3.189,4.234s3.1-1.64,3.1-4.19V461.48h3.279v23.538c0,4.691-2.14,7.289-6.466,7.289-4.19,0-6.33-2.369-6.33-7.2V461.48Z" transform="translate(-543.746 -461.48)" fill="#d2d1d1"/>
        <path id="Path_35590" data-name="Path 35590" d="M749.99,533.12h4.115c3.318,0,4.893,1.67,4.893,5.3v1.367c0,3.351-1.005,5.831-5.06,5.831H752.4V555.5h-2.413V533.12Zm2.413,10.49h1.308c2.547,0,2.916-1.541,2.916-3.854v-1.2c0-1.81-.4-3.418-2.715-3.418H752.4v8.48Z" transform="translate(-669.742 -525.09)" fill="#d2d1d1"/>
      </g>
      <g id="Group_20391" data-name="Group 20391" transform="translate(120.903 91.533)">
        <path id="Path_35591" data-name="Path 35591" d="M811.465,717.778a1.137,1.137,0,1,1-1.134-1.107,1.113,1.113,0,0,1,1.134,1.107Zm-1.992,0a.858.858,0,0,0,.864.884.885.885,0,0,0,0-1.769.861.861,0,0,0-.864.885Zm.682.58H809.9v-1.107a2.259,2.259,0,0,1,.425-.033.688.688,0,0,1,.384.08.3.3,0,0,1,.108.243.284.284,0,0,1-.229.257v.014a.326.326,0,0,1,.2.27.8.8,0,0,0,.082.276h-.276a.968.968,0,0,1-.088-.27c-.02-.122-.087-.176-.229-.176h-.121v.447Zm0-.627h.122c.143,0,.257-.047.257-.162s-.074-.17-.237-.17a.624.624,0,0,0-.143.014v.319Z" transform="translate(-809.19 -716.671)" fill="#d2d1d1"/>
      </g>
      <g id="Group_20392" data-name="Group 20392" transform="translate(34.365 96.22)">
        <path id="Path_35592" data-name="Path 35592" d="M37.09,759.58H39.3c1.28,0,1.774.383,1.774,1.183a.99.99,0,0,1-.935,1.039v.018a1.134,1.134,0,0,1,1.11,1.143c0,.7-.513,1.306-1.786,1.306H37.09Zm.676,1.974h1.727c.565,0,.911-.214.911-.714,0-.436-.214-.727-1.136-.727h-1.5Zm0,2.182h1.617c.911,0,1.156-.357,1.156-.811,0-.539-.371-.838-1.2-.838H37.766Z" transform="translate(-37.09 -759.458)" fill="#d2d1d1"/>
        <path id="Path_35593" data-name="Path 35593" d="M97.922,759.58h.668v2.8a2.19,2.19,0,0,1-4.364,0v-2.8H94.9v2.832a1.508,1.508,0,0,0,3.014,0Z" transform="translate(-87.828 -759.458)" fill="#d2d1d1"/>
        <path id="Path_35594" data-name="Path 35594" d="M151.628,764.262v-1.956l-2.228-2.733h.87l1.695,2.17,1.7-2.176h.87L152.3,762.3v1.956Z" transform="translate(-136.812 -759.452)" fill="#d2d1d1"/>
        <path id="Path_35595" data-name="Path 35595" d="M241.035,770.01a1.175,1.175,0,1,1-1.175,1.175,1.175,1.175,0,0,1,1.175-1.175Z" transform="translate(-217.133 -768.719)" fill="#d2d1d1"/>
        <path id="Path_35596" data-name="Path 35596" d="M312.263,759.84c-.065-.656-.733-.838-1.494-.838-.67,0-1.235.331-1.235.85,0,.253.152.513.733.607l1.748.3c.759.13,1.11.565,1.11,1.143,0,.936-.838,1.5-2.228,1.5-1.332,0-2.1-.5-2.188-1.526h.715c.02.63.623.995,1.519.995.973,0,1.519-.383,1.519-.9,0-1.3-3.593-.123-3.593-2.085,0-.9.759-1.423,2.046-1.423.973,0,2.008.292,2.073,1.367Z" transform="translate(-278.265 -758.472)" fill="#d2d1d1"/>
        <path id="Path_35597" data-name="Path 35597" d="M367.522,759.58h3.506v.532H368.2v1.48h2.651v.533H368.2v1.611h2.91v.533H367.52V759.58Z" transform="translate(-330.485 -759.458)" fill="#d2d1d1"/>
        <path id="Path_35598" data-name="Path 35598" d="M420.44,759.58h.676v4.156h2.7v.533H420.44Z" transform="translate(-377.473 -759.458)" fill="#d2d1d1"/>
        <path id="Path_35599" data-name="Path 35599" d="M468.37,759.58h.676v4.156h2.7v.533H468.37Z" transform="translate(-420.03 -759.458)" fill="#d2d1d1"/>
        <path id="Path_35600" data-name="Path 35600" d="M545.165,770.01a1.175,1.175,0,1,1-1.175,1.175A1.175,1.175,0,0,1,545.165,770.01Z" transform="translate(-487.175 -768.719)" fill="#d2d1d1"/>
        <path id="Path_35601" data-name="Path 35601" d="M615.2,764.269h-.676V759.58h2.305c1.449,0,1.774.487,1.774,1.241a1.119,1.119,0,0,1-1.072,1.092v.012c.63.079.8.333.922,1.124a5.643,5.643,0,0,0,.266,1.215H618c-.123-.333-.2-.987-.319-1.518-.079-.337-.3-.579-1.183-.579h-1.306v2.091Zm0-2.624h1.538c.714,0,1.15-.169,1.15-.759,0-.571-.311-.759-1.136-.759H615.2Z" transform="translate(-549.799 -759.458)" fill="#d2d1d1"/>
        <path id="Path_35602" data-name="Path 35602" d="M671.651,759.58h3.507v.532h-2.825v1.48h2.651v.533h-2.651v1.611h2.91v.533H671.65V759.58Z" transform="translate(-600.527 -759.458)" fill="#d2d1d1"/>
        <path id="Path_35603" data-name="Path 35603" d="M727.1,759.58h.674v4.689h-.922l-2.87-4h-.014v4h-.676V759.58h.922l2.87,4h.014v-4Z" transform="translate(-646.377 -759.458)" fill="#d2d1d1"/>
        <path id="Path_35604" data-name="Path 35604" d="M780.979,760.151H778.99v-.571h4.65v.571h-1.988v4.118h-.673Z" transform="translate(-695.835 -759.458)" fill="#d2d1d1"/>
      </g>
    </g>
  </g>
</svg>
