<svg xmlns="http://www.w3.org/2000/svg" width="36.889" height="36.889" viewBox="0 0 36.889 36.889">
  <g id="ic_story_close" transform="translate(-1314.778 -9.365)">
    <path id="Path_431" data-name="Path 431" d="M25.75,13.15a1.329,1.329,0,0,1-1.008.977,2.238,2.238,0,0,1-.425.029H14.134v.307c0,3.249-.013,6.5.009,9.746A1.442,1.442,0,0,1,13.128,25.8h-.5a1.337,1.337,0,0,1-.977-1.01,2.094,2.094,0,0,1-.028-.4V14.159H1.333a1.259,1.259,0,0,1-.075-2.517c1.139-.008,2.279,0,3.418,0h6.942v-.306c0-3.249.013-6.5-.009-9.746A1.442,1.442,0,0,1,12.623,0h.5A1.327,1.327,0,0,1,14.1,1.009a2.245,2.245,0,0,1,.029.425v10.2h.306c3.243,0,6.485.013,9.728-.009a1.438,1.438,0,0,1,1.583,1.017v.5Z" transform="translate(1333.205 9.552) rotate(45)" fill="#fff"/>
    <path id="Path_432" data-name="Path 432" d="M13.152,25.946H12.6l-.025-.009A1.479,1.479,0,0,1,11.5,24.816a2.252,2.252,0,0,1-.031-.429q0-4.949,0-9.9v-.181H1.333a1.409,1.409,0,0,1-.076-2.817H11.468V8.724c0-2.339.005-4.758-.011-7.136a1.584,1.584,0,0,1,1.119-1.73L12.6-.15h.553l.024.009A1.466,1.466,0,0,1,14.249.98a2.356,2.356,0,0,1,.032.454V11.488h5.363c1.8,0,3.2,0,4.519-.013h.025a1.572,1.572,0,0,1,1.7,1.12l.008.023V13h.063l-.071.2a1.471,1.471,0,0,1-1.12,1.074,2.352,2.352,0,0,1-.453.032H14.284v2.8c0,2.327-.005,4.733.011,7.1a1.584,1.584,0,0,1-1.117,1.729Zm-.5-.3H13.1a1.288,1.288,0,0,0,.889-1.435c-.016-2.367-.013-4.774-.011-7.1v-3.1H24.317a2.107,2.107,0,0,0,.4-.026,1.155,1.155,0,0,0,.886-.855v-.454a1.276,1.276,0,0,0-1.409-.892h-.023c-1.321.009-2.716.013-4.521.013H13.987V1.44a2.111,2.111,0,0,0-.026-.4A1.165,1.165,0,0,0,13.1.15h-.452a1.288,1.288,0,0,0-.89,1.435c.016,2.38.014,4.8.011,7.139v3.065H1.258a1.109,1.109,0,0,0,.074,2.217H11.768V24.387a1.966,1.966,0,0,0,.025.372,1.163,1.163,0,0,0,.858.887Z" transform="translate(1333.205 9.552) rotate(45)" fill="#f5f5f5"/>
  </g>
</svg>
