<svg xmlns="http://www.w3.org/2000/svg" width="16" height="16" viewBox="0 0 16 16">
  <g id="ic_select" transform="translate(-86.35 -1508)">
    <rect id="Rectangle_20" data-name="Rectangle 20" width="16" height="16" rx="2" transform="translate(86.35 1508)" fill="#00b0e9"/>
    <path id="Path_250" data-name="Path 250" d="M35.952,39.947a.6.6,0,0,0-.7.972,7.594,7.594,0,0,1,2.327,3.125.6.6,0,0,0,1.091.006,20.963,20.963,0,0,1,5.122-7,.6.6,0,0,0-.78-.911,21.563,21.563,0,0,0-4.893,6.315,7.831,7.831,0,0,0-2.167-2.507Z" transform="translate(54.097 1476)" fill="#fff"/>
  </g>
</svg>
