<svg xmlns="http://www.w3.org/2000/svg" width="22.727" height="19.881" viewBox="0 0 22.727 19.881">
  <g id="ic_story_like" transform="translate(0 0.002)">
    <path id="Path_433" data-name="Path 433" d="M0,5.647C.072,5.271.124,4.89.22,4.52A6.042,6.042,0,0,1,6.6.022a5.9,5.9,0,0,1,3.731,1.755c.341.337.685.671,1.03,1.008.244-.238.506-.474.747-.731A6.322,6.322,0,0,1,14.741.312,6.037,6.037,0,0,1,22.575,4.85a6,6,0,0,1-1.669,5.643q-4.445,4.541-8.922,9.049a.747.747,0,0,1-1.249,0Q6.264,15.012,1.8,10.48A6.057,6.057,0,0,1,.039,6.769,1.79,1.79,0,0,0,0,6.578V5.646ZM11.356,18.139c.041-.036.076-.061.106-.091,2.836-2.873,5.681-5.736,8.5-8.624A4.482,4.482,0,0,0,21.23,5.412a4.45,4.45,0,0,0-3.185-3.764A4.434,4.434,0,0,0,13.31,2.861c-.466.464-.925.937-1.388,1.4a.732.732,0,0,1-1.129,0C10.277,3.742,9.77,3.214,9.246,2.7A4.571,4.571,0,0,0,4.191,1.81,4.75,4.75,0,0,0,2.839,9.521q4.173,4.232,8.352,8.46C11.242,18.033,11.291,18.081,11.356,18.139Z" fill="#fff"/>
  </g>
</svg>
