<svg xmlns="http://www.w3.org/2000/svg" width="11.46" height="10.961" viewBox="0 0 11.46 10.961">
  <path id="ic_star_gray" d="M1247.306,1322.432l-2.8,1.47a.687.687,0,0,1-.928-.29.665.665,0,0,1-.068-.435l.532-3.115-2.263-2.2a.686.686,0,0,1-.01-.967.752.752,0,0,1,.387-.2l3.134-.455,1.393-2.834a.692.692,0,0,1,.919-.31.708.708,0,0,1,.319.31l1.393,2.834,3.134.455a.7.7,0,0,1,.581.783.755.755,0,0,1-.2.387l-2.263,2.205.532,3.115a.677.677,0,0,1-.561.793.685.685,0,0,1-.435-.068Z" transform="translate(-1241.575 -1313.022)" fill="#c2c2c2" fill-rule="evenodd"/>
</svg>
