<svg xmlns="http://www.w3.org/2000/svg" width="26.374" height="26.37" viewBox="0 0 26.374 26.37">
  <g id="ic_story_send" transform="translate(4.642 0.001) rotate(12.007)">
    <path id="Path_434" data-name="Path 434" d="M13.056,22.236a.965.965,0,0,1-.531-.536q-1.9-3.944-3.825-7.878a.714.714,0,0,0-.3-.3Q4.441,11.586.478,9.672c-.36-.175-.528-.417-.49-.714A.711.711,0,0,1,.5,8.374c1.249-.5,2.5-1,3.743-1.5L21.107.131c.582-.233.79-.168,1.114.344v.3c-.041.1-.082.2-.122.3L13.9,21.6a1.019,1.019,0,0,1-.534.639h-.3ZM18.773,2.469,2.245,9.081l6.678,3.238,9.85-9.85Zm.976.979-.028-.015c-.037.033-.076.064-.11.1L10,13.138c-.106.106-.09.179-.033.3q1.07,2.192,2.13,4.387l1.043,2.152c2.215-5.537,4.413-11.031,6.61-16.525Z" fill="#fff"/>
  </g>
</svg>
