<svg xmlns="http://www.w3.org/2000/svg" width="19.263" height="19.264" viewBox="0 0 19.263 19.264">
  <g id="ic_search" transform="translate(0.146 0.143)">
    <path id="Union_10" data-name="Union 10" d="M17.678,18.771,13.707,14.8A8.375,8.375,0,1,1,14.8,13.708l3.971,3.971a.773.773,0,0,1-1.092,1.093ZM1.544,8.367A6.821,6.821,0,1,0,8.365,1.546,6.821,6.821,0,0,0,1.544,8.367Z" transform="translate(0 -0.002)" fill="#1b283f"/>
    <path id="Union_10_-_Outline" data-name="Union 10 - Outline" d="M18.223,19.122a.89.89,0,0,1-.634-.263L13.7,14.968A8.5,8.5,0,1,1,14.967,13.7l3.891,3.891a.9.9,0,0,1-.635,1.532Zm-4.508-4.491,4.051,4.052a.647.647,0,1,0,.915-.916L14.63,13.716l.073-.088A8.25,8.25,0,1,0,13.627,14.7Zm-5.35.683a6.946,6.946,0,1,1,6.946-6.946,6.946,6.946,0,0,1-6.946,6.946Zm0-13.642a6.7,6.7,0,1,0,6.7,6.7,6.7,6.7,0,0,0-6.7-6.7Z" transform="translate(0 -0.002)" fill="#f2f2f7"/>
  </g>
</svg>
