<svg xmlns="http://www.w3.org/2000/svg" width="70.25" height="69.831" viewBox="0 0 70.25 69.831">
  <g id="ic_services_2" transform="translate(-315.856 -240.523)">
    <g id="Group_83" data-name="Group 83" transform="translate(320.513 252.032)">
      <g id="Group_79" data-name="Group 79" transform="translate(12.116 30.62)">
        <path id="Path_271" data-name="Path 271" d="M32.278,22.852a3.747,3.747,0,0,1-3.768-3.768h0V18.8a3.732,3.732,0,0,1-3.981-3.412v-.569a3.792,3.792,0,0,1-4.052-3.412v-.569a3.768,3.768,0,0,1-2.915-6.4l.711-.64,1.28,1.28-.64.64a1.848,1.848,0,0,0,0,2.7h0a1.848,1.848,0,0,0,2.7,0l.64-.64,1.28,1.28-.64.64a1.91,1.91,0,1,0,2.7,2.7l.64-.64,1.28,1.28-.64.64a1.91,1.91,0,0,0,2.7,2.7l.64-.64,1.28,1.28-.64.64a1.848,1.848,0,0,0,0,2.7h0a1.848,1.848,0,0,0,2.7,0h0l.64-.64L35.477,21l-.64.64a2.979,2.979,0,0,1-2.559,1.212Z" transform="translate(-16.488 -3.8)" fill="#00b0e9"/>
        <path id="Path_272" data-name="Path 272" d="M32.278,23.252a4.146,4.146,0,0,1-4.166-4.045,4.122,4.122,0,0,1-3.982-3.79v-.19a4.2,4.2,0,0,1-4.05-3.779v-.2a4.17,4.17,0,0,1-2.8-7.087l.015-.014.993-.894,1.831,1.83L19.2,6a1.54,1.54,0,0,0-.469,1.129,1.376,1.376,0,0,0,.455.994l.014.013A1.547,1.547,0,0,0,20.3,8.6a1.374,1.374,0,0,0,1.028-.456l.013-.014.923-.923L24.1,9.061l-.923.923a1.54,1.54,0,0,0-.469,1.129,1.376,1.376,0,0,0,.455.994l.014.013a1.547,1.547,0,0,0,1.095.469,1.374,1.374,0,0,0,1.028-.456l.013-.014.923-.923,1.845,1.845-.923.923a1.54,1.54,0,0,0-.469,1.129,1.376,1.376,0,0,0,.455.994l.014.013a1.547,1.547,0,0,0,1.095.469,1.374,1.374,0,0,0,1.028-.456l.013-.014.923-.923,1.845,1.845-.923.923a1.54,1.54,0,0,0-.469,1.129,1.376,1.376,0,0,0,.455.994l.014.013a1.547,1.547,0,0,0,1.095.469,1.374,1.374,0,0,0,1.028-.456l.013-.014.923-.923L36.043,21l-.9.9a3.378,3.378,0,0,1-2.865,1.352ZM28.91,18.371v.713a3.332,3.332,0,0,0,3.368,3.368,2.586,2.586,0,0,0,2.226-1.03l.022-.033L34.912,21l-.712-.71-.35.35a2.165,2.165,0,0,1-1.613.71,2.34,2.34,0,0,1-1.653-.7,2.169,2.169,0,0,1-.71-1.561,2.332,2.332,0,0,1,.7-1.713l.357-.357-.714-.714-.35.35a2.165,2.165,0,0,1-1.613.71,2.34,2.34,0,0,1-1.653-.7,2.169,2.169,0,0,1-.71-1.561,2.332,2.332,0,0,1,.7-1.713l.357-.357-.714-.714-.35.35a2.165,2.165,0,0,1-1.613.71,2.34,2.34,0,0,1-1.653-.7,2.169,2.169,0,0,1-.71-1.561,2.332,2.332,0,0,1,.7-1.713l.357-.357-.714-.714-.35.35a2.165,2.165,0,0,1-1.613.71,2.34,2.34,0,0,1-1.653-.7,2.169,2.169,0,0,1-.71-1.561,2.332,2.332,0,0,1,.7-1.713l.357-.357-.728-.728-.421.379a3.37,3.37,0,0,0,2.379,5.717,2.248,2.248,0,0,0,.232-.008l.428-.029v.976a3.4,3.4,0,0,0,3.381,3.043c.081,0,.163,0,.244-.008l.428-.029v.983A3.321,3.321,0,0,0,28.246,18.4a2.268,2.268,0,0,0,.233-.008Z" transform="translate(-16.488 -3.8)" fill="#00b0e9"/>
      </g>
      <g id="Group_80" data-name="Group 80" transform="translate(7.417 7.766)">
        <path id="Path_273" data-name="Path 273" d="M41.976,43.643h0a3.651,3.651,0,0,1-2.63-1.066L21.574,24.8a3.14,3.14,0,0,1-.853-1.99V21.53a.913.913,0,0,0-.284-.711L16.1,16.487,30.887,1.7l16.635.142L62.308,16.629l-4.336,4.336a.913.913,0,0,0-.284.711v1.28a2.581,2.581,0,0,1-.853,1.99l-.284.284.64.64a3.628,3.628,0,0,1-1.777,6.185,3.774,3.774,0,0,1-.5,4.763,3.651,3.651,0,0,1-2.63,1.066h0a3.713,3.713,0,0,1-1.493-.284,3.721,3.721,0,0,1-4.265,3.128,3.01,3.01,0,0,1-.853-.284,3.744,3.744,0,0,1-3.7,3.2ZM18.659,16.487l3.057,3.057a2.581,2.581,0,0,1,.853,1.99v1.28a.913.913,0,0,0,.284.711L40.626,41.3a1.942,1.942,0,0,0,1.351.569h0A1.911,1.911,0,0,0,43.9,39.946a1.942,1.942,0,0,0-.569-1.351L35.01,30.207l1.28-1.28,8.317,8.317h0l1.137,1.137a1.909,1.909,0,0,0,2.7,0,1.977,1.977,0,0,0,0-2.7l-9.455-9.455,1.28-1.28L49.725,34.4h0l1.137,1.137a1.91,1.91,0,0,0,2.7-2.7h0l-1.706-1.706.071-.071-8.886-8.886,1.28-1.28,8.886,8.957a1.91,1.91,0,0,0,2.7-2.7h0L41.976,13.074a2.69,2.69,0,0,1-.853-1.99V9.946a.972.972,0,0,0-1-1h-.284a.913.913,0,0,0-.711.284L34.01,14.348a3.651,3.651,0,0,1-2.63,1.066h0a3.793,3.793,0,0,1-3.768-3.768,3.968,3.968,0,0,1,1.066-2.63l5.545-5.545H31.669ZM39.844,7.1h.284a2.852,2.852,0,0,1,2.844,2.844v1.137a.913.913,0,0,0,.284.711L55.341,23.88l.284-.284a.913.913,0,0,0,.284-.711V21.6a2.581,2.581,0,0,1,.853-1.99l3.057-3.057L46.811,3.69,36.787,3.548,29.962,10.3a1.848,1.848,0,0,0,0,2.7,1.942,1.942,0,0,0,1.351.569h0A1.942,1.942,0,0,0,32.664,13l5.118-5.118A3.9,3.9,0,0,1,39.844,7.1Z" transform="translate(-16.1 -1.7)" fill="#00b0e9"/>
        <path id="Path_274" data-name="Path 274" d="M41.976,44.043a4.028,4.028,0,0,1-2.913-1.183L21.273,25.067a3.509,3.509,0,0,1-.952-2.254v-1.28a.516.516,0,0,0-.167-.428l-4.619-4.619L30.722,1.3l16.966.145L62.874,16.629l-4.619,4.619a.516.516,0,0,0-.167.428v1.28a2.987,2.987,0,0,1-.971,2.275l.353.353a4.03,4.03,0,0,1-1.453,6.72,4.2,4.2,0,0,1-.818,4.8,4.028,4.028,0,0,1-2.913,1.183,4.361,4.361,0,0,1-1.191-.154,4.093,4.093,0,0,1-4.02,3.036,4.416,4.416,0,0,1-.6-.041l-.042-.008-.12-.029c-.112-.027-.23-.055-.346-.09a4.123,4.123,0,0,1-3.991,3.042ZM21.866,24.531,39.629,42.293a3.244,3.244,0,0,0,2.347.949,3.336,3.336,0,0,0,3.3-2.86l.1-.62.522.348a2.318,2.318,0,0,0,.6.2l.1.025a3.615,3.615,0,0,0,.472.031,3.29,3.29,0,0,0,3.322-2.82l.072-.52.482.207a3.285,3.285,0,0,0,1.335.252,3.244,3.244,0,0,0,2.347-.949,3.386,3.386,0,0,0,.448-4.258l-.331-.5.586-.117a3.228,3.228,0,0,0,1.58-5.5l-.007-.007-.923-.923.587-.585a2.168,2.168,0,0,0,.716-1.689v-1.28a1.305,1.305,0,0,1,.4-.994l4.054-4.054L47.354,2.241,31.051,2.1,16.666,16.487l4.054,4.054a1.305,1.305,0,0,1,.4.994v1.28A2.713,2.713,0,0,0,21.866,24.531Zm20.11,17.735a2.331,2.331,0,0,1-1.634-.686L22.571,23.807a1.3,1.3,0,0,1-.4-.994v-1.28a2.168,2.168,0,0,0-.716-1.689l-.019-.018-3.34-3.34L31.5,3.077h3.691L28.973,9.3a3.562,3.562,0,0,0-.957,2.355,3.413,3.413,0,0,0,3.368,3.368,3.244,3.244,0,0,0,2.347-.949L38.85,8.953a1.3,1.3,0,0,1,.994-.4h.284a1.365,1.365,0,0,1,1.4,1.4V11.09a2.288,2.288,0,0,0,.716,1.689l.021.02,13.929,14.07a2.384,2.384,0,0,1,.012,3.252l-.013.014a2.251,2.251,0,0,1-1.607.65,2.443,2.443,0,0,1-1.646-.637l-.015-.014-8.6-8.672-.713.713L52.5,31.061l-.071.071,1.417,1.417a2.169,2.169,0,0,1,.709,1.56,2.331,2.331,0,0,1-.7,1.707,2.165,2.165,0,0,1-1.614.71,2.341,2.341,0,0,1-1.66-.7L40.27,25.512l-.714.714,9.185,9.186a2.384,2.384,0,0,1-.013,3.253,2.337,2.337,0,0,1-1.642.677,2.286,2.286,0,0,1-1.625-.677l-9.172-9.172-.715.715,8.037,8.106a2.31,2.31,0,0,1-1.635,3.952ZM21.99,19.251a2.986,2.986,0,0,1,.979,2.282v1.28a.516.516,0,0,0,.167.428L40.909,41.014a1.547,1.547,0,0,0,1.068.452,1.5,1.5,0,0,0,1.523-1.52,1.547,1.547,0,0,0-.452-1.068l-8.6-8.673,1.844-1.844L46.027,38.1a1.491,1.491,0,0,0,1.06.443,1.531,1.531,0,0,0,1.076-.443,1.576,1.576,0,0,0-.007-2.143l-9.73-9.73L40.27,24.38,51.145,35.256a1.547,1.547,0,0,0,1.1.469,1.374,1.374,0,0,0,1.028-.456l.013-.014a1.54,1.54,0,0,0,.469-1.129,1.376,1.376,0,0,0-.455-.994l-.014-.013L51.292,31.13l.071-.071-8.886-8.886,1.846-1.846,9.161,9.235a1.645,1.645,0,0,0,1.1.423,1.457,1.457,0,0,0,1.034-.409,1.576,1.576,0,0,0,.007-2.142L41.7,13.365a3.068,3.068,0,0,1-.978-2.282V9.946a.57.57,0,0,0-.6-.6h-.284a.516.516,0,0,0-.428.167L34.3,14.637a4.029,4.029,0,0,1-2.913,1.183,4.193,4.193,0,0,1-4.168-4.168,4.361,4.361,0,0,1,1.169-2.9l.014-.015,4.862-4.862h-1.43L19.225,16.487Zm33.351,5.194L42.973,12.077a1.3,1.3,0,0,1-.4-.994V9.946A2.446,2.446,0,0,0,40.128,7.5h-.284a3.434,3.434,0,0,0-1.807.693l-5.09,5.09a2.288,2.288,0,0,1-3.26.007,2.169,2.169,0,0,1-.71-1.561,2.332,2.332,0,0,1,.7-1.713l6.945-6.873,10.352.147,13.41,13.263-3.361,3.359A2.168,2.168,0,0,0,56.31,21.6v1.28a1.305,1.305,0,0,1-.4.994ZM39.844,6.7h.284a3.247,3.247,0,0,1,3.244,3.244v1.137a.516.516,0,0,0,.167.428l11.8,11.8h0a.516.516,0,0,0,.167-.428V21.6a2.986,2.986,0,0,1,.979-2.282l2.763-2.763L46.644,4.088,36.949,3.95l-6.7,6.635a1.538,1.538,0,0,0-.467,1.127,1.376,1.376,0,0,0,.455.994l.014.013a1.488,1.488,0,0,0,2.136,0l5.146-5.146.033-.022A4.159,4.159,0,0,1,39.844,6.7Z" transform="translate(-16.1 -1.7)" fill="#00b0e9"/>
      </g>
      <g id="Group_81" data-name="Group 81">
        <path id="Path_275" data-name="Path 275" d="M21.869,27.09,15.4,20.621,35.092,1l6.469,6.469ZM18.03,20.621l3.91,3.91L39,7.469l-3.91-3.91Z" transform="translate(-15.4 -1)" fill="#00b0e9"/>
        <path id="Path_276" data-name="Path 276" d="M21.869,27.655,14.834,20.62,35.092.435,42.127,7.47Zm-5.9-7.034,5.9,5.9L40.995,7.469l-5.9-5.9ZM21.94,25.1l-4.476-4.476L35.092,2.994,39.568,7.47ZM18.6,20.621l3.344,3.344,16.5-16.5-3.352-3.34Z" transform="translate(-15.4 -1)" fill="#00b0e9"/>
      </g>
      <g id="Group_82" data-name="Group 82" transform="translate(34.942 0.132)">
        <path id="Path_277" data-name="Path 277" d="M38.221,27.09,18.6,7.469,25.069,1,44.69,20.621ZM21.159,7.469,38.221,24.53l3.91-3.91L25.069,3.559Z" transform="translate(-18.6 -1)" fill="#00b0e9"/>
        <path id="Path_278" data-name="Path 278" d="M38.221,27.655,18.034,7.469,25.069.434,45.255,20.621ZM19.166,7.469,38.221,26.524l5.9-5.9L25.069,1.566ZM38.221,25.1,20.594,7.469,25.07,2.993,42.7,20.621ZM21.725,7.469l16.5,16.5,3.344-3.344-16.5-16.5Z" transform="translate(-18.6 -1)" fill="#00b0e9"/>
      </g>
    </g>
    <g id="Group_84" data-name="Group 84" transform="translate(318.905 240.923)">
      <path id="Path_279" data-name="Path 279" d="M17.006,21.974,15.3,21.263A34.892,34.892,0,0,1,40.394.718a35.717,35.717,0,0,1,14,0,30.4,30.4,0,0,1,6.54,2.062l-.711,1.706a31.181,31.181,0,0,0-6.185-1.919,32.217,32.217,0,0,0-13.294,0,32.674,32.674,0,0,0-11.8,4.976A32.043,32.043,0,0,0,17.006,21.974Z" transform="translate(-15.3 -0.025)" fill="#00b0e9"/>
      <path id="Path_280" data-name="Path 280" d="M17.22,22.5l-2.446-1.019.158-.371A35.589,35.589,0,0,1,25.061,7.589,35.14,35.14,0,0,1,40.315.326a36.117,36.117,0,0,1,14.162,0A30.866,30.866,0,0,1,61.1,2.413l.362.157-1.02,2.443-.371-.159a30.927,30.927,0,0,0-6.106-1.895,31.818,31.818,0,0,0-13.133,0A32.4,32.4,0,0,0,29.174,7.873h-.006A31.549,31.549,0,0,0,17.375,22.129Zm-1.392-1.45.966.4A32.314,32.314,0,0,1,28.728,7.21,33.2,33.2,0,0,1,40.67,2.174a32.617,32.617,0,0,1,13.455,0A31.733,31.733,0,0,1,60.013,3.96l.4-.97a29.7,29.7,0,0,0-6.092-1.88,35.318,35.318,0,0,0-13.852,0A34.42,34.42,0,0,0,15.828,21.05Z" transform="translate(-15.3 -0.025)" fill="#00b0e9"/>
    </g>
    <g id="Group_85" data-name="Group 85" transform="translate(322.194 294.241)">
      <path id="Path_281" data-name="Path 281" d="M37.524,20.54a34.445,34.445,0,0,1-12.441-5.261A34.668,34.668,0,0,1,15.7,5.9l1.493-1A32.606,32.606,0,0,0,31.7,16.843a31.181,31.181,0,0,0,6.185,1.919Z" transform="translate(-15.7 -4.9)" fill="#00b0e9"/>
      <path id="Path_282" data-name="Path 282" d="M37.838,21.013l-.394-.081A34.8,34.8,0,0,1,24.859,15.61a34.835,34.835,0,0,1-9.491-9.491l-.224-.333,2.16-1.44.222.333a32.155,32.155,0,0,0,14.325,11.8,30.932,30.932,0,0,0,6.108,1.9l.392.078ZM16.258,6a34.032,34.032,0,0,0,9.049,8.943,34,34,0,0,0,11.9,5.117l.2-.991a31.72,31.72,0,0,1-5.872-1.863A32.962,32.962,0,0,1,17.084,5.453Z" transform="translate(-15.7 -4.9)" fill="#00b0e9"/>
    </g>
    <g id="Group_86" data-name="Group 86" transform="translate(374.328 275.691)">
      <path id="Path_283" data-name="Path 283" d="M21.58,27.768l-1.28-1.28a32.18,32.18,0,0,0,7.038-10.521,31.181,31.181,0,0,0,1.919-6.185A34.9,34.9,0,0,0,29.9,3.1h1.777a33.779,33.779,0,0,1-.711,7.038A34.445,34.445,0,0,1,25.7,22.578a22.1,22.1,0,0,1-4.12,5.19Z" transform="translate(-20.3 -3.1)" fill="#00b0e9"/>
      <path id="Path_284" data-name="Path 284" d="M21.573,28.327l-1.839-1.839.283-.283a31.64,31.64,0,0,0,6.951-10.39v-.006a30.926,30.926,0,0,0,1.9-6.109A34.362,34.362,0,0,0,29.5,3.1V2.7h2.577v.4a33.928,33.928,0,0,1-.72,7.121,34.8,34.8,0,0,1-5.311,12.568,22.362,22.362,0,0,1-4.188,5.269Zm-.709-1.841.72.72a21.206,21.206,0,0,0,3.769-4.822l.019-.03a34.007,34.007,0,0,0,5.2-12.3,32.907,32.907,0,0,0,.7-6.557H30.3a35.113,35.113,0,0,1-.645,6.358,31.735,31.735,0,0,1-1.943,6.264,32.4,32.4,0,0,1-6.843,10.368Z" transform="translate(-20.3 -3.1)" fill="#00b0e9"/>
    </g>
    <g id="Group_87" data-name="Group 87" transform="translate(363.018 243.343)">
      <path id="Path_285" data-name="Path 285" d="M37.214,18.783,36.859,18l1.635-.782.782,1.635-1.635.782ZM35.3,15.229l-.5-.782,1.564-.924.924,1.564-1.564.924Zm-2.346-3.27-.569-.711L33.8,10.11l1.137,1.422L33.518,12.67Zm-2.7-2.986-.64-.64,1.28-1.28,1.28,1.28-1.28,1.28ZM27.12,6.343h0l-.711-.569,1.066-1.422.711.569h0l.711.569L27.831,6.911ZM23.779,4.068,23,3.641l.924-1.564L25.485,3l-.924,1.564ZM20.153,2.29,19.3,1.935,20.011.3l.853.355h0l.853.355-.711,1.635Z" transform="translate(-19.3 -0.3)" fill="#00b0e9"/>
      <path id="Path_286" data-name="Path 286" d="M37.459,20.167l-.609-1.218-.518-1.139,2.35-1.124,1.127,2.357Zm.117-1.556.247.5.92-.44-.437-.913-.92.44Zm-2.007-2.045-.618-1.134-.712-1.119L36.5,12.975l1.331,2.253Zm-.212-1.985.289.456.228.419.863-.51-.517-.875Zm-1.9-1.349L31.82,11.186l2.046-1.637L35.5,11.6Zm-.513-1.922.638.8.8-.638-.638-.8Zm-2.055-1.132L29.042,8.333l1.845-1.845,1.845,1.845Zm-.714-1.845.714.714.714-.714-.714-.714ZM27.9,7.481,25.856,5.844,27.4,3.782l2.05,1.637ZM26.962,5.7l.8.637.586-.781-.8-.637Zm-2.267-.579-1.119-.712-1.134-.618L23.78,1.529,26.033,2.86ZM23.552,3.488l.442.242.433.276.51-.864-.875-.517Zm-2.336-.322L18.771,2.148,19.8-.221,22.246.8ZM19.829,1.722l.968.4.392-.9-.968-.4Z" transform="translate(-19.3 -0.3)" fill="#00b0e9"/>
    </g>
    <g id="Group_88" data-name="Group 88" transform="translate(316.28 278.213)">
      <path id="Path_287" data-name="Path 287" d="M20.929,20.39h0l-.5-.782,1.493-1,1,1.493-1.493,1.066ZM18.8,16.69l-.427-.782L20,15.055l.427.782h0l.427.782-1.635.853ZM17.09,12.78l-.284-.853,1.706-.64L19.152,13l-1.706.64ZM15.882,8.661l-.213-.853,1.777-.427.427,1.777L16.1,9.585Zm-.711-4.194h0L15.1,3.613,16.877,3.4l.213,1.777-1.777.213Z" transform="translate(-15.1 -3.4)" fill="#00b0e9"/>
      <path id="Path_288" data-name="Path 288" d="M21.316,21.743l-1.432-2.25,2.152-1.434,1.432,2.148Zm-.337-2.019.558.878.834-.6-.559-.838ZM19.06,18.012l-1.236-2.266,2.344-1.223L21.4,16.789Zm-.144-1.934.47.862.926-.483-.47-.862Zm-1.691-1.931-.514-1.237L16.3,11.692l2.442-.916.921,2.455Zm.24-1.5.2.483.97-.364-.359-.957-.971.364ZM15.8,10.068l-.3-1.314-.31-1.241L17.742,6.9l.613,2.555ZM16.155,8.1l.117.468L16.4,9.1l1-.239-.24-1ZM14.977,5.834l-.2-1.334-.1-1.237,2.557-.307.309,2.572Zm.592-1.414.081.528,1-.12-.118-.983-1,.12Z" transform="translate(-15.1 -3.4)" fill="#00b0e9"/>
    </g>
    <g id="Group_89" data-name="Group 89" transform="translate(359.703 298.428)">
      <path id="Path_289" data-name="Path 289" d="M19,14.37l1.706-.5.5,1.706-.782.284h0l-.853.284Zm3.839-1.28,1.635-.711.711,1.635-1.635.711Zm3.626-1.777,1.564-.924.924,1.564-1.493.924Zm3.412-2.2L31.3,7.972l1.137,1.422-1.422,1.137ZM33,6.48,34.28,5.2l1.28,1.28-.64.64h0l-.64.64Z" transform="translate(-19 -5.2)" fill="#00b0e9"/>
      <path id="Path_290" data-name="Path 290" d="M19.311,16.655,18.494,14.1l2.484-.725.715,2.45-1.144.416Zm.195-2.016.32,1,.464-.155.425-.155-.281-.962Zm3.836.613-1.03-2.369,2.369-1.03,1.03,2.369Zm.023-1.954.392.9.9-.392-.392-.9Zm3.969.127L25.9,11.18l2.264-1.338L29.5,12.087Zm-.31-1.978.561.882.824-.51-.521-.882Zm3.928-.354L29.314,9.047,31.361,7.41,33,9.457Zm-.513-1.922.638.8.8-.638-.638-.8Zm3.845-.847L32.439,6.48l1.845-1.845L36.129,6.48ZM33.57,6.48l.714.714L35,6.48l-.714-.714Z" transform="translate(-19 -5.2)" fill="#00b0e9"/>
    </g>
  </g>
</svg>
