<svg xmlns="http://www.w3.org/2000/svg" width="14" height="14" viewBox="0 0 14 14">
  <g id="ic_sm_select" transform="translate(-86.35 -1508)">
    <rect id="Rectangle_30" data-name="Rectangle 30" width="14" height="14" rx="2" transform="translate(86.35 1508)" fill="#00b0e9"/>
    <path id="Path_430" data-name="Path 430" d="M35.885,39.67a.558.558,0,0,0-.654.9A7.061,7.061,0,0,1,37.4,43.476a.558.558,0,0,0,1.014.006,19.491,19.491,0,0,1,4.762-6.5.558.558,0,0,0-.725-.847A20.048,20.048,0,0,0,37.9,42.006a7.281,7.281,0,0,0-2.015-2.336Z" transform="translate(54.349 1475)" fill="#fff"/>
  </g>
</svg>
