<svg xmlns="http://www.w3.org/2000/svg" width="26.725" height="26.728" viewBox="0 0 26.725 26.728">
  <g id="ic_search" transform="translate(0.245 0.249)">
    <path id="Path_248" data-name="Path 248" d="M25.2,26.228a4.434,4.434,0,0,1-.6-.422q-3.23-3.161-6.447-6.335c-.054-.053-.111-.1-.176-.165-.074.051-.145.095-.212.145a10.784,10.784,0,0,1-4.779,2.092A10.874,10.874,0,0,1,5.528,20.26a10.781,10.781,0,0,1-5-6.057A9.819,9.819,0,0,1,.045,11.78,1.388,1.388,0,0,0,0,11.58V10.15c.066-.437.119-.875.2-1.309a10.29,10.29,0,0,1,1.875-4.3A10.733,10.733,0,0,1,8.288.362a10.821,10.821,0,0,1,9.767,2.15,10.366,10.366,0,0,1,3.95,7.261,10.407,10.407,0,0,1-1.816,7.1c-.3.434-.633.842-1,1.321a1.413,1.413,0,0,1,.22.15q3.232,3.174,6.46,6.354c.377.371.473.77.216,1.115a2.458,2.458,0,0,1-.531.411H25.2ZM1.7,10.539a9.535,9.535,0,0,0,.75,3.924,9.127,9.127,0,0,0,7.52,5.509,8.855,8.855,0,0,0,6.694-1.8,8.773,8.773,0,0,0,3.6-8.518,8.66,8.66,0,0,0-4.8-6.854,9.024,9.024,0,0,0-9.3.25A8.815,8.815,0,0,0,1.7,10.539Z" fill="#fff"/>
    <path id="Path_249" data-name="Path 249" d="M25.641,26.479H25.1l-.058-.058c-.054-.037-.11-.072-.169-.109a2.55,2.55,0,0,1-.442-.327c-1.687-1.651-3.4-3.335-5.052-4.963l-1.4-1.372-.026-.025-.036.026A11.062,11.062,0,0,1,13.03,21.79a12.457,12.457,0,0,1-2.084.181,10.977,10.977,0,0,1-5.541-1.493A11.061,11.061,0,0,1,.3,14.285,10.108,10.108,0,0,1-.2,11.8a.547.547,0,0,0-.019-.083c-.007-.025-.014-.051-.02-.076l-.006-.028v-1.5c.02-.134.039-.268.058-.4.042-.3.086-.611.144-.917a10.582,10.582,0,0,1,1.92-4.4A11,11,0,0,1,8.229.119a12.571,12.571,0,0,1,2.957-.368,11.013,11.013,0,0,1,7.026,2.566,10.594,10.594,0,0,1,4.042,7.431A10.668,10.668,0,0,1,20.4,17.019c-.206.3-.429.588-.664.891l-.178.229.035.032c2.209,2.169,4.4,4.328,6.46,6.354a1.052,1.052,0,0,1,.241,1.442,1.534,1.534,0,0,1-.418.351c-.058.038-.113.073-.163.11Zm-.365-.5h.2l.121-.08a1.141,1.141,0,0,0,.289-.231c.171-.23.107-.494-.191-.787-2.057-2.025-4.251-4.184-6.46-6.353a.616.616,0,0,0-.106-.072c-.028-.017-.055-.033-.079-.049l-.219-.148.16-.211c.118-.155.232-.3.343-.445.231-.3.449-.577.646-.865A10.18,10.18,0,0,0,21.756,9.8,10.111,10.111,0,0,0,17.9,2.708,10.525,10.525,0,0,0,11.186.252,12.071,12.071,0,0,0,8.347.6,10.513,10.513,0,0,0,2.276,4.7,10.086,10.086,0,0,0,.446,8.887c-.056.3-.1.6-.14.9-.018.129-.037.258-.056.387v1.384l.008.028a.925.925,0,0,1,.036.179,9.61,9.61,0,0,0,.478,2.364,10.574,10.574,0,0,0,4.883,5.92,10.483,10.483,0,0,0,5.291,1.426,11.955,11.955,0,0,0,2-.174,10.567,10.567,0,0,0,4.67-2.045,1.8,1.8,0,0,1,.152-.1l.07-.047L18,18.988l.2.184c.046.042.088.081.129.121l1.4,1.373c1.654,1.628,3.364,3.311,5.051,4.962a2.147,2.147,0,0,0,.359.261ZM11.2,20.3a10.137,10.137,0,0,1-1.265-.081A9.372,9.372,0,0,1,2.22,14.568a9.813,9.813,0,0,1-.774-4.031v-.009a9.038,9.038,0,0,1,4.6-7.688A9.585,9.585,0,0,1,11,1.387a9.822,9.822,0,0,1,4.58,1.2,9.359,9.359,0,0,1,3.365,2.882A9.128,9.128,0,0,1,20.51,9.62a9.329,9.329,0,0,1-.6,4.9,9.657,9.657,0,0,1-3.093,3.852A9.028,9.028,0,0,1,11.2,20.3ZM1.947,10.545a9.3,9.3,0,0,0,.727,3.812A8.9,8.9,0,0,0,10,19.724a9.691,9.691,0,0,0,1.2.077,8.538,8.538,0,0,0,5.308-1.83,8.516,8.516,0,0,0,3.5-8.288,8.359,8.359,0,0,0-4.663-6.656A9.329,9.329,0,0,0,11,1.887,9.093,9.093,0,0,0,6.3,3.269a8.558,8.558,0,0,0-4.353,7.276Z" fill="#fff"/>
  </g>
</svg>
