<svg width="79" height="79" viewBox="0 0 79 79" fill="none" xmlns="http://www.w3.org/2000/svg">
<rect width="79" height="79" rx="39.5" fill="#4CAF50"/>
<path d="M56.2326 23.8491C56.0647 24.0838 55.9304 24.3548 55.7244 24.547C51.8561 28.1389 48.5525 32.2311 45.4212 36.4722C41.2523 42.1191 37.4695 48.0254 33.9323 54.0953C33.7866 54.3454 33.5241 54.5268 33.3158 54.7399H32.9351C32.7405 54.5307 32.5048 54.3477 32.359 54.1076C29.713 49.7569 26.7588 45.6192 23.8244 41.4683C23.301 40.728 22.7661 39.9954 22.2397 39.2559C21.8948 38.7719 21.9185 38.4531 22.3343 38.0347C23.0088 37.3553 23.6878 36.6814 24.3669 36.0067C24.8605 35.5165 25.1169 35.4965 25.6952 35.9048C28.0444 37.563 30.3928 39.2227 32.7413 40.8817C32.8138 40.9326 32.8878 40.9812 32.9862 41.0476C33.4982 40.4046 34.001 39.7639 34.5144 39.1309C38.7917 33.8537 43.4741 28.9919 48.8683 24.8658C49.6061 24.3015 50.3706 23.7719 51.1466 23.2632C51.3755 23.1135 51.6829 23.027 51.9576 23.0201C53.0227 22.9923 54.0894 23.0278 55.1537 23.0008C55.6931 22.9869 56.0617 23.1621 56.2333 23.694V23.8484L56.2326 23.8491Z" fill="white"/>
</svg>
