<svg width="16" height="15" viewBox="0 0 16 15" fill="none" xmlns="http://www.w3.org/2000/svg">
<path d="M7.44158 0C7.80281 0 8.16434 0 8.52588 0C8.54851 0.00910212 8.57024 0.0223149 8.59378 0.0270127C9.34732 0.178225 9.8365 0.613072 10.0314 1.33537C10.0888 1.54795 10.064 1.78049 10.0966 2.001C10.1084 2.08086 10.1621 2.17247 10.2264 2.22268C10.3115 2.28874 10.4063 2.24088 10.4793 2.16807C10.5387 2.10876 10.5988 2.04945 10.6607 1.99248C11.2527 1.44782 12.0395 1.31951 12.7429 1.65394C13.141 1.84333 13.4292 2.16249 13.7116 2.47636C14.2259 3.04804 14.3312 3.70574 13.9971 4.39221C13.8743 4.64443 13.6489 4.85055 13.4639 5.07252C13.3984 5.15121 13.3429 5.23548 13.409 5.32034C13.4563 5.38111 13.5442 5.42633 13.6226 5.446C13.7071 5.46744 13.8019 5.44982 13.8921 5.45129C14.5056 5.46039 14.9903 5.71231 15.3575 6.1868C15.5395 6.42169 15.6216 6.69564 15.6937 6.97457V8.02954C15.6844 8.05156 15.6702 8.0727 15.666 8.0956C15.5268 8.84609 14.9544 9.40014 14.1746 9.5261C14.0176 9.55135 13.8553 9.54812 13.6953 9.55165C13.5767 9.554 13.4621 9.55311 13.4032 9.68084C13.3432 9.8115 13.4234 9.89107 13.5079 9.97269C13.5897 10.0517 13.6712 10.1318 13.7463 10.2167C14.2479 10.7807 14.3318 11.6149 13.9238 12.247C13.6522 12.6681 13.2934 13.0263 12.8561 13.2826C12.2637 13.63 11.6408 13.6253 11.0427 13.2888C10.8339 13.1714 10.6694 12.9814 10.4739 12.8384C10.4117 12.7929 10.3115 12.7685 10.2342 12.7782C10.1262 12.7917 10.0918 12.8886 10.0909 12.9899C10.09 13.0877 10.0912 13.1852 10.09 13.2829C10.0812 14.0551 9.52235 14.7742 8.74889 14.9354C8.39671 15.0088 8.02281 14.9988 7.65856 15.0003C6.84527 15.0029 6.12402 14.4542 5.93812 13.6846C5.8841 13.4603 5.89225 13.2213 5.87565 12.9887C5.86841 12.8877 5.83793 12.7911 5.7299 12.7782C5.65264 12.7691 5.55486 12.7958 5.49089 12.8402C5.38194 12.9159 5.29594 13.0225 5.19363 13.1088C4.61452 13.5977 3.75717 13.6802 3.10714 13.2841C2.67408 13.0201 2.30652 12.671 2.04216 12.2459C1.68425 11.6698 1.68908 11.0638 2.03371 10.4815C2.15412 10.2781 2.34937 10.118 2.49634 9.92777C2.54311 9.86728 2.56906 9.77039 2.56001 9.69523C2.54734 9.58952 2.44775 9.55546 2.34394 9.554C2.23862 9.55282 2.1333 9.554 2.02767 9.55282C1.24577 9.54284 0.505804 8.99583 0.342541 8.25004C0.268304 7.90181 0.278262 7.53303 0.277357 7.17365C0.275546 6.3938 0.843796 5.69147 1.62752 5.51295C1.85807 5.46039 2.10372 5.46773 2.34273 5.45188C2.44624 5.44512 2.54643 5.41664 2.56062 5.31182C2.57088 5.23695 2.53949 5.14622 2.49905 5.0781C2.45801 5.00851 2.38166 4.95919 2.32312 4.899C1.71352 4.27183 1.60337 3.40713 2.07234 2.7095C2.33156 2.32339 2.67046 1.99513 3.06821 1.74408C3.55498 1.43667 4.08731 1.3938 4.63836 1.57907C4.98148 1.69446 5.24313 1.9182 5.48727 2.16689C5.55939 2.24059 5.65294 2.28727 5.74046 2.22297C5.80323 2.17717 5.8503 2.09173 5.87052 2.01568C5.89255 1.93347 5.87445 1.84127 5.87596 1.75319C5.88501 1.15597 6.14394 0.684421 6.63161 0.326795C6.87303 0.150038 7.15489 0.0701744 7.44158 0ZM7.97875 13.832C8.07411 13.832 8.16947 13.8349 8.26484 13.8314C8.62848 13.8188 8.87352 13.5812 8.8871 13.2283C8.89133 13.1211 8.88409 13.0134 8.88952 12.9062C8.91638 12.3991 9.15418 12.0083 9.60805 11.7623C10.0806 11.5063 10.5677 11.5007 11.0361 11.779C11.1794 11.8642 11.3059 11.9813 11.4272 12.0964C11.7926 12.4438 12.101 12.4449 12.4656 12.0906C12.5685 11.9904 12.6735 11.8921 12.7737 11.7896C13.0338 11.5239 13.0354 11.1938 12.7782 10.9264C12.6962 10.8409 12.6071 10.7611 12.5272 10.6736C11.8795 9.9633 12.1617 8.82465 13.0689 8.47495C13.3187 8.37865 13.5777 8.38188 13.8387 8.38012C14.2361 8.37747 14.4836 8.13348 14.489 7.74561C14.4914 7.57473 14.4932 7.40384 14.4884 7.23296C14.4782 6.87151 14.2307 6.6331 13.8583 6.62253C13.7479 6.6193 13.6374 6.62341 13.527 6.62047C12.5709 6.59639 11.9028 5.58723 12.2697 4.72811C12.379 4.47237 12.5691 4.28181 12.7632 4.09008C13.0393 3.81731 13.0381 3.48112 12.7659 3.20659C12.6439 3.08356 12.5199 2.96259 12.3932 2.84427C12.1161 2.5853 11.7748 2.58588 11.4954 2.84368C11.4118 2.9209 11.3327 3.00341 11.2464 3.07769C10.5001 3.71983 9.32076 3.44089 8.98488 2.52657C8.90159 2.30019 8.90461 2.04005 8.89012 1.794C8.8693 1.4352 8.64327 1.18915 8.28325 1.17388C8.08286 1.16536 7.88158 1.16536 7.6812 1.17388C7.33355 1.18915 7.09605 1.42668 7.08035 1.76669C7.07553 1.87386 7.08036 1.98162 7.07824 2.08879C7.05863 3.04569 6.01447 3.69605 5.10944 3.31963C4.85715 3.21452 4.67005 3.03482 4.47993 2.85337C4.19263 2.57942 3.84951 2.58177 3.56101 2.85542C3.44241 2.96788 3.32532 3.0818 3.20974 3.19719C2.92396 3.482 2.92607 3.81526 3.21397 4.10271C3.2876 4.17611 3.36395 4.24717 3.43366 4.3238C4.09486 5.04962 3.80666 6.18562 2.87688 6.53503C2.63063 6.62752 2.37653 6.62018 2.12092 6.62311C1.73193 6.62781 1.48417 6.87063 1.47753 7.24969C1.47451 7.42557 1.4724 7.60144 1.47813 7.77703C1.4896 8.13025 1.73616 8.36808 2.0998 8.3807C2.20512 8.38423 2.31074 8.37747 2.41606 8.38276C3.00725 8.41271 3.43668 8.68959 3.67116 9.21516C3.90293 9.73457 3.82296 10.2261 3.44784 10.6636C3.35158 10.7757 3.23509 10.8715 3.13973 10.9842C2.95142 11.2059 2.94538 11.5077 3.13792 11.7229C3.29545 11.8991 3.46716 12.0659 3.64853 12.2189C3.86581 12.4018 4.17091 12.3965 4.39573 12.2212C4.48536 12.1513 4.56322 12.0671 4.64711 11.9898C5.42631 11.2722 6.66209 11.5394 6.99797 12.5116C7.07221 12.7268 7.06617 12.9717 7.07704 13.2037C7.09484 13.5824 7.33385 13.8238 7.72254 13.8317C7.80794 13.8335 7.89304 13.8317 7.97845 13.8317L7.97875 13.832Z" fill="#3D86AF"/>
<path d="M4.47266 7.49678C4.49469 5.89217 5.65321 4.50806 7.27377 4.17011C9.14117 3.78077 11.0493 5.0028 11.4118 6.82264C11.5171 7.35232 11.5032 7.87937 11.3568 8.402C11.2624 8.73966 10.9576 8.93874 10.6344 8.86739C10.2949 8.79252 10.0972 8.49126 10.182 8.14362C10.3187 7.58369 10.2988 7.04285 10.0338 6.51933C9.58871 5.63966 8.59284 5.14433 7.59637 5.30934C6.60533 5.47347 5.83428 6.26741 5.719 7.24281C5.56359 8.5585 6.60744 9.72064 7.96273 9.72299C8.20445 9.72357 8.44738 9.66074 8.6879 9.61699C8.94622 9.57031 9.16924 9.61934 9.33371 9.82722C9.48037 10.0125 9.50301 10.2192 9.40221 10.4335C9.32707 10.5936 9.197 10.6993 9.0265 10.7489C8.19298 10.9923 7.36973 10.9594 6.57666 10.6088C5.50202 10.1341 4.83419 9.32249 4.56772 8.20557C4.51249 7.9745 4.50314 7.73315 4.47266 7.49678Z" fill="#4DC9F5"/>
</svg>
