<svg xmlns="http://www.w3.org/2000/svg" width="99.279" height="67.809" viewBox="0 0 99.279 67.809">
  <g id="ic_services_1" transform="translate(-432.118 -400.982)">
    <g id="Group_67" data-name="Group 67" transform="translate(482.552 401.386)">
      <g id="Group_65" data-name="Group 65">
        <path id="Path_253" data-name="Path 253" d="M21.423,87.559a1.082,1.082,0,0,1-1.08-.926C18.8,77.454,13.4,71.668,8.231,66.037,2.6,60.02-2.8,54.234-2.8,44.823a24.223,24.223,0,1,1,48.445-.077h0c0,9.411-5.323,15.2-11.031,21.291C29.445,71.668,24.045,77.454,22.5,86.711a1.088,1.088,0,0,1-1.077.848Zm0-64.8A22.059,22.059,0,0,0-.64,44.828c0,8.558,5.091,14.035,10.414,19.82,4.551,4.937,9.257,9.951,11.648,17.28,2.391-7.328,7.02-12.42,11.648-17.28,5.4-5.786,10.414-11.186,10.414-19.825A22.059,22.059,0,0,0,21.418,22.76Z" transform="translate(2.8 -20.6)" fill="#00b0e9"/>
        <path id="Path_254" data-name="Path 254" d="M21.423,87.959A1.475,1.475,0,0,1,19.947,86.7c-1.5-8.943-6.745-14.653-11.814-20.174l-.2-.215a59.8,59.8,0,0,1-7.674-9.4,23.87,23.87,0,0,1-2.513-5.533A22.262,22.262,0,0,1-3.2,44.823a24.623,24.623,0,0,1,49.245-.082,22.487,22.487,0,0,1-.938,6.555,23.9,23.9,0,0,1-2.495,5.541A58.71,58.71,0,0,1,34.905,66.3l-.193.21C29.643,72.042,24.4,77.753,22.9,86.776a1.5,1.5,0,0,1-1.477,1.183Zm0-66.959A23.85,23.85,0,0,0-2.4,44.823c0,9.269,5.306,14.939,10.923,20.941l.2.218c5.148,5.608,10.471,11.406,12.014,20.586v.01a.681.681,0,0,0,.684.582.69.69,0,0,0,.685-.514c1.543-9.258,6.867-15.057,12.016-20.666l.2-.213c5.62-6,10.926-11.664,10.926-21.021A23.811,23.811,0,0,0,21.423,21Zm0,62.217-.38-1.165c-2.32-7.111-6.891-12.068-11.311-16.861L9.375,64.8a58.326,58.326,0,0,1-7.184-8.882A22.487,22.487,0,0,1-.155,50.8a20.014,20.014,0,0,1-.885-5.979,22.463,22.463,0,1,1,44.925,0c0,8.825-5.111,14.3-10.522,20.1C28.393,70.14,24.095,75.029,21.8,82.052Zm0-60.057A21.687,21.687,0,0,0-.24,44.823c0,8.35,4.956,13.737,10.2,19.441l.355.386c4.25,4.609,8.637,9.366,11.1,16.058,2.417-6.6,6.584-11.32,11.359-16.335,5.3-5.676,10.3-11.04,10.3-19.55A21.687,21.687,0,0,0,21.423,23.16Z" transform="translate(2.8 -20.6)" fill="#00b0e9"/>
      </g>
      <g id="Group_66" data-name="Group 66" transform="translate(15.048 14.016)">
        <path id="Path_255" data-name="Path 255" d="M5.58,38.237A9.17,9.17,0,0,1-3.6,28.98,9.1,9.1,0,0,1,5.58,19.8a9.218,9.218,0,0,1,9.18,9.257h0A9.2,9.2,0,0,1,5.58,38.237Zm0-16.277a7.078,7.078,0,1,0,5.053,2.1,7.1,7.1,0,0,0-5.053-2.1Z" transform="translate(3.6 -19.8)" fill="#00b0e9"/>
        <path id="Path_256" data-name="Path 256" d="M5.58,38.637A9.493,9.493,0,0,1-1.2,35.829,9.64,9.64,0,0,1-4,28.98,9.5,9.5,0,0,1,5.58,19.4a9.619,9.619,0,1,1,0,19.238Zm0-18.437A8.819,8.819,0,1,0,14.4,29.019,8.818,8.818,0,0,0,5.58,20.2Zm0,16.354a7.5,7.5,0,1,1,0-14.994,7.555,7.555,0,0,1,7.5,7.567v.008a7.467,7.467,0,0,1-7.5,7.419Zm0-14.194a6.7,6.7,0,1,0,6.7,6.778,6.76,6.76,0,0,0-6.7-6.778Z" transform="translate(3.6 -19.8)" fill="#00b0e9"/>
      </g>
    </g>
    <g id="Group_72" data-name="Group 72" transform="translate(432.518 466.2)">
      <g id="Group_68" data-name="Group 68" transform="translate(5.39)">
        <rect id="Rectangle_21" data-name="Rectangle 21" width="81.462" height="2.16" fill="#00b0e9"/>
        <path id="Path_257" data-name="Path 257" d="M-.4-.4H81.862V2.56H-.4ZM81.062.4H.4V1.76H81.062Z" fill="#00b0e9"/>
      </g>
      <g id="Group_69" data-name="Group 69" transform="translate(89.676)">
        <rect id="Rectangle_22" data-name="Rectangle 22" width="2.7" height="2.16" rx="1" fill="#00b0e9"/>
        <path id="Path_258" data-name="Path 258" d="M1-.4h.7A1.4,1.4,0,0,1,3.1,1v.16a1.4,1.4,0,0,1-1.4,1.4H1A1.4,1.4,0,0,1-.4,1.16V1A1.4,1.4,0,0,1,1-.4Zm.7,2.16a.6.6,0,0,0,.6-.6V1A.6.6,0,0,0,1.7.4H1A.6.6,0,0,0,.4,1v.16a.6.6,0,0,0,.6.6Z" fill="#00b0e9"/>
      </g>
      <g id="Group_70" data-name="Group 70" transform="translate(94.714)">
        <rect id="Rectangle_23" data-name="Rectangle 23" width="2.7" height="2.16" rx="1" fill="#00b0e9"/>
        <path id="Path_259" data-name="Path 259" d="M1-.4h.7A1.4,1.4,0,0,1,3.1,1v.16a1.4,1.4,0,0,1-1.4,1.4H1A1.4,1.4,0,0,1-.4,1.16V1A1.4,1.4,0,0,1,1-.4Zm.7,2.16a.6.6,0,0,0,.6-.6V1A.6.6,0,0,0,1.7.4H1A.6.6,0,0,0,.4,1v.16a.6.6,0,0,0,.6.6Z" fill="#00b0e9"/>
      </g>
      <g id="Group_71" data-name="Group 71">
        <rect id="Rectangle_24" data-name="Rectangle 24" width="2.7" height="2.16" fill="#00b0e9"/>
        <path id="Path_260" data-name="Path 260" d="M-.4-.4H3.1V2.56H-.4ZM2.3.4H.4V1.76H2.3Z" fill="#00b0e9"/>
      </g>
    </g>
    <g id="Group_77" data-name="Group 77" transform="translate(442.2 406.539)">
      <g id="Group_73" data-name="Group 73" transform="translate(4.483 32.229)">
        <path id="Path_261" data-name="Path 261" d="M54.479,48.023H45.531V25.728l-.386-.386H32.185v22.6H-.6V19.48A1.055,1.055,0,0,1,.48,18.4h0a1.055,1.055,0,0,1,1.08,1.08h0V45.863H30.1V23.183H46.071l1.7,1.62v21.06H52.4V33.134a1.055,1.055,0,0,1,1.08-1.08h0a1.055,1.055,0,0,1,1.08,1.08ZM24.317,37.608H9.968V23.183H24.317Zm-12.188-2.16H22.157V25.42H12.128Z" transform="translate(0.6 -18.4)" fill="#00b0e9"/>
        <path id="Path_262" data-name="Path 262" d="M54.877,48.423H45.131V25.894l-.151-.151h-12.4v22.6H-1V19.48A1.448,1.448,0,0,1,.48,18a1.448,1.448,0,0,1,1.48,1.48V45.463H29.7V22.783H46.231l1.937,1.849V45.463H52V33.134a1.48,1.48,0,0,1,2.96,0Zm-8.946-.8h8.151l.075-14.49a.68.68,0,1,0-1.36,0v13.13H47.368V24.974l-1.457-1.391H30.5v22.68H1.16V19.48a.658.658,0,0,0-.68-.68.658.658,0,0,0-.68.68V47.545H31.785v-22.6H45.311l.62.62ZM24.717,38.008H9.568V22.783H24.717Zm-14.348-.8H23.917V23.583H10.368Zm12.188-1.36H11.728V25.02H22.557Zm-10.028-.8h9.228V25.82H12.528Z" transform="translate(0.6 -18.4)" fill="#00b0e9"/>
      </g>
      <g id="Group_74" data-name="Group 74">
        <path id="Path_263" data-name="Path 263" d="M5.071,54.611a1.239,1.239,0,0,1-.849-.386l-4.4-5.014A1.172,1.172,0,0,1-.1,47.668h0L30.836,20.514a.978.978,0,0,1,1.389,0l10.8,9.566a1.092,1.092,0,0,1-1.466,1.62h0L31.53,22.829,2.216,48.594l3.009,3.394,25.611-22.68a1.072,1.072,0,0,1,1.466,0l9.411,8.563a1.092,1.092,0,1,1-1.466,1.62h0L31.53,31.623,5.765,54.38A1.077,1.077,0,0,1,5.071,54.611Z" transform="translate(0.429 -20.225)" fill="#00b0e9"/>
        <path id="Path_264" data-name="Path 264" d="M5.071,55.011a1.634,1.634,0,0,1-1.131-.5l-.018-.019-4.4-5.022a1.576,1.576,0,0,1,.1-2.082l.019-.018L30.563,20.222a1.378,1.378,0,0,1,1.935,0l10.788,9.555a1.5,1.5,0,0,1,.123,2.1,1.409,1.409,0,0,1-1.088.5A1.6,1.6,0,0,1,41.3,32l-.009,0L31.53,23.362,2.782,48.629l2.477,2.794,25.3-22.407a1.385,1.385,0,0,1,.977-.4A1.6,1.6,0,0,1,32.558,29l.013.011,9.4,8.557a1.467,1.467,0,0,1,.523,1.049,1.419,1.419,0,0,1-.414,1.065,1.456,1.456,0,0,1-1.108.518,1.428,1.428,0,0,1-1.006-.42l-8.445-7.623L6.037,54.673a1.473,1.473,0,0,1-.966.338Zm-.557-1.06a.841.841,0,0,0,.557.26.735.735,0,0,0,.411-.114L5.5,54.08,31.533,31.086l9,8.122a.626.626,0,0,0,.448.194.66.66,0,0,0,.5-.244l.024-.027a.619.619,0,0,0,.193-.476.666.666,0,0,0-.244-.477l-.013-.011-9.4-8.556a.8.8,0,0,0-.5-.191.583.583,0,0,0-.421.172l-.018.017L5.191,52.553,1.65,48.559,31.531,22.3l10.288,9.1a.794.794,0,0,0,.5.184.6.6,0,0,0,.473-.214.8.8,0,0,0,.187-.53.6.6,0,0,0-.213-.449l-.009-.008L31.942,20.8a.578.578,0,0,0-.823,0l-.019.018L.177,47.959a.772.772,0,0,0-.048.992Z" transform="translate(0.429 -20.225)" fill="#00b0e9"/>
      </g>
      <g id="Group_75" data-name="Group 75" transform="translate(15.014 37.02)">
        <path id="Path_265" data-name="Path 265" d="M13.126,32.526H-1.3V18.1H13.048S13.048,32.526,13.126,32.526ZM.86,30.366H10.966V20.337H.86Z" transform="translate(1.3 -18.1)" fill="#00b0e9"/>
        <path id="Path_266" data-name="Path 266" d="M13.126,32.926H-1.7V17.7H13.448v.4c0,5.524.018,13.907.069,14.358a.4.4,0,0,0-.392-.332ZM-.9,32.126H12.7v-.212c-.007-.375-.013-.927-.019-1.638-.01-1.2-.017-2.866-.023-4.961-.008-2.872-.009-5.775-.01-6.814H-.9Zm12.266-1.36H.46V19.937H11.366Zm-10.106-.8h9.306V20.737H1.26Z" transform="translate(1.3 -18.1)" fill="#00b0e9"/>
      </g>
      <g id="Group_76" data-name="Group 76" transform="translate(26.424 20.801)">
        <path id="Path_267" data-name="Path 267" d="M3.554,30.208a5.564,5.564,0,1,1,5.554-5.554h0a5.531,5.531,0,0,1-5.554,5.554Zm0-8.948a3.375,3.375,0,1,0,2.406.988,3.394,3.394,0,0,0-2.406-.988Z" transform="translate(2 -19.1)" fill="#00b0e9"/>
        <path id="Path_268" data-name="Path 268" d="M3.554,30.608a5.954,5.954,0,1,1,5.954-5.954,5.954,5.954,0,0,1-5.954,5.954Zm0-11.108a5.154,5.154,0,1,0,5.154,5.154A5.154,5.154,0,0,0,3.554,19.5Zm0,8.948a3.824,3.824,0,1,1,2.674-1.12,3.764,3.764,0,0,1-2.674,1.12Zm0-6.788a2.994,2.994,0,1,0,0,5.988,3.034,3.034,0,0,0,2.994-2.994A2.962,2.962,0,0,0,3.554,21.66Z" transform="translate(2 -19.1)" fill="#00b0e9"/>
      </g>
    </g>
    <g id="Group_78" data-name="Group 78" transform="translate(449.599 412.008)">
      <path id="Path_269" data-name="Path 269" d="M-.8,38.823V20H9V30.183ZM1.36,22.16V34.04l5.477-4.86V22.16Z" transform="translate(0.8 -20)" fill="#00b0e9"/>
      <path id="Path_270" data-name="Path 270" d="M-1.2,39.709V19.6H9.4V30.363ZM-.4,20.4V37.937L8.6,30V20.4ZM.96,34.93V21.76H7.237v7.6Zm.8-12.37V33.15L6.437,29V22.56Z" transform="translate(0.8 -20)" fill="#00b0e9"/>
    </g>
  </g>
</svg>
