<svg xmlns="http://www.w3.org/2000/svg" width="18.5" height="20.249" viewBox="0 0 18.5 20.249">
  <path id="Path_32761" data-name="Path 32761" d="M7.23,10.131C6.065,9.556,4.945,9,3.823,8.454A.669.669,0,0,1,3.5,8.1Q1.805,4.4.108.709C.09.668.071.627.053.587A.438.438,0,0,1,.076.13.256.256,0,0,1,.449.046c.569.312,1.139.621,1.709.932L18.165,9.7l.052.026a.417.417,0,0,1,.283.411.432.432,0,0,1-.292.4q-.744.4-1.487.809L.56,20.165c-.057.031-.117.088-.172.082-.1-.013-.238-.025-.3-.108a.755.755,0,0,1-.06-.382.574.574,0,0,1,.083-.206Q1.8,15.876,3.48,12.2a.749.749,0,0,1,.369-.4c1.065-.517,2.127-1.045,3.19-1.57.05-.024.1-.052.191-.1Z" transform="translate(0 0.001)" fill="#fff"/>
</svg>
