<svg xmlns="http://www.w3.org/2000/svg" width="460.622" height="664.948" viewBox="0 0 460.622 664.948">
  <g id="ic_side_banner" transform="translate(0.622)">
    <rect id="Rectangle_29" data-name="Rectangle 29" width="460" height="658" fill="#00b0e9"/>
    <path id="Path_329" data-name="Path 329" d="M43.116,738.176a5.3,5.3,0,0,1,.861-4.181l.133,1.659Z" transform="translate(-9.876 -280.424)" fill="#dd9588"/>
    <path id="Path_330" data-name="Path 330" d="M394.194,928.623c.354-.686.707-1.372,1.061-2.127,2.475-7.892,1.591-12.764.472-15.715-4.421-11.529-16.5-17.706-43.08-22.715-1.945-.343-14.085-4.8-18.859-18.323-3.124-8.784-1.356-17.568-.118-22.852,4.243-18.666,13.731-20.244,18.8-35.616,4.184-12.7,4.007-30.744-4.184-44.194-10.254-16.882-29.7-21-44.023-17.636-14.026,3.294-23.691,14.342-28.523,21.068A101.467,101.467,0,0,0,260.063,743c-19.743-24.5-49.976-36.1-77.439-31.7-30.7,4.941-49.739,28.548-59.287,40.42-53.57,66.634-40.015,168.815-37.128,188.167H475.051C454.66,936.515,422.659,932.741,394.194,928.623Z" transform="translate(-19.103 -274.939)" fill="#e2b674"/>
    <path id="Path_331" data-name="Path 331" d="M186.125,921.147c2.716,5.64,7.486,8.626,9.541,9.952a31.806,31.806,0,0,0,12.919,4.446,27.668,27.668,0,0,0,3.512.2c35.447,0,52.673.531,65.461.531,29.814,0,77.253-.133,139.8-.133,8.614-4.645,45.12-26.74,59.365-74.778.994-3.252,19.347-69.6-13.848-108.154-2.054-2.389-22.791-25.878-44.59-20.37-22.991,5.772-26.1,38.749-54.131,45.385-11.926,2.853-21.931-.6-25.309-1.791-27.628-9.82-27.894-39.347-52.209-47.442-12.589-4.18-29.086-.663-38.495,11.412-13.185,16.853-10.866,45.716.8,63.433,7.023,10.616,14.378,13.469,18.486,27,1.458,4.777,4.372,15-.133,25.944-6.361,15.327-22.394,20.37-24.912,20.768-29.689,4.781-52.882,11.95-56.788,25.75C182.48,913.649,186.125,921.147,186.125,921.147Z" transform="translate(-42.834 -278.871)" fill="#ffd494"/>
    <path id="Path_332" data-name="Path 332" d="M448.715,926.072c7.355-1.061,9.607-4.909,17.69-4.645,6.559.2,7.752,2.853,15.57,4.645,4.24,1,17.227,3.981,24.382-1.791,8.414-6.9,8.613-21.232,2.451-31.517-7.487-12.341-18.618-18.114-22.395-29.792-1.59-4.909-.6-6.768-.927-13.934-1.126-25.081-12.986-52.617-22-52.219-3.313.133-5.566,3.981-8.68,9.356-4.306,7.3-4.306,12.541-6.891,26.873-2.12,11.479-3.114,17.251-5.5,23.355-3.445,8.957-6.029,10.418-10.932,19.508-7.355,13.469-15.57,28.531-9.939,39.014C426.056,923.285,439.175,927.4,448.715,926.072Z" transform="translate(-97.714 -295.01)" fill="#f89c53"/>
    <path id="Path_333" data-name="Path 333" d="M486.25,960.649s-11.263-25.147-9.077-49.366c2.186-24.284,4.77-19.375,1.325-40.873s-1.59-37.555-1.59-37.555-7.62,29.393-2.783,46.38-7.354,23.82-6.493,50.228-.066,31.186-.066,31.186Z" transform="translate(-108.88 -303.377)" fill="#465477"/>
    <path id="Path_334" data-name="Path 334" d="M217.484,812.479s1.656,24.218-4.969,66.418l-11.661,66.75-7.619-.332s-.729-52.219,4.041-68.807c-.464-11.744-4.24-21.432-6.294-31.849a19.465,19.465,0,0,1-4.306-8.361c-1.524-5.242-.994-15.526,1.988-19.839C193.5,809.227,197.542,808.9,217.484,812.479Z" transform="translate(-43.187 -298.129)" fill="#453c73"/>
    <path id="Path_335" data-name="Path 335" d="M187.093,823.264s4.042,6.436,8.282,7.431c4.506,1.128,9.673,49.83,9.673,49.83l3.445,20.37s-3.047-20.436-7.288-29.792c-1.656-3.715-6.1-14.8-9.739-22.626-1.59-2.123-2.982-3.252-4.042-6.768C185.3,834.543,186.5,828.838,187.093,823.264Z" transform="translate(-43.273 -301.15)" fill="#403a65" opacity="0.4"/>
    <path id="Path_336" data-name="Path 336" d="M397.869,918.921H266.418a10.809,10.809,0,0,1-10.8-10.815V663.665a10.809,10.809,0,0,1,10.8-10.815H397.869a10.81,10.81,0,0,1,10.8,10.815V908.1a10.9,10.9,0,0,1-10.8,10.816Z" transform="translate(-59.457 -261.582)" fill="#4b4c61"/>
    <path id="Path_337" data-name="Path 337" d="M397.26,675.837H276.874V800.181H397.26Z" transform="translate(-64.413 -266.92)" fill="#fff"/>
    <path id="Path_338" data-name="Path 338" d="M344.3,801.729a36.892,36.892,0,1,0-36.838-36.891A36.892,36.892,0,0,0,344.3,801.729Z" transform="translate(-71.546 -279.02)" fill="#8fdd66"/>
    <path id="Path_339" data-name="Path 339" d="M352.157,792.194l-20.027-13a6.425,6.425,0,0,1,7-10.775l8.994,5.84,12.451-20.211a6.423,6.423,0,0,1,10.938,6.738Z" transform="translate(-78.114 -285.861)" fill="#fff"/>
    <path id="Path_340" data-name="Path 340" d="M255.446,866.835V663.665a10.81,10.81,0,0,1,10.8-10.815h113.3Z" transform="translate(-59.416 -261.582)" fill="#fff" opacity="0.3"/>
    <path id="Path_341" data-name="Path 341" d="M397.128,854.114H276.874v18.313H397.128Z" transform="translate(-64.413 -308.313)" fill="#fff" opacity="0.55"/>
    <path id="Path_342" data-name="Path 342" d="M224.781,818.9s-2.85-3.981-15.967-5.175a63.425,63.425,0,0,1-8.68-1.526,15.756,15.756,0,0,0-4.439,3.053c-1.193,1.194-4.042,3.914-4.77,10.218a28.159,28.159,0,0,0,1.258,12.673c.994,3.451,3.578,5.839,5.632,8.427,6.294,17.583,7.354,26.408,8.282,29.726,1.458,19.109,12.787,70.333,12.787,70.333H226.5s-2.054-65.555-2.054-70.266c0-10.351-1.458-28.8-.994-41.8a126.072,126.072,0,0,0,1.329-15.663Z" transform="translate(-44.321 -298.582)" fill="#544a89"/>
    <path id="Path_343" data-name="Path 343" d="M351.506,753.89H273.192a8.433,8.433,0,0,1-8.414-8.427V703.794a8.433,8.433,0,0,1,8.414-8.427H351.44a8.433,8.433,0,0,1,8.415,8.427v41.669a8.335,8.335,0,0,1-8.349,8.427Z" transform="translate(-61.593 -271.455)" fill="#02a4d3"/>
    <path id="Path_344" data-name="Path 344" d="M326.509,729.329h-53v9.952h53Z" transform="translate(-63.627 -279.34)" fill="#ece9e7"/>
    <path id="Path_345" data-name="Path 345" d="M359.88,711.354H264.6v9.953h95.28Z" transform="translate(-61.552 -275.166)" fill="#ece9e7"/>
    <path id="Path_346" data-name="Path 346" d="M319.212,637.932a3.06,3.06,0,0,1-3.059-3.046,29.827,29.827,0,1,1,59.654-.16,3.06,3.06,0,1,1-6.119.028,23.708,23.708,0,1,0-47.415.1,3.06,3.06,0,0,1-3.045,3.073Z" transform="translate(-74.286 -251.168)" fill="#f26f6f"/>
    <path id="Path_347" data-name="Path 347" d="M334.159,642.021a3.06,3.06,0,0,1-3.06-3.06,18.928,18.928,0,0,1,37.856-.067,3.06,3.06,0,1,1-6.12,0,12.809,12.809,0,1,0-25.617.067,3.06,3.06,0,0,1-3.059,3.06Z" transform="translate(-77.771 -254.66)" fill="#f28282"/>
    <path id="Path_348" data-name="Path 348" d="M346.861,642.87a5.566,5.566,0,1,1,11.132,0Z" transform="translate(-80.733 -257.971)" fill="#ff9d9d"/>
    <path id="Path_349" data-name="Path 349" d="M258.039,711.83c-.8-.73-2.584,1.592-3.578,1.659h-.53c-.133,0-.53-.4-.928-.4a3.5,3.5,0,0,0-.728.2c-.331,0-.729-.4-1.126-.4-.265,0-.729.4-.994.4-.331.066-.928-.266-1.392-.133-.663.133-.8.4-1.391.929-2.319,1.924-2.253,4.91-3.181,6.038-2.186,2.919-9.673,6.834-17.16,12.009-3.512,2.389-14.642,8.692-14.642,8.692l-4.638,2.786s-10.336-20.038-12.787-4.18c0,0,.663,10.55,10.6,20.436,4.373,2.19,13.185-5.175,20.009-11.943l.066.067.994-1.062c4.7-4.777,8.216-8.957,8.216-8.957l-.067-.066c.53-.6,7.752-9.091,9.673-11.147a11.736,11.736,0,0,1,4.77-3.119,28.861,28.861,0,0,0,4.306-2.19,7.084,7.084,0,0,0,2.386-2.786c.53-.8-.53-.8-1.458-.464-.728.266-2.584,1.261-2.717,1.194a6.4,6.4,0,0,1,.928-1,21.928,21.928,0,0,0,1.789-1.924c.861-.929,1.259-1.592,1.922-2.19C256.913,713.953,258.7,712.427,258.039,711.83Z" transform="translate(-45.313 -275.244)" fill="#fbad83"/>
    <path id="Path_350" data-name="Path 350" d="M229.178,762.444c.53,3.848.4,6.1-2.783,9.688-1.789,1.99-1.06,6.436-1.458,9.621a65.887,65.887,0,0,0-.663,13.337c.067.6.133,8.692-.53,10.483-1.192,3.318-3.975,3.053-8.282,3.252-1.922.066-4.042.133-6.493.066-17.292-.265-22.13-4.246-22.13-4.246a28.692,28.692,0,0,1,3.048-8.162c2.716-4.909,4.7-10.218,4.836-13.8.928-21.83,2.518-34.3,6.228-39.082a13.537,13.537,0,0,1,8.68-5.838s10-1.261,17.028,4.379c4.572,3.649,5.9,5.441,5.9,5.441l-6.228,11.347,3.313.663a3.724,3.724,0,0,0-.466,2.851Z" transform="translate(-43.419 -281.27)" fill="#f071a9"/>
    <path id="Path_351" data-name="Path 351" d="M244.586,750.588l17.69,16.123,23.72-.4a20.1,20.1,0,0,1,4.306-2.057,7.235,7.235,0,0,1,4.24.531c.066,1.659-2.717,1.46-2.717,1.46l2.452.2,5.764.266-2.915,1.857s-3.644,2.456-5.367,2.588a35.882,35.882,0,0,1-5.566-.73L262.541,775.8a3.718,3.718,0,0,1-2.783-.464l-21.334-13.4Z" transform="translate(-55.447 -284.275)" fill="#fbad83"/>
    <path id="Path_352" data-name="Path 352" d="M235.5,779.385c-1.789,1.925-1.656,6.5-1.856,9.622-.265,5.175-.663,10.351-.663,10.351-.132,4.512-.066,10.55-.663,15.46-3.577.332-8.149.531-8.149.531v.067c0-1.128,2.385-8.958,3.18-23.688a60.86,60.86,0,0,1,7.752-26.275l3.313,1.924s-1.126.73-.53,2.787C238.876,773.546,238.678,775.868,235.5,779.385Z" transform="translate(-52.123 -287.727)" fill="#d36396"/>
    <path id="Path_353" data-name="Path 353" d="M224.468,949.824a.267.267,0,0,1-.266-.259L222.413,887.8l-4.636-38.6-1.9-18.065a97.884,97.884,0,0,1-13.486-.143,56.17,56.17,0,0,1-9-1.455,20.7,20.7,0,0,1-6.45-2.513.267.267,0,0,1,.311-.433h0a20.8,20.8,0,0,0,6.322,2.443c4.118,1.048,11.369,2.168,22.527,1.555l.253-.014L218.3,849.14l4.639,38.637,1.789,61.774a.267.267,0,0,1-.259.274Z" transform="translate(-43.479 -301.973)" fill="#9764a7"/>
    <path id="Path_354" data-name="Path 354" d="M191.767,747.644s.6,17.451,13.847,17.915c22.659.8,19.479-24.882,27.761-17.583a41.644,41.644,0,0,0-7.95-6.635s-2.584,7.432-8.415,10.218C212.836,753.55,197.73,755.142,191.767,747.644Z" transform="translate(-44.567 -282.129)" fill="#d36396"/>
    <path id="Path_355" data-name="Path 355" d="M238.2,760.333a.267.267,0,0,1-.236-.39l5.212-9.982a26.375,26.375,0,0,0-5.833-4.325.267.267,0,1,1,.258-.467,25.677,25.677,0,0,1,6.1,4.565l.126.138L238.44,760.19a.267.267,0,0,1-.24.143Z" transform="translate(-55.226 -283.072)" fill="#f8bbd6"/>
    <path id="Path_356" data-name="Path 356" d="M194.584,834.023l10.237.919.558,8.451-4.333,1.708-3.387-1.7Zm9.735,1.409-8.976-.806,2.754,8.4,2.975,1.49,3.749-1.478Z" transform="translate(-45.313 -303.719)" fill="#9764a7"/>
    <path id="Path_357" data-name="Path 357" d="M186.216,833.07l1.35.169,1.574-.078.212,7.416-2,.919-.852-2.1Zm1.33.7-.769-.1.249,5.61.607,1.491,1.177-.54-.187-6.518Z" transform="translate(-43.338 -303.498)" fill="#9764a7"/>
    <path id="Path_358" data-name="Path 358" d="M208.546,711.3c2.252,11.678,11.33,10.285,18.75,9.621,5.83-1.128,5.367-11.412,5.963-19.441-.133-1.924-.464-4.445-.728-6.237-1.392-8.227-13.914-6.37-21-2.985C205.763,695.1,206.823,702.471,208.546,711.3Z" transform="translate(-48.162 -270.064)" fill="#fcc197"/>
    <path id="Path_359" data-name="Path 359" d="M240.962,715.405c-.5,0-.629-.546-.678-.752a8.388,8.388,0,0,1-.159-1.049c-.089-.881-.139-2.05-.139-3.289s.049-2.407.139-3.289a8.388,8.388,0,0,1,.159-1.049c.049-.206.18-.752.678-.752s.629.546.678.752a8.394,8.394,0,0,1,.159,1.049c.089.882.139,2.05.139,3.289s-.049,2.407-.139,3.289a8.394,8.394,0,0,1-.159,1.049C241.59,714.859,241.46,715.405,240.962,715.405Z" transform="translate(-55.931 -273.861)" fill="#fff"/>
    <path id="Path_360" data-name="Path 360" d="M237.386,713.241h-8.812a.763.763,0,1,1,0-1.525h8.812a.763.763,0,1,1,0,1.525Z" transform="translate(-53.15 -275.428)" fill="#fff"/>
    <path id="Path_361" data-name="Path 361" d="M195.257,751.638c10.336,5.242,23.918-1.593,27.5-10.218,3.644-8.758.6-19.308-2.253-24.484-1.258-2.256-3.908-8.758-.53-11.413,2.319-1.857,7.355-3.716,7.818-7.232.53-3.715-.331-5.175-1.856-6.967-4.7-5.507-16.829-3.185-22.659,3.384-4.638,5.242-9.474,13.867-12.389,20.768-4.77,11.213-4.174,19.906-3.777,23.422C187.77,744.007,189.029,748.519,195.257,751.638Z" transform="translate(-43.42 -269.799)" fill="#fff"/>
    <path id="Path_362" data-name="Path 362" d="M187.567,737.02c.464,0-2.518,13.2,4.836,20.7,5.1,5.242,13.185,5.64,19.413,5.175a20.569,20.569,0,0,1-10.733,1.792c-.994-.133-5.7-.6-9.275-3.517C182.928,754.072,187.3,738.148,187.567,737.02Z" transform="translate(-43.283 -281.125)" fill="#633b2c"/>
    <path id="Path_363" data-name="Path 363" d="M105.356,862.151H82.034v23.356h23.322Z" transform="translate(-18.979 -310.18)" fill="#819ed2"/>
    <path id="Path_364" data-name="Path 364" d="M133.362,878.168a3.485,3.485,0,0,0-2.849-1.46H37.291L34.773,865.76A4.831,4.831,0,0,0,30,861.978H9.729a1.659,1.659,0,1,0,0,3.318H30a1.56,1.56,0,0,1,1.524,1.261l2.783,12.209v.066l6.957,30.588,3.578,15.726h.066l7.619,29.062a4.753,4.753,0,0,0,4.572,3.517h61.617a1.659,1.659,0,0,0,0-3.318H57.1a1.431,1.431,0,0,1-1.391-1.061L48.355,925.08h70.032a3.679,3.679,0,0,0,3.512-2.654l12.058-41.071a3.448,3.448,0,0,0-.6-3.187Zm-10.469,29.2h-14.51l1.061-12.209h17.028Zm-17.823,0H88.706V895.154h17.425ZM85.459,895.154v12.209H68.5l-1.06-12.209Zm-18.353-3.317-1.06-11.877H85.459v11.877Zm-1.921,15.526H44.314l-2.783-12.209H64.125ZM45.043,910.68H65.516l.994,11.08H47.627Zm23.719,0h16.7v11.08h-15.7Zm19.943,0h16.1l-.994,11.08h-15.1Zm0-18.844V879.959h18.816l-1.06,11.877ZM62.733,880.025l1.06,11.877H40.736L38.02,880.025Zm56.052,41.47a.449.449,0,0,1-.4.265h-11.33l.994-11.08H121.9Zm11.992-41.072L127.4,891.9H109.71l1.06-11.877h19.744a.345.345,0,0,1,.265.133.323.323,0,0,1,0,.268Z" transform="translate(-1.733 -310.139)" fill="#fff"/>
    <path id="Path_365" data-name="Path 365" d="M119.551,960.259H57.933a6.738,6.738,0,0,1-6.593-5.176l-7.93-30.24L30.351,867.764h-19a3.712,3.712,0,1,1,0-7.425H31.365a6.156,6.156,0,0,1,6,4.787L50.62,923.074l7.923,30.209,61.008-.448a3.712,3.712,0,1,1,0,7.425Z" transform="translate(-2.498 -310.621)" fill="#737e9a"/>
    <path id="Path_366" data-name="Path 366" d="M18.214,866.327H2.379a3.384,3.384,0,1,1,0-6.768H18.214Z" transform="translate(0.383 -309.578)" fill="#86acd5"/>
    <path id="Path_367" data-name="Path 367" d="M544.114,932.738a31.318,31.318,0,1,0-31.272-31.318A31.318,31.318,0,0,0,544.114,932.738Z" transform="translate(-119.437 -312.025)" fill="#f26f6f"/>
    <path id="Path_368" data-name="Path 368" d="M141.05,879.78H112.362v23.356H141.05Z" transform="translate(-26.051 -314.271)" fill="#a0c8ea"/>
    <path id="Path_369" data-name="Path 369" d="M552.629,888.249l-5.83,85.262h10.468Z" transform="translate(-127.356 -316.238)" fill="#465477"/>
    <path id="Path_370" data-name="Path 370" d="M397.128,885.483H276.874V903.8H397.128Z" transform="translate(-64.413 -315.596)" fill="#fff" opacity="0.55"/>
    <path id="Path_371" data-name="Path 371" d="M84.739,890.376l-.331-3.715H102.23v3.715l1.524.067v-7.034h-21.2l.861,6.967Z" transform="translate(-19.1 -315.115)" fill="#7894c5"/>
    <path id="Path_372" data-name="Path 372" d="M129.479,883.669l-1.855,18.446h-16.3v2.256h23.123v-2.92h6.36v-2.985H131.6l1.325-14.8Z" transform="translate(-25.81 -315.176)" fill="#bad7f0"/>
    <path id="Path_373" data-name="Path 373" d="M101.9,892.483H78.578v23.356H101.9Z" transform="translate(-18.173 -317.223)" fill="#bad7f0"/>
    <path id="Path_374" data-name="Path 374" d="M104.5,892.483,88.328,913.649l-3.71-21.166-2.584.067,1.656,21.9H103.7Z" transform="translate(-18.979 -317.223)" fill="#a0c8ea"/>
    <path id="Path_375" data-name="Path 375" d="M472.653,908.29l-18.22-10.882,18.22,3.451Z" transform="translate(-105.817 -318.365)" fill="#465477"/>
    <path id="Path_376" data-name="Path 376" d="M548.064,907.6l-18.287-10.881,18.287,6.966Z" transform="translate(-123.386 -318.205)" fill="#465477"/>
    <path id="Path_377" data-name="Path 377" d="M480.956,923.1l24.25-6.768L480.1,930.863Z" transform="translate(-111.801 -322.76)" fill="#465477"/>
    <path id="Path_378" data-name="Path 378" d="M554.42,920.855l24.382-6.768-25.177,14.531Z" transform="translate(-128.947 -322.238)" fill="#465477"/>
    <path id="Path_379" data-name="Path 379" d="M397.128,916.939H276.874v18.313H397.128Z" transform="translate(-64.413 -322.9)" fill="#fff" opacity="0.55"/>
    <path id="Path_380" data-name="Path 380" d="M141.457,910.2H107v23.356h34.453Z" transform="translate(-24.802 -321.334)" fill="#6e82a8"/>
    <path id="Path_381" data-name="Path 381" d="M116.163,910.2v13.536h11.992l-.994,10.418h2.849l1.391-13.138H117.687V910.2Z" transform="translate(-26.938 -321.334)" fill="#65779a"/>
    <path id="Path_382" data-name="Path 382" d="M98.179,922.988H69.16v12.938H98.18Z" transform="translate(-15.977 -324.305)" fill="#7287af"/>
    <path id="Path_383" data-name="Path 383" d="M69.16,936.488c2.584,0,29.02-11.08,29.02-11.08v11.08Z" transform="translate(-15.977 -324.867)" fill="#697ca0"/>
    <path id="Path_384" data-name="Path 384" d="M421.749,952.456h-39.29v17.052h39.29Z" transform="translate(-89.034 -331.146)" fill="#3abd9d"/>
    <path id="Path_385" data-name="Path 385" d="M368.7,952.456H329.41v17.052H368.7Z" transform="translate(-76.663 -331.146)" fill="#f6ca65"/>
    <path id="Path_386" data-name="Path 386" d="M315.472,952.456h-39.29v17.052h39.29Z" transform="translate(-64.252 -331.146)" fill="#f26f6f"/>
    <path id="Path_387" data-name="Path 387" d="M203.343,983.552l-.663,3.782,10.667,3.517.663.332a.791.791,0,0,1-.4,1.46l-10.071.664c-1.59.132-6.559.265-7.752-.531-1.325-.862-1.06-.729-1.259-1.924l.464-2.521.6-5.109Z" transform="translate(-45.212 -338.289)" fill="#fab074"/>
    <path id="Path_388" data-name="Path 388" d="M234.526,984.137l.794,3.915,10.6,3.451.663.332a.791.791,0,0,1-.4,1.46l-10.071.663c-1.59.133-6.559.266-7.752-.53-1.325-.863-1.06-.73-1.259-1.924l.464-2.521-.265-5.242Z" transform="translate(-52.808 -338.41)" fill="#fab074"/>
    <path id="Path_389" data-name="Path 389" d="M195.062,988.405s-1.856,6.37,1.391,7.63c2.849,1.062,10.469.73,16.5.531,1.921-.067,5.366-.4,4.969-1.991-.464-1.791-9.276-4.047-9.276-4.047.4.132,1.789.6,2.253.729,1.126.4-.2.929-1.722,1C205.266,992.453,194.267,992.718,195.062,988.405Z" transform="translate(-45.213 -339.494)" fill="#544a89"/>
    <path id="Path_390" data-name="Path 390" d="M227.485,988.924s-1.723,6.5,1.524,7.763c2.849,1.063,10.469.729,16.5.531,1.921-.066,5.366-.4,4.969-1.991-.464-1.791-9.276-4.047-9.276-4.047.464.133,1.789.6,2.253.73,1.126.4-.2.928-1.722,1C237.821,993.1,227.684,993.171,227.485,988.924Z" transform="translate(-52.79 -339.613)" fill="#544a89"/>
    <path id="Path_391" data-name="Path 391" d="M80.157,996.244a5.043,5.043,0,1,0-5.035-5.043A5.043,5.043,0,0,0,80.157,996.244Z" transform="translate(-17.367 -338.973)" fill="#737e9a"/>
    <path id="Path_392" data-name="Path 392" d="M137.529,996.244a5.043,5.043,0,1,0-5.035-5.043A5.043,5.043,0,0,0,137.529,996.244Z" transform="translate(-30.746 -338.973)" fill="#737e9a"/>
    <path id="Path_393" data-name="Path 393" d="M80.741,994.9a3.119,3.119,0,1,0-3.114-3.119,3.119,3.119,0,0,0,3.114,3.119Z" transform="translate(-17.952 -339.555)" fill="#9abde2"/>
    <path id="Path_394" data-name="Path 394" d="M138.113,994.9A3.119,3.119,0,1,0,135,991.784a3.119,3.119,0,0,0,3.113,3.116Z" transform="translate(-31.33 -339.555)" fill="#9abde2"/>
    <g id="ic_logo" transform="translate(15.644 38.38)">
      <g id="Group_20389" data-name="Group 20389" transform="translate(34.02 12.62)">
        <path id="Path_35582" data-name="Path 35582" d="M34.02,79.086H53.569l45.2-45.179V12.62Z" transform="translate(-34.02 -12.62)" fill="#fff"/>
        <path id="Path_35583" data-name="Path 35583" d="M479.545,61.2V17.4H464.592V45.844L432.22,12.62V33.907l45.2,45.179h19.549Z" transform="translate(-367.468 -12.62)" fill="#fff"/>
      </g>
      <g id="Group_20390" data-name="Group 20390" transform="translate(34.02 85.61)">
        <path id="Path_35584" data-name="Path 35584" d="M34.02,461.48h4.757v18.3H47.96v-18.3H52.65v44.13H47.96V484.076H38.777v21.536H34.02Z" transform="translate(-34.02 -461.48)" fill="#fff"/>
        <path id="Path_35585" data-name="Path 35585" d="M196.713,535.393v16.744c0,5.816-2.437,8.749-7.359,8.749-5.169,0-7.05-3.281-7.05-8.7V535.393c0-5.616,2.587-8.593,7.26-8.593C194.475,526.8,196.713,530.182,196.713,535.393Zm-10.8-.148v17.2c0,3.779,1.342,5.219,3.578,5.219,2.338,0,3.58-1.443,3.58-5.369V535.245c0-3.525-1.194-5.219-3.629-5.219-2.379.007-3.523,1.6-3.523,5.226Z" transform="translate(-158.183 -516.178)" fill="#fff"/>
        <path id="Path_35586" data-name="Path 35586" d="M298.936,529.56v25.8c0,2.734.945,4.627,3.479,4.627s3.38-1.791,3.38-4.574V529.56h3.578v25.7c0,5.12-2.338,7.954-7.05,7.954-4.574,0-6.909-2.584-6.909-7.854v-25.8Z" transform="translate(-252.9 -518.489)" fill="#fff"/>
        <path id="Path_35587" data-name="Path 35587" d="M404.4,551.117v1.939c0,3.131,1.1,4.772,3.43,4.772,2.386,0,3.281-1.692,3.281-5.369,0-3.878-.846-5.369-4.325-8.1-3.58-2.785-5.369-4.475-5.369-9.346,0-4.223,1.293-8.253,6.462-8.2,4.97,0,6.264,3.281,6.264,7.506v1.542h-3.525v-1.443c0-2.734-.5-4.523-2.785-4.523s-2.884,1.983-2.884,4.574c0,3.085.646,4.274,3.679,6.561,4.627,3.481,6.065,5.468,6.065,10.937,0,4.673-1.342,8.95-6.96,8.95-5.319,0-6.861-3.525-6.861-7.905v-1.89Z" transform="translate(-341.215 -516.183)" fill="#fff"/>
        <path id="Path_35588" data-name="Path 35588" d="M518.537,546.71H511.08v12.825h8.451l-.441,3.232H507.55V529.56h11.384v3.283H511.08v10.589h7.458Z" transform="translate(-430.548 -518.489)" fill="#fff"/>
        <path id="Path_35589" data-name="Path 35589" d="M612.78,461.48v34.286c0,3.633,1.256,6.143,4.627,6.143s4.492-2.379,4.492-6.079V461.48h4.757v34.15c0,6.806-3.1,10.575-9.381,10.575-6.079,0-9.183-3.437-9.183-10.439V461.48Z" transform="translate(-514.737 -461.48)" fill="#fff"/>
        <path id="Path_35590" data-name="Path 35590" d="M749.99,533.12h5.971c4.814,0,7.1,2.423,7.1,7.682v1.983c0,4.862-1.459,8.46-7.341,8.46h-2.225v14.343h-3.5V533.12Zm3.5,15.22h1.9c3.695,0,4.23-2.236,4.23-5.592v-1.74c0-2.626-.584-4.959-3.939-4.959h-2.188v12.3Z" transform="translate(-633.564 -521.469)" fill="#fff"/>
      </g>
      <g id="Group_20391" data-name="Group 20391" transform="translate(160.072 127.109)">
        <path id="Path_35591" data-name="Path 35591" d="M812.49,718.277a1.65,1.65,0,1,1-1.646-1.606,1.615,1.615,0,0,1,1.646,1.606Zm-2.891,0a1.245,1.245,0,0,0,1.253,1.282,1.284,1.284,0,0,0,0-2.567,1.249,1.249,0,0,0-1.253,1.284Zm.989.842h-.372v-1.606a3.274,3.274,0,0,1,.617-.048,1,1,0,0,1,.557.117.441.441,0,0,1,.157.353.412.412,0,0,1-.333.372v.02a.474.474,0,0,1,.3.392,1.157,1.157,0,0,0,.119.4h-.4a1.4,1.4,0,0,1-.128-.392c-.029-.176-.126-.256-.333-.256h-.176v.648Zm0-.91h.176c.207,0,.372-.068.372-.236s-.108-.247-.344-.247a.908.908,0,0,0-.207.02v.463Z" transform="translate(-809.19 -716.671)" fill="#fff"/>
      </g>
      <g id="Group_20392" data-name="Group 20392" transform="translate(34.52 133.909)">
        <path id="Path_35592" data-name="Path 35592" d="M37.09,759.58H40.3c1.857,0,2.573.555,2.573,1.716a1.437,1.437,0,0,1-1.357,1.507v.026a1.646,1.646,0,0,1,1.611,1.659c0,1.018-.745,1.895-2.591,1.895H37.09Zm.98,2.864h2.505c.82,0,1.322-.311,1.322-1.035,0-.632-.311-1.055-1.648-1.055H38.073Zm0,3.166h2.346c1.322,0,1.677-.518,1.677-1.177,0-.782-.538-1.216-1.734-1.216H38.07Z" transform="translate(-37.09 -759.404)" fill="#fff"/>
        <path id="Path_35593" data-name="Path 35593" d="M99.589,759.58h.969v4.063a3.177,3.177,0,0,1-6.332,0V759.58h.98v4.109a2.188,2.188,0,0,0,4.373,0Z" transform="translate(-84.944 -759.404)" fill="#fff"/>
        <path id="Path_35594" data-name="Path 35594" d="M152.632,766.379v-2.838l-3.232-3.966h1.262l2.459,3.148,2.461-3.157h1.262l-3.232,3.966v2.838Z" transform="translate(-131.138 -759.4)" fill="#fff"/>
        <path id="Path_35595" data-name="Path 35595" d="M241.565,770.01a1.705,1.705,0,1,1-1.705,1.705A1.705,1.705,0,0,1,241.565,770.01Z" transform="translate(-206.887 -768.137)" fill="#fff"/>
        <path id="Path_35596" data-name="Path 35596" d="M313.866,760.457c-.095-.952-1.064-1.216-2.168-1.216-.972,0-1.791.48-1.791,1.234,0,.368.22.745,1.064.881l2.536.441c1.1.189,1.611.82,1.611,1.659,0,1.357-1.216,2.177-3.232,2.177-1.932,0-3.051-.718-3.175-2.214h1.038c.029.914.9,1.443,2.2,1.443,1.412,0,2.2-.555,2.2-1.3,0-1.884-5.213-.178-5.213-3.025,0-1.311,1.1-2.064,2.968-2.064,1.412,0,2.913.423,3.007,1.983Z" transform="translate(-264.54 -758.472)" fill="#fff"/>
        <path id="Path_35597" data-name="Path 35597" d="M367.522,759.58h5.087v.771H368.5V762.5h3.847v.773H368.5v2.338h4.221v.773h-5.2v-6.8Z" transform="translate(-313.788 -759.404)" fill="#fff"/>
        <path id="Path_35598" data-name="Path 35598" d="M420.44,759.58h.98v6.03h3.92v.773h-4.9Z" transform="translate(-358.103 -759.404)" fill="#fff"/>
        <path id="Path_35599" data-name="Path 35599" d="M468.37,759.58h.98v6.03h3.922v.773h-4.9Z" transform="translate(-398.238 -759.404)" fill="#fff"/>
        <path id="Path_35600" data-name="Path 35600" d="M545.7,770.01a1.705,1.705,0,1,1-1.705,1.705A1.705,1.705,0,0,1,545.7,770.01Z" transform="translate(-461.562 -768.137)" fill="#fff"/>
        <path id="Path_35601" data-name="Path 35601" d="M615.5,766.384h-.98v-6.8h3.344c2.1,0,2.573.707,2.573,1.8a1.623,1.623,0,0,1-1.555,1.584v.018c.914.114,1.159.482,1.337,1.63a8.184,8.184,0,0,0,.385,1.763h-1.038c-.178-.483-.284-1.432-.463-2.2-.115-.489-.441-.839-1.716-.839h-1.895v3.034Zm0-3.807h2.232c1.035,0,1.668-.245,1.668-1.1,0-.828-.452-1.1-1.648-1.1H615.5Z" transform="translate(-520.622 -759.404)" fill="#fff"/>
        <path id="Path_35602" data-name="Path 35602" d="M671.652,759.58h5.087v.771h-4.1V762.5h3.847v.773h-3.847v2.338h4.221v.773H671.65v-6.8Z" transform="translate(-568.463 -759.404)" fill="#fff"/>
        <path id="Path_35603" data-name="Path 35603" d="M728.816,759.58h.978v6.8h-1.337l-4.164-5.805h-.02v5.805h-.981v-6.8h1.337l4.164,5.805h.02V759.58Z" transform="translate(-611.701 -759.404)" fill="#fff"/>
        <path id="Path_35604" data-name="Path 35604" d="M781.876,760.408H778.99v-.828h6.746v.828h-2.884v5.975h-.976Z" transform="translate(-658.347 -759.404)" fill="#fff"/>
      </g>
    </g>
  </g>
</svg>
