<svg xmlns="http://www.w3.org/2000/svg" width="61.642" height="68.64" viewBox="0 0 61.642 68.64">
  <g id="ic_services_3" transform="translate(-389.917 -307.304)">
    <g id="Group_90" data-name="Group 90" transform="translate(390.317 327.553)">
      <path id="Path_291" data-name="Path 291" d="M74.027,12.779H25.909A5.44,5.44,0,1,1,25.77,1.9H38.253V3.643H25.909a3.7,3.7,0,0,0-.139,7.392H74.027Z" transform="translate(-20.4 -1.9)" fill="#00b0e9"/>
      <path id="Path_292" data-name="Path 292" d="M25.784,13.18A5.84,5.84,0,0,1,25.77,1.5H38.653V4.043H25.909a3.3,3.3,0,0,0-.139,6.592H74.027a.4.4,0,0,1,.4.42v2.124H25.784ZM25.77,2.3a5.04,5.04,0,1,0,.13,10.079H73.627v-.943H25.77a3.92,3.92,0,0,1-2.862-1.249A4.219,4.219,0,0,1,21.743,7.27a3.92,3.92,0,0,1,1.249-2.862,4.219,4.219,0,0,1,2.917-1.165H37.853V2.3Z" transform="translate(-20.4 -1.9)" fill="#00b0e9"/>
    </g>
    <g id="Group_91" data-name="Group 91" transform="translate(446.092 331.613)">
      <rect id="Rectangle_25" data-name="Rectangle 25" width="1.743" height="7.043" fill="#00b0e9"/>
      <path id="Path_293" data-name="Path 293" d="M-.4-.4H2.143V7.443H-.4ZM1.343.4H.4V6.643h.943Z" fill="#00b0e9"/>
    </g>
    <g id="Group_92" data-name="Group 92" transform="translate(390.387 332.935)">
      <path id="Path_294" data-name="Path 294" d="M74.058,44.909H25.939a5.446,5.446,0,0,1-5.439-5.44V2.3h1.743V39.4a3.721,3.721,0,0,0,3.7,3.7H74.127a3.721,3.721,0,0,0,3.7-3.7V31.31H79.57v8.159a5.552,5.552,0,0,1-5.512,5.44Z" transform="translate(-20.5 -2.3)" fill="#00b0e9"/>
      <path id="Path_295" data-name="Path 295" d="M74.058,45.309H25.939a5.846,5.846,0,0,1-5.839-5.84V1.9h2.543V39.4a3.34,3.34,0,0,0,3.3,3.3H74.127a3.34,3.34,0,0,0,3.3-3.3V30.91H79.97v8.568A5.968,5.968,0,0,1,78.192,43.6,5.842,5.842,0,0,1,74.058,45.309ZM20.9,2.7V39.469a5.045,5.045,0,0,0,5.039,5.039H74.058a5.17,5.17,0,0,0,5.109-5.044V31.71h-.943V39.4a4.12,4.12,0,0,1-4.1,4.1H25.939a4.12,4.12,0,0,1-4.1-4.1V2.7Z" transform="translate(-20.5 -2.3)" fill="#00b0e9"/>
    </g>
    <g id="Group_93" data-name="Group 93" transform="translate(443.953 336.682)">
      <path id="Path_296" data-name="Path 296" d="M30.839,17.135H29.1v-9a3.721,3.721,0,0,0-3.7-3.7V2.7a5.446,5.446,0,0,1,5.439,5.439Z" transform="translate(-25.4 -2.7)" fill="#00b0e9"/>
      <path id="Path_297" data-name="Path 297" d="M31.239,17.535H28.7v-9.4a3.34,3.34,0,0,0-3.3-3.3H25V2.3h.4a5.846,5.846,0,0,1,5.839,5.839Zm-1.743-.8h.943v-8.6A5.046,5.046,0,0,0,25.8,3.116v.947a4.125,4.125,0,0,1,3.7,4.076Z" transform="translate(-25.4 -2.7)" fill="#00b0e9"/>
    </g>
    <g id="Group_94" data-name="Group 94" transform="translate(427.029 350.236)">
      <path id="Path_298" data-name="Path 298" d="M47.929,16.453H30.076a6.276,6.276,0,1,1,0-12.553H47.929ZM30.076,5.643a4.533,4.533,0,1,0,0,9.066H46.185V5.643Z" transform="translate(-23.8 -3.9)" fill="#00b0e9"/>
      <path id="Path_299" data-name="Path 299" d="M48.329,16.853H30.076a6.677,6.677,0,1,1,0-13.353H48.329ZM30.076,4.3a5.877,5.877,0,1,0,0,11.753H47.529V4.3ZM46.585,15.109H30.076a4.933,4.933,0,1,1,0-9.866H46.585ZM30.076,6.043a4.133,4.133,0,0,0,0,8.266H45.785V6.043Z" transform="translate(-23.8 -3.9)" fill="#00b0e9"/>
    </g>
    <g id="Group_95" data-name="Group 95" transform="translate(430.658 353.693)">
      <path id="Path_300" data-name="Path 300" d="M27.059,10.018a2.859,2.859,0,1,1,2.859-2.859h0A2.872,2.872,0,0,1,27.059,10.018Zm0-4.045a1.116,1.116,0,1,0,1.116,1.116,1.147,1.147,0,0,0-1.116-1.116Z" transform="translate(-24.2 -4.3)" fill="#00b0e9"/>
      <path id="Path_301" data-name="Path 301" d="M27.059,10.418a3.236,3.236,0,1,1,3.259-3.259,3.236,3.236,0,0,1-3.259,3.259Zm0-5.718A2.524,2.524,0,0,0,24.6,7.159a2.459,2.459,0,1,0,4.918,0A2.524,2.524,0,0,0,27.059,4.7Zm0,3.905a1.516,1.516,0,1,1,0-3.032,1.555,1.555,0,0,1,1.516,1.516,1.5,1.5,0,0,1-1.516,1.516Zm0-2.232a.716.716,0,1,0,.716.716.745.745,0,0,0-.716-.715Z" transform="translate(-24.2 -4.3)" fill="#00b0e9"/>
    </g>
    <g id="Group_96" data-name="Group 96" transform="translate(395.243 331.978)">
      <path id="Path_302" data-name="Path 302" d="M29.308,3.913h-7.6a.923.923,0,0,1-.907-.907.923.923,0,0,1,.907-.907h7.6a.923.923,0,0,1,.907.907.879.879,0,0,1-.907.907Z" transform="translate(-20.8 -2.1)" fill="#00b0e9"/>
      <path id="Path_303" data-name="Path 303" d="M29.308,4.313h-7.6A1.324,1.324,0,0,1,20.4,3.007,1.324,1.324,0,0,1,21.707,1.7h7.6a1.324,1.324,0,0,1,1.307,1.307,1.278,1.278,0,0,1-1.306,1.306ZM21.707,2.5a.527.527,0,0,0-.507.507.527.527,0,0,0,.507.507h7.6a.48.48,0,0,0,.507-.507.527.527,0,0,0-.507-.507Z" transform="translate(-20.8 -2.1)" fill="#00b0e9"/>
    </g>
    <g id="Group_104" data-name="Group 104" transform="translate(398.607 307.873)">
      <g id="Group_97" data-name="Group 97">
        <path id="Path_304" data-name="Path 304" d="M22.386,30.266,21.2,29.01,51.954,0,72.386,22.176l-8.159,8.089L62.972,29.01l6.9-6.9L51.814,2.511Z" transform="translate(-21.2)" fill="#00b0e9"/>
        <path id="Path_305" data-name="Path 305" d="M22.369,30.831l-1.735-1.837L51.974-.569,72.942,22.189,64.226,30.83l-1.82-1.82,6.916-6.91L51.794,3.079ZM63.538,29.01l.691.691,7.6-7.538L51.934.569,21.766,29.027l.636.674L51.834,1.942l18.6,20.176Z" transform="translate(-21.2)" fill="#00b0e9"/>
      </g>
      <g id="Group_98" data-name="Group 98" transform="translate(15.816 24.124)">
        <path id="Path_306" data-name="Path 306" d="M24.443,7.771H22.7A5.649,5.649,0,0,1,32.324,3.8,5.864,5.864,0,0,1,34,7.7H32.254a3.81,3.81,0,0,0-1.116-2.65,4,4,0,0,0-5.509,0,3.754,3.754,0,0,0-1.186,2.721Z" transform="translate(-22.7 -2.175)" fill="#00b0e9"/>
        <path id="Path_307" data-name="Path 307" d="M24.843,8.171H22.3v-.4a6.078,6.078,0,0,1,1.791-4.258h0a6.083,6.083,0,0,1,8.507,0h0a6.282,6.282,0,0,1,1.8,4.17l.02.419H31.854V7.7a3.427,3.427,0,0,0-1-2.364,3.6,3.6,0,0,0-4.953,0l-.007.007a3.365,3.365,0,0,0-1.055,2.424Zm-1.726-.8h.946a4.124,4.124,0,0,1,1.293-2.613,4.4,4.4,0,0,1,6.058,0l.007.006A4.212,4.212,0,0,1,32.633,7.3h.93a5.428,5.428,0,0,0-1.52-3.22,5.283,5.283,0,0,0-7.389,0,5.386,5.386,0,0,0-1.537,3.291Z" transform="translate(-22.7 -2.175)" fill="#00b0e9"/>
      </g>
      <g id="Group_99" data-name="Group 99" transform="translate(8.035 11.417)">
        <path id="Path_308" data-name="Path 308" d="M48.818,19.829l-1.255-1.255,3.557-3.557a5.544,5.544,0,0,1,0-6.625L46.168,3.441a5.544,5.544,0,0,1-6.625,0L23.155,19.829,21.9,18.574,39.543,1.07l.558.558a3.872,3.872,0,0,0,2.754,1.151A3.872,3.872,0,0,0,45.61,1.628L46.238,1,53.56,8.322l-.628.628a3.872,3.872,0,0,0,0,5.509l.628.628Z" transform="translate(-21.9 -1)" fill="#00b0e9"/>
        <path id="Path_309" data-name="Path 309" d="M48.818,20.4,47,18.574l3.6-3.6a5.958,5.958,0,0,1,0-6.535L46.123,3.961a5.968,5.968,0,0,1-3.267.978,5.968,5.968,0,0,1-3.267-.978L23.155,20.4l-1.822-1.822L39.544.5l.84.84a3.478,3.478,0,0,0,2.472,1.034,3.478,3.478,0,0,0,2.472-1.033l.91-.91,7.888,7.888-.91.91a3.458,3.458,0,0,0,0,4.943l.91.91Zm-26.351-1.82.688.688L39.506,2.913l.278.208a5.15,5.15,0,0,0,3.072,1.018,5.15,5.15,0,0,0,3.072-1.018l.278-.208,5.442,5.442-.208.278a5.147,5.147,0,0,0,0,6.145l.208.278-3.519,3.519.69.69,4.176-4.176-.345-.345a4.272,4.272,0,0,1,0-6.075l.345-.345L46.238,1.566l-.345.345a4.272,4.272,0,0,1-3.037,1.268A4.272,4.272,0,0,1,39.818,1.91l-.276-.276Z" transform="translate(-21.9 -1)" fill="#00b0e9"/>
      </g>
      <g id="Group_100" data-name="Group 100" transform="translate(27.427 7.707)">
        <rect id="Rectangle_26" data-name="Rectangle 26" width="1.674" height="1.743" transform="matrix(0.707, -0.708, 0.708, 0.707, 0, 1.184)" fill="#00b0e9"/>
        <path id="Path_310" data-name="Path 310" d="M-.4-.4H2.074V2.143H-.4ZM1.274.4H.4v.943h.874Z" transform="matrix(0.707, -0.708, 0.708, 0.707, 0, 1.184)" fill="#00b0e9"/>
      </g>
      <g id="Group_101" data-name="Group 101" transform="translate(41.015 21.403)">
        <rect id="Rectangle_27" data-name="Rectangle 27" width="1.674" height="1.743" transform="matrix(0.707, -0.708, 0.708, 0.707, 0, 1.184)" fill="#00b0e9"/>
        <path id="Path_311" data-name="Path 311" d="M-.4-.4H2.074V2.143H-.4ZM1.274.4H.4v.943h.874Z" transform="matrix(0.707, -0.708, 0.708, 0.707, 0, 1.184)" fill="#00b0e9"/>
      </g>
      <g id="Group_103" data-name="Group 103" transform="translate(28.162 20.05)">
        <g id="Group_102" data-name="Group 102">
          <rect id="Rectangle_28" data-name="Rectangle 28" width="2.511" height="1.743" transform="translate(0 1.775) rotate(-45)" fill="#00b0e9"/>
          <path id="Path_312" data-name="Path 312" d="M-.4-.4H2.911V2.143H-.4ZM2.111.4H.4v.943H2.111Z" transform="translate(0 1.775) rotate(-45)" fill="#00b0e9"/>
        </g>
      </g>
    </g>
  </g>
</svg>
