<svg xmlns="http://www.w3.org/2000/svg" width="15.748" height="15.796" viewBox="0 0 15.748 15.796">
  <path id="ic_story_add" d="M15.75,8.062a.814.814,0,0,1-.617.6,1.37,1.37,0,0,1-.26.018H8.638v.188c0,1.989-.008,3.979.005,5.967a.883.883,0,0,1-.621.971H7.714a.819.819,0,0,1-.6-.618,1.282,1.282,0,0,1-.017-.245V8.683H.8A.773.773,0,1,1,.754,7.138H7.1V6.949c0-1.989.008-3.979-.006-5.968A.883.883,0,0,1,7.713.01h.308a.812.812,0,0,1,.6.618,1.374,1.374,0,0,1,.018.26V7.133h.188c1.986,0,3.971.008,5.956-.006a.88.88,0,0,1,.969.623v.309Z" transform="translate(-0.004 -0.01)" fill="#fff"/>
</svg>
