<svg width="37" height="37" viewBox="0 0 37 37" fill="none" xmlns="http://www.w3.org/2000/svg">
<path d="M29.1313 15.915L29.3021 15.8064C29.4543 15.697 29.5564 15.5346 29.5868 15.3537C29.6172 15.1728 29.5736 14.9875 29.4652 14.8371C29.3568 14.6867 29.1921 14.5831 29.006 14.5481C28.8199 14.5131 28.627 14.5496 28.4683 14.6498C17.0734 22.3533 8.77776 15.0275 8.42917 14.714C8.2875 14.5922 8.10237 14.5286 7.91301 14.5366C7.72365 14.5445 7.54493 14.6234 7.4147 14.7566C7.28447 14.8898 7.21297 15.0667 7.21533 15.25C7.21769 15.4333 7.29374 15.6084 7.42736 15.7384C7.44299 15.7526 7.70272 15.983 8.17628 16.3219L6.71262 18.6493C6.61248 18.8091 6.58194 19.0008 6.6277 19.1824C6.67345 19.364 6.79177 19.5206 6.95673 19.618C7.0714 19.6849 7.20266 19.7204 7.33656 19.7209C7.4616 19.7207 7.5845 19.6895 7.69355 19.6303C7.8026 19.5712 7.89416 19.486 7.95951 19.3829L9.38704 17.1084C10.3538 17.6746 11.375 18.1489 12.4364 18.5247L11.7334 20.7982C11.7055 20.8867 11.696 20.9797 11.7055 21.0718C11.715 21.1639 11.7432 21.2532 11.7886 21.3347C11.834 21.4162 11.8956 21.4881 11.97 21.5465C12.0443 21.6048 12.1298 21.6482 12.2216 21.6744L12.4315 21.7046C12.588 21.7039 12.7401 21.6546 12.8655 21.564C12.9908 21.4734 13.0827 21.3463 13.1277 21.2014L13.8239 18.959C15.0491 19.2803 16.3086 19.464 17.5773 19.5066V21.7594C17.5773 21.9462 17.654 22.1253 17.7906 22.2574C17.9272 22.3895 18.1125 22.4637 18.3057 22.4637C18.4989 22.4637 18.6841 22.3895 18.8207 22.2574C18.9573 22.1253 19.0341 21.9462 19.0341 21.7594V19.4934C20.3089 19.4219 21.5714 19.2129 22.7982 18.8702L23.6946 21.157C23.7474 21.2908 23.8411 21.4059 23.9632 21.487C24.0852 21.5681 24.2299 21.6114 24.378 21.6111L24.6358 21.5668C24.7253 21.5341 24.8073 21.4846 24.8771 21.4213C24.9468 21.3579 25.003 21.2819 25.0423 21.1975C25.0817 21.1132 25.1035 21.0222 25.1064 20.9297C25.1094 20.8372 25.0935 20.745 25.0596 20.6585L24.1867 18.4302C25.4783 17.9634 26.7207 17.3782 27.8971 16.6826L29.0776 18.2065C29.1458 18.2944 29.2342 18.3658 29.3359 18.415C29.4376 18.4641 29.5497 18.4897 29.6634 18.4897C29.8211 18.4904 29.9746 18.4406 30.0999 18.3481C30.1766 18.2927 30.2413 18.2233 30.2903 18.1437C30.3392 18.0641 30.3715 17.976 30.3852 17.8843C30.3989 17.7927 30.3937 17.6993 30.3701 17.6096C30.3464 17.5199 30.3047 17.4356 30.2473 17.3614L29.1313 15.915Z" fill="#ADADAD"/>
</svg>
