<svg xmlns="http://www.w3.org/2000/svg" width="17.658" height="17.662" viewBox="0 0 17.658 17.662">
  <g id="ic_select_gry" transform="translate(0.003 -0.009)" opacity="0.35">
    <path id="Path_251" data-name="Path 251" d="M8.914,17.67H8.707c-.072-.014-.144-.035-.216-.042-.371-.038-.745-.053-1.113-.112a8.467,8.467,0,0,1-4.821-2.492A8.62,8.62,0,0,1,.008,8.463a8.706,8.706,0,0,1,.4-2.319A8.829,8.829,0,0,1,10.252.127,8.659,8.659,0,0,1,16.1,3.879a8.419,8.419,0,0,1,1.512,4.589,1.771,1.771,0,0,0,.043.252v.207c-.015.084-.033.167-.044.252a16.908,16.908,0,0,1-.228,1.686,8.8,8.8,0,0,1-8.218,6.763,1.747,1.747,0,0,0-.251.043ZM7.52,10.645a2.165,2.165,0,0,0-.144-.188Q6.364,9.442,5.35,8.429a.579.579,0,0,0-.6-.153.538.538,0,0,0-.4.457.594.594,0,0,0,.2.542c.816.813,1.639,1.618,2.438,2.447a.67.67,0,0,0,1.043,0c1.651-1.671,3.317-3.327,4.978-4.988a1.746,1.746,0,0,0,.142-.15.575.575,0,0,0-.272-.9.618.618,0,0,0-.655.192q-2.285,2.3-4.577,4.584a1.6,1.6,0,0,0-.131.185Z" fill="#909090"/>
  </g>
</svg>
