<svg width="32" height="32" viewBox="0 0 32 32" fill="none" xmlns="http://www.w3.org/2000/svg">
<path d="M25 0H7C3.134 0 0 3.134 0 7V25C0 28.866 3.134 32 7 32H25C28.866 32 32 28.866 32 25V7C32 3.134 28.866 0 25 0Z" fill="#41479B"/>
<path d="M31.9991 7.00063V8.53732L27.0354 11.7894H31.9991V13.4736H18.5254V-5.72205e-05H20.2096V10.2212L30.8928 3.22182C31.2712 3.81088 31.5633 4.46057 31.7522 5.15282" fill="#F5F5F5"/>
<path d="M0.470688 4.47226C0.641187 4.03226 0.854562 3.61363 1.10619 3.22182L11.7894 10.2212V-5.72205e-05H13.4736V13.4736H0V11.7894H4.96369L0 8.53732V6.99994C0 6.73082 0.01575 6.46538 0.0453125 6.20413" fill="#F5F5F5"/>
<path d="M0 24.7621V23.4626L4.96369 20.2105H0V18.5263H13.4737V32H11.7895V21.7787L1.10619 28.7781C0.691 28.1317 0.379563 27.4124 0.194625 26.6437" fill="#F5F5F5"/>
<path d="M31.5191 27.5519C31.3503 27.9831 31.1399 28.3936 30.8928 28.7782L20.2096 21.7787V32H18.5254V18.5263H31.9991V20.2105H27.0354L31.9991 23.4626V25C31.9991 25.2787 31.9823 25.5536 31.9506 25.8239" fill="#F5F5F5"/>
<path d="M18.5263 32H13.4737V18.5263H0V13.4737H13.4737V0H18.5263V13.4737H32V18.5263H18.5263V32Z" fill="#FF4B55"/>
<path d="M8.6493 11.789L0.0449219 6.20375C0.113297 5.59981 0.258297 5.01919 0.470359 4.47188L11.7428 11.7891L8.6493 11.789Z" fill="#FF4B55"/>
<path d="M21.5293 11.789L31.7534 5.15238C31.914 5.74094 32.0002 6.36013 32.0002 6.99956V7.00025L24.6228 11.7891L21.5293 11.789Z" fill="#FF4B55"/>
<path d="M10.1053 20.2103L0.194625 26.6436C0.0676875 26.1163 0 25.566 0 24.9998V24.7619L7.01175 20.2103H10.1053Z" fill="#FF4B55"/>
<path d="M23.3044 20.2104L31.9519 25.8238C31.8812 26.4265 31.7343 27.0059 31.5205 27.5518L20.2109 20.2104H23.3044Z" fill="#FF4B55"/>
</svg>
