<svg xmlns="http://www.w3.org/2000/svg" xmlns:xlink="http://www.w3.org/1999/xlink" width="25.392" height="25.392" viewBox="0 0 25.392 25.392">
  <defs>
    <clipPath id="clip-path">
      <rect id="Rectangle_5505" data-name="Rectangle 5505" width="25.392" height="25.392" fill="#fff"/>
    </clipPath>
  </defs>
  <g id="ic_user_role" clip-path="url(#clip-path)">
    <path id="Path_35049" data-name="Path 35049" d="M956.435,327.242l-.04-.358a.258.258,0,0,0-.285-.228h-.022l-.385-3.076a1.751,1.751,0,0,0-1.183-1.444l-2.458-.819a.435.435,0,0,0-.533.228l-.014.028-.6-.2a.876.876,0,0,1-.6-.831v-1.413l1.886-.785a2.627,2.627,0,0,0,1.616-2.425v-.438a1.313,1.313,0,0,0,1.04-2.115,31.624,31.624,0,0,0,.709-4.89,2.562,2.562,0,0,0-1.751-2.189c-2.3-.985-5.178-1.277-6.128-2.187h0c-.95.91-3.831,1.2-6.128,2.187a2.562,2.562,0,0,0-1.751,2.189,31.62,31.62,0,0,0,.709,4.892,1.314,1.314,0,0,0,1.042,2.113v.438a2.626,2.626,0,0,0,1.616,2.425l1.886.786v1.412a.876.876,0,0,1-.6.831l-.6.2-.013-.028a.435.435,0,0,0-.533-.228l-2.458.819a1.75,1.75,0,0,0-1.184,1.444l-.384,3.076h-.023a.257.257,0,0,0-.284.228l-.04.358a.258.258,0,0,0,.227.285l.641.071v1.019a.876.876,0,0,0,.875.876h14.009a.876.876,0,0,0,.876-.876V327.6l.641-.071a.258.258,0,0,0,.224-.287Z" transform="translate(-934.99 -304.1)" fill="#f6b47b"/>
    <path id="Path_35050" data-name="Path 35050" d="M945.622,320.575v1.449a.877.877,0,0,1-.425.75,5.946,5.946,0,0,0,5.678-2.2Z" transform="translate(-935.552 -305.581)" fill="#e2a071"/>
    <path id="Path_35051" data-name="Path 35051" d="M955.651,308.478a2.563,2.563,0,0,0-1.751-2.189c-2.3-.985-5.178-1.277-6.128-2.187h0c-.95.91-3.83,1.2-6.128,2.187a2.563,2.563,0,0,0-1.751,2.189,40.527,40.527,0,0,0,.876,5.692h14.009a40.551,40.551,0,0,0,.873-5.692Z" transform="translate(-935.075 -304.1)" fill="#9d6e48"/>
    <path id="Path_35052" data-name="Path 35052" d="M947.77,304.1h0c-.95.91-3.83,1.2-6.128,2.187a2.563,2.563,0,0,0-1.751,2.189,40.536,40.536,0,0,0,.876,5.692h3.941v-3.941c0-2.918,3.064-4.3,3.064-6.129h0Z" transform="translate(-935.075 -304.1)" fill="#8d5f3d"/>
    <path id="Path_35053" data-name="Path 35053" d="M955.734,325.281a1.751,1.751,0,0,0-1.184-1.444l-2.458-.819a.436.436,0,0,0-.533.228,10.508,10.508,0,0,1-3.842,4.443,10.509,10.509,0,0,1-3.842-4.443.436.436,0,0,0-.534-.228l-2.457.819a1.751,1.751,0,0,0-1.184,1.444l-.417,3.331,3.619.39v2.189h9.631V329l3.618-.39Z" transform="translate(-935.021 -305.798)" fill="#4f6e7f"/>
    <path id="Path_35054" data-name="Path 35054" d="M953.944,313.418v-.876a2.189,2.189,0,0,0-2.189-2.19h-7.88a2.189,2.189,0,0,0-2.19,2.19v.876a1.314,1.314,0,0,0,0,2.627v.438a2.627,2.627,0,0,0,1.617,2.425l2.829,1.179a4.378,4.378,0,0,0,3.367,0l2.829-1.179a2.626,2.626,0,0,0,1.616-2.425v-.438a1.314,1.314,0,1,0,0-2.627Z" transform="translate(-935.119 -304.662)" fill="#fdc88e"/>
    <path id="Path_35055" data-name="Path 35055" d="M945.14,315.515a.439.439,0,0,1-.438-.438v-.438a.438.438,0,1,1,.875,0v.438a.44.44,0,0,1-.437.438Z" transform="translate(-935.508 -305.008)" fill="#623f33"/>
    <path id="Path_35056" data-name="Path 35056" d="M951.874,315.515a.44.44,0,0,1-.438-.438v-.438a.438.438,0,0,1,.876,0v.438a.439.439,0,0,1-.438.438Z" transform="translate(-936.113 -305.008)" fill="#623f33"/>
    <path id="Path_35057" data-name="Path 35057" d="M948.334,318.894a3.649,3.649,0,0,1-2-.525.438.438,0,0,1,.492-.724,3.215,3.215,0,0,0,3.01,0,.438.438,0,1,1,.492.724A3.644,3.644,0,0,1,948.334,318.894Z" transform="translate(-935.638 -305.311)" fill="#e2a071"/>
    <path id="Path_35058" data-name="Path 35058" d="M943.984,318a2.053,2.053,0,0,1-.547-1.4v-6.2a2.19,2.19,0,0,0-1.752,2.145v.876a1.314,1.314,0,1,0,0,2.627v.438a2.627,2.627,0,0,0,1.617,2.425l2.829,1.179a4.173,4.173,0,0,0,.422.15,18.23,18.23,0,0,1-2.569-2.24Z" transform="translate(-935.119 -304.666)" fill="#f6b47b"/>
    <path id="Path_35059" data-name="Path 35059" d="M942.9,329.472v-.991a1.751,1.751,0,0,0-.428-1.147l-2.409-2.78a1.739,1.739,0,0,0-.365.867l-.457,3.658C939.935,329.121,941.787,329.338,942.9,329.472Z" transform="translate(-935.017 -305.938)" fill="#33546a"/>
    <path id="Path_35060" data-name="Path 35060" d="M942.87,329.285l-3.609-.4a.258.258,0,0,0-.285.228l-.04.358a.258.258,0,0,0,.228.285l3.705.411Z" transform="translate(-934.99 -306.327)" fill="#4f6e7f"/>
    <path id="Path_35061" data-name="Path 35061" d="M953.841,329.472v-.991a1.752,1.752,0,0,1,.428-1.147l2.409-2.78a1.755,1.755,0,0,1,.365.867l.457,3.658C956.8,329.121,954.951,329.338,953.841,329.472Z" transform="translate(-936.329 -305.938)" fill="#33546a"/>
    <path id="Path_35062" data-name="Path 35062" d="M953.841,329.285l3.609-.4a.259.259,0,0,1,.285.228l.039.358a.257.257,0,0,1-.227.285l-3.705.411Z" transform="translate(-936.329 -306.327)" fill="#4f6e7f"/>
    <path id="Path_35063" data-name="Path 35063" d="M950.83,310.113a9.872,9.872,0,0,1,2.74,2.846,5.859,5.859,0,0,0-.8-2.846Z" transform="translate(-936.059 -304.64)" fill="#9d6e48"/>
  </g>
</svg>
