<svg xmlns="http://www.w3.org/2000/svg" width="10.145" height="9.73" viewBox="0 0 10.145 9.73">
  <g id="ic_verifed" transform="translate(0 -0.004)">
    <path id="Path_438" data-name="Path 438" d="M0,4.986V4.748a1.246,1.246,0,0,1,.46-.683c.086-.072.177-.138.264-.209.392-.314.368-.249.24-.747a5.442,5.442,0,0,1-.14-.636.789.789,0,0,1,.525-.868,1.021,1.021,0,0,1,.258-.065c.227-.02.454-.037.681-.04a.39.39,0,0,0,.433-.312,1.32,1.32,0,0,1,.053-.149A2.471,2.471,0,0,1,3.1.343.757.757,0,0,1,4.009.057,5.524,5.524,0,0,1,4.68.429c.106.06.209.126.319.177a.193.193,0,0,0,.147,0,3.727,3.727,0,0,0,.343-.2A5.415,5.415,0,0,1,6.1.067a.769.769,0,0,1,.95.286,1.4,1.4,0,0,1,.158.273c.092.218.177.44.259.662a.268.268,0,0,0,.272.2c.082,0,.164.011.246.016.187.013.376.016.562.041a.831.831,0,0,1,.757.638,1.4,1.4,0,0,1-.044.645c-.053.211-.107.421-.16.632a.159.159,0,0,0,.056.176c.082.066.16.137.24.207a5.855,5.855,0,0,1,.511.451.821.821,0,0,1,0,1.155,1.221,1.221,0,0,1-.145.148c-.144.12-.3.231-.438.355-.287.251-.261.183-.179.56.044.2.113.393.154.593A.845.845,0,0,1,8.526,8.2a5.047,5.047,0,0,1-.651.038.4.4,0,0,0-.458.321.8.8,0,0,1-.049.139,5.7,5.7,0,0,1-.3.653.733.733,0,0,1-.774.369,1.261,1.261,0,0,1-.407-.142,5.037,5.037,0,0,1-.539-.349.423.423,0,0,0-.557,0,5.2,5.2,0,0,1-.486.322A.869.869,0,0,1,2.932,9.1c-.092-.207-.168-.422-.246-.635a.284.284,0,0,0-.29-.216c-.079,0-.158-.01-.237-.015-.187-.013-.376-.016-.562-.041a.833.833,0,0,1-.758-.637A1.4,1.4,0,0,1,.883,6.91c.053-.211.107-.421.16-.632A.158.158,0,0,0,.988,6.1C.9,6.031.821,5.952.732,5.884A1.64,1.64,0,0,1,0,4.986Zm4.532.353a.827.827,0,0,0-.069-.093c-.226-.227-.45-.456-.68-.679A.423.423,0,1,0,3.2,5.18L4.211,6.189a.426.426,0,0,0,.667,0l1-1L6.935,4.131a.427.427,0,0,0,.106-.5.421.421,0,0,0-.7-.107q-.72.716-1.436,1.435l-.38.382Z" fill="#0a84ff"/>
  </g>
</svg>
