<svg xmlns="http://www.w3.org/2000/svg" width="13.842" height="15.29" viewBox="0 0 13.842 15.29">
  <g id="ic_video" transform="translate(0.095 0.1)">
    <g id="Group_20319" data-name="Group 20319" transform="translate(0.004)">
      <path id="Path_32784" data-name="Path 32784" d="M1.154,15.052a3.081,3.081,0,0,1-.317-.105A1.3,1.3,0,0,1,.01,13.7c-.011-.838,0-1.675,0-2.513q0-4.894,0-9.787A1.339,1.339,0,0,1,1.165.016,1.593,1.593,0,0,1,1.429,0h6.1A1.346,1.346,0,0,1,8.944,1.409c0,.455,0,.909,0,1.376A4.136,4.136,0,0,1,12.6,4.177a3.986,3.986,0,0,1,1.042,2.868,4.042,4.042,0,0,1-1.453,3.048,4.134,4.134,0,0,1-3.247.985v2.5A1.348,1.348,0,0,1,7.82,15.034c-.008,0-.015.012-.022.018H1.154ZM1.877.588H1.436A.763.763,0,0,0,.6,1.424q0,1.646,0,3.292v8.936a.755.755,0,0,0,.763.811q3.117,0,6.233,0a.749.749,0,0,0,.765-.764c0-.877,0-1.754,0-2.631a.129.129,0,0,0-.1-.146c-.229-.083-.452-.184-.681-.27A.313.313,0,0,0,7.4,10.64c-.554.144-1.106.294-1.66.44-.313.082-.492-.095-.41-.4.143-.539.286-1.078.435-1.615a.356.356,0,0,0-.026-.278,3.725,3.725,0,0,1-.427-1.6A4.091,4.091,0,0,1,7.451,3.29a9.068,9.068,0,0,1,.9-.41c0-.52.012-1.059,0-1.6A.728.728,0,0,0,7.682.595c-.2-.016-.4,0-.61,0q-.183.561-.363,1.116C6.633,1.941,6.558,2,6.316,2H2.641c-.251,0-.322-.053-.4-.3L1.877.588ZM6.01,10.4c.468-.126.9-.237,1.336-.361a.518.518,0,0,1,.42.046,3.527,3.527,0,0,0,2.039.42,3.587,3.587,0,1,0-3.544-1.99.8.8,0,0,1,.064.708.464.464,0,0,0-.017.056L6.01,10.4Zm.441-9.8H2.5c.083.256.159.5.245.745a.138.138,0,0,0,.107.066q1.622.005,3.244,0A.139.139,0,0,0,6.2,1.343c.086-.243.163-.49.246-.748Z" transform="translate(-0.004)" fill="#fff" stroke="#fff" stroke-width="0.2"/>
      <path id="Path_32785" data-name="Path 32785" d="M88.2,298.591a1.046,1.046,0,1,1,1.055-1.037A1.049,1.049,0,0,1,88.2,298.591Zm0-.588a.46.46,0,0,0,.463-.452A.46.46,0,1,0,88.2,298Z" transform="translate(-83.736 -284.856)" fill="#fff" stroke="#fff" stroke-width="0.2"/>
      <path id="Path_32786" data-name="Path 32786" d="M182.381,137.915a.214.214,0,0,0-.011.044c.046.424-.167.655-.684.644-.916-.021-1.832-.005-2.748-.006-.4,0-.572-.173-.572-.574q0-1.051,0-2.1a.486.486,0,0,1,.553-.548c.955,0,1.911.01,2.866-.005a.512.512,0,0,1,.582.58.819.819,0,0,0,.005.11l.441-.212c.277-.132.482-.008.483.3q0,.845,0,1.69a.3.3,0,0,1-.474.3c-.144-.068-.287-.14-.441-.216Zm-.614.085v-2.027h-2.805V138Zm.934-1.423c-.327.081-.343.109-.335.564,0,.128.1.2.335.248Z" transform="translate(-171.362 -130.051)" fill="#fff" stroke="#fff" stroke-width="0.1"/>
    </g>
  </g>
</svg>
