<svg xmlns="http://www.w3.org/2000/svg" width="73.143" height="72.547" viewBox="0 0 73.143 72.547">
  <g id="ic_white_logo" transform="translate(-34.02 -12.62)">
    <g id="Group_20389" data-name="Group 20389" transform="translate(34.02 12.62)">
      <path id="Path_35582" data-name="Path 35582" d="M34.02,50.159H45.061l25.53-25.517V12.62Z" transform="translate(-34.02 -12.62)" fill="#fff"/>
      <path id="Path_35583" data-name="Path 35583" d="M458.949,40.058V15.319H450.5V31.385L432.22,12.62V24.643l25.53,25.517h11.041Z" transform="translate(-395.649 -12.62)" fill="#fff"/>
    </g>
    <g id="Group_20390" data-name="Group 20390" transform="translate(34.02 53.844)">
      <path id="Path_35584" data-name="Path 35584" d="M34.02,461.48h2.687v10.336h5.186V461.48h2.649V486.4H41.893V474.242H36.707v12.164H34.02Z" transform="translate(-34.02 -461.48)" fill="#fff"/>
      <path id="Path_35585" data-name="Path 35585" d="M190.442,531.653v9.457c0,3.285-1.376,4.941-4.156,4.941-2.919,0-3.982-1.853-3.982-4.914v-9.484c0-3.172,1.461-4.853,4.1-4.853C189.178,526.8,190.442,528.71,190.442,531.653Zm-6.1-.083v9.715c0,2.134.758,2.948,2.021,2.948,1.32,0,2.022-.815,2.022-3.033v-9.63c0-1.991-.674-2.948-2.049-2.948-1.344,0-1.99.9-1.99,2.952Z" transform="translate(-168.681 -520.801)" fill="#fff"/>
      <path id="Path_35586" data-name="Path 35586" d="M297.4,529.56v14.573c0,1.544.534,2.613,1.965,2.613s1.909-1.012,1.909-2.583v-14.6H303.3v14.515c0,2.892-1.32,4.492-3.982,4.492-2.583,0-3.9-1.46-3.9-4.436V529.56Z" transform="translate(-271.402 -523.307)" fill="#fff"/>
      <path id="Path_35587" data-name="Path 35587" d="M402.863,540.537v1.095c0,1.768.622,2.7,1.937,2.7,1.348,0,1.853-.956,1.853-3.032,0-2.19-.478-3.033-2.443-4.577-2.022-1.573-3.033-2.527-3.033-5.279,0-2.385.73-4.661,3.65-4.633,2.807,0,3.538,1.853,3.538,4.239v.871h-1.991V531.1c0-1.544-.281-2.555-1.573-2.555s-1.629,1.12-1.629,2.583c0,1.742.365,2.414,2.078,3.706,2.613,1.966,3.426,3.088,3.426,6.177,0,2.639-.758,5.055-3.931,5.055-3,0-3.875-1.991-3.875-4.465v-1.068Z" transform="translate(-367.178 -520.807)" fill="#fff"/>
      <path id="Path_35588" data-name="Path 35588" d="M513.756,539.246h-4.212v7.243h4.773l-.249,1.825H507.55V529.56h6.43v1.854h-4.436v5.98h4.212Z" transform="translate(-464.06 -523.307)" fill="#fff"/>
      <path id="Path_35589" data-name="Path 35589" d="M610.739,461.48v19.365c0,2.052.709,3.469,2.613,3.469s2.537-1.344,2.537-3.433v-19.4h2.687v19.287c0,3.844-1.753,5.973-5.3,5.973-3.433,0-5.187-1.941-5.187-5.9V461.48Z" transform="translate(-555.366 -461.48)" fill="#fff"/>
      <path id="Path_35590" data-name="Path 35590" d="M749.99,533.12h3.372c2.719,0,4.009,1.369,4.009,4.339v1.12c0,2.746-.824,4.778-4.146,4.778h-1.257v8.1h-1.977V533.12Zm1.977,8.6h1.071c2.087,0,2.389-1.263,2.389-3.158v-.983c0-1.483-.33-2.8-2.225-2.8h-1.236v6.948Z" transform="translate(-684.234 -526.54)" fill="#fff"/>
    </g>
    <g id="Group_20391" data-name="Group 20391" transform="translate(105.213 77.282)">
      <path id="Path_35591" data-name="Path 35591" d="M811.054,717.578a.932.932,0,1,1-.93-.907.912.912,0,0,1,.93.907Zm-1.633,0a.7.7,0,0,0,.708.724.725.725,0,0,0,0-1.45.706.706,0,0,0-.708.725Zm.559.475h-.21v-.907a1.851,1.851,0,0,1,.348-.027.563.563,0,0,1,.315.066.249.249,0,0,1,.088.2.233.233,0,0,1-.188.21v.011a.268.268,0,0,1,.167.221.654.654,0,0,0,.067.227h-.226a.789.789,0,0,1-.072-.221c-.016-.1-.071-.144-.188-.144h-.1v.366Zm0-.514h.1c.117,0,.21-.039.21-.133s-.061-.139-.194-.139a.512.512,0,0,0-.117.011v.261Z" transform="translate(-809.19 -716.671)" fill="#fff"/>
    </g>
    <g id="Group_20392" data-name="Group 20392" transform="translate(34.302 81.122)">
      <path id="Path_35592" data-name="Path 35592" d="M37.09,759.58H38.9c1.049,0,1.453.314,1.453.969a.811.811,0,0,1-.767.851v.015a.929.929,0,0,1,.91.937c0,.575-.421,1.07-1.463,1.07H37.09Zm.554,1.618h1.415c.463,0,.747-.175.747-.585,0-.357-.175-.6-.931-.6H37.645Zm0,1.788h1.325c.747,0,.947-.292.947-.665,0-.442-.3-.687-.979-.687H37.644Z" transform="translate(-37.09 -759.481)" fill="#fff"/>
      <path id="Path_35593" data-name="Path 35593" d="M97.255,759.58H97.8v2.295a1.794,1.794,0,0,1-3.576,0V759.58h.554V761.9a1.236,1.236,0,0,0,2.47,0Z" transform="translate(-88.984 -759.481)" fill="#fff"/>
      <path id="Path_35594" data-name="Path 35594" d="M151.225,763.415v-1.6l-1.825-2.24h.713l1.389,1.778,1.39-1.783h.713l-1.825,2.24v1.6Z" transform="translate(-139.086 -759.472)" fill="#fff"/>
      <path id="Path_35595" data-name="Path 35595" d="M240.823,770.01a.963.963,0,1,1-.963.963A.963.963,0,0,1,240.823,770.01Z" transform="translate(-221.237 -768.952)" fill="#fff"/>
      <path id="Path_35596" data-name="Path 35596" d="M311.622,759.593c-.053-.537-.6-.687-1.224-.687-.549,0-1.012.271-1.012.7,0,.208.124.421.6.5l1.432.249c.622.107.91.463.91.937,0,.767-.687,1.229-1.825,1.229-1.091,0-1.723-.406-1.793-1.25h.586c.016.516.51.815,1.244.815.8,0,1.244-.314,1.244-.734,0-1.064-2.944-.1-2.944-1.708,0-.74.622-1.166,1.676-1.166.8,0,1.645.239,1.7,1.12Z" transform="translate(-283.763 -758.472)" fill="#fff"/>
      <path id="Path_35597" data-name="Path 35597" d="M367.521,759.58h2.873v.435h-2.321v1.213h2.173v.437h-2.173v1.32h2.384v.437H367.52V759.58Z" transform="translate(-337.173 -759.481)" fill="#fff"/>
      <path id="Path_35598" data-name="Path 35598" d="M420.44,759.58h.554v3.406h2.214v.437H420.44Z" transform="translate(-385.233 -759.481)" fill="#fff"/>
      <path id="Path_35599" data-name="Path 35599" d="M468.37,759.58h.554v3.406h2.215v.437H468.37Z" transform="translate(-428.76 -759.481)" fill="#fff"/>
      <path id="Path_35600" data-name="Path 35600" d="M544.953,770.01a.963.963,0,1,1-.963.963A.963.963,0,0,1,544.953,770.01Z" transform="translate(-497.435 -768.952)" fill="#fff"/>
      <path id="Path_35601" data-name="Path 35601" d="M615.074,763.423h-.554V759.58h1.889c1.187,0,1.453.4,1.453,1.017a.917.917,0,0,1-.878.895v.01c.516.065.655.272.755.921a4.626,4.626,0,0,0,.218,1h-.586c-.1-.273-.161-.809-.261-1.244-.065-.276-.249-.474-.969-.474h-1.07v1.713Zm0-2.15h1.26c.585,0,.942-.138.942-.622,0-.468-.255-.622-.931-.622h-1.272Z" transform="translate(-561.487 -759.481)" fill="#fff"/>
      <path id="Path_35602" data-name="Path 35602" d="M671.651,759.58h2.873v.435H672.21v1.213h2.173v.437H672.21v1.32h2.384v.437H671.65V759.58Z" transform="translate(-613.371 -759.481)" fill="#fff"/>
      <path id="Path_35603" data-name="Path 35603" d="M726.413,759.58h.552v3.843h-.755l-2.352-3.279h-.011v3.279h-.554V759.58h.755l2.352,3.279h.011V759.58Z" transform="translate(-660.267 -759.481)" fill="#fff"/>
      <path id="Path_35604" data-name="Path 35604" d="M780.62,760.048h-1.63v-.468h3.81v.468h-1.629v3.375h-.551Z" transform="translate(-710.852 -759.481)" fill="#fff"/>
    </g>
  </g>
</svg>
