<svg width="105" height="87" viewBox="0 0 105 87" fill="none" xmlns="http://www.w3.org/2000/svg">
<path d="M15.1744 85.9984H14.597V82.7325C14.597 82.4867 14.597 82.1707 14.6331 81.7844C14.5609 81.9951 14.5248 82.1707 14.4887 82.2409L12.7924 85.9632H12.5036L10.8073 82.276C10.7712 82.1707 10.6991 81.9951 10.663 81.7844C10.6991 81.9951 10.6991 82.3111 10.6991 82.7325V85.9632H10.1216V81.1172H10.8795L12.3954 84.4884C12.5036 84.7342 12.5758 84.9449 12.6119 85.0853H12.648C12.7563 84.8044 12.8285 84.6288 12.9007 84.4884L14.4526 81.1172H15.1744V85.9984Z" fill="#4DC9F5"/>
<path d="M28.3837 84.1411L27.5897 82.0693C27.5536 81.999 27.5536 81.8937 27.5175 81.7532C27.4814 81.8937 27.4814 81.999 27.4453 82.0693L26.6874 84.1411H28.3837ZM29.7552 86.0023H29.1056L28.5642 84.6328H26.4348L25.9295 86.0023H25.3159L27.2288 81.1562H27.8423L29.7552 86.0023Z" fill="#4DC9F5"/>
<path d="M40.4745 81.683V83.4388H41.2685C41.4129 83.4388 41.5573 83.4037 41.6655 83.3686C41.7738 83.3335 41.8821 83.2632 41.9904 83.193C42.0986 83.1228 42.1708 83.0174 42.2069 82.9121C42.243 82.8067 42.2791 82.6663 42.2791 82.5258C42.2791 82.28 42.2069 82.0693 42.0265 81.9288C41.846 81.7883 41.5934 81.7181 41.2685 81.7181H40.4745V81.683ZM43.4701 86.0023H42.7844L41.9543 84.6328C41.8821 84.4923 41.8099 84.387 41.7377 84.3167C41.6655 84.2114 41.5933 84.1411 41.5212 84.106C41.449 84.0358 41.3768 84.0007 41.2685 83.9656C41.1963 83.9304 41.0881 83.9304 40.9798 83.9304H40.4745V86.0023H39.897V81.1562H41.3768C41.5934 81.1562 41.8099 81.1914 41.9904 81.2265C42.1708 81.2967 42.3513 81.3669 42.4596 81.4723C42.6039 81.5776 42.7122 81.7181 42.7844 81.8937C42.8566 82.0693 42.8927 82.2449 42.8927 82.4555C42.8927 82.6311 42.8566 82.7716 42.8205 82.9121C42.7844 83.0525 42.6761 83.193 42.6039 83.2983C42.4956 83.4037 42.3874 83.509 42.2791 83.5793C42.1347 83.6495 41.9904 83.7197 41.8099 83.7549C41.8821 83.79 41.9543 83.8251 42.0265 83.8953C42.0986 83.9304 42.1347 84.0007 42.2069 84.0709C42.243 84.1411 42.3152 84.2114 42.3874 84.2816C42.4235 84.3518 42.4956 84.4572 42.5678 84.5625L43.4701 86.0023Z" fill="#4DC9F5"/>
<path d="M56.4996 81.683H55.0559V86.0023H54.4785V81.683H53.0348V81.1562H56.4996V81.683Z" fill="#4DC9F5"/>
<path d="M67.7602 81.1562V81.6479H67.2549V85.5107H67.7602V86.0023H66.2083V85.5107H66.6774V81.6479H66.2083V81.1562H67.7602Z" fill="#4DC9F5"/>
<path d="M80.4641 84.1411L79.6701 82.0693C79.634 81.999 79.634 81.8937 79.5979 81.7532C79.5618 81.8937 79.5618 81.999 79.5257 82.0693L78.7678 84.1411H80.4641ZM81.8356 86.0023H81.186L80.6446 84.6328H78.5152L78.0099 86.0023H77.3602L79.2731 81.1562H79.8867L81.8356 86.0023Z" fill="#4DC9F5"/>
<path d="M94.5761 86.0023H91.9775V81.1562H92.5549V85.4756H94.5761V86.0023Z" fill="#4DC9F5"/>
<path fill-rule="evenodd" clip-rule="evenodd" d="M98.1853 72.5868C103.346 70.1988 105.548 64.1588 103.094 59.1372L77.0355 5.76033C74.5812 0.738687 68.3734 -1.40341 63.2123 0.984502C58.0512 3.37241 55.8496 9.41243 58.3038 14.4341L84.3621 67.8109C86.8163 72.8326 93.0602 74.9747 98.1853 72.5868Z" fill="#4DC9F5"/>
<path fill-rule="evenodd" clip-rule="evenodd" d="M67.6518 72.5855C72.813 70.1976 75.0146 64.1576 72.5603 59.1359L46.5021 5.75908C44.7336 2.10698 40.98 0 37.0821 0C33.1842 0 29.4306 2.10698 27.6621 5.75908L1.53165 59.1711C-0.922592 64.1927 1.27901 70.2327 6.44014 72.6206C11.6013 75.0085 17.8091 72.8664 20.2633 67.8448L37.046 33.501L53.8287 67.8448C56.2829 72.8313 62.4907 74.9734 67.6518 72.5855Z" fill="#006197"/>
</svg>
