<svg xmlns="http://www.w3.org/2000/svg" width="32.343" height="47.171" viewBox="0 0 32.343 47.171">
  <g id="Group_20372" data-name="Group 20372" transform="translate(-914.999 -331.99)">
    <g id="Layer_1-2" transform="translate(914.998 373.2)" opacity="0.14">
      <path id="Path_30556" data-name="Path 30556" d="M14.982,0h2.39c.134,0,.267.009.4.01q3.175.036,5.981.227c7.932.538,10.9,1.794,6.646,2.81-1.01.241-2.065.479-3.1.718q-4.26.985-8.518,1.971a10.136,10.136,0,0,1-1.909.2c-.088,0-.158.015-.236.022h-.92c-.079-.008-.149-.019-.237-.022a10.173,10.173,0,0,1-1.909-.2Q7.837,4.407,2.087,3.078C.31,2.668-.334,2.232.164,1.767c.86-.8,5.626-1.491,11.8-1.7C12.953.038,13.976.023,14.982,0Zm1.2,1.023c-3.64,0-6.617.374-6.627.833s2.959.84,6.612.841,6.616-.374,6.627-.833-2.958-.84-6.612-.84Z" transform="translate(0)" fill="#232837"/>
    </g>
    <g id="ic_add_property_map_pin" transform="translate(914.998 331.99)">
      <path id="Path_30556-2" data-name="Path 30556" d="M14.982,0h2.39a3.812,3.812,0,0,0,.4.081,15.479,15.479,0,0,1,5.981,1.8A16.462,16.462,0,0,1,30.4,24.117c-1.01,1.906-2.065,3.79-3.1,5.684q-4.26,7.8-8.518,15.593a3.012,3.012,0,0,1-1.909,1.6c-.088.023-.158.117-.236.177h-.92c-.079-.06-.149-.152-.237-.177a3.025,3.025,0,0,1-1.909-1.6Q7.837,34.872,2.087,24.359A16.475,16.475,0,0,1,.164,13.981,16.311,16.311,0,0,1,11.967.561C12.953.3,13.976.183,14.982,0Z" transform="translate(0)" fill="#232837"/>
    </g>
    <circle id="Ellipse_2569" data-name="Ellipse 2569" cx="12.5" cy="12.5" r="12.5" transform="translate(919 336)" fill="#00b0e9"/>
    <g id="ic_logo" transform="translate(889.355 327.38)">
      <g id="Group_20389" data-name="Group 20389" transform="translate(34.02 12.62)">
        <path id="Path_35582" data-name="Path 35582" d="M34.02,20.621h2.353l5.441-5.439V12.62Z" transform="translate(-34.02 -12.62)" fill="#fff"/>
        <path id="Path_35583" data-name="Path 35583" d="M437.917,18.468V13.2h-1.8v3.424l-3.9-4v2.563l5.441,5.439h2.353Z" transform="translate(-424.425 -12.62)" fill="#fff"/>
      </g>
      <g id="Group_20390" data-name="Group 20390" transform="translate(34.02 21.406)">
        <path id="Path_35584" data-name="Path 35584" d="M34.02,461.48h.573v2.2H35.7v-2.2h.565v5.312H35.7V464.2H34.593v2.592H34.02Z" transform="translate(-34.02 -461.48)" fill="#fff"/>
        <path id="Path_35585" data-name="Path 35585" d="M184.039,527.834v2.016c0,.7-.293,1.053-.886,1.053-.622,0-.849-.395-.849-1.047v-2.021c0-.676.311-1.034.874-1.034C183.769,526.8,184.039,527.207,184.039,527.834Zm-1.3-.018v2.071c0,.455.162.628.431.628s.431-.174.431-.646v-2.053c0-.424-.144-.628-.437-.628s-.424.192-.424.629Z" transform="translate(-179.4 -525.521)" fill="#fff"/>
        <path id="Path_35586" data-name="Path 35586" d="M295.837,529.56v3.106c0,.329.114.557.419.557s.407-.216.407-.551V529.56h.431v3.094c0,.616-.281.957-.849.957-.551,0-.832-.311-.832-.945V529.56Z" transform="translate(-290.295 -528.227)" fill="#fff"/>
        <path id="Path_35587" data-name="Path 35587" d="M401.3,529.733v.233c0,.377.133.574.413.574s.395-.2.395-.646a1.018,1.018,0,0,0-.521-.975,1.218,1.218,0,0,1-.646-1.125c0-.508.156-.993.778-.987.6,0,.754.395.754.9v.186h-.424v-.174c0-.329-.06-.544-.335-.544s-.347.239-.347.551c0,.371.078.515.443.79a1.365,1.365,0,0,1,.73,1.317c0,.563-.162,1.077-.838,1.077-.64,0-.826-.424-.826-.952v-.227Z" transform="translate(-393.69 -525.528)" fill="#fff"/>
        <path id="Path_35588" data-name="Path 35588" d="M508.873,531.624h-.9v1.544h1.017l-.053.389H507.55v-4h1.37v.4h-.945v1.275h.9Z" transform="translate(-498.281 -528.227)" fill="#fff"/>
        <path id="Path_35589" data-name="Path 35589" d="M608.655,461.48v4.127c0,.437.151.739.557.739s.541-.286.541-.732V461.48h.573v4.111c0,.819-.374,1.273-1.129,1.273-.732,0-1.105-.414-1.105-1.257V461.48Z" transform="translate(-596.853 -461.48)" fill="#fff"/>
        <path id="Path_35590" data-name="Path 35590" d="M749.99,533.12h.719c.58,0,.854.292.854.925v.239c0,.585-.176,1.018-.884,1.018h-.268v1.727h-.421V533.12Zm.421,1.832h.228c.445,0,.509-.269.509-.673v-.209c0-.316-.07-.6-.474-.6h-.263v1.481Z" transform="translate(-735.975 -531.718)" fill="#fff"/>
      </g>
      <g id="Group_20391" data-name="Group 20391" transform="translate(49.194 26.402)">
        <path id="Path_35591" data-name="Path 35591" d="M809.587,716.864a.2.2,0,1,1-.2-.193.194.194,0,0,1,.2.193Zm-.348,0a.15.15,0,0,0,.151.154.155.155,0,0,0,0-.309.151.151,0,0,0-.151.155Zm.119.1h-.045v-.193a.4.4,0,0,1,.074-.006.12.12,0,0,1,.067.014.053.053,0,0,1,.019.042.05.05,0,0,1-.04.045v0a.057.057,0,0,1,.036.047.143.143,0,0,0,.014.048h-.048a.17.17,0,0,1-.015-.047c0-.021-.015-.031-.04-.031h-.021v.078Zm0-.11h.021c.025,0,.045-.008.045-.028s-.013-.03-.041-.03a.107.107,0,0,0-.025,0v.056Z" transform="translate(-809.19 -716.671)" fill="#fff"/>
      </g>
      <g id="Group_20392" data-name="Group 20392" transform="translate(34.08 27.22)">
        <path id="Path_35592" data-name="Path 35592" d="M37.09,759.58h.387c.224,0,.31.067.31.207a.173.173,0,0,1-.163.181v0a.2.2,0,0,1,.194.2c0,.123-.09.228-.312.228H37.09Zm.118.345h.3c.1,0,.159-.037.159-.125s-.037-.127-.2-.127h-.262Zm0,.381h.282c.159,0,.2-.062.2-.142s-.065-.146-.209-.146h-.276Z" transform="translate(-37.09 -759.559)" fill="#fff"/>
        <path id="Path_35593" data-name="Path 35593" d="M94.872,759.58h.117v.489a.382.382,0,0,1-.762,0v-.489h.118v.495a.263.263,0,0,0,.526,0Z" transform="translate(-93.109 -759.559)" fill="#fff"/>
        <path id="Path_35594" data-name="Path 35594" d="M149.789,760.387v-.342l-.389-.477h.152l.3.379.3-.38h.152l-.389.477v.342Z" transform="translate(-147.202 -759.547)" fill="#fff"/>
        <path id="Path_35595" data-name="Path 35595" d="M240.065,770.01a.205.205,0,1,1-.205.205A.205.205,0,0,1,240.065,770.01Z" transform="translate(-235.891 -769.785)" fill="#fff"/>
        <path id="Path_35596" data-name="Path 35596" d="M309.331,758.711c-.011-.115-.128-.146-.261-.146-.117,0-.216.058-.216.148,0,.044.027.09.128.106l.305.053c.133.023.194.1.194.2,0,.163-.146.262-.389.262s-.367-.086-.382-.266h.125c0,.11.109.174.265.174s.265-.067.265-.156c0-.227-.628-.021-.628-.364,0-.158.133-.249.357-.249.17,0,.351.051.362.239Z" transform="translate(-303.393 -758.472)" fill="#fff"/>
        <path id="Path_35597" data-name="Path 35597" d="M367.52,759.58h.612v.093h-.495v.259h.463v.093h-.463v.281h.508v.093h-.626v-.819Z" transform="translate(-361.052 -759.559)" fill="#fff"/>
        <path id="Path_35598" data-name="Path 35598" d="M420.44,759.58h.118v.726h.472v.093h-.59Z" transform="translate(-412.936 -759.559)" fill="#fff"/>
        <path id="Path_35599" data-name="Path 35599" d="M468.37,759.58h.118v.726h.472v.093h-.59Z" transform="translate(-459.928 -759.559)" fill="#fff"/>
        <path id="Path_35600" data-name="Path 35600" d="M544.2,770.01a.205.205,0,1,1-.205.205A.205.205,0,0,1,544.2,770.01Z" transform="translate(-534.068 -769.785)" fill="#fff"/>
        <path id="Path_35601" data-name="Path 35601" d="M614.638,760.4h-.118v-.819h.4c.253,0,.31.085.31.217a.2.2,0,0,1-.187.191v0c.11.014.14.058.161.2a.979.979,0,0,0,.046.212h-.125c-.021-.058-.034-.172-.056-.265-.014-.059-.053-.1-.207-.1h-.228v.365Zm0-.458h.269c.125,0,.2-.029.2-.133s-.054-.133-.2-.133h-.271Z" transform="translate(-603.217 -759.559)" fill="#fff"/>
        <path id="Path_35602" data-name="Path 35602" d="M671.65,759.58h.612v.093h-.493v.259h.463v.093h-.463v.281h.508v.093h-.628v-.819Z" transform="translate(-659.229 -759.559)" fill="#fff"/>
        <path id="Path_35603" data-name="Path 35603" d="M723.958,759.58h.118v.819h-.161l-.5-.7h0v.7h-.118v-.819h.161l.5.7h0v-.7Z" transform="translate(-709.86 -759.559)" fill="#fff"/>
        <path id="Path_35604" data-name="Path 35604" d="M779.337,759.68h-.347v-.1h.812v.1h-.347v.719h-.117Z" transform="translate(-764.467 -759.559)" fill="#fff"/>
      </g>
    </g>
  </g>
</svg>
