<svg width="14" height="18" viewBox="0 0 14 18" fill="none" xmlns="http://www.w3.org/2000/svg">
<path d="M11.594 17.667H1.65591C1.21695 17.6663 0.796166 17.4916 0.485775 17.1812C0.175384 16.8708 0.000698425 16.4501 0 16.0111V8.28179C0.000465592 7.84267 0.175048 7.42167 0.485464 7.11109C0.795881 6.8005 1.21679 6.6257 1.65591 6.625H11.594C12.0329 6.6257 12.4537 6.80038 12.7641 7.11077C13.0745 7.42117 13.2492 7.84195 13.2499 8.28091V16.0102C13.2494 16.4493 13.0748 16.8703 12.7644 17.1809C12.454 17.4915 12.0331 17.6663 11.594 17.667ZM1.65591 7.72894C1.50959 7.72917 1.36933 7.7874 1.26586 7.89086C1.1624 7.99433 1.10417 8.13459 1.10394 8.28091V16.0102C1.10417 16.1565 1.1624 16.2968 1.26586 16.4003C1.36933 16.5037 1.50959 16.562 1.65591 16.5622H11.594C11.7403 16.562 11.8806 16.5037 11.984 16.4003C12.0875 16.2968 12.1457 16.1565 12.146 16.0102V8.28091C12.1457 8.13459 12.0875 7.99433 11.984 7.89086C11.8806 7.7874 11.7403 7.72917 11.594 7.72894H1.65591Z" fill="#006197"/>
<path d="M10.4903 7.72932C10.4178 7.72932 10.346 7.71504 10.279 7.6873C10.2121 7.65957 10.1512 7.61891 10.1 7.56765C10.0487 7.5164 10.0081 7.45555 9.98032 7.38858C9.95258 7.32161 9.93831 7.24984 9.93831 7.17735V4.41663C9.93831 3.9816 9.85262 3.55083 9.68614 3.14892C9.51966 2.747 9.27565 2.38181 8.96804 2.0742C8.66043 1.76659 8.29524 1.52258 7.89333 1.3561C7.49141 1.18962 7.06064 1.10394 6.62561 1.10394C6.19058 1.10394 5.75982 1.18962 5.3579 1.3561C4.95599 1.52258 4.5908 1.76659 4.28319 2.0742C3.97557 2.38181 3.73156 2.747 3.56509 3.14892C3.39861 3.55083 3.31292 3.9816 3.31292 4.41663V7.17735C3.31292 7.32374 3.25477 7.46414 3.15125 7.56765C3.04774 7.67117 2.90734 7.72932 2.76095 7.72932C2.61456 7.72932 2.47417 7.67117 2.37065 7.56765C2.26714 7.46414 2.20898 7.32374 2.20898 7.17735V4.41663C2.20898 3.24527 2.67431 2.12188 3.50259 1.2936C4.33086 0.465322 5.45425 0 6.62561 0C7.79698 0 8.92036 0.465322 9.74864 1.2936C10.5769 2.12188 11.0422 3.24527 11.0422 4.41663V7.17735C11.0422 7.32374 10.9841 7.46414 10.8806 7.56765C10.7771 7.67117 10.6367 7.72932 10.4903 7.72932Z" fill="#006197"/>
<path d="M6.62475 12.5141C6.33363 12.5141 6.04905 12.4278 5.807 12.2661C5.56494 12.1043 5.37628 11.8745 5.26488 11.6055C5.15347 11.3366 5.12432 11.0406 5.18112 10.7551C5.23791 10.4695 5.3781 10.2073 5.58395 10.0014C5.7898 9.79558 6.05207 9.65539 6.33759 9.5986C6.62312 9.5418 6.91907 9.57095 7.18803 9.68236C7.45698 9.79376 7.68687 9.98242 7.8486 10.2245C8.01034 10.4665 8.09666 10.7511 8.09666 11.0422C8.0962 11.4325 7.94097 11.8066 7.66504 12.0825C7.3891 12.3585 7.01498 12.5137 6.62475 12.5141ZM6.62475 10.6734C6.55197 10.6734 6.48082 10.695 6.42031 10.7354C6.3598 10.7758 6.31263 10.8333 6.28478 10.9005C6.25693 10.9678 6.24964 11.0418 6.26384 11.1131C6.27804 11.1845 6.31309 11.2501 6.36455 11.3015C6.41601 11.353 6.48158 11.3881 6.55296 11.4023C6.62434 11.4165 6.69833 11.4092 6.76557 11.3813C6.83281 11.3535 6.89028 11.3063 6.93071 11.2458C6.97115 11.1853 6.99273 11.1141 6.99273 11.0413C6.9925 10.9438 6.95365 10.8504 6.88469 10.7814C6.81573 10.7124 6.72227 10.6736 6.62475 10.6734Z" fill="#006197"/>
<path d="M6.62521 14.7185C6.47882 14.7185 6.33842 14.6604 6.23491 14.5569C6.1314 14.4534 6.07324 14.313 6.07324 14.1666V12.1418C6.07324 11.9954 6.1314 11.855 6.23491 11.7515C6.33842 11.648 6.47882 11.5898 6.62521 11.5898C6.7716 11.5898 6.912 11.648 7.01551 11.7515C7.11903 11.855 7.17718 11.9954 7.17718 12.1418V14.1666C7.17718 14.313 7.11903 14.4534 7.01551 14.5569C6.912 14.6604 6.7716 14.7185 6.62521 14.7185Z" fill="#006197"/>
</svg>
